G75*
%MOIN*%
%OFA0B0*%
%FSLAX25Y25*%
%IPPOS*%
%LPD*%
%AMOC8*
5,1,8,0,0,1.08239X$1,22.5*
%
%ADD10C,0.00100*%
%ADD11R,0.07874X0.06299*%
%ADD12R,0.04000X0.03800*%
%ADD13C,0.00591*%
%ADD14C,0.09500*%
%ADD15R,0.04000X0.04500*%
%ADD16C,0.00661*%
%ADD17R,0.04134X0.08661*%
%ADD18R,0.03937X0.04134*%
%ADD19C,0.04000*%
%ADD20C,0.04724*%
%ADD21R,0.03937X0.06693*%
%ADD22R,0.06425X0.06425*%
%ADD23C,0.06425*%
%ADD24C,0.01000*%
%ADD25C,0.02400*%
%ADD26C,0.02000*%
%ADD27C,0.01600*%
%ADD28C,0.01200*%
%ADD29C,0.04000*%
%ADD30C,0.03937*%
D10*
X0090095Y0095933D02*
X0210345Y0095933D01*
X0210490Y0095939D01*
X0210636Y0095948D01*
X0210781Y0095961D01*
X0210925Y0095978D01*
X0211069Y0096000D01*
X0211213Y0096024D01*
X0211356Y0096053D01*
X0211497Y0096086D01*
X0211638Y0096122D01*
X0211778Y0096163D01*
X0211917Y0096207D01*
X0212055Y0096255D01*
X0212191Y0096306D01*
X0212325Y0096361D01*
X0212459Y0096420D01*
X0212590Y0096483D01*
X0212720Y0096549D01*
X0212848Y0096618D01*
X0212974Y0096691D01*
X0213098Y0096767D01*
X0213220Y0096847D01*
X0213340Y0096930D01*
X0213457Y0097016D01*
X0213572Y0097105D01*
X0213685Y0097197D01*
X0213795Y0097293D01*
X0213902Y0097391D01*
X0214007Y0097492D01*
X0214109Y0097596D01*
X0214208Y0097703D01*
X0214304Y0097812D01*
X0214397Y0097924D01*
X0214487Y0098038D01*
X0214574Y0098155D01*
X0214658Y0098274D01*
X0214739Y0098395D01*
X0214816Y0098519D01*
X0214890Y0098644D01*
X0214960Y0098772D01*
X0215027Y0098901D01*
X0215090Y0099032D01*
X0215150Y0099165D01*
X0215207Y0099299D01*
X0215259Y0099435D01*
X0215308Y0099572D01*
X0215353Y0099710D01*
X0215394Y0099850D01*
X0215432Y0099991D01*
X0215466Y0100132D01*
X0215496Y0100275D01*
X0215522Y0100418D01*
X0215544Y0100562D01*
X0215562Y0100706D01*
X0215577Y0100851D01*
X0215587Y0100996D01*
X0215593Y0101142D01*
X0215596Y0101287D01*
X0215595Y0101433D01*
X0215595Y0191433D01*
X0215596Y0191434D02*
X0215592Y0191582D01*
X0215584Y0191729D01*
X0215573Y0191877D01*
X0215557Y0192024D01*
X0215538Y0192171D01*
X0215515Y0192318D01*
X0215488Y0192463D01*
X0215457Y0192608D01*
X0215422Y0192752D01*
X0215383Y0192895D01*
X0215341Y0193037D01*
X0215295Y0193177D01*
X0215245Y0193317D01*
X0215191Y0193455D01*
X0215134Y0193591D01*
X0215073Y0193726D01*
X0215008Y0193860D01*
X0214940Y0193991D01*
X0214869Y0194121D01*
X0214794Y0194249D01*
X0214715Y0194375D01*
X0214634Y0194498D01*
X0214549Y0194619D01*
X0214461Y0194739D01*
X0214370Y0194855D01*
X0214275Y0194969D01*
X0214178Y0195081D01*
X0214078Y0195190D01*
X0213975Y0195296D01*
X0213869Y0195400D01*
X0213760Y0195501D01*
X0213649Y0195598D01*
X0213535Y0195693D01*
X0213419Y0195785D01*
X0213300Y0195873D01*
X0213179Y0195959D01*
X0213056Y0196041D01*
X0212931Y0196120D01*
X0212803Y0196195D01*
X0212674Y0196267D01*
X0212542Y0196336D01*
X0212409Y0196401D01*
X0212275Y0196462D01*
X0212138Y0196520D01*
X0212000Y0196574D01*
X0211861Y0196625D01*
X0211721Y0196672D01*
X0211579Y0196715D01*
X0211436Y0196754D01*
X0211292Y0196790D01*
X0211148Y0196821D01*
X0211002Y0196849D01*
X0210856Y0196873D01*
X0210709Y0196893D01*
X0210562Y0196909D01*
X0210415Y0196921D01*
X0210267Y0196929D01*
X0210119Y0196933D01*
X0209970Y0196934D01*
X0209970Y0196933D02*
X0084720Y0196933D01*
X0084720Y0101183D01*
X0084724Y0101040D01*
X0084732Y0100896D01*
X0084743Y0100753D01*
X0084758Y0100609D01*
X0084777Y0100467D01*
X0084800Y0100325D01*
X0084827Y0100183D01*
X0084858Y0100043D01*
X0084892Y0099903D01*
X0084931Y0099764D01*
X0084973Y0099627D01*
X0085018Y0099490D01*
X0085068Y0099355D01*
X0085121Y0099222D01*
X0085177Y0099089D01*
X0085238Y0098959D01*
X0085301Y0098830D01*
X0085369Y0098702D01*
X0085439Y0098577D01*
X0085513Y0098453D01*
X0085590Y0098332D01*
X0085671Y0098213D01*
X0085755Y0098096D01*
X0085841Y0097981D01*
X0085931Y0097869D01*
X0086024Y0097759D01*
X0086120Y0097652D01*
X0086219Y0097547D01*
X0086321Y0097445D01*
X0086425Y0097346D01*
X0086532Y0097250D01*
X0086641Y0097156D01*
X0086753Y0097066D01*
X0086868Y0096979D01*
X0086984Y0096895D01*
X0087103Y0096814D01*
X0087224Y0096736D01*
X0087348Y0096662D01*
X0087473Y0096591D01*
X0087600Y0096523D01*
X0087729Y0096459D01*
X0087859Y0096398D01*
X0087991Y0096341D01*
X0088125Y0096288D01*
X0088260Y0096238D01*
X0088396Y0096192D01*
X0088533Y0096149D01*
X0088672Y0096110D01*
X0088812Y0096075D01*
X0088952Y0096044D01*
X0089093Y0096017D01*
X0089235Y0095993D01*
X0089378Y0095974D01*
X0089521Y0095958D01*
X0089664Y0095946D01*
X0089808Y0095938D01*
X0089952Y0095934D01*
X0090096Y0095933D01*
D11*
X0146316Y0166433D03*
X0146316Y0176433D03*
X0183875Y0176433D03*
X0183875Y0166433D03*
D12*
X0186442Y0154933D03*
X0179749Y0154933D03*
D13*
X0137709Y0165579D02*
X0137709Y0166957D01*
X0139481Y0166957D01*
X0139481Y0165579D01*
X0137709Y0165579D01*
X0137709Y0166169D02*
X0139481Y0166169D01*
X0139481Y0166759D02*
X0137709Y0166759D01*
X0137709Y0169909D02*
X0137709Y0171287D01*
X0139481Y0171287D01*
X0139481Y0169909D01*
X0137709Y0169909D01*
X0137709Y0170499D02*
X0139481Y0170499D01*
X0139481Y0171089D02*
X0137709Y0171089D01*
X0135209Y0117287D02*
X0135209Y0115909D01*
X0135209Y0117287D02*
X0136981Y0117287D01*
X0136981Y0115909D01*
X0135209Y0115909D01*
X0135209Y0116499D02*
X0136981Y0116499D01*
X0136981Y0117089D02*
X0135209Y0117089D01*
X0135209Y0112957D02*
X0135209Y0111579D01*
X0135209Y0112957D02*
X0136981Y0112957D01*
X0136981Y0111579D01*
X0135209Y0111579D01*
X0135209Y0112169D02*
X0136981Y0112169D01*
X0136981Y0112759D02*
X0135209Y0112759D01*
D14*
X0197595Y0159740D03*
X0197595Y0173520D03*
D15*
X0157845Y0152933D03*
X0150845Y0152933D03*
X0154345Y0144933D03*
D16*
X0131946Y0121270D02*
X0131946Y0119726D01*
X0130244Y0119726D01*
X0130244Y0121270D01*
X0131946Y0121270D01*
X0131946Y0120386D02*
X0130244Y0120386D01*
X0130244Y0121046D02*
X0131946Y0121046D01*
X0131946Y0117155D02*
X0131946Y0115611D01*
X0130244Y0115611D01*
X0130244Y0117155D01*
X0131946Y0117155D01*
X0131946Y0116271D02*
X0130244Y0116271D01*
X0130244Y0116931D02*
X0131946Y0116931D01*
D17*
X0133902Y0191433D03*
X0122288Y0191433D03*
D18*
X0128095Y0185429D03*
D19*
X0205595Y0138205D02*
X0209595Y0138205D01*
X0209595Y0109661D02*
X0205595Y0109661D01*
D20*
X0196847Y0114386D03*
X0196847Y0133480D03*
D21*
X0129075Y0103933D03*
X0114115Y0103933D03*
D22*
X0190095Y0101433D03*
X0190095Y0191433D03*
D23*
X0180095Y0191433D03*
X0170095Y0191433D03*
X0160095Y0191433D03*
X0150095Y0191433D03*
X0140095Y0191433D03*
X0140095Y0101433D03*
X0150095Y0101433D03*
X0160095Y0101433D03*
X0170095Y0101433D03*
X0180095Y0101433D03*
D24*
X0175854Y0099879D02*
X0174336Y0099879D01*
X0174608Y0100535D02*
X0173921Y0098877D01*
X0173027Y0097983D01*
X0177163Y0097983D01*
X0176270Y0098877D01*
X0175583Y0100535D01*
X0175583Y0102331D01*
X0176270Y0103989D01*
X0177539Y0105259D01*
X0179198Y0105946D01*
X0180993Y0105946D01*
X0182651Y0105259D01*
X0183921Y0103989D01*
X0184608Y0102331D01*
X0184608Y0100535D01*
X0183921Y0098877D01*
X0183027Y0097983D01*
X0185583Y0097983D01*
X0185583Y0105184D01*
X0186344Y0105946D01*
X0193846Y0105946D01*
X0194095Y0105697D01*
X0194095Y0111959D01*
X0193742Y0112311D01*
X0193185Y0113657D01*
X0193185Y0115114D01*
X0193742Y0116460D01*
X0194095Y0116813D01*
X0194095Y0131053D01*
X0193742Y0131406D01*
X0193185Y0132752D01*
X0193185Y0134209D01*
X0193742Y0135555D01*
X0194095Y0135907D01*
X0194095Y0148933D01*
X0213545Y0148933D01*
X0213545Y0191411D01*
X0213470Y0192095D01*
X0212931Y0193355D01*
X0211951Y0194313D01*
X0210679Y0194823D01*
X0209995Y0194883D01*
X0209981Y0194883D01*
X0209144Y0194874D01*
X0209134Y0194883D01*
X0194608Y0194883D01*
X0194608Y0187682D01*
X0193846Y0186920D01*
X0190628Y0186920D01*
X0184590Y0180883D01*
X0188350Y0180883D01*
X0189112Y0180121D01*
X0189112Y0178233D01*
X0193753Y0178233D01*
X0194168Y0178649D01*
X0196392Y0179570D01*
X0198799Y0179570D01*
X0201022Y0178649D01*
X0202724Y0176947D01*
X0203645Y0174723D01*
X0203645Y0172316D01*
X0202724Y0170093D01*
X0201022Y0168391D01*
X0198799Y0167470D01*
X0196392Y0167470D01*
X0194168Y0168391D01*
X0192466Y0170093D01*
X0191545Y0172316D01*
X0191545Y0174633D01*
X0189112Y0174633D01*
X0189112Y0172745D01*
X0188350Y0171983D01*
X0179399Y0171983D01*
X0178638Y0172745D01*
X0178638Y0179633D01*
X0177841Y0179633D01*
X0174395Y0176187D01*
X0174395Y0159886D01*
X0174895Y0159386D01*
X0174895Y0157480D01*
X0173548Y0156133D01*
X0171642Y0156133D01*
X0170295Y0157480D01*
X0170295Y0159386D01*
X0170795Y0159886D01*
X0170795Y0177679D01*
X0175295Y0182179D01*
X0176350Y0183233D01*
X0181850Y0183233D01*
X0185941Y0187324D01*
X0185583Y0187682D01*
X0185583Y0194883D01*
X0183027Y0194883D01*
X0183921Y0193989D01*
X0184608Y0192331D01*
X0184608Y0190535D01*
X0183921Y0188877D01*
X0182651Y0187607D01*
X0180993Y0186920D01*
X0179198Y0186920D01*
X0179148Y0186941D01*
X0175395Y0183187D01*
X0175395Y0183187D01*
X0174341Y0182133D01*
X0164895Y0182133D01*
X0164895Y0177483D01*
X0166298Y0177483D01*
X0167645Y0176136D01*
X0167645Y0174230D01*
X0167145Y0173730D01*
X0167145Y0150233D01*
X0169048Y0150233D01*
X0170395Y0148886D01*
X0170395Y0146980D01*
X0170195Y0146780D01*
X0170195Y0137086D01*
X0170395Y0136886D01*
X0170395Y0135603D01*
X0177195Y0128803D01*
X0177195Y0120586D01*
X0177645Y0120136D01*
X0177645Y0118230D01*
X0176298Y0116883D01*
X0175191Y0116883D01*
X0175341Y0116733D01*
X0176048Y0116733D01*
X0177395Y0115386D01*
X0177395Y0113480D01*
X0176048Y0112133D01*
X0175341Y0112133D01*
X0172841Y0109633D01*
X0158850Y0109633D01*
X0157795Y0110687D01*
X0147895Y0120587D01*
X0147895Y0120136D01*
X0148395Y0119636D01*
X0148395Y0118233D01*
X0150048Y0118233D01*
X0151395Y0116886D01*
X0151395Y0114980D01*
X0150048Y0113633D01*
X0149841Y0113633D01*
X0146895Y0110687D01*
X0146895Y0110687D01*
X0145841Y0109633D01*
X0145495Y0109633D01*
X0145495Y0109533D01*
X0175225Y0109533D01*
X0177995Y0112303D01*
X0177995Y0142303D01*
X0179225Y0143533D01*
X0179225Y0143533D01*
X0180295Y0144603D01*
X0180295Y0144886D01*
X0181642Y0146233D01*
X0183548Y0146233D01*
X0184895Y0144886D01*
X0184895Y0142980D01*
X0183548Y0141633D01*
X0183265Y0141633D01*
X0182195Y0140563D01*
X0182195Y0129733D01*
X0183548Y0129733D01*
X0184895Y0128386D01*
X0184895Y0127679D01*
X0188841Y0123733D01*
X0189548Y0123733D01*
X0190895Y0122386D01*
X0190895Y0120480D01*
X0189548Y0119133D01*
X0187642Y0119133D01*
X0186295Y0120480D01*
X0186295Y0121187D01*
X0182350Y0125133D01*
X0182195Y0125133D01*
X0182195Y0110563D01*
X0180965Y0109333D01*
X0176965Y0105333D01*
X0172472Y0105333D01*
X0172651Y0105259D01*
X0173921Y0103989D01*
X0174608Y0102331D01*
X0174608Y0100535D01*
X0174608Y0100878D02*
X0175583Y0100878D01*
X0175583Y0101877D02*
X0174608Y0101877D01*
X0174382Y0102875D02*
X0175808Y0102875D01*
X0176222Y0103874D02*
X0173969Y0103874D01*
X0173038Y0104872D02*
X0177152Y0104872D01*
X0177502Y0105871D02*
X0179016Y0105871D01*
X0178501Y0106869D02*
X0194095Y0106869D01*
X0194095Y0105871D02*
X0193921Y0105871D01*
X0194095Y0107868D02*
X0179499Y0107868D01*
X0180498Y0108866D02*
X0194095Y0108866D01*
X0194095Y0109865D02*
X0181497Y0109865D01*
X0182195Y0110863D02*
X0194095Y0110863D01*
X0194095Y0111862D02*
X0182195Y0111862D01*
X0182195Y0112860D02*
X0193515Y0112860D01*
X0193185Y0113859D02*
X0182195Y0113859D01*
X0182195Y0114857D02*
X0193185Y0114857D01*
X0193492Y0115856D02*
X0182195Y0115856D01*
X0182195Y0116854D02*
X0194095Y0116854D01*
X0194095Y0117853D02*
X0182195Y0117853D01*
X0182195Y0118851D02*
X0194095Y0118851D01*
X0194095Y0119850D02*
X0190264Y0119850D01*
X0190895Y0120848D02*
X0194095Y0120848D01*
X0194095Y0121847D02*
X0190895Y0121847D01*
X0190436Y0122845D02*
X0194095Y0122845D01*
X0194095Y0123844D02*
X0188730Y0123844D01*
X0187732Y0124842D02*
X0194095Y0124842D01*
X0194095Y0125841D02*
X0186733Y0125841D01*
X0185734Y0126839D02*
X0194095Y0126839D01*
X0194095Y0127838D02*
X0184895Y0127838D01*
X0184445Y0128836D02*
X0194095Y0128836D01*
X0194095Y0129835D02*
X0182195Y0129835D01*
X0182195Y0130833D02*
X0194095Y0130833D01*
X0193566Y0131832D02*
X0182195Y0131832D01*
X0182195Y0132830D02*
X0193185Y0132830D01*
X0193185Y0133829D02*
X0182195Y0133829D01*
X0182195Y0134827D02*
X0193441Y0134827D01*
X0194014Y0135826D02*
X0182195Y0135826D01*
X0182195Y0136824D02*
X0194095Y0136824D01*
X0194095Y0137823D02*
X0182195Y0137823D01*
X0182195Y0138821D02*
X0194095Y0138821D01*
X0194095Y0139820D02*
X0182195Y0139820D01*
X0182450Y0140818D02*
X0194095Y0140818D01*
X0194095Y0141817D02*
X0183732Y0141817D01*
X0184730Y0142815D02*
X0194095Y0142815D01*
X0194095Y0143814D02*
X0184895Y0143814D01*
X0184895Y0144812D02*
X0194095Y0144812D01*
X0194095Y0145811D02*
X0183970Y0145811D01*
X0181220Y0145811D02*
X0170195Y0145811D01*
X0170195Y0144812D02*
X0180295Y0144812D01*
X0179506Y0143814D02*
X0170195Y0143814D01*
X0170195Y0142815D02*
X0178508Y0142815D01*
X0177995Y0141817D02*
X0170195Y0141817D01*
X0170195Y0140818D02*
X0177995Y0140818D01*
X0177995Y0139820D02*
X0170195Y0139820D01*
X0170195Y0138821D02*
X0177995Y0138821D01*
X0177995Y0137823D02*
X0170195Y0137823D01*
X0170395Y0136824D02*
X0177995Y0136824D01*
X0177995Y0135826D02*
X0170395Y0135826D01*
X0171171Y0134827D02*
X0177995Y0134827D01*
X0177995Y0133829D02*
X0172169Y0133829D01*
X0173168Y0132830D02*
X0177995Y0132830D01*
X0177995Y0131832D02*
X0174166Y0131832D01*
X0175165Y0130833D02*
X0177995Y0130833D01*
X0177995Y0129835D02*
X0176163Y0129835D01*
X0177162Y0128836D02*
X0177995Y0128836D01*
X0177995Y0127838D02*
X0177195Y0127838D01*
X0177195Y0126839D02*
X0177995Y0126839D01*
X0177995Y0125841D02*
X0177195Y0125841D01*
X0177195Y0124842D02*
X0177995Y0124842D01*
X0177995Y0123844D02*
X0177195Y0123844D01*
X0177195Y0122845D02*
X0177995Y0122845D01*
X0177995Y0121847D02*
X0177195Y0121847D01*
X0177195Y0120848D02*
X0177995Y0120848D01*
X0177995Y0119850D02*
X0177645Y0119850D01*
X0177645Y0118851D02*
X0177995Y0118851D01*
X0177995Y0117853D02*
X0177267Y0117853D01*
X0177995Y0116854D02*
X0175220Y0116854D01*
X0176925Y0115856D02*
X0177995Y0115856D01*
X0177995Y0114857D02*
X0177395Y0114857D01*
X0177395Y0113859D02*
X0177995Y0113859D01*
X0177995Y0112860D02*
X0176775Y0112860D01*
X0177554Y0111862D02*
X0175069Y0111862D01*
X0174071Y0110863D02*
X0176555Y0110863D01*
X0175557Y0109865D02*
X0173072Y0109865D01*
X0172095Y0111433D02*
X0175095Y0114433D01*
X0172595Y0116933D01*
X0172595Y0126433D01*
X0165345Y0133683D01*
X0165345Y0175183D01*
X0167016Y0176765D02*
X0170795Y0176765D01*
X0170795Y0175766D02*
X0167645Y0175766D01*
X0167645Y0174768D02*
X0170795Y0174768D01*
X0170795Y0173769D02*
X0167184Y0173769D01*
X0167145Y0172771D02*
X0170795Y0172771D01*
X0170795Y0171772D02*
X0167145Y0171772D01*
X0167145Y0170774D02*
X0170795Y0170774D01*
X0170795Y0169775D02*
X0167145Y0169775D01*
X0167145Y0168777D02*
X0170795Y0168777D01*
X0170795Y0167778D02*
X0167145Y0167778D01*
X0167145Y0166780D02*
X0170795Y0166780D01*
X0170795Y0165781D02*
X0167145Y0165781D01*
X0167145Y0164783D02*
X0170795Y0164783D01*
X0170795Y0163784D02*
X0167145Y0163784D01*
X0167145Y0162786D02*
X0170795Y0162786D01*
X0170795Y0161787D02*
X0167145Y0161787D01*
X0167145Y0160789D02*
X0170795Y0160789D01*
X0170700Y0159790D02*
X0167145Y0159790D01*
X0167145Y0158792D02*
X0170295Y0158792D01*
X0170295Y0157793D02*
X0167145Y0157793D01*
X0167145Y0156795D02*
X0170981Y0156795D01*
X0172595Y0158433D02*
X0172595Y0176933D01*
X0177095Y0181433D01*
X0182595Y0181433D01*
X0190095Y0188933D01*
X0190095Y0191433D01*
X0185583Y0191743D02*
X0184608Y0191743D01*
X0184608Y0190744D02*
X0185583Y0190744D01*
X0185583Y0189745D02*
X0184281Y0189745D01*
X0183791Y0188747D02*
X0185583Y0188747D01*
X0185583Y0187748D02*
X0182792Y0187748D01*
X0184368Y0185751D02*
X0177959Y0185751D01*
X0176961Y0184753D02*
X0183369Y0184753D01*
X0182371Y0183754D02*
X0175962Y0183754D01*
X0175872Y0182756D02*
X0174964Y0182756D01*
X0174874Y0181757D02*
X0164895Y0181757D01*
X0164895Y0180759D02*
X0173875Y0180759D01*
X0172877Y0179760D02*
X0164895Y0179760D01*
X0164895Y0178762D02*
X0171878Y0178762D01*
X0170880Y0177763D02*
X0164895Y0177763D01*
X0161095Y0174933D02*
X0161095Y0135933D01*
X0160095Y0134933D01*
X0148095Y0134933D01*
X0146095Y0136933D01*
X0143795Y0136824D02*
X0142395Y0136824D01*
X0142395Y0137386D02*
X0141048Y0138733D01*
X0139142Y0138733D01*
X0137795Y0137386D01*
X0137795Y0135480D01*
X0138195Y0135080D01*
X0138195Y0118379D01*
X0138175Y0118398D01*
X0138126Y0118398D01*
X0137642Y0118883D01*
X0134549Y0118883D01*
X0133849Y0118183D01*
X0133223Y0118183D01*
X0133107Y0118299D01*
X0133410Y0118603D01*
X0133651Y0119020D01*
X0133776Y0119486D01*
X0133776Y0120447D01*
X0131146Y0120447D01*
X0131146Y0120550D01*
X0131044Y0120550D01*
X0131044Y0123101D01*
X0130004Y0123101D01*
X0129538Y0122976D01*
X0129121Y0122735D01*
X0128780Y0122394D01*
X0128539Y0121977D01*
X0128414Y0121511D01*
X0128414Y0120550D01*
X0131044Y0120550D01*
X0131044Y0120447D01*
X0128414Y0120447D01*
X0128414Y0119486D01*
X0128539Y0119020D01*
X0128780Y0118603D01*
X0129083Y0118299D01*
X0128614Y0117830D01*
X0128614Y0117010D01*
X0123395Y0122229D01*
X0123395Y0136480D01*
X0123895Y0136980D01*
X0123895Y0138886D01*
X0122548Y0140233D01*
X0120642Y0140233D01*
X0119295Y0138886D01*
X0119295Y0136980D01*
X0119795Y0136480D01*
X0119795Y0120737D01*
X0127345Y0113187D01*
X0127345Y0108580D01*
X0126568Y0108580D01*
X0125807Y0107818D01*
X0125807Y0100048D01*
X0126568Y0099287D01*
X0131582Y0099287D01*
X0132344Y0100048D01*
X0132344Y0107818D01*
X0131582Y0108580D01*
X0130945Y0108580D01*
X0130945Y0113687D01*
X0131238Y0113981D01*
X0132621Y0113981D01*
X0133223Y0114583D01*
X0134280Y0114583D01*
X0134430Y0114433D01*
X0133614Y0113617D01*
X0133614Y0110918D01*
X0134549Y0109983D01*
X0137642Y0109983D01*
X0137820Y0110162D01*
X0138350Y0109633D01*
X0141695Y0109633D01*
X0141695Y0109533D01*
X0141225Y0109533D01*
X0139995Y0108303D01*
X0137995Y0106303D01*
X0137995Y0105448D01*
X0137539Y0105259D01*
X0136270Y0103989D01*
X0135583Y0102331D01*
X0135583Y0100535D01*
X0136270Y0098877D01*
X0137163Y0097983D01*
X0110095Y0097983D01*
X0110095Y0152433D01*
X0109095Y0152433D01*
X0109095Y0194883D01*
X0118721Y0194883D01*
X0118721Y0191933D01*
X0121788Y0191933D01*
X0121788Y0190933D01*
X0122788Y0190933D01*
X0122788Y0185602D01*
X0124552Y0185602D01*
X0124827Y0185676D01*
X0124827Y0181666D01*
X0124795Y0181589D01*
X0124795Y0180277D01*
X0125298Y0179064D01*
X0126226Y0178135D01*
X0127439Y0177633D01*
X0128752Y0177633D01*
X0129964Y0178135D01*
X0130893Y0179064D01*
X0131395Y0180277D01*
X0131395Y0181589D01*
X0131364Y0181666D01*
X0131364Y0185676D01*
X0131638Y0185602D01*
X0133402Y0185602D01*
X0133402Y0190933D01*
X0130335Y0190933D01*
X0130335Y0188796D01*
X0125855Y0188796D01*
X0125855Y0190933D01*
X0122788Y0190933D01*
X0122788Y0191933D01*
X0125855Y0191933D01*
X0125855Y0194883D01*
X0130335Y0194883D01*
X0130335Y0191933D01*
X0133402Y0191933D01*
X0133402Y0190933D01*
X0134402Y0190933D01*
X0134402Y0185602D01*
X0136167Y0185602D01*
X0136548Y0185705D01*
X0136890Y0185902D01*
X0137169Y0186181D01*
X0137367Y0186523D01*
X0137469Y0186905D01*
X0137469Y0187516D01*
X0137625Y0187402D01*
X0138286Y0187066D01*
X0138992Y0186837D01*
X0139595Y0186741D01*
X0139595Y0190933D01*
X0137469Y0190933D01*
X0137469Y0190933D01*
X0134402Y0190933D01*
X0134402Y0191933D01*
X0137469Y0191933D01*
X0139595Y0191933D01*
X0139595Y0190933D01*
X0140595Y0190933D01*
X0140595Y0186741D01*
X0141199Y0186837D01*
X0141904Y0187066D01*
X0142565Y0187402D01*
X0143165Y0187838D01*
X0143690Y0188363D01*
X0144126Y0188963D01*
X0144462Y0189624D01*
X0144692Y0190330D01*
X0144787Y0190933D01*
X0140595Y0190933D01*
X0140595Y0191933D01*
X0144787Y0191933D01*
X0144692Y0192537D01*
X0144462Y0193242D01*
X0144126Y0193903D01*
X0143690Y0194503D01*
X0143310Y0194883D01*
X0147163Y0194883D01*
X0146270Y0193989D01*
X0145583Y0192331D01*
X0145583Y0190535D01*
X0145772Y0190079D01*
X0144216Y0188523D01*
X0144216Y0180883D01*
X0141840Y0180883D01*
X0141079Y0180121D01*
X0141079Y0178533D01*
X0139225Y0178533D01*
X0137995Y0177303D01*
X0136925Y0176233D01*
X0136642Y0176233D01*
X0135295Y0174886D01*
X0135295Y0172980D01*
X0136131Y0172144D01*
X0136036Y0171980D01*
X0135914Y0171524D01*
X0135914Y0170598D01*
X0135914Y0169673D01*
X0136036Y0169216D01*
X0136273Y0168807D01*
X0136607Y0168473D01*
X0136837Y0168340D01*
X0136114Y0167617D01*
X0136114Y0164918D01*
X0137049Y0163983D01*
X0140142Y0163983D01*
X0140626Y0164468D01*
X0141079Y0164468D01*
X0141079Y0162745D01*
X0141840Y0161983D01*
X0148220Y0161983D01*
X0149045Y0161158D01*
X0149045Y0156483D01*
X0148307Y0156483D01*
X0147545Y0155722D01*
X0147545Y0150145D01*
X0148307Y0149383D01*
X0152545Y0149383D01*
X0152545Y0148483D01*
X0151807Y0148483D01*
X0151045Y0147722D01*
X0151045Y0142145D01*
X0151807Y0141383D01*
X0156884Y0141383D01*
X0157645Y0142145D01*
X0157645Y0147722D01*
X0156884Y0148483D01*
X0156145Y0148483D01*
X0156145Y0149183D01*
X0157345Y0149183D01*
X0157345Y0152433D01*
X0158345Y0152433D01*
X0158345Y0149183D01*
X0159295Y0149183D01*
X0159295Y0136733D01*
X0148841Y0136733D01*
X0148395Y0137179D01*
X0148395Y0137886D01*
X0147048Y0139233D01*
X0145142Y0139233D01*
X0143795Y0137886D01*
X0143795Y0136233D01*
X0142395Y0136233D01*
X0142395Y0137386D01*
X0141958Y0137823D02*
X0143795Y0137823D01*
X0144731Y0138821D02*
X0123895Y0138821D01*
X0123895Y0137823D02*
X0138232Y0137823D01*
X0137795Y0136824D02*
X0123739Y0136824D01*
X0123395Y0135826D02*
X0137795Y0135826D01*
X0138195Y0134827D02*
X0123395Y0134827D01*
X0123395Y0133829D02*
X0138195Y0133829D01*
X0138195Y0132830D02*
X0123395Y0132830D01*
X0123395Y0131832D02*
X0138195Y0131832D01*
X0138195Y0130833D02*
X0123395Y0130833D01*
X0123395Y0129835D02*
X0138195Y0129835D01*
X0138195Y0128836D02*
X0123395Y0128836D01*
X0123395Y0127838D02*
X0138195Y0127838D01*
X0138195Y0126839D02*
X0123395Y0126839D01*
X0123395Y0125841D02*
X0138195Y0125841D01*
X0138195Y0124842D02*
X0123395Y0124842D01*
X0123395Y0123844D02*
X0138195Y0123844D01*
X0138195Y0122845D02*
X0132879Y0122845D01*
X0133070Y0122735D02*
X0132652Y0122976D01*
X0132187Y0123101D01*
X0131146Y0123101D01*
X0131146Y0120550D01*
X0133776Y0120550D01*
X0133776Y0121511D01*
X0133651Y0121977D01*
X0133410Y0122394D01*
X0133070Y0122735D01*
X0133686Y0121847D02*
X0138195Y0121847D01*
X0138195Y0120848D02*
X0133776Y0120848D01*
X0133776Y0119850D02*
X0138195Y0119850D01*
X0138195Y0118851D02*
X0137673Y0118851D01*
X0137430Y0116598D02*
X0136095Y0116598D01*
X0135880Y0116383D01*
X0131095Y0116383D01*
X0129145Y0114433D01*
X0129145Y0113933D01*
X0121595Y0121483D01*
X0121595Y0137933D01*
X0119295Y0137823D02*
X0110095Y0137823D01*
X0110095Y0138821D02*
X0119295Y0138821D01*
X0120229Y0139820D02*
X0110095Y0139820D01*
X0110095Y0140818D02*
X0159295Y0140818D01*
X0159295Y0139820D02*
X0122961Y0139820D01*
X0119451Y0136824D02*
X0110095Y0136824D01*
X0110095Y0135826D02*
X0119795Y0135826D01*
X0119795Y0134827D02*
X0110095Y0134827D01*
X0110095Y0133829D02*
X0119795Y0133829D01*
X0119795Y0132830D02*
X0110095Y0132830D01*
X0110095Y0131832D02*
X0119795Y0131832D01*
X0119795Y0130833D02*
X0110095Y0130833D01*
X0110095Y0129835D02*
X0119795Y0129835D01*
X0119795Y0128836D02*
X0110095Y0128836D01*
X0110095Y0127838D02*
X0119795Y0127838D01*
X0119795Y0126839D02*
X0110095Y0126839D01*
X0110095Y0125841D02*
X0119795Y0125841D01*
X0119795Y0124842D02*
X0110095Y0124842D01*
X0110095Y0123844D02*
X0119795Y0123844D01*
X0119795Y0122845D02*
X0110095Y0122845D01*
X0110095Y0121847D02*
X0119795Y0121847D01*
X0119795Y0120848D02*
X0110095Y0120848D01*
X0110095Y0119850D02*
X0120683Y0119850D01*
X0121681Y0118851D02*
X0110095Y0118851D01*
X0110095Y0117853D02*
X0122680Y0117853D01*
X0123678Y0116854D02*
X0110095Y0116854D01*
X0110095Y0115856D02*
X0124677Y0115856D01*
X0125675Y0114857D02*
X0110095Y0114857D01*
X0110095Y0113859D02*
X0126674Y0113859D01*
X0127345Y0112860D02*
X0110095Y0112860D01*
X0110095Y0111862D02*
X0127345Y0111862D01*
X0127345Y0110863D02*
X0110095Y0110863D01*
X0110095Y0109865D02*
X0127345Y0109865D01*
X0127345Y0108866D02*
X0110095Y0108866D01*
X0110095Y0107868D02*
X0110754Y0107868D01*
X0110749Y0107859D02*
X0110646Y0107477D01*
X0110646Y0104417D01*
X0113630Y0104417D01*
X0113630Y0103449D01*
X0110646Y0103449D01*
X0110646Y0100389D01*
X0110749Y0100008D01*
X0110946Y0099666D01*
X0111225Y0099386D01*
X0111567Y0099189D01*
X0111949Y0099087D01*
X0113631Y0099087D01*
X0113631Y0103449D01*
X0114599Y0103449D01*
X0114599Y0104417D01*
X0117583Y0104417D01*
X0117583Y0107477D01*
X0117481Y0107859D01*
X0117284Y0108201D01*
X0117004Y0108480D01*
X0116662Y0108677D01*
X0116281Y0108780D01*
X0114599Y0108780D01*
X0114599Y0104417D01*
X0113631Y0104417D01*
X0113631Y0108780D01*
X0111949Y0108780D01*
X0111567Y0108677D01*
X0111225Y0108480D01*
X0110946Y0108201D01*
X0110749Y0107859D01*
X0110646Y0106869D02*
X0110095Y0106869D01*
X0110095Y0105871D02*
X0110646Y0105871D01*
X0110646Y0104872D02*
X0110095Y0104872D01*
X0110095Y0103874D02*
X0113630Y0103874D01*
X0114599Y0103874D02*
X0125807Y0103874D01*
X0125807Y0104872D02*
X0117583Y0104872D01*
X0117583Y0105871D02*
X0125807Y0105871D01*
X0125807Y0106869D02*
X0117583Y0106869D01*
X0117476Y0107868D02*
X0125857Y0107868D01*
X0130945Y0108866D02*
X0140558Y0108866D01*
X0139560Y0107868D02*
X0132294Y0107868D01*
X0132344Y0106869D02*
X0138561Y0106869D01*
X0137995Y0105871D02*
X0132344Y0105871D01*
X0132344Y0104872D02*
X0137152Y0104872D01*
X0136222Y0103874D02*
X0132344Y0103874D01*
X0132344Y0102875D02*
X0135808Y0102875D01*
X0135583Y0101877D02*
X0132344Y0101877D01*
X0132344Y0100878D02*
X0135583Y0100878D01*
X0135854Y0099879D02*
X0132175Y0099879D01*
X0129145Y0104503D02*
X0129145Y0113933D01*
X0131116Y0113859D02*
X0133855Y0113859D01*
X0133614Y0112860D02*
X0130945Y0112860D01*
X0130945Y0111862D02*
X0133614Y0111862D01*
X0133669Y0110863D02*
X0130945Y0110863D01*
X0130945Y0109865D02*
X0138118Y0109865D01*
X0139095Y0111433D02*
X0143595Y0111433D01*
X0145095Y0111433D01*
X0149095Y0115433D01*
X0149095Y0115933D01*
X0151395Y0115856D02*
X0152627Y0115856D01*
X0151628Y0116854D02*
X0151395Y0116854D01*
X0150630Y0117853D02*
X0150428Y0117853D01*
X0149631Y0118851D02*
X0148395Y0118851D01*
X0148181Y0119850D02*
X0148633Y0119850D01*
X0146095Y0118683D02*
X0146095Y0121433D01*
X0143095Y0124433D01*
X0143095Y0133933D01*
X0145395Y0133829D02*
X0146654Y0133829D01*
X0146295Y0134187D02*
X0147350Y0133133D01*
X0160841Y0133133D01*
X0161295Y0133588D01*
X0161295Y0132687D01*
X0168295Y0125687D01*
X0168295Y0116386D01*
X0167795Y0115886D01*
X0167795Y0113980D01*
X0168542Y0113233D01*
X0160341Y0113233D01*
X0147395Y0126179D01*
X0147395Y0127480D01*
X0147895Y0127980D01*
X0147895Y0129886D01*
X0146548Y0131233D01*
X0144895Y0131233D01*
X0144895Y0132480D01*
X0145395Y0132980D01*
X0145395Y0134633D01*
X0145850Y0134633D01*
X0146295Y0134187D01*
X0146295Y0134187D01*
X0145245Y0132830D02*
X0161295Y0132830D01*
X0162151Y0131832D02*
X0144895Y0131832D01*
X0146948Y0130833D02*
X0163149Y0130833D01*
X0164148Y0129835D02*
X0147895Y0129835D01*
X0147895Y0128836D02*
X0165146Y0128836D01*
X0166145Y0127838D02*
X0147753Y0127838D01*
X0147395Y0126839D02*
X0167143Y0126839D01*
X0168142Y0125841D02*
X0147733Y0125841D01*
X0148732Y0124842D02*
X0168295Y0124842D01*
X0168295Y0123844D02*
X0149730Y0123844D01*
X0150729Y0122845D02*
X0168295Y0122845D01*
X0168295Y0121847D02*
X0151727Y0121847D01*
X0152726Y0120848D02*
X0168295Y0120848D01*
X0168295Y0119850D02*
X0153724Y0119850D01*
X0154723Y0118851D02*
X0168295Y0118851D01*
X0168295Y0117853D02*
X0155721Y0117853D01*
X0156720Y0116854D02*
X0168295Y0116854D01*
X0167795Y0115856D02*
X0157718Y0115856D01*
X0158717Y0114857D02*
X0167795Y0114857D01*
X0167917Y0113859D02*
X0159715Y0113859D01*
X0159595Y0111433D02*
X0172095Y0111433D01*
X0170095Y0114933D02*
X0170095Y0126433D01*
X0163095Y0133433D01*
X0163095Y0180933D01*
X0162595Y0181433D01*
X0161095Y0183933D02*
X0159595Y0182433D01*
X0159595Y0176433D01*
X0161095Y0174933D01*
X0159295Y0174187D02*
X0159295Y0161986D01*
X0159048Y0162233D01*
X0157142Y0162233D01*
X0155795Y0160886D01*
X0155795Y0160179D01*
X0152645Y0157029D01*
X0152645Y0161158D01*
X0152645Y0162649D01*
X0151553Y0163742D01*
X0151553Y0166845D01*
X0151895Y0167187D01*
X0151895Y0168679D01*
X0151553Y0169021D01*
X0151553Y0169333D01*
X0153942Y0169333D01*
X0154142Y0169133D01*
X0156048Y0169133D01*
X0157395Y0170480D01*
X0157395Y0172386D01*
X0156048Y0173733D01*
X0154648Y0173733D01*
X0155395Y0174480D01*
X0155395Y0175187D01*
X0157795Y0177587D01*
X0157795Y0175687D01*
X0159295Y0174187D01*
X0159295Y0173769D02*
X0154684Y0173769D01*
X0155395Y0174768D02*
X0158715Y0174768D01*
X0157795Y0175766D02*
X0155974Y0175766D01*
X0156972Y0176765D02*
X0157795Y0176765D01*
X0157095Y0179433D02*
X0157095Y0183433D01*
X0160095Y0186433D01*
X0167595Y0186433D01*
X0170095Y0188933D01*
X0170095Y0191433D01*
X0173595Y0183933D02*
X0161095Y0183933D01*
X0157866Y0186750D02*
X0148416Y0186750D01*
X0148416Y0186784D02*
X0148741Y0187109D01*
X0149198Y0186920D01*
X0150993Y0186920D01*
X0152651Y0187607D01*
X0153921Y0188877D01*
X0154608Y0190535D01*
X0154608Y0192331D01*
X0153921Y0193989D01*
X0153027Y0194883D01*
X0157163Y0194883D01*
X0156270Y0193989D01*
X0155583Y0192331D01*
X0155583Y0190535D01*
X0156270Y0188877D01*
X0157539Y0187607D01*
X0158377Y0187260D01*
X0158295Y0187179D01*
X0156350Y0185233D01*
X0155295Y0184179D01*
X0155295Y0180179D01*
X0152850Y0177733D01*
X0152142Y0177733D01*
X0151553Y0177143D01*
X0151553Y0180121D01*
X0150791Y0180883D01*
X0148416Y0180883D01*
X0148416Y0186784D01*
X0148416Y0185751D02*
X0156868Y0185751D01*
X0155869Y0184753D02*
X0148416Y0184753D01*
X0148416Y0183754D02*
X0155295Y0183754D01*
X0155295Y0182756D02*
X0148416Y0182756D01*
X0148416Y0181757D02*
X0155295Y0181757D01*
X0155295Y0180759D02*
X0150915Y0180759D01*
X0151553Y0179760D02*
X0154877Y0179760D01*
X0153878Y0178762D02*
X0151553Y0178762D01*
X0151553Y0177763D02*
X0152880Y0177763D01*
X0153095Y0175433D02*
X0157095Y0179433D01*
X0157010Y0172771D02*
X0159295Y0172771D01*
X0159295Y0171772D02*
X0157395Y0171772D01*
X0157395Y0170774D02*
X0159295Y0170774D01*
X0159295Y0169775D02*
X0156690Y0169775D01*
X0159295Y0168777D02*
X0151797Y0168777D01*
X0151895Y0167778D02*
X0159295Y0167778D01*
X0159295Y0166780D02*
X0151553Y0166780D01*
X0151553Y0165781D02*
X0159295Y0165781D01*
X0159295Y0164783D02*
X0151553Y0164783D01*
X0151553Y0163784D02*
X0159295Y0163784D01*
X0159295Y0162786D02*
X0152509Y0162786D01*
X0152645Y0161787D02*
X0156697Y0161787D01*
X0155795Y0160789D02*
X0152645Y0160789D01*
X0152645Y0159790D02*
X0155407Y0159790D01*
X0154408Y0158792D02*
X0152645Y0158792D01*
X0152645Y0157793D02*
X0153410Y0157793D01*
X0154345Y0156183D02*
X0158095Y0159933D01*
X0158341Y0157633D02*
X0159048Y0157633D01*
X0159295Y0157880D01*
X0159295Y0156683D01*
X0158345Y0156683D01*
X0158345Y0153433D01*
X0157345Y0153433D01*
X0157345Y0156638D01*
X0158341Y0157633D01*
X0159208Y0157793D02*
X0159295Y0157793D01*
X0159295Y0156795D02*
X0157502Y0156795D01*
X0157345Y0155796D02*
X0158345Y0155796D01*
X0158345Y0154798D02*
X0157345Y0154798D01*
X0157345Y0153799D02*
X0158345Y0153799D01*
X0158345Y0151802D02*
X0157345Y0151802D01*
X0157345Y0150804D02*
X0158345Y0150804D01*
X0158345Y0149805D02*
X0157345Y0149805D01*
X0156145Y0148807D02*
X0159295Y0148807D01*
X0159295Y0147808D02*
X0157559Y0147808D01*
X0157645Y0146810D02*
X0159295Y0146810D01*
X0159295Y0145811D02*
X0157645Y0145811D01*
X0157645Y0144812D02*
X0159295Y0144812D01*
X0159295Y0143814D02*
X0157645Y0143814D01*
X0157645Y0142815D02*
X0159295Y0142815D01*
X0159295Y0141817D02*
X0157317Y0141817D01*
X0159295Y0138821D02*
X0147459Y0138821D01*
X0148395Y0137823D02*
X0159295Y0137823D01*
X0159295Y0136824D02*
X0148749Y0136824D01*
X0151373Y0141817D02*
X0110095Y0141817D01*
X0110095Y0142815D02*
X0151045Y0142815D01*
X0151045Y0143814D02*
X0110095Y0143814D01*
X0110095Y0144812D02*
X0151045Y0144812D01*
X0151045Y0145811D02*
X0110095Y0145811D01*
X0110095Y0146810D02*
X0151045Y0146810D01*
X0151132Y0147808D02*
X0110095Y0147808D01*
X0110095Y0148807D02*
X0152545Y0148807D01*
X0147885Y0149805D02*
X0110095Y0149805D01*
X0110095Y0150804D02*
X0147545Y0150804D01*
X0147545Y0151802D02*
X0110095Y0151802D01*
X0109095Y0152801D02*
X0147545Y0152801D01*
X0147545Y0153799D02*
X0109095Y0153799D01*
X0109095Y0154798D02*
X0147545Y0154798D01*
X0147620Y0155796D02*
X0109095Y0155796D01*
X0109095Y0156795D02*
X0149045Y0156795D01*
X0149045Y0157793D02*
X0109095Y0157793D01*
X0109095Y0158792D02*
X0149045Y0158792D01*
X0149045Y0159790D02*
X0109095Y0159790D01*
X0109095Y0160789D02*
X0149045Y0160789D01*
X0148416Y0161787D02*
X0109095Y0161787D01*
X0109095Y0162786D02*
X0141079Y0162786D01*
X0141079Y0163784D02*
X0109095Y0163784D01*
X0109095Y0164783D02*
X0136249Y0164783D01*
X0136114Y0165781D02*
X0109095Y0165781D01*
X0109095Y0166780D02*
X0136114Y0166780D01*
X0136275Y0167778D02*
X0109095Y0167778D01*
X0109095Y0168777D02*
X0136303Y0168777D01*
X0135914Y0169775D02*
X0109095Y0169775D01*
X0109095Y0170774D02*
X0135914Y0170774D01*
X0135914Y0170598D02*
X0138595Y0170598D01*
X0135914Y0170598D01*
X0135981Y0171772D02*
X0109095Y0171772D01*
X0109095Y0172771D02*
X0135505Y0172771D01*
X0135295Y0173769D02*
X0109095Y0173769D01*
X0109095Y0174768D02*
X0135295Y0174768D01*
X0136176Y0175766D02*
X0109095Y0175766D01*
X0109095Y0176765D02*
X0137457Y0176765D01*
X0138456Y0177763D02*
X0129066Y0177763D01*
X0130591Y0178762D02*
X0141079Y0178762D01*
X0141079Y0179760D02*
X0131181Y0179760D01*
X0131395Y0180759D02*
X0141716Y0180759D01*
X0144216Y0181757D02*
X0131364Y0181757D01*
X0131364Y0182756D02*
X0144216Y0182756D01*
X0144216Y0183754D02*
X0131364Y0183754D01*
X0131364Y0184753D02*
X0144216Y0184753D01*
X0144216Y0185751D02*
X0136629Y0185751D01*
X0137428Y0186750D02*
X0139538Y0186750D01*
X0139595Y0186750D02*
X0140595Y0186750D01*
X0140652Y0186750D02*
X0144216Y0186750D01*
X0144216Y0187748D02*
X0143041Y0187748D01*
X0143969Y0188747D02*
X0144439Y0188747D01*
X0144502Y0189745D02*
X0145438Y0189745D01*
X0145583Y0190744D02*
X0144757Y0190744D01*
X0145583Y0191743D02*
X0140595Y0191743D01*
X0140595Y0190744D02*
X0139595Y0190744D01*
X0139595Y0189745D02*
X0140595Y0189745D01*
X0140595Y0188747D02*
X0139595Y0188747D01*
X0139595Y0187748D02*
X0140595Y0187748D01*
X0139595Y0191743D02*
X0134402Y0191743D01*
X0134402Y0190744D02*
X0133402Y0190744D01*
X0133402Y0189745D02*
X0134402Y0189745D01*
X0134402Y0188747D02*
X0133402Y0188747D01*
X0133402Y0187748D02*
X0134402Y0187748D01*
X0134402Y0186750D02*
X0133402Y0186750D01*
X0133402Y0185751D02*
X0134402Y0185751D01*
X0130335Y0189745D02*
X0125855Y0189745D01*
X0125855Y0190744D02*
X0130335Y0190744D01*
X0130335Y0192741D02*
X0125855Y0192741D01*
X0125855Y0193740D02*
X0130335Y0193740D01*
X0130335Y0194738D02*
X0125855Y0194738D01*
X0122788Y0191743D02*
X0133402Y0191743D01*
X0137469Y0191933D02*
X0137469Y0191933D01*
X0143455Y0194738D02*
X0147018Y0194738D01*
X0146166Y0193740D02*
X0144209Y0193740D01*
X0144625Y0192741D02*
X0145753Y0192741D01*
X0153172Y0194738D02*
X0157018Y0194738D01*
X0156166Y0193740D02*
X0154024Y0193740D01*
X0154438Y0192741D02*
X0155753Y0192741D01*
X0155583Y0191743D02*
X0154608Y0191743D01*
X0154608Y0190744D02*
X0155583Y0190744D01*
X0155910Y0189745D02*
X0154281Y0189745D01*
X0153791Y0188747D02*
X0156399Y0188747D01*
X0157398Y0187748D02*
X0152792Y0187748D01*
X0141079Y0174333D02*
X0141079Y0172745D01*
X0141840Y0171983D01*
X0146575Y0171983D01*
X0146725Y0171833D01*
X0147676Y0170883D01*
X0141840Y0170883D01*
X0141276Y0170319D01*
X0141276Y0170598D01*
X0138595Y0170598D01*
X0138595Y0170598D01*
X0138595Y0170598D01*
X0141276Y0170598D01*
X0141276Y0171524D01*
X0141154Y0171980D01*
X0140918Y0172390D01*
X0140583Y0172724D01*
X0140174Y0172960D01*
X0139895Y0173035D01*
X0139895Y0173263D01*
X0140965Y0174333D01*
X0141079Y0174333D01*
X0141079Y0173769D02*
X0140401Y0173769D01*
X0140502Y0172771D02*
X0141079Y0172771D01*
X0141210Y0171772D02*
X0146786Y0171772D01*
X0148816Y0168933D02*
X0149095Y0168933D01*
X0150095Y0167933D01*
X0146316Y0166433D02*
X0150845Y0161904D01*
X0150845Y0152933D01*
X0154345Y0156183D02*
X0154345Y0144933D01*
X0167145Y0150804D02*
X0213545Y0150804D01*
X0213545Y0151802D02*
X0189049Y0151802D01*
X0188980Y0151733D02*
X0189742Y0152495D01*
X0189742Y0153534D01*
X0192493Y0156286D01*
X0194168Y0154611D01*
X0196392Y0153690D01*
X0198799Y0153690D01*
X0201022Y0154611D01*
X0202724Y0156313D01*
X0203645Y0158537D01*
X0203645Y0160944D01*
X0202724Y0163167D01*
X0201022Y0164869D01*
X0198799Y0165790D01*
X0196392Y0165790D01*
X0194168Y0164869D01*
X0192466Y0163167D01*
X0191545Y0160944D01*
X0191545Y0160429D01*
X0189115Y0157998D01*
X0188980Y0158133D01*
X0184341Y0158133D01*
X0185675Y0159467D01*
X0185675Y0161983D01*
X0188350Y0161983D01*
X0189112Y0162745D01*
X0189112Y0170121D01*
X0188350Y0170883D01*
X0179399Y0170883D01*
X0178638Y0170121D01*
X0178638Y0162745D01*
X0179399Y0161983D01*
X0182075Y0161983D01*
X0182075Y0160958D01*
X0181370Y0160253D01*
X0181184Y0160218D01*
X0180858Y0159741D01*
X0180449Y0159332D01*
X0180449Y0159144D01*
X0179757Y0158133D01*
X0177210Y0158133D01*
X0176449Y0157372D01*
X0176449Y0152495D01*
X0177210Y0151733D01*
X0182287Y0151733D01*
X0183049Y0152495D01*
X0183049Y0156568D01*
X0183142Y0156704D01*
X0183142Y0152495D01*
X0183903Y0151733D01*
X0188980Y0151733D01*
X0189742Y0152801D02*
X0213545Y0152801D01*
X0213545Y0153799D02*
X0199062Y0153799D01*
X0201209Y0154798D02*
X0213545Y0154798D01*
X0213545Y0155796D02*
X0202207Y0155796D01*
X0202924Y0156795D02*
X0213545Y0156795D01*
X0213545Y0157793D02*
X0203337Y0157793D01*
X0203645Y0158792D02*
X0213545Y0158792D01*
X0213545Y0159790D02*
X0203645Y0159790D01*
X0203645Y0160789D02*
X0213545Y0160789D01*
X0213545Y0161787D02*
X0203296Y0161787D01*
X0202882Y0162786D02*
X0213545Y0162786D01*
X0213545Y0163784D02*
X0202107Y0163784D01*
X0201109Y0164783D02*
X0213545Y0164783D01*
X0213545Y0165781D02*
X0198820Y0165781D01*
X0199543Y0167778D02*
X0213545Y0167778D01*
X0213545Y0166780D02*
X0189112Y0166780D01*
X0189112Y0167778D02*
X0195647Y0167778D01*
X0193782Y0168777D02*
X0189112Y0168777D01*
X0189112Y0169775D02*
X0192784Y0169775D01*
X0192184Y0170774D02*
X0188459Y0170774D01*
X0189112Y0172771D02*
X0191545Y0172771D01*
X0191545Y0173769D02*
X0189112Y0173769D01*
X0191770Y0171772D02*
X0174395Y0171772D01*
X0174395Y0170774D02*
X0179290Y0170774D01*
X0178638Y0169775D02*
X0174395Y0169775D01*
X0174395Y0168777D02*
X0178638Y0168777D01*
X0178638Y0167778D02*
X0174395Y0167778D01*
X0174395Y0166780D02*
X0178638Y0166780D01*
X0178638Y0165781D02*
X0174395Y0165781D01*
X0174395Y0164783D02*
X0178638Y0164783D01*
X0178638Y0163784D02*
X0174395Y0163784D01*
X0174395Y0162786D02*
X0178638Y0162786D01*
X0182075Y0161787D02*
X0174395Y0161787D01*
X0174395Y0160789D02*
X0181905Y0160789D01*
X0180891Y0159790D02*
X0174491Y0159790D01*
X0174895Y0158792D02*
X0180208Y0158792D01*
X0182249Y0158587D02*
X0179749Y0154933D01*
X0183049Y0154798D02*
X0183142Y0154798D01*
X0183142Y0155796D02*
X0183049Y0155796D01*
X0183049Y0153799D02*
X0183142Y0153799D01*
X0183142Y0152801D02*
X0183049Y0152801D01*
X0182356Y0151802D02*
X0183834Y0151802D01*
X0186442Y0154933D02*
X0188595Y0154933D01*
X0193402Y0159740D01*
X0197595Y0159740D01*
X0193083Y0163784D02*
X0189112Y0163784D01*
X0189112Y0162786D02*
X0192308Y0162786D01*
X0191895Y0161787D02*
X0185675Y0161787D01*
X0185675Y0160789D02*
X0191545Y0160789D01*
X0190907Y0159790D02*
X0185675Y0159790D01*
X0184999Y0158792D02*
X0189908Y0158792D01*
X0192004Y0155796D02*
X0192983Y0155796D01*
X0193982Y0154798D02*
X0191005Y0154798D01*
X0190007Y0153799D02*
X0196129Y0153799D01*
X0194095Y0148807D02*
X0170395Y0148807D01*
X0170395Y0147808D02*
X0194095Y0147808D01*
X0194095Y0146810D02*
X0170224Y0146810D01*
X0169476Y0149805D02*
X0213545Y0149805D01*
X0213545Y0146433D02*
X0213545Y0102254D01*
X0213526Y0102234D01*
X0213545Y0101409D01*
X0213545Y0101378D01*
X0213497Y0100735D01*
X0213028Y0099525D01*
X0212132Y0098586D01*
X0210945Y0098061D01*
X0210302Y0097983D01*
X0196095Y0097983D01*
X0196095Y0110598D01*
X0196467Y0110524D01*
X0196560Y0110524D01*
X0196560Y0114098D01*
X0197135Y0114098D01*
X0197135Y0114673D01*
X0200709Y0114673D01*
X0200709Y0114766D01*
X0200561Y0115512D01*
X0200270Y0116215D01*
X0199847Y0116848D01*
X0199309Y0117386D01*
X0198677Y0117808D01*
X0197974Y0118100D01*
X0197227Y0118248D01*
X0197135Y0118248D01*
X0197135Y0114673D01*
X0196560Y0114673D01*
X0196560Y0118248D01*
X0196467Y0118248D01*
X0196095Y0118174D01*
X0196095Y0129692D01*
X0196467Y0129618D01*
X0196560Y0129618D01*
X0196560Y0133193D01*
X0197135Y0133193D01*
X0197135Y0133768D01*
X0200709Y0133768D01*
X0200709Y0133861D01*
X0200561Y0134607D01*
X0200270Y0135310D01*
X0199847Y0135942D01*
X0199309Y0136480D01*
X0198677Y0136903D01*
X0197974Y0137194D01*
X0197227Y0137343D01*
X0197135Y0137343D01*
X0197135Y0133768D01*
X0196560Y0133768D01*
X0196560Y0137343D01*
X0196467Y0137343D01*
X0196095Y0137269D01*
X0196095Y0146433D01*
X0213545Y0146433D01*
X0213545Y0145811D02*
X0196095Y0145811D01*
X0196095Y0144812D02*
X0213545Y0144812D01*
X0213545Y0143814D02*
X0196095Y0143814D01*
X0196095Y0142815D02*
X0213545Y0142815D01*
X0213545Y0141817D02*
X0196095Y0141817D01*
X0196095Y0140818D02*
X0203259Y0140818D01*
X0203364Y0140923D02*
X0202877Y0140436D01*
X0202493Y0139863D01*
X0202230Y0139226D01*
X0202095Y0138549D01*
X0202095Y0138205D01*
X0207595Y0138205D01*
X0207595Y0141705D01*
X0205250Y0141705D01*
X0204574Y0141570D01*
X0203937Y0141306D01*
X0203364Y0140923D01*
X0202476Y0139820D02*
X0196095Y0139820D01*
X0196095Y0138821D02*
X0202149Y0138821D01*
X0202095Y0138205D02*
X0202095Y0137860D01*
X0202230Y0137184D01*
X0202493Y0136547D01*
X0202877Y0135974D01*
X0203364Y0135486D01*
X0203937Y0135103D01*
X0204574Y0134839D01*
X0205250Y0134705D01*
X0207595Y0134705D01*
X0207595Y0138205D01*
X0207595Y0138205D01*
X0207595Y0138205D01*
X0207595Y0141705D01*
X0209940Y0141705D01*
X0210616Y0141570D01*
X0211253Y0141306D01*
X0211826Y0140923D01*
X0212314Y0140436D01*
X0212697Y0139863D01*
X0212961Y0139226D01*
X0213095Y0138549D01*
X0213095Y0138205D01*
X0207595Y0138205D01*
X0207595Y0138205D01*
X0202095Y0138205D01*
X0202103Y0137823D02*
X0196095Y0137823D01*
X0196560Y0136824D02*
X0197135Y0136824D01*
X0197135Y0135826D02*
X0196560Y0135826D01*
X0196560Y0134827D02*
X0197135Y0134827D01*
X0197135Y0133829D02*
X0196560Y0133829D01*
X0197135Y0133193D02*
X0200709Y0133193D01*
X0200709Y0133100D01*
X0200561Y0132354D01*
X0200270Y0131651D01*
X0199847Y0131018D01*
X0199309Y0130480D01*
X0198677Y0130058D01*
X0197974Y0129767D01*
X0197227Y0129618D01*
X0197135Y0129618D01*
X0197135Y0133193D01*
X0197135Y0132830D02*
X0196560Y0132830D01*
X0196560Y0131832D02*
X0197135Y0131832D01*
X0197135Y0130833D02*
X0196560Y0130833D01*
X0196560Y0129835D02*
X0197135Y0129835D01*
X0198139Y0129835D02*
X0213545Y0129835D01*
X0213545Y0130833D02*
X0199662Y0130833D01*
X0200345Y0131832D02*
X0213545Y0131832D01*
X0213545Y0132830D02*
X0200656Y0132830D01*
X0200709Y0133829D02*
X0213545Y0133829D01*
X0213545Y0134827D02*
X0210556Y0134827D01*
X0210616Y0134839D02*
X0211253Y0135103D01*
X0211826Y0135486D01*
X0212314Y0135974D01*
X0212697Y0136547D01*
X0212961Y0137184D01*
X0213095Y0137860D01*
X0213095Y0138205D01*
X0207595Y0138205D01*
X0207595Y0138205D01*
X0207595Y0134705D01*
X0209940Y0134705D01*
X0210616Y0134839D01*
X0212166Y0135826D02*
X0213545Y0135826D01*
X0213545Y0136824D02*
X0212812Y0136824D01*
X0213088Y0137823D02*
X0213545Y0137823D01*
X0213545Y0138821D02*
X0213041Y0138821D01*
X0212714Y0139820D02*
X0213545Y0139820D01*
X0213545Y0140818D02*
X0211931Y0140818D01*
X0207595Y0140818D02*
X0207595Y0140818D01*
X0207595Y0139820D02*
X0207595Y0139820D01*
X0207595Y0138821D02*
X0207595Y0138821D01*
X0207595Y0137823D02*
X0207595Y0137823D01*
X0207595Y0136824D02*
X0207595Y0136824D01*
X0207595Y0135826D02*
X0207595Y0135826D01*
X0207595Y0134827D02*
X0207595Y0134827D01*
X0204634Y0134827D02*
X0200470Y0134827D01*
X0199925Y0135826D02*
X0203024Y0135826D01*
X0202379Y0136824D02*
X0198794Y0136824D01*
X0196095Y0128836D02*
X0213545Y0128836D01*
X0213545Y0127838D02*
X0196095Y0127838D01*
X0196095Y0126839D02*
X0213545Y0126839D01*
X0213545Y0125841D02*
X0196095Y0125841D01*
X0196095Y0124842D02*
X0213545Y0124842D01*
X0213545Y0123844D02*
X0196095Y0123844D01*
X0196095Y0122845D02*
X0213545Y0122845D01*
X0213545Y0121847D02*
X0196095Y0121847D01*
X0196095Y0120848D02*
X0213545Y0120848D01*
X0213545Y0119850D02*
X0196095Y0119850D01*
X0196095Y0118851D02*
X0213545Y0118851D01*
X0213545Y0117853D02*
X0198570Y0117853D01*
X0197135Y0117853D02*
X0196560Y0117853D01*
X0196560Y0116854D02*
X0197135Y0116854D01*
X0197135Y0115856D02*
X0196560Y0115856D01*
X0196560Y0114857D02*
X0197135Y0114857D01*
X0197135Y0114098D02*
X0200709Y0114098D01*
X0200709Y0114005D01*
X0200561Y0113259D01*
X0200270Y0112556D01*
X0199847Y0111924D01*
X0199309Y0111386D01*
X0198677Y0110963D01*
X0197974Y0110672D01*
X0197227Y0110524D01*
X0197135Y0110524D01*
X0197135Y0114098D01*
X0197135Y0113859D02*
X0196560Y0113859D01*
X0196560Y0112860D02*
X0197135Y0112860D01*
X0197135Y0111862D02*
X0196560Y0111862D01*
X0196560Y0110863D02*
X0197135Y0110863D01*
X0198435Y0110863D02*
X0202305Y0110863D01*
X0202230Y0110682D02*
X0202095Y0110006D01*
X0202095Y0109661D01*
X0202095Y0109317D01*
X0202230Y0108641D01*
X0202493Y0108004D01*
X0202877Y0107430D01*
X0203364Y0106943D01*
X0203937Y0106560D01*
X0204574Y0106296D01*
X0205250Y0106161D01*
X0207595Y0106161D01*
X0207595Y0109661D01*
X0207595Y0109661D01*
X0207595Y0106161D01*
X0209940Y0106161D01*
X0210616Y0106296D01*
X0211253Y0106560D01*
X0211826Y0106943D01*
X0212314Y0107430D01*
X0212697Y0108004D01*
X0212961Y0108641D01*
X0213095Y0109317D01*
X0213095Y0109661D01*
X0207595Y0109661D01*
X0202095Y0109661D01*
X0207595Y0109661D01*
X0207595Y0109661D01*
X0207595Y0109661D01*
X0213095Y0109661D01*
X0213095Y0110006D01*
X0212961Y0110682D01*
X0212697Y0111319D01*
X0212314Y0111893D01*
X0211826Y0112380D01*
X0211253Y0112763D01*
X0210616Y0113027D01*
X0209940Y0113161D01*
X0207595Y0113161D01*
X0205250Y0113161D01*
X0204574Y0113027D01*
X0203937Y0112763D01*
X0203364Y0112380D01*
X0202877Y0111893D01*
X0202493Y0111319D01*
X0202230Y0110682D01*
X0202095Y0109865D02*
X0196095Y0109865D01*
X0196095Y0108866D02*
X0202185Y0108866D01*
X0202584Y0107868D02*
X0196095Y0107868D01*
X0196095Y0106869D02*
X0203474Y0106869D01*
X0207595Y0106869D02*
X0207595Y0106869D01*
X0207595Y0107868D02*
X0207595Y0107868D01*
X0207595Y0108866D02*
X0207595Y0108866D01*
X0207595Y0109662D02*
X0207595Y0113161D01*
X0207595Y0109662D01*
X0207595Y0109662D01*
X0207595Y0109865D02*
X0207595Y0109865D01*
X0207595Y0110863D02*
X0207595Y0110863D01*
X0207595Y0111862D02*
X0207595Y0111862D01*
X0207595Y0112860D02*
X0207595Y0112860D01*
X0204172Y0112860D02*
X0200396Y0112860D01*
X0200680Y0113859D02*
X0213545Y0113859D01*
X0213545Y0114857D02*
X0200691Y0114857D01*
X0200419Y0115856D02*
X0213545Y0115856D01*
X0213545Y0116854D02*
X0199841Y0116854D01*
X0199785Y0111862D02*
X0202856Y0111862D01*
X0211019Y0112860D02*
X0213545Y0112860D01*
X0213545Y0111862D02*
X0212334Y0111862D01*
X0212886Y0110863D02*
X0213545Y0110863D01*
X0213545Y0109865D02*
X0213095Y0109865D01*
X0213005Y0108866D02*
X0213545Y0108866D01*
X0213545Y0107868D02*
X0212606Y0107868D01*
X0211716Y0106869D02*
X0213545Y0106869D01*
X0213545Y0105871D02*
X0196095Y0105871D01*
X0196095Y0104872D02*
X0213545Y0104872D01*
X0213545Y0103874D02*
X0196095Y0103874D01*
X0196095Y0102875D02*
X0213545Y0102875D01*
X0213534Y0101877D02*
X0196095Y0101877D01*
X0196095Y0100878D02*
X0213508Y0100878D01*
X0213166Y0099879D02*
X0196095Y0099879D01*
X0196095Y0098881D02*
X0212414Y0098881D01*
X0185583Y0098881D02*
X0183922Y0098881D01*
X0184336Y0099879D02*
X0185583Y0099879D01*
X0185583Y0100878D02*
X0184608Y0100878D01*
X0184608Y0101877D02*
X0185583Y0101877D01*
X0185583Y0102875D02*
X0184382Y0102875D01*
X0183969Y0103874D02*
X0185583Y0103874D01*
X0185583Y0104872D02*
X0183038Y0104872D01*
X0181174Y0105871D02*
X0186269Y0105871D01*
X0176268Y0098881D02*
X0173922Y0098881D01*
X0167163Y0097983D02*
X0163027Y0097983D01*
X0163921Y0098877D01*
X0164608Y0100535D01*
X0164608Y0102331D01*
X0163921Y0103989D01*
X0162651Y0105259D01*
X0162472Y0105333D01*
X0167719Y0105333D01*
X0167539Y0105259D01*
X0166270Y0103989D01*
X0165583Y0102331D01*
X0165583Y0100535D01*
X0166270Y0098877D01*
X0167163Y0097983D01*
X0166268Y0098881D02*
X0163922Y0098881D01*
X0164336Y0099879D02*
X0165854Y0099879D01*
X0165583Y0100878D02*
X0164608Y0100878D01*
X0164608Y0101877D02*
X0165583Y0101877D01*
X0165808Y0102875D02*
X0164382Y0102875D01*
X0163969Y0103874D02*
X0166222Y0103874D01*
X0167152Y0104872D02*
X0163038Y0104872D01*
X0158618Y0109865D02*
X0146072Y0109865D01*
X0147071Y0110863D02*
X0157620Y0110863D01*
X0156621Y0111862D02*
X0148069Y0111862D01*
X0149068Y0112860D02*
X0155622Y0112860D01*
X0154624Y0113859D02*
X0150273Y0113859D01*
X0151272Y0114857D02*
X0153625Y0114857D01*
X0159595Y0111433D02*
X0145595Y0125433D01*
X0145595Y0128933D01*
X0134517Y0118851D02*
X0133554Y0118851D01*
X0131146Y0120848D02*
X0131044Y0120848D01*
X0131044Y0121847D02*
X0131146Y0121847D01*
X0131146Y0122845D02*
X0131044Y0122845D01*
X0129312Y0122845D02*
X0123395Y0122845D01*
X0123777Y0121847D02*
X0128504Y0121847D01*
X0128414Y0120848D02*
X0124776Y0120848D01*
X0125774Y0119850D02*
X0128414Y0119850D01*
X0128636Y0118851D02*
X0126773Y0118851D01*
X0127771Y0117853D02*
X0128637Y0117853D01*
X0136095Y0112268D02*
X0138260Y0112268D01*
X0139095Y0111433D01*
X0140345Y0113683D02*
X0137430Y0116598D01*
X0125807Y0102875D02*
X0117583Y0102875D01*
X0117583Y0103449D02*
X0117583Y0100389D01*
X0117481Y0100008D01*
X0117284Y0099666D01*
X0117004Y0099386D01*
X0116662Y0099189D01*
X0116281Y0099087D01*
X0114599Y0099087D01*
X0114599Y0103449D01*
X0117583Y0103449D01*
X0117583Y0101877D02*
X0125807Y0101877D01*
X0125807Y0100878D02*
X0117583Y0100878D01*
X0117407Y0099879D02*
X0125976Y0099879D01*
X0136268Y0098881D02*
X0110095Y0098881D01*
X0110095Y0099879D02*
X0110823Y0099879D01*
X0110646Y0100878D02*
X0110095Y0100878D01*
X0110095Y0101877D02*
X0110646Y0101877D01*
X0110646Y0102875D02*
X0110095Y0102875D01*
X0113631Y0102875D02*
X0114599Y0102875D01*
X0114599Y0101877D02*
X0113631Y0101877D01*
X0113631Y0100878D02*
X0114599Y0100878D01*
X0114599Y0099879D02*
X0113631Y0099879D01*
X0113631Y0104872D02*
X0114599Y0104872D01*
X0114599Y0105871D02*
X0113631Y0105871D01*
X0113631Y0106869D02*
X0114599Y0106869D01*
X0114599Y0107868D02*
X0113631Y0107868D01*
X0167145Y0151802D02*
X0177141Y0151802D01*
X0176449Y0152801D02*
X0167145Y0152801D01*
X0167145Y0153799D02*
X0176449Y0153799D01*
X0176449Y0154798D02*
X0167145Y0154798D01*
X0167145Y0155796D02*
X0176449Y0155796D01*
X0176449Y0156795D02*
X0174209Y0156795D01*
X0174895Y0157793D02*
X0176870Y0157793D01*
X0182249Y0158587D02*
X0183875Y0160213D01*
X0183875Y0166433D01*
X0189112Y0165781D02*
X0196370Y0165781D01*
X0194082Y0164783D02*
X0189112Y0164783D01*
X0201408Y0168777D02*
X0213545Y0168777D01*
X0213545Y0169775D02*
X0202407Y0169775D01*
X0203006Y0170774D02*
X0213545Y0170774D01*
X0213545Y0171772D02*
X0203420Y0171772D01*
X0203645Y0172771D02*
X0213545Y0172771D01*
X0213545Y0173769D02*
X0203645Y0173769D01*
X0203627Y0174768D02*
X0213545Y0174768D01*
X0213545Y0175766D02*
X0203213Y0175766D01*
X0202799Y0176765D02*
X0213545Y0176765D01*
X0213545Y0177763D02*
X0201907Y0177763D01*
X0200749Y0178762D02*
X0213545Y0178762D01*
X0213545Y0179760D02*
X0189112Y0179760D01*
X0189112Y0178762D02*
X0194441Y0178762D01*
X0194682Y0176433D02*
X0197595Y0173520D01*
X0194682Y0176433D02*
X0183875Y0176433D01*
X0178638Y0176765D02*
X0174973Y0176765D01*
X0174395Y0175766D02*
X0178638Y0175766D01*
X0178638Y0174768D02*
X0174395Y0174768D01*
X0174395Y0173769D02*
X0178638Y0173769D01*
X0178638Y0172771D02*
X0174395Y0172771D01*
X0175971Y0177763D02*
X0178638Y0177763D01*
X0178638Y0178762D02*
X0176970Y0178762D01*
X0173595Y0183933D02*
X0180095Y0190433D01*
X0180095Y0191433D01*
X0183172Y0194738D02*
X0185583Y0194738D01*
X0185583Y0193740D02*
X0184024Y0193740D01*
X0184438Y0192741D02*
X0185583Y0192741D01*
X0194608Y0192741D02*
X0213194Y0192741D01*
X0213509Y0191743D02*
X0194608Y0191743D01*
X0194608Y0190744D02*
X0213545Y0190744D01*
X0213545Y0189745D02*
X0194608Y0189745D01*
X0194608Y0188747D02*
X0213545Y0188747D01*
X0213545Y0187748D02*
X0194608Y0187748D01*
X0190458Y0186750D02*
X0213545Y0186750D01*
X0213545Y0185751D02*
X0189459Y0185751D01*
X0188461Y0184753D02*
X0213545Y0184753D01*
X0213545Y0183754D02*
X0187462Y0183754D01*
X0186464Y0182756D02*
X0213545Y0182756D01*
X0213545Y0181757D02*
X0185465Y0181757D01*
X0188474Y0180759D02*
X0213545Y0180759D01*
X0212538Y0193740D02*
X0194608Y0193740D01*
X0194608Y0194738D02*
X0210892Y0194738D01*
X0185366Y0186750D02*
X0178958Y0186750D01*
X0146316Y0166433D02*
X0146150Y0166268D01*
X0138595Y0166268D01*
X0141276Y0170774D02*
X0141731Y0170774D01*
X0127124Y0177763D02*
X0109095Y0177763D01*
X0109095Y0178762D02*
X0125599Y0178762D01*
X0125009Y0179760D02*
X0109095Y0179760D01*
X0109095Y0180759D02*
X0124795Y0180759D01*
X0124827Y0181757D02*
X0109095Y0181757D01*
X0109095Y0182756D02*
X0124827Y0182756D01*
X0124827Y0183754D02*
X0109095Y0183754D01*
X0109095Y0184753D02*
X0124827Y0184753D01*
X0122788Y0185751D02*
X0121788Y0185751D01*
X0121788Y0185602D02*
X0121788Y0190933D01*
X0118721Y0190933D01*
X0118721Y0186905D01*
X0118823Y0186523D01*
X0119021Y0186181D01*
X0119300Y0185902D01*
X0119642Y0185705D01*
X0120024Y0185602D01*
X0121788Y0185602D01*
X0121788Y0186750D02*
X0122788Y0186750D01*
X0122788Y0187748D02*
X0121788Y0187748D01*
X0121788Y0188747D02*
X0122788Y0188747D01*
X0122788Y0189745D02*
X0121788Y0189745D01*
X0121788Y0190744D02*
X0122788Y0190744D01*
X0121788Y0191743D02*
X0109095Y0191743D01*
X0109095Y0192741D02*
X0118721Y0192741D01*
X0118721Y0193740D02*
X0109095Y0193740D01*
X0109095Y0194738D02*
X0118721Y0194738D01*
X0118721Y0190744D02*
X0109095Y0190744D01*
X0109095Y0189745D02*
X0118721Y0189745D01*
X0118721Y0188747D02*
X0109095Y0188747D01*
X0109095Y0187748D02*
X0118721Y0187748D01*
X0118763Y0186750D02*
X0109095Y0186750D01*
X0109095Y0185751D02*
X0119561Y0185751D01*
X0182595Y0127433D02*
X0188595Y0121433D01*
X0186926Y0119850D02*
X0182195Y0119850D01*
X0182195Y0120848D02*
X0186295Y0120848D01*
X0185636Y0121847D02*
X0182195Y0121847D01*
X0182195Y0122845D02*
X0184637Y0122845D01*
X0183639Y0123844D02*
X0182195Y0123844D01*
X0182195Y0124842D02*
X0182640Y0124842D01*
D25*
X0159720Y0125558D03*
X0159720Y0122058D03*
X0155720Y0122058D03*
X0155720Y0125558D03*
X0145095Y0148433D03*
X0140095Y0148433D03*
X0135095Y0148433D03*
X0135095Y0153433D03*
X0135095Y0158433D03*
X0140095Y0158433D03*
X0145095Y0158433D03*
X0145095Y0153433D03*
X0140095Y0153433D03*
X0120595Y0145433D03*
X0118595Y0143433D03*
X0120595Y0141433D03*
X0113095Y0120933D03*
X0115595Y0118933D03*
X0113095Y0116933D03*
X0171095Y0152433D03*
X0173095Y0154933D03*
X0174595Y0152433D03*
X0188595Y0147933D03*
X0190095Y0150433D03*
X0191595Y0147933D03*
X0170595Y0178933D03*
X0168595Y0181433D03*
X0166595Y0178933D03*
X0134595Y0170433D03*
X0133095Y0172933D03*
X0131595Y0170433D03*
X0201595Y0186933D03*
X0204095Y0184433D03*
X0206595Y0186933D03*
D26*
X0191095Y0170433D03*
X0176095Y0167933D03*
X0168595Y0167933D03*
X0169095Y0160433D03*
X0172595Y0158433D03*
X0168095Y0147933D03*
X0158595Y0156933D03*
X0158095Y0159933D03*
X0156095Y0167933D03*
X0155095Y0171433D03*
X0153095Y0175433D03*
X0162595Y0181433D03*
X0154095Y0187433D03*
X0165345Y0175183D03*
X0137595Y0173933D03*
X0131095Y0176933D03*
X0132595Y0182933D03*
X0122970Y0184183D03*
X0128095Y0191933D03*
X0118095Y0194183D03*
X0112095Y0187933D03*
X0112095Y0182933D03*
X0112095Y0177933D03*
X0112095Y0172933D03*
X0112095Y0167933D03*
X0112095Y0162933D03*
X0117595Y0159933D03*
X0112095Y0158433D03*
X0111095Y0151933D03*
X0112095Y0147933D03*
X0112095Y0142933D03*
X0121595Y0137933D03*
X0126095Y0138308D03*
X0137595Y0133933D03*
X0140095Y0136433D03*
X0143095Y0133933D03*
X0146095Y0136933D03*
X0149595Y0131433D03*
X0145595Y0128933D03*
X0153095Y0137433D03*
X0168095Y0135933D03*
X0175595Y0135433D03*
X0182595Y0127433D03*
X0188595Y0121433D03*
X0184095Y0120433D03*
X0175345Y0119183D03*
X0175095Y0114433D03*
X0175095Y0110433D03*
X0170095Y0114933D03*
X0165595Y0115933D03*
X0165095Y0104933D03*
X0151095Y0113933D03*
X0149095Y0115933D03*
X0146095Y0118683D03*
X0140345Y0113683D03*
X0147595Y0110433D03*
X0132595Y0111433D03*
X0184095Y0107933D03*
X0192095Y0112433D03*
X0182595Y0143933D03*
X0209845Y0156058D03*
X0126095Y0170433D03*
X0122095Y0167933D03*
X0122095Y0172933D03*
D27*
X0137595Y0173933D02*
X0140095Y0176433D01*
X0146316Y0176433D01*
X0147595Y0175154D01*
X0147595Y0173933D01*
X0150095Y0171433D01*
X0155095Y0171433D01*
X0146316Y0176433D02*
X0146316Y0187654D01*
X0150095Y0191433D01*
X0168095Y0147933D02*
X0168095Y0135933D01*
X0168095Y0134933D01*
X0175095Y0127933D01*
X0175095Y0119433D01*
X0175345Y0119183D01*
X0180095Y0111433D02*
X0180095Y0141433D01*
X0182595Y0143933D01*
X0180095Y0111433D02*
X0176095Y0107433D01*
X0142595Y0107433D01*
X0142095Y0107433D01*
X0140095Y0105433D01*
X0140095Y0101433D01*
X0129145Y0104503D02*
X0129075Y0104503D01*
X0129075Y0103933D01*
D28*
X0142595Y0107433D02*
X0143595Y0108433D01*
X0143595Y0111433D01*
X0143595Y0114933D01*
X0140095Y0118433D01*
X0140095Y0136433D01*
X0146316Y0166433D02*
X0148816Y0168933D01*
D29*
X0128095Y0180933D03*
D30*
X0128095Y0185429D01*
M02*
