G75*
%MOIN*%
%OFA0B0*%
%FSLAX25Y25*%
%IPPOS*%
%LPD*%
%AMOC8*
5,1,8,0,0,1.08239X$1,22.5*
%
%ADD10C,0.00100*%
%ADD11C,0.00591*%
%ADD12C,0.00400*%
%ADD13R,0.04500X0.04500*%
%ADD14C,0.00661*%
%ADD15R,0.04000X0.03800*%
%ADD16R,0.03800X0.04000*%
%ADD17R,0.03937X0.03150*%
%ADD18R,0.04724X0.02165*%
%ADD19C,0.03740*%
%ADD20R,0.05315X0.01575*%
%ADD21R,0.01181X0.02598*%
%ADD22R,0.01969X0.03543*%
%ADD23R,0.03937X0.03937*%
%ADD24R,0.04921X0.01969*%
%ADD25R,0.04921X0.03937*%
%ADD26R,0.04961X0.04961*%
%ADD27C,0.00266*%
%ADD28R,0.03543X0.03937*%
D10*
X0090095Y0095933D02*
X0210345Y0095933D01*
X0210490Y0095939D01*
X0210636Y0095948D01*
X0210781Y0095961D01*
X0210925Y0095978D01*
X0211069Y0096000D01*
X0211213Y0096024D01*
X0211356Y0096053D01*
X0211497Y0096086D01*
X0211638Y0096122D01*
X0211778Y0096163D01*
X0211917Y0096207D01*
X0212055Y0096255D01*
X0212191Y0096306D01*
X0212325Y0096361D01*
X0212459Y0096420D01*
X0212590Y0096483D01*
X0212720Y0096549D01*
X0212848Y0096618D01*
X0212974Y0096691D01*
X0213098Y0096767D01*
X0213220Y0096847D01*
X0213340Y0096930D01*
X0213457Y0097016D01*
X0213572Y0097105D01*
X0213685Y0097197D01*
X0213795Y0097293D01*
X0213902Y0097391D01*
X0214007Y0097492D01*
X0214109Y0097596D01*
X0214208Y0097703D01*
X0214304Y0097812D01*
X0214397Y0097924D01*
X0214487Y0098038D01*
X0214574Y0098155D01*
X0214658Y0098274D01*
X0214739Y0098395D01*
X0214816Y0098519D01*
X0214890Y0098644D01*
X0214960Y0098772D01*
X0215027Y0098901D01*
X0215090Y0099032D01*
X0215150Y0099165D01*
X0215207Y0099299D01*
X0215259Y0099435D01*
X0215308Y0099572D01*
X0215353Y0099710D01*
X0215394Y0099850D01*
X0215432Y0099991D01*
X0215466Y0100132D01*
X0215496Y0100275D01*
X0215522Y0100418D01*
X0215544Y0100562D01*
X0215562Y0100706D01*
X0215577Y0100851D01*
X0215587Y0100996D01*
X0215593Y0101142D01*
X0215596Y0101287D01*
X0215595Y0101433D01*
X0215595Y0191433D01*
X0215596Y0191434D02*
X0215592Y0191582D01*
X0215584Y0191729D01*
X0215573Y0191877D01*
X0215557Y0192024D01*
X0215538Y0192171D01*
X0215515Y0192318D01*
X0215488Y0192463D01*
X0215457Y0192608D01*
X0215422Y0192752D01*
X0215383Y0192895D01*
X0215341Y0193037D01*
X0215295Y0193177D01*
X0215245Y0193317D01*
X0215191Y0193455D01*
X0215134Y0193591D01*
X0215073Y0193726D01*
X0215008Y0193860D01*
X0214940Y0193991D01*
X0214869Y0194121D01*
X0214794Y0194249D01*
X0214715Y0194375D01*
X0214634Y0194498D01*
X0214549Y0194619D01*
X0214461Y0194739D01*
X0214370Y0194855D01*
X0214275Y0194969D01*
X0214178Y0195081D01*
X0214078Y0195190D01*
X0213975Y0195296D01*
X0213869Y0195400D01*
X0213760Y0195501D01*
X0213649Y0195598D01*
X0213535Y0195693D01*
X0213419Y0195785D01*
X0213300Y0195873D01*
X0213179Y0195959D01*
X0213056Y0196041D01*
X0212931Y0196120D01*
X0212803Y0196195D01*
X0212674Y0196267D01*
X0212542Y0196336D01*
X0212409Y0196401D01*
X0212275Y0196462D01*
X0212138Y0196520D01*
X0212000Y0196574D01*
X0211861Y0196625D01*
X0211721Y0196672D01*
X0211579Y0196715D01*
X0211436Y0196754D01*
X0211292Y0196790D01*
X0211148Y0196821D01*
X0211002Y0196849D01*
X0210856Y0196873D01*
X0210709Y0196893D01*
X0210562Y0196909D01*
X0210415Y0196921D01*
X0210267Y0196929D01*
X0210119Y0196933D01*
X0209970Y0196934D01*
X0209970Y0196933D02*
X0084720Y0196933D01*
X0084720Y0101183D01*
X0084724Y0101040D01*
X0084732Y0100896D01*
X0084743Y0100753D01*
X0084758Y0100609D01*
X0084777Y0100467D01*
X0084800Y0100325D01*
X0084827Y0100183D01*
X0084858Y0100043D01*
X0084892Y0099903D01*
X0084931Y0099764D01*
X0084973Y0099627D01*
X0085018Y0099490D01*
X0085068Y0099355D01*
X0085121Y0099222D01*
X0085177Y0099089D01*
X0085238Y0098959D01*
X0085301Y0098830D01*
X0085369Y0098702D01*
X0085439Y0098577D01*
X0085513Y0098453D01*
X0085590Y0098332D01*
X0085671Y0098213D01*
X0085755Y0098096D01*
X0085841Y0097981D01*
X0085931Y0097869D01*
X0086024Y0097759D01*
X0086120Y0097652D01*
X0086219Y0097547D01*
X0086321Y0097445D01*
X0086425Y0097346D01*
X0086532Y0097250D01*
X0086641Y0097156D01*
X0086753Y0097066D01*
X0086868Y0096979D01*
X0086984Y0096895D01*
X0087103Y0096814D01*
X0087224Y0096736D01*
X0087348Y0096662D01*
X0087473Y0096591D01*
X0087600Y0096523D01*
X0087729Y0096459D01*
X0087859Y0096398D01*
X0087991Y0096341D01*
X0088125Y0096288D01*
X0088260Y0096238D01*
X0088396Y0096192D01*
X0088533Y0096149D01*
X0088672Y0096110D01*
X0088812Y0096075D01*
X0088952Y0096044D01*
X0089093Y0096017D01*
X0089235Y0095993D01*
X0089378Y0095974D01*
X0089521Y0095958D01*
X0089664Y0095946D01*
X0089808Y0095938D01*
X0089952Y0095934D01*
X0090096Y0095933D01*
D11*
X0122741Y0126319D02*
X0124119Y0126319D01*
X0124119Y0124547D01*
X0122741Y0124547D01*
X0122741Y0126319D01*
X0122741Y0125137D02*
X0124119Y0125137D01*
X0124119Y0125727D02*
X0122741Y0125727D01*
X0122741Y0126317D02*
X0124119Y0126317D01*
X0124119Y0130819D02*
X0122741Y0130819D01*
X0124119Y0130819D02*
X0124119Y0129047D01*
X0122741Y0129047D01*
X0122741Y0130819D01*
X0122741Y0129637D02*
X0124119Y0129637D01*
X0124119Y0130227D02*
X0122741Y0130227D01*
X0122741Y0130817D02*
X0124119Y0130817D01*
X0124119Y0135319D02*
X0122741Y0135319D01*
X0124119Y0135319D02*
X0124119Y0133547D01*
X0122741Y0133547D01*
X0122741Y0135319D01*
X0122741Y0134137D02*
X0124119Y0134137D01*
X0124119Y0134727D02*
X0122741Y0134727D01*
X0122741Y0135317D02*
X0124119Y0135317D01*
X0127071Y0135319D02*
X0128449Y0135319D01*
X0128449Y0133547D01*
X0127071Y0133547D01*
X0127071Y0135319D01*
X0127071Y0134137D02*
X0128449Y0134137D01*
X0128449Y0134727D02*
X0127071Y0134727D01*
X0127071Y0135317D02*
X0128449Y0135317D01*
X0128449Y0130819D02*
X0127071Y0130819D01*
X0128449Y0130819D02*
X0128449Y0129047D01*
X0127071Y0129047D01*
X0127071Y0130819D01*
X0127071Y0129637D02*
X0128449Y0129637D01*
X0128449Y0130227D02*
X0127071Y0130227D01*
X0127071Y0130817D02*
X0128449Y0130817D01*
X0128449Y0126319D02*
X0127071Y0126319D01*
X0128449Y0126319D02*
X0128449Y0124547D01*
X0127071Y0124547D01*
X0127071Y0126319D01*
X0127071Y0125137D02*
X0128449Y0125137D01*
X0128449Y0125727D02*
X0127071Y0125727D01*
X0127071Y0126317D02*
X0128449Y0126317D01*
X0174741Y0126547D02*
X0176119Y0126547D01*
X0174741Y0126547D02*
X0174741Y0128319D01*
X0176119Y0128319D01*
X0176119Y0126547D01*
X0176119Y0127137D02*
X0174741Y0127137D01*
X0174741Y0127727D02*
X0176119Y0127727D01*
X0176119Y0128317D02*
X0174741Y0128317D01*
X0179071Y0126547D02*
X0180449Y0126547D01*
X0179071Y0126547D02*
X0179071Y0128319D01*
X0180449Y0128319D01*
X0180449Y0126547D01*
X0180449Y0127137D02*
X0179071Y0127137D01*
X0179071Y0127727D02*
X0180449Y0127727D01*
X0180449Y0128317D02*
X0179071Y0128317D01*
X0179071Y0121547D02*
X0180449Y0121547D01*
X0179071Y0121547D02*
X0179071Y0123319D01*
X0180449Y0123319D01*
X0180449Y0121547D01*
X0180449Y0122137D02*
X0179071Y0122137D01*
X0179071Y0122727D02*
X0180449Y0122727D01*
X0180449Y0123317D02*
X0179071Y0123317D01*
X0176119Y0121547D02*
X0174741Y0121547D01*
X0174741Y0123319D01*
X0176119Y0123319D01*
X0176119Y0121547D01*
X0176119Y0122137D02*
X0174741Y0122137D01*
X0174741Y0122727D02*
X0176119Y0122727D01*
X0176119Y0123317D02*
X0174741Y0123317D01*
X0188209Y0130079D02*
X0188209Y0131457D01*
X0189981Y0131457D01*
X0189981Y0130079D01*
X0188209Y0130079D01*
X0188209Y0130669D02*
X0189981Y0130669D01*
X0189981Y0131259D02*
X0188209Y0131259D01*
X0188209Y0134409D02*
X0188209Y0135787D01*
X0189981Y0135787D01*
X0189981Y0134409D01*
X0188209Y0134409D01*
X0188209Y0134999D02*
X0189981Y0134999D01*
X0189981Y0135589D02*
X0188209Y0135589D01*
X0177449Y0162547D02*
X0176071Y0162547D01*
X0176071Y0164319D01*
X0177449Y0164319D01*
X0177449Y0162547D01*
X0177449Y0163137D02*
X0176071Y0163137D01*
X0176071Y0163727D02*
X0177449Y0163727D01*
X0177449Y0164317D02*
X0176071Y0164317D01*
X0173119Y0162547D02*
X0171741Y0162547D01*
X0171741Y0164319D01*
X0173119Y0164319D01*
X0173119Y0162547D01*
X0173119Y0163137D02*
X0171741Y0163137D01*
X0171741Y0163727D02*
X0173119Y0163727D01*
X0173119Y0164317D02*
X0171741Y0164317D01*
X0157209Y0170579D02*
X0157209Y0171957D01*
X0158981Y0171957D01*
X0158981Y0170579D01*
X0157209Y0170579D01*
X0157209Y0171169D02*
X0158981Y0171169D01*
X0158981Y0171759D02*
X0157209Y0171759D01*
X0157209Y0174909D02*
X0157209Y0176287D01*
X0158981Y0176287D01*
X0158981Y0174909D01*
X0157209Y0174909D01*
X0157209Y0175499D02*
X0158981Y0175499D01*
X0158981Y0176089D02*
X0157209Y0176089D01*
X0142949Y0178819D02*
X0141571Y0178819D01*
X0142949Y0178819D02*
X0142949Y0177047D01*
X0141571Y0177047D01*
X0141571Y0178819D01*
X0141571Y0177637D02*
X0142949Y0177637D01*
X0142949Y0178227D02*
X0141571Y0178227D01*
X0141571Y0178817D02*
X0142949Y0178817D01*
X0138619Y0178819D02*
X0137241Y0178819D01*
X0138619Y0178819D02*
X0138619Y0177047D01*
X0137241Y0177047D01*
X0137241Y0178819D01*
X0137241Y0177637D02*
X0138619Y0177637D01*
X0138619Y0178227D02*
X0137241Y0178227D01*
X0137241Y0178817D02*
X0138619Y0178817D01*
D12*
X0138757Y0167573D02*
X0139465Y0167573D01*
X0139465Y0165480D01*
X0138757Y0165480D01*
X0138757Y0167573D01*
X0139111Y0167476D02*
X0139111Y0165677D01*
X0140725Y0165480D02*
X0140725Y0167573D01*
X0141434Y0167573D01*
X0141434Y0165480D01*
X0140725Y0165480D01*
X0141079Y0165677D02*
X0141079Y0167376D01*
X0142694Y0167573D02*
X0143402Y0167573D01*
X0143402Y0165480D01*
X0142694Y0165480D01*
X0142694Y0167573D01*
X0143048Y0167376D02*
X0143048Y0165677D01*
X0144662Y0165480D02*
X0144662Y0167573D01*
X0145371Y0167573D01*
X0145371Y0165480D01*
X0144662Y0165480D01*
X0145016Y0165677D02*
X0145016Y0167376D01*
X0146631Y0167573D02*
X0146631Y0165480D01*
X0147339Y0165480D01*
X0147339Y0167573D01*
X0146631Y0167573D01*
X0146985Y0167376D02*
X0146985Y0165677D01*
X0148599Y0165480D02*
X0148599Y0167573D01*
X0149308Y0167573D01*
X0149308Y0165480D01*
X0148599Y0165480D01*
X0148953Y0165677D02*
X0148953Y0167276D01*
X0150568Y0167573D02*
X0150568Y0165480D01*
X0151276Y0165480D01*
X0151276Y0167573D01*
X0150568Y0167573D01*
X0150922Y0167376D02*
X0150922Y0165677D01*
X0152142Y0164614D02*
X0154235Y0164614D01*
X0154235Y0163906D01*
X0152142Y0163906D01*
X0152142Y0164614D01*
X0152339Y0164260D02*
X0154038Y0164260D01*
X0154235Y0162646D02*
X0152142Y0162646D01*
X0152142Y0161937D01*
X0154235Y0161937D01*
X0154235Y0162646D01*
X0154038Y0162291D02*
X0152339Y0162291D01*
X0152142Y0160677D02*
X0154235Y0160677D01*
X0154235Y0159969D01*
X0152142Y0159969D01*
X0152142Y0160677D01*
X0152339Y0160323D02*
X0154138Y0160323D01*
X0154235Y0158709D02*
X0152142Y0158709D01*
X0152142Y0158000D01*
X0154235Y0158000D01*
X0154235Y0158709D01*
X0154038Y0158354D02*
X0152339Y0158354D01*
X0152142Y0156740D02*
X0154235Y0156740D01*
X0154235Y0156031D01*
X0152142Y0156031D01*
X0152142Y0156740D01*
X0152339Y0156386D02*
X0154038Y0156386D01*
X0154235Y0154772D02*
X0154235Y0154063D01*
X0152142Y0154063D01*
X0152142Y0154772D01*
X0154235Y0154772D01*
X0154038Y0154417D02*
X0152339Y0154417D01*
X0152142Y0152803D02*
X0154235Y0152803D01*
X0154235Y0152094D01*
X0152142Y0152094D01*
X0152142Y0152803D01*
X0152339Y0152449D02*
X0154038Y0152449D01*
X0154235Y0150835D02*
X0152142Y0150835D01*
X0152142Y0150126D01*
X0154235Y0150126D01*
X0154235Y0150835D01*
X0154038Y0150480D02*
X0152339Y0150480D01*
X0152142Y0148866D02*
X0154235Y0148866D01*
X0154235Y0148157D01*
X0152142Y0148157D01*
X0152142Y0148866D01*
X0152339Y0148512D02*
X0154038Y0148512D01*
X0154235Y0146898D02*
X0152142Y0146898D01*
X0152142Y0146189D01*
X0154235Y0146189D01*
X0154235Y0146898D01*
X0154038Y0146543D02*
X0152339Y0146543D01*
X0152142Y0144929D02*
X0154235Y0144929D01*
X0154235Y0144220D01*
X0152142Y0144220D01*
X0152142Y0144929D01*
X0152339Y0144575D02*
X0154038Y0144575D01*
X0154235Y0142961D02*
X0154235Y0142252D01*
X0152142Y0142252D01*
X0152142Y0142961D01*
X0154235Y0142961D01*
X0154038Y0142606D02*
X0152339Y0142606D01*
X0151276Y0141386D02*
X0151276Y0139293D01*
X0150568Y0139293D01*
X0150568Y0141386D01*
X0151276Y0141386D01*
X0150922Y0141189D02*
X0150922Y0139490D01*
X0149308Y0139293D02*
X0149308Y0141386D01*
X0148599Y0141386D01*
X0148599Y0139293D01*
X0149308Y0139293D01*
X0148953Y0139490D02*
X0148953Y0141189D01*
X0147339Y0141386D02*
X0147339Y0139293D01*
X0146631Y0139293D01*
X0146631Y0141386D01*
X0147339Y0141386D01*
X0146985Y0141189D02*
X0146985Y0139490D01*
X0145371Y0139293D02*
X0145371Y0141386D01*
X0144662Y0141386D01*
X0144662Y0139293D01*
X0145371Y0139293D01*
X0145016Y0139490D02*
X0145016Y0141189D01*
X0143402Y0141386D02*
X0143402Y0139293D01*
X0142694Y0139293D01*
X0142694Y0141386D01*
X0143402Y0141386D01*
X0143048Y0141189D02*
X0143048Y0139490D01*
X0141434Y0139293D02*
X0140725Y0139293D01*
X0140725Y0141386D01*
X0141434Y0141386D01*
X0141434Y0139293D01*
X0141079Y0139490D02*
X0141079Y0141189D01*
X0139465Y0141386D02*
X0139465Y0139293D01*
X0138757Y0139293D01*
X0138757Y0141386D01*
X0139465Y0141386D01*
X0139111Y0141189D02*
X0139111Y0139490D01*
X0137497Y0139293D02*
X0136788Y0139293D01*
X0136788Y0141386D01*
X0137497Y0141386D01*
X0137497Y0139293D01*
X0137142Y0139390D02*
X0137142Y0141189D01*
X0135528Y0141386D02*
X0135528Y0139293D01*
X0134820Y0139293D01*
X0134820Y0141386D01*
X0135528Y0141386D01*
X0135174Y0141189D02*
X0135174Y0139490D01*
X0133560Y0139293D02*
X0132851Y0139293D01*
X0132851Y0141386D01*
X0133560Y0141386D01*
X0133560Y0139293D01*
X0133205Y0139490D02*
X0133205Y0141189D01*
X0131591Y0141386D02*
X0131591Y0139293D01*
X0130883Y0139293D01*
X0130883Y0141386D01*
X0131591Y0141386D01*
X0131237Y0141189D02*
X0131237Y0139490D01*
X0129623Y0139293D02*
X0128914Y0139293D01*
X0128914Y0141386D01*
X0129623Y0141386D01*
X0129623Y0139293D01*
X0129268Y0139490D02*
X0129268Y0141189D01*
X0128048Y0142252D02*
X0128048Y0142961D01*
X0125955Y0142961D01*
X0125955Y0142252D01*
X0128048Y0142252D01*
X0127851Y0142606D02*
X0126052Y0142606D01*
X0125955Y0144220D02*
X0125955Y0144929D01*
X0128048Y0144929D01*
X0128048Y0144220D01*
X0125955Y0144220D01*
X0126152Y0144575D02*
X0127851Y0144575D01*
X0128048Y0146189D02*
X0125955Y0146189D01*
X0125955Y0146898D01*
X0128048Y0146898D01*
X0128048Y0146189D01*
X0127851Y0146543D02*
X0126152Y0146543D01*
X0125955Y0148157D02*
X0125955Y0148866D01*
X0128048Y0148866D01*
X0128048Y0148157D01*
X0125955Y0148157D01*
X0126052Y0148512D02*
X0127851Y0148512D01*
X0128048Y0150126D02*
X0125955Y0150126D01*
X0125955Y0150835D01*
X0128048Y0150835D01*
X0128048Y0150126D01*
X0127851Y0150480D02*
X0126152Y0150480D01*
X0125955Y0152094D02*
X0125955Y0152803D01*
X0128048Y0152803D01*
X0128048Y0152094D01*
X0125955Y0152094D01*
X0126152Y0152449D02*
X0127851Y0152449D01*
X0128048Y0154063D02*
X0125955Y0154063D01*
X0125955Y0154772D01*
X0128048Y0154772D01*
X0128048Y0154063D01*
X0127851Y0154417D02*
X0126152Y0154417D01*
X0125955Y0156031D02*
X0125955Y0156740D01*
X0128048Y0156740D01*
X0128048Y0156031D01*
X0125955Y0156031D01*
X0126152Y0156386D02*
X0127851Y0156386D01*
X0128048Y0158000D02*
X0125955Y0158000D01*
X0125955Y0158709D01*
X0128048Y0158709D01*
X0128048Y0158000D01*
X0127851Y0158354D02*
X0126152Y0158354D01*
X0125955Y0159969D02*
X0125955Y0160677D01*
X0128048Y0160677D01*
X0128048Y0159969D01*
X0125955Y0159969D01*
X0126052Y0160323D02*
X0127851Y0160323D01*
X0128048Y0161937D02*
X0125955Y0161937D01*
X0125955Y0162646D01*
X0128048Y0162646D01*
X0128048Y0161937D01*
X0127851Y0162291D02*
X0126152Y0162291D01*
X0125955Y0163906D02*
X0125955Y0164614D01*
X0128048Y0164614D01*
X0128048Y0163906D01*
X0125955Y0163906D01*
X0126152Y0164260D02*
X0127851Y0164260D01*
X0128914Y0165480D02*
X0128914Y0167583D01*
X0129268Y0167583D01*
X0129268Y0165677D01*
X0129623Y0165480D02*
X0128914Y0165480D01*
X0129623Y0165480D02*
X0129623Y0167583D01*
X0129268Y0167583D01*
X0130883Y0167573D02*
X0131591Y0167573D01*
X0131591Y0165480D01*
X0130883Y0165480D01*
X0130883Y0167573D01*
X0131237Y0167376D02*
X0131237Y0165677D01*
X0132851Y0165480D02*
X0132851Y0167573D01*
X0133560Y0167573D01*
X0133560Y0165480D01*
X0132851Y0165480D01*
X0133205Y0165677D02*
X0133205Y0167476D01*
X0134820Y0167573D02*
X0135528Y0167573D01*
X0135528Y0165480D01*
X0134820Y0165480D01*
X0134820Y0167573D01*
X0135174Y0167376D02*
X0135174Y0165677D01*
X0136788Y0165480D02*
X0136788Y0167573D01*
X0137497Y0167573D01*
X0137497Y0165480D01*
X0136788Y0165480D01*
X0137142Y0165677D02*
X0137142Y0167476D01*
D13*
X0140095Y0159683D03*
X0146345Y0159683D03*
X0146345Y0153433D03*
X0140095Y0153433D03*
X0133845Y0153433D03*
X0133845Y0147183D03*
X0140095Y0147183D03*
X0146345Y0147183D03*
X0133845Y0159683D03*
D14*
X0121917Y0157284D02*
X0120373Y0157284D01*
X0121917Y0157284D02*
X0121917Y0155582D01*
X0120373Y0155582D01*
X0120373Y0157284D01*
X0120373Y0156242D02*
X0121917Y0156242D01*
X0121917Y0156902D02*
X0120373Y0156902D01*
X0117802Y0157284D02*
X0116258Y0157284D01*
X0117802Y0157284D02*
X0117802Y0155582D01*
X0116258Y0155582D01*
X0116258Y0157284D01*
X0116258Y0156242D02*
X0117802Y0156242D01*
X0117802Y0156902D02*
X0116258Y0156902D01*
X0116258Y0153284D02*
X0117802Y0153284D01*
X0117802Y0151582D01*
X0116258Y0151582D01*
X0116258Y0153284D01*
X0116258Y0152242D02*
X0117802Y0152242D01*
X0117802Y0152902D02*
X0116258Y0152902D01*
X0120373Y0153284D02*
X0121917Y0153284D01*
X0121917Y0151582D01*
X0120373Y0151582D01*
X0120373Y0153284D01*
X0120373Y0152242D02*
X0121917Y0152242D01*
X0121917Y0152902D02*
X0120373Y0152902D01*
X0155773Y0135082D02*
X0157317Y0135082D01*
X0155773Y0135082D02*
X0155773Y0136784D01*
X0157317Y0136784D01*
X0157317Y0135082D01*
X0157317Y0135742D02*
X0155773Y0135742D01*
X0155773Y0136402D02*
X0157317Y0136402D01*
X0159888Y0135082D02*
X0161432Y0135082D01*
X0159888Y0135082D02*
X0159888Y0136784D01*
X0161432Y0136784D01*
X0161432Y0135082D01*
X0161432Y0135742D02*
X0159888Y0135742D01*
X0159888Y0136402D02*
X0161432Y0136402D01*
X0160442Y0138957D02*
X0158898Y0138957D01*
X0158898Y0140659D01*
X0160442Y0140659D01*
X0160442Y0138957D01*
X0160442Y0139617D02*
X0158898Y0139617D01*
X0158898Y0140277D02*
X0160442Y0140277D01*
X0163013Y0138957D02*
X0164557Y0138957D01*
X0163013Y0138957D02*
X0163013Y0140659D01*
X0164557Y0140659D01*
X0164557Y0138957D01*
X0164557Y0139617D02*
X0163013Y0139617D01*
X0163013Y0140277D02*
X0164557Y0140277D01*
X0164373Y0148784D02*
X0165917Y0148784D01*
X0165917Y0147082D01*
X0164373Y0147082D01*
X0164373Y0148784D01*
X0164373Y0147742D02*
X0165917Y0147742D01*
X0165917Y0148402D02*
X0164373Y0148402D01*
X0161802Y0148784D02*
X0160258Y0148784D01*
X0161802Y0148784D02*
X0161802Y0147082D01*
X0160258Y0147082D01*
X0160258Y0148784D01*
X0160258Y0147742D02*
X0161802Y0147742D01*
X0161802Y0148402D02*
X0160258Y0148402D01*
X0177758Y0154034D02*
X0179302Y0154034D01*
X0179302Y0152332D01*
X0177758Y0152332D01*
X0177758Y0154034D01*
X0177758Y0152992D02*
X0179302Y0152992D01*
X0179302Y0153652D02*
X0177758Y0153652D01*
X0181873Y0154034D02*
X0183417Y0154034D01*
X0183417Y0152332D01*
X0181873Y0152332D01*
X0181873Y0154034D01*
X0181873Y0152992D02*
X0183417Y0152992D01*
X0183417Y0153652D02*
X0181873Y0153652D01*
X0181946Y0135770D02*
X0181946Y0134226D01*
X0180244Y0134226D01*
X0180244Y0135770D01*
X0181946Y0135770D01*
X0181946Y0134886D02*
X0180244Y0134886D01*
X0180244Y0135546D02*
X0181946Y0135546D01*
X0185946Y0135770D02*
X0185946Y0134226D01*
X0184244Y0134226D01*
X0184244Y0135770D01*
X0185946Y0135770D01*
X0185946Y0134886D02*
X0184244Y0134886D01*
X0184244Y0135546D02*
X0185946Y0135546D01*
X0185946Y0131655D02*
X0185946Y0130111D01*
X0184244Y0130111D01*
X0184244Y0131655D01*
X0185946Y0131655D01*
X0185946Y0130771D02*
X0184244Y0130771D01*
X0184244Y0131431D02*
X0185946Y0131431D01*
X0181946Y0131655D02*
X0181946Y0130111D01*
X0180244Y0130111D01*
X0180244Y0131655D01*
X0181946Y0131655D01*
X0181946Y0130771D02*
X0180244Y0130771D01*
X0180244Y0131431D02*
X0181946Y0131431D01*
X0175432Y0131082D02*
X0173888Y0131082D01*
X0173888Y0132784D01*
X0175432Y0132784D01*
X0175432Y0131082D01*
X0175432Y0131742D02*
X0173888Y0131742D01*
X0173888Y0132402D02*
X0175432Y0132402D01*
X0171317Y0131082D02*
X0169773Y0131082D01*
X0169773Y0132784D01*
X0171317Y0132784D01*
X0171317Y0131082D01*
X0171317Y0131742D02*
X0169773Y0131742D01*
X0169773Y0132402D02*
X0171317Y0132402D01*
D15*
X0124192Y0178933D03*
X0117499Y0178933D03*
D16*
X0117595Y0178837D03*
X0117595Y0185530D03*
D17*
X0118048Y0133598D03*
X0112142Y0133598D03*
X0112142Y0129268D03*
X0118048Y0129268D03*
D18*
X0172477Y0140193D03*
X0172477Y0143933D03*
X0172477Y0147673D03*
X0182714Y0147673D03*
X0182714Y0140193D03*
D19*
X0205725Y0130527D02*
X0209465Y0130527D01*
X0209465Y0126787D01*
X0205725Y0126787D01*
X0205725Y0130527D01*
X0205725Y0130526D02*
X0209465Y0130526D01*
X0209465Y0121079D02*
X0205725Y0121079D01*
X0209465Y0121079D02*
X0209465Y0117339D01*
X0205725Y0117339D01*
X0205725Y0121079D01*
X0205725Y0121078D02*
X0209465Y0121078D01*
D20*
X0196276Y0121374D03*
X0196276Y0123933D03*
X0196276Y0126492D03*
X0196276Y0129051D03*
X0196276Y0118815D03*
D21*
X0140154Y0117811D03*
X0137595Y0117811D03*
X0135036Y0117811D03*
X0135036Y0125055D03*
X0137595Y0125055D03*
X0140154Y0125055D03*
D22*
X0182930Y0115433D03*
X0187260Y0115433D03*
X0192930Y0142933D03*
X0197260Y0142933D03*
D23*
X0091095Y0170122D03*
D24*
X0087650Y0188823D03*
X0094540Y0188823D03*
D25*
X0094540Y0193744D03*
D26*
X0157595Y0123933D03*
D27*
X0163693Y0124331D02*
X0166733Y0124331D01*
X0166733Y0123535D01*
X0163693Y0123535D01*
X0163693Y0124331D01*
X0163693Y0123800D02*
X0166733Y0123800D01*
X0166733Y0124065D02*
X0163693Y0124065D01*
X0163693Y0124330D02*
X0166733Y0124330D01*
X0166733Y0126300D02*
X0163693Y0126300D01*
X0166733Y0126300D02*
X0166733Y0125504D01*
X0163693Y0125504D01*
X0163693Y0126300D01*
X0163693Y0125769D02*
X0166733Y0125769D01*
X0166733Y0126034D02*
X0163693Y0126034D01*
X0163693Y0126299D02*
X0166733Y0126299D01*
X0166733Y0128268D02*
X0163693Y0128268D01*
X0166733Y0128268D02*
X0166733Y0127472D01*
X0163693Y0127472D01*
X0163693Y0128268D01*
X0163693Y0127737D02*
X0166733Y0127737D01*
X0166733Y0128002D02*
X0163693Y0128002D01*
X0163693Y0128267D02*
X0166733Y0128267D01*
X0161930Y0130031D02*
X0161930Y0133071D01*
X0161930Y0130031D02*
X0161134Y0130031D01*
X0161134Y0133071D01*
X0161930Y0133071D01*
X0161930Y0130296D02*
X0161134Y0130296D01*
X0161134Y0130561D02*
X0161930Y0130561D01*
X0161930Y0130826D02*
X0161134Y0130826D01*
X0161134Y0131091D02*
X0161930Y0131091D01*
X0161930Y0131356D02*
X0161134Y0131356D01*
X0161134Y0131621D02*
X0161930Y0131621D01*
X0161930Y0131886D02*
X0161134Y0131886D01*
X0161134Y0132151D02*
X0161930Y0132151D01*
X0161930Y0132416D02*
X0161134Y0132416D01*
X0161134Y0132681D02*
X0161930Y0132681D01*
X0161930Y0132946D02*
X0161134Y0132946D01*
X0159962Y0133071D02*
X0159962Y0130031D01*
X0159166Y0130031D01*
X0159166Y0133071D01*
X0159962Y0133071D01*
X0159962Y0130296D02*
X0159166Y0130296D01*
X0159166Y0130561D02*
X0159962Y0130561D01*
X0159962Y0130826D02*
X0159166Y0130826D01*
X0159166Y0131091D02*
X0159962Y0131091D01*
X0159962Y0131356D02*
X0159166Y0131356D01*
X0159166Y0131621D02*
X0159962Y0131621D01*
X0159962Y0131886D02*
X0159166Y0131886D01*
X0159166Y0132151D02*
X0159962Y0132151D01*
X0159962Y0132416D02*
X0159166Y0132416D01*
X0159166Y0132681D02*
X0159962Y0132681D01*
X0159962Y0132946D02*
X0159166Y0132946D01*
X0157993Y0133071D02*
X0157993Y0130031D01*
X0157197Y0130031D01*
X0157197Y0133071D01*
X0157993Y0133071D01*
X0157993Y0130296D02*
X0157197Y0130296D01*
X0157197Y0130561D02*
X0157993Y0130561D01*
X0157993Y0130826D02*
X0157197Y0130826D01*
X0157197Y0131091D02*
X0157993Y0131091D01*
X0157993Y0131356D02*
X0157197Y0131356D01*
X0157197Y0131621D02*
X0157993Y0131621D01*
X0157993Y0131886D02*
X0157197Y0131886D01*
X0157197Y0132151D02*
X0157993Y0132151D01*
X0157993Y0132416D02*
X0157197Y0132416D01*
X0157197Y0132681D02*
X0157993Y0132681D01*
X0157993Y0132946D02*
X0157197Y0132946D01*
X0156025Y0133071D02*
X0156025Y0130031D01*
X0155229Y0130031D01*
X0155229Y0133071D01*
X0156025Y0133071D01*
X0156025Y0130296D02*
X0155229Y0130296D01*
X0155229Y0130561D02*
X0156025Y0130561D01*
X0156025Y0130826D02*
X0155229Y0130826D01*
X0155229Y0131091D02*
X0156025Y0131091D01*
X0156025Y0131356D02*
X0155229Y0131356D01*
X0155229Y0131621D02*
X0156025Y0131621D01*
X0156025Y0131886D02*
X0155229Y0131886D01*
X0155229Y0132151D02*
X0156025Y0132151D01*
X0156025Y0132416D02*
X0155229Y0132416D01*
X0155229Y0132681D02*
X0156025Y0132681D01*
X0156025Y0132946D02*
X0155229Y0132946D01*
X0154056Y0133071D02*
X0154056Y0130031D01*
X0153260Y0130031D01*
X0153260Y0133071D01*
X0154056Y0133071D01*
X0154056Y0130296D02*
X0153260Y0130296D01*
X0153260Y0130561D02*
X0154056Y0130561D01*
X0154056Y0130826D02*
X0153260Y0130826D01*
X0153260Y0131091D02*
X0154056Y0131091D01*
X0154056Y0131356D02*
X0153260Y0131356D01*
X0153260Y0131621D02*
X0154056Y0131621D01*
X0154056Y0131886D02*
X0153260Y0131886D01*
X0153260Y0132151D02*
X0154056Y0132151D01*
X0154056Y0132416D02*
X0153260Y0132416D01*
X0153260Y0132681D02*
X0154056Y0132681D01*
X0154056Y0132946D02*
X0153260Y0132946D01*
X0151497Y0128268D02*
X0148457Y0128268D01*
X0151497Y0128268D02*
X0151497Y0127472D01*
X0148457Y0127472D01*
X0148457Y0128268D01*
X0148457Y0127737D02*
X0151497Y0127737D01*
X0151497Y0128002D02*
X0148457Y0128002D01*
X0148457Y0128267D02*
X0151497Y0128267D01*
X0151497Y0126300D02*
X0148457Y0126300D01*
X0151497Y0126300D02*
X0151497Y0125504D01*
X0148457Y0125504D01*
X0148457Y0126300D01*
X0148457Y0125769D02*
X0151497Y0125769D01*
X0151497Y0126034D02*
X0148457Y0126034D01*
X0148457Y0126299D02*
X0151497Y0126299D01*
X0151497Y0124331D02*
X0148457Y0124331D01*
X0151497Y0124331D02*
X0151497Y0123535D01*
X0148457Y0123535D01*
X0148457Y0124331D01*
X0148457Y0123800D02*
X0151497Y0123800D01*
X0151497Y0124065D02*
X0148457Y0124065D01*
X0148457Y0124330D02*
X0151497Y0124330D01*
X0151497Y0122363D02*
X0148457Y0122363D01*
X0151497Y0122363D02*
X0151497Y0121567D01*
X0148457Y0121567D01*
X0148457Y0122363D01*
X0148457Y0121832D02*
X0151497Y0121832D01*
X0151497Y0122097D02*
X0148457Y0122097D01*
X0148457Y0122362D02*
X0151497Y0122362D01*
X0151497Y0120394D02*
X0148457Y0120394D01*
X0151497Y0120394D02*
X0151497Y0119598D01*
X0148457Y0119598D01*
X0148457Y0120394D01*
X0148457Y0119863D02*
X0151497Y0119863D01*
X0151497Y0120128D02*
X0148457Y0120128D01*
X0148457Y0120393D02*
X0151497Y0120393D01*
X0154056Y0117835D02*
X0154056Y0114795D01*
X0153260Y0114795D01*
X0153260Y0117835D01*
X0154056Y0117835D01*
X0154056Y0115060D02*
X0153260Y0115060D01*
X0153260Y0115325D02*
X0154056Y0115325D01*
X0154056Y0115590D02*
X0153260Y0115590D01*
X0153260Y0115855D02*
X0154056Y0115855D01*
X0154056Y0116120D02*
X0153260Y0116120D01*
X0153260Y0116385D02*
X0154056Y0116385D01*
X0154056Y0116650D02*
X0153260Y0116650D01*
X0153260Y0116915D02*
X0154056Y0116915D01*
X0154056Y0117180D02*
X0153260Y0117180D01*
X0153260Y0117445D02*
X0154056Y0117445D01*
X0154056Y0117710D02*
X0153260Y0117710D01*
X0156025Y0117835D02*
X0156025Y0114795D01*
X0155229Y0114795D01*
X0155229Y0117835D01*
X0156025Y0117835D01*
X0156025Y0115060D02*
X0155229Y0115060D01*
X0155229Y0115325D02*
X0156025Y0115325D01*
X0156025Y0115590D02*
X0155229Y0115590D01*
X0155229Y0115855D02*
X0156025Y0115855D01*
X0156025Y0116120D02*
X0155229Y0116120D01*
X0155229Y0116385D02*
X0156025Y0116385D01*
X0156025Y0116650D02*
X0155229Y0116650D01*
X0155229Y0116915D02*
X0156025Y0116915D01*
X0156025Y0117180D02*
X0155229Y0117180D01*
X0155229Y0117445D02*
X0156025Y0117445D01*
X0156025Y0117710D02*
X0155229Y0117710D01*
X0157993Y0117835D02*
X0157993Y0114795D01*
X0157197Y0114795D01*
X0157197Y0117835D01*
X0157993Y0117835D01*
X0157993Y0115060D02*
X0157197Y0115060D01*
X0157197Y0115325D02*
X0157993Y0115325D01*
X0157993Y0115590D02*
X0157197Y0115590D01*
X0157197Y0115855D02*
X0157993Y0115855D01*
X0157993Y0116120D02*
X0157197Y0116120D01*
X0157197Y0116385D02*
X0157993Y0116385D01*
X0157993Y0116650D02*
X0157197Y0116650D01*
X0157197Y0116915D02*
X0157993Y0116915D01*
X0157993Y0117180D02*
X0157197Y0117180D01*
X0157197Y0117445D02*
X0157993Y0117445D01*
X0157993Y0117710D02*
X0157197Y0117710D01*
X0159962Y0117835D02*
X0159962Y0114795D01*
X0159166Y0114795D01*
X0159166Y0117835D01*
X0159962Y0117835D01*
X0159962Y0115060D02*
X0159166Y0115060D01*
X0159166Y0115325D02*
X0159962Y0115325D01*
X0159962Y0115590D02*
X0159166Y0115590D01*
X0159166Y0115855D02*
X0159962Y0115855D01*
X0159962Y0116120D02*
X0159166Y0116120D01*
X0159166Y0116385D02*
X0159962Y0116385D01*
X0159962Y0116650D02*
X0159166Y0116650D01*
X0159166Y0116915D02*
X0159962Y0116915D01*
X0159962Y0117180D02*
X0159166Y0117180D01*
X0159166Y0117445D02*
X0159962Y0117445D01*
X0159962Y0117710D02*
X0159166Y0117710D01*
X0161930Y0117835D02*
X0161930Y0114795D01*
X0161134Y0114795D01*
X0161134Y0117835D01*
X0161930Y0117835D01*
X0161930Y0115060D02*
X0161134Y0115060D01*
X0161134Y0115325D02*
X0161930Y0115325D01*
X0161930Y0115590D02*
X0161134Y0115590D01*
X0161134Y0115855D02*
X0161930Y0115855D01*
X0161930Y0116120D02*
X0161134Y0116120D01*
X0161134Y0116385D02*
X0161930Y0116385D01*
X0161930Y0116650D02*
X0161134Y0116650D01*
X0161134Y0116915D02*
X0161930Y0116915D01*
X0161930Y0117180D02*
X0161134Y0117180D01*
X0161134Y0117445D02*
X0161930Y0117445D01*
X0161930Y0117710D02*
X0161134Y0117710D01*
X0163693Y0120394D02*
X0166733Y0120394D01*
X0166733Y0119598D01*
X0163693Y0119598D01*
X0163693Y0120394D01*
X0163693Y0119863D02*
X0166733Y0119863D01*
X0166733Y0120128D02*
X0163693Y0120128D01*
X0163693Y0120393D02*
X0166733Y0120393D01*
X0166733Y0122363D02*
X0163693Y0122363D01*
X0166733Y0122363D02*
X0166733Y0121567D01*
X0163693Y0121567D01*
X0163693Y0122363D01*
X0163693Y0121832D02*
X0166733Y0121832D01*
X0166733Y0122097D02*
X0163693Y0122097D01*
X0163693Y0122362D02*
X0166733Y0122362D01*
D28*
X0130166Y0107083D03*
X0130166Y0100783D03*
X0114024Y0100783D03*
X0114024Y0107083D03*
M02*
