%
M48
M72
T01C0.01000
T02C0.01400
T03C0.02000
T04C0.02300
T05C0.03150
T06C0.04016
T07C0.04331
%
T01
X192095Y112433
X184095Y107933
X175095Y110433
X175095Y114433
X175345Y119183
X170095Y114933
X165595Y115933
X165095Y104933
X151095Y113933
X149095Y115933
X146095Y118683
X140345Y113683
X147595Y110433
X132595Y111433
X145595Y128933
X149595Y131433
X146095Y136933
X143095Y133933
X140095Y136433
X137595Y133933
X126095Y138308
X121595Y137933
X112095Y142933
X112095Y147933
X111095Y151933
X112095Y158433
X117595Y159933
X112095Y162933
X112095Y167933
X112095Y172933
X112095Y177933
X112095Y182933
X112095Y187933
X118095Y194183
X128095Y191933
X122970Y184183
X132595Y182933
X131095Y176933
X137595Y173933
X126095Y170433
X122095Y167933
X122095Y172933
X153095Y175433
X155095Y171433
X156095Y167933
X158095Y159933
X158595Y156933
X169095Y160433
X172595Y158433
X176095Y167933
X168595Y167933
X165345Y175183
X162595Y181433
X154095Y187433
X191095Y170433
X209845Y156058
X182595Y143933
X175595Y135433
X168095Y135933
X182595Y127433
X188595Y121433
X184095Y120433
X153095Y137433
X168095Y147933
T02
X159720Y122058
X159720Y125558
X155720Y125558
X155720Y122058
X120595Y141433
X118595Y143433
X120595Y145433
X135095Y148433
X135095Y153433
X135095Y158433
X140095Y158433
X145095Y158433
X145095Y153433
X140095Y153433
X140095Y148433
X145095Y148433
X171095Y152433
X173095Y154933
X174595Y152433
X188595Y147933
X190095Y150433
X191595Y147933
X170595Y178933
X168595Y181433
X166595Y178933
X134595Y170433
X133095Y172933
X131595Y170433
X201595Y186933
X204095Y184433
X206595Y186933
X115595Y118933
X113095Y116933
X113095Y120933
T03
X207595Y109661
X207595Y138205
T04
X128095Y180933
T05
X196847Y114386
X196847Y133480
T06
X190095Y101433
X180095Y101433
X170095Y101433
X160095Y101433
X150095Y101433
X140095Y101433
X140095Y191433
X150095Y191433
X160095Y191433
X170095Y191433
X180095Y191433
X190095Y191433
T07
X197595Y159740
X197595Y173520
M30
