G75*
%MOIN*%
%OFA0B0*%
%FSLAX25Y25*%
%IPPOS*%
%LPD*%
%AMOC8*
5,1,8,0,0,1.08239X$1,22.5*
%
%ADD10C,0.00100*%
%ADD11R,0.07874X0.06299*%
%ADD12R,0.04000X0.03800*%
%ADD13C,0.00591*%
%ADD14R,0.04000X0.04500*%
%ADD15C,0.00661*%
%ADD16R,0.04134X0.08661*%
%ADD17R,0.03937X0.04134*%
%ADD18R,0.03937X0.06693*%
D10*
X0090095Y0095933D02*
X0210345Y0095933D01*
X0210490Y0095939D01*
X0210636Y0095948D01*
X0210781Y0095961D01*
X0210925Y0095978D01*
X0211069Y0096000D01*
X0211213Y0096024D01*
X0211356Y0096053D01*
X0211497Y0096086D01*
X0211638Y0096122D01*
X0211778Y0096163D01*
X0211917Y0096207D01*
X0212055Y0096255D01*
X0212191Y0096306D01*
X0212325Y0096361D01*
X0212459Y0096420D01*
X0212590Y0096483D01*
X0212720Y0096549D01*
X0212848Y0096618D01*
X0212974Y0096691D01*
X0213098Y0096767D01*
X0213220Y0096847D01*
X0213340Y0096930D01*
X0213457Y0097016D01*
X0213572Y0097105D01*
X0213685Y0097197D01*
X0213795Y0097293D01*
X0213902Y0097391D01*
X0214007Y0097492D01*
X0214109Y0097596D01*
X0214208Y0097703D01*
X0214304Y0097812D01*
X0214397Y0097924D01*
X0214487Y0098038D01*
X0214574Y0098155D01*
X0214658Y0098274D01*
X0214739Y0098395D01*
X0214816Y0098519D01*
X0214890Y0098644D01*
X0214960Y0098772D01*
X0215027Y0098901D01*
X0215090Y0099032D01*
X0215150Y0099165D01*
X0215207Y0099299D01*
X0215259Y0099435D01*
X0215308Y0099572D01*
X0215353Y0099710D01*
X0215394Y0099850D01*
X0215432Y0099991D01*
X0215466Y0100132D01*
X0215496Y0100275D01*
X0215522Y0100418D01*
X0215544Y0100562D01*
X0215562Y0100706D01*
X0215577Y0100851D01*
X0215587Y0100996D01*
X0215593Y0101142D01*
X0215596Y0101287D01*
X0215595Y0101433D01*
X0215595Y0191433D01*
X0215596Y0191434D02*
X0215592Y0191582D01*
X0215584Y0191729D01*
X0215573Y0191877D01*
X0215557Y0192024D01*
X0215538Y0192171D01*
X0215515Y0192318D01*
X0215488Y0192463D01*
X0215457Y0192608D01*
X0215422Y0192752D01*
X0215383Y0192895D01*
X0215341Y0193037D01*
X0215295Y0193177D01*
X0215245Y0193317D01*
X0215191Y0193455D01*
X0215134Y0193591D01*
X0215073Y0193726D01*
X0215008Y0193860D01*
X0214940Y0193991D01*
X0214869Y0194121D01*
X0214794Y0194249D01*
X0214715Y0194375D01*
X0214634Y0194498D01*
X0214549Y0194619D01*
X0214461Y0194739D01*
X0214370Y0194855D01*
X0214275Y0194969D01*
X0214178Y0195081D01*
X0214078Y0195190D01*
X0213975Y0195296D01*
X0213869Y0195400D01*
X0213760Y0195501D01*
X0213649Y0195598D01*
X0213535Y0195693D01*
X0213419Y0195785D01*
X0213300Y0195873D01*
X0213179Y0195959D01*
X0213056Y0196041D01*
X0212931Y0196120D01*
X0212803Y0196195D01*
X0212674Y0196267D01*
X0212542Y0196336D01*
X0212409Y0196401D01*
X0212275Y0196462D01*
X0212138Y0196520D01*
X0212000Y0196574D01*
X0211861Y0196625D01*
X0211721Y0196672D01*
X0211579Y0196715D01*
X0211436Y0196754D01*
X0211292Y0196790D01*
X0211148Y0196821D01*
X0211002Y0196849D01*
X0210856Y0196873D01*
X0210709Y0196893D01*
X0210562Y0196909D01*
X0210415Y0196921D01*
X0210267Y0196929D01*
X0210119Y0196933D01*
X0209970Y0196934D01*
X0209970Y0196933D02*
X0084720Y0196933D01*
X0084720Y0101183D01*
X0084724Y0101040D01*
X0084732Y0100896D01*
X0084743Y0100753D01*
X0084758Y0100609D01*
X0084777Y0100467D01*
X0084800Y0100325D01*
X0084827Y0100183D01*
X0084858Y0100043D01*
X0084892Y0099903D01*
X0084931Y0099764D01*
X0084973Y0099627D01*
X0085018Y0099490D01*
X0085068Y0099355D01*
X0085121Y0099222D01*
X0085177Y0099089D01*
X0085238Y0098959D01*
X0085301Y0098830D01*
X0085369Y0098702D01*
X0085439Y0098577D01*
X0085513Y0098453D01*
X0085590Y0098332D01*
X0085671Y0098213D01*
X0085755Y0098096D01*
X0085841Y0097981D01*
X0085931Y0097869D01*
X0086024Y0097759D01*
X0086120Y0097652D01*
X0086219Y0097547D01*
X0086321Y0097445D01*
X0086425Y0097346D01*
X0086532Y0097250D01*
X0086641Y0097156D01*
X0086753Y0097066D01*
X0086868Y0096979D01*
X0086984Y0096895D01*
X0087103Y0096814D01*
X0087224Y0096736D01*
X0087348Y0096662D01*
X0087473Y0096591D01*
X0087600Y0096523D01*
X0087729Y0096459D01*
X0087859Y0096398D01*
X0087991Y0096341D01*
X0088125Y0096288D01*
X0088260Y0096238D01*
X0088396Y0096192D01*
X0088533Y0096149D01*
X0088672Y0096110D01*
X0088812Y0096075D01*
X0088952Y0096044D01*
X0089093Y0096017D01*
X0089235Y0095993D01*
X0089378Y0095974D01*
X0089521Y0095958D01*
X0089664Y0095946D01*
X0089808Y0095938D01*
X0089952Y0095934D01*
X0090096Y0095933D01*
D11*
X0146316Y0166433D03*
X0146316Y0176433D03*
X0183875Y0176433D03*
X0183875Y0166433D03*
D12*
X0186442Y0154933D03*
X0179749Y0154933D03*
D13*
X0137709Y0165579D02*
X0137709Y0166957D01*
X0139481Y0166957D01*
X0139481Y0165579D01*
X0137709Y0165579D01*
X0137709Y0166169D02*
X0139481Y0166169D01*
X0139481Y0166759D02*
X0137709Y0166759D01*
X0137709Y0169909D02*
X0137709Y0171287D01*
X0139481Y0171287D01*
X0139481Y0169909D01*
X0137709Y0169909D01*
X0137709Y0170499D02*
X0139481Y0170499D01*
X0139481Y0171089D02*
X0137709Y0171089D01*
X0135209Y0117287D02*
X0135209Y0115909D01*
X0135209Y0117287D02*
X0136981Y0117287D01*
X0136981Y0115909D01*
X0135209Y0115909D01*
X0135209Y0116499D02*
X0136981Y0116499D01*
X0136981Y0117089D02*
X0135209Y0117089D01*
X0135209Y0112957D02*
X0135209Y0111579D01*
X0135209Y0112957D02*
X0136981Y0112957D01*
X0136981Y0111579D01*
X0135209Y0111579D01*
X0135209Y0112169D02*
X0136981Y0112169D01*
X0136981Y0112759D02*
X0135209Y0112759D01*
D14*
X0154345Y0144933D03*
X0150845Y0152933D03*
X0157845Y0152933D03*
D15*
X0131946Y0121270D02*
X0131946Y0119726D01*
X0130244Y0119726D01*
X0130244Y0121270D01*
X0131946Y0121270D01*
X0131946Y0120386D02*
X0130244Y0120386D01*
X0130244Y0121046D02*
X0131946Y0121046D01*
X0131946Y0117155D02*
X0131946Y0115611D01*
X0130244Y0115611D01*
X0130244Y0117155D01*
X0131946Y0117155D01*
X0131946Y0116271D02*
X0130244Y0116271D01*
X0130244Y0116931D02*
X0131946Y0116931D01*
D16*
X0133902Y0191433D03*
X0122288Y0191433D03*
D17*
X0128095Y0185429D03*
D18*
X0129075Y0103933D03*
X0114115Y0103933D03*
M02*
