G75*
%MOIN*%
%OFA0B0*%
%FSLAX25Y25*%
%IPPOS*%
%LPD*%
%AMOC8*
5,1,8,0,0,1.08239X$1,22.5*
%
%ADD10C,0.00500*%
%ADD11C,0.01000*%
%ADD12C,0.00800*%
%ADD13C,0.00100*%
%ADD14C,0.00600*%
%ADD15C,0.01200*%
%ADD16R,0.00015X0.00150*%
%ADD17R,0.00015X0.00585*%
%ADD18R,0.00015X0.00795*%
%ADD19R,0.00015X0.01095*%
%ADD20R,0.00015X0.01095*%
%ADD21R,0.00015X0.03225*%
%ADD22R,0.00015X0.01110*%
%ADD23R,0.00015X0.00945*%
%ADD24R,0.00015X0.01095*%
%ADD25R,0.00015X0.01095*%
%ADD26R,0.00015X0.03225*%
%ADD27R,0.00015X0.01110*%
%ADD28R,0.00015X0.01080*%
%ADD29R,0.00015X0.03240*%
%ADD30R,0.00015X0.01200*%
%ADD31R,0.00015X0.01305*%
%ADD32R,0.00015X0.01395*%
%ADD33R,0.00015X0.03255*%
%ADD34R,0.00015X0.01485*%
%ADD35R,0.00015X0.03255*%
%ADD36R,0.00015X0.01560*%
%ADD37R,0.00015X0.01650*%
%ADD38R,0.00015X0.03270*%
%ADD39R,0.00015X0.01710*%
%ADD40R,0.00015X0.01770*%
%ADD41R,0.00015X0.03270*%
%ADD42R,0.00015X0.01845*%
%ADD43R,0.00015X0.01905*%
%ADD44R,0.00015X0.03285*%
%ADD45R,0.00015X0.01965*%
%ADD46R,0.00015X0.02025*%
%ADD47R,0.00015X0.02085*%
%ADD48R,0.00015X0.03300*%
%ADD49R,0.00015X0.02115*%
%ADD50R,0.00015X0.03300*%
%ADD51R,0.00015X0.02175*%
%ADD52R,0.00015X0.02235*%
%ADD53R,0.00015X0.03315*%
%ADD54R,0.00015X0.02280*%
%ADD55R,0.00015X0.02325*%
%ADD56R,0.00015X0.03315*%
%ADD57R,0.00015X0.02370*%
%ADD58R,0.00015X0.03330*%
%ADD59R,0.00015X0.02400*%
%ADD60R,0.00015X0.02460*%
%ADD61R,0.00015X0.02490*%
%ADD62R,0.00015X0.02535*%
%ADD63R,0.00015X0.03345*%
%ADD64R,0.00015X0.02565*%
%ADD65R,0.00015X0.03345*%
%ADD66R,0.00015X0.02625*%
%ADD67R,0.00015X0.02655*%
%ADD68R,0.00015X0.03360*%
%ADD69R,0.00015X0.02685*%
%ADD70R,0.00015X0.02730*%
%ADD71R,0.00015X0.03360*%
%ADD72R,0.00015X0.02730*%
%ADD73R,0.00015X0.03375*%
%ADD74R,0.00015X0.02745*%
%ADD75R,0.00015X0.02760*%
%ADD76R,0.00015X0.03390*%
%ADD77R,0.00015X0.02775*%
%ADD78R,0.00015X0.03390*%
%ADD79R,0.00015X0.02790*%
%ADD80R,0.00015X0.02805*%
%ADD81R,0.00015X0.03405*%
%ADD82R,0.00015X0.02820*%
%ADD83R,0.00015X0.02835*%
%ADD84R,0.00015X0.03405*%
%ADD85R,0.00015X0.02835*%
%ADD86R,0.00015X0.03420*%
%ADD87R,0.00015X0.02850*%
%ADD88R,0.00015X0.02865*%
%ADD89R,0.00015X0.03435*%
%ADD90R,0.00015X0.02865*%
%ADD91R,0.00015X0.03435*%
%ADD92R,0.00015X0.02880*%
%ADD93R,0.00015X0.02895*%
%ADD94R,0.00015X0.03450*%
%ADD95R,0.00015X0.02895*%
%ADD96R,0.00015X0.02910*%
%ADD97R,0.00015X0.03465*%
%ADD98R,0.00015X0.02910*%
%ADD99R,0.00015X0.03465*%
%ADD100R,0.00015X0.02925*%
%ADD101R,0.00015X0.02940*%
%ADD102R,0.00015X0.03480*%
%ADD103R,0.00015X0.02925*%
%ADD104R,0.00015X0.03480*%
%ADD105R,0.00015X0.02940*%
%ADD106R,0.00015X0.01035*%
%ADD107R,0.00015X0.03495*%
%ADD108R,0.00015X0.01485*%
%ADD109R,0.00015X0.00945*%
%ADD110R,0.00015X0.01440*%
%ADD111R,0.00015X0.00885*%
%ADD112R,0.00015X0.01410*%
%ADD113R,0.00015X0.00825*%
%ADD114R,0.00015X0.01380*%
%ADD115R,0.00015X0.00780*%
%ADD116R,0.00015X0.01350*%
%ADD117R,0.00015X0.00735*%
%ADD118R,0.00015X0.01335*%
%ADD119R,0.00015X0.00705*%
%ADD120R,0.00015X0.00675*%
%ADD121R,0.00015X0.01305*%
%ADD122R,0.00015X0.00615*%
%ADD123R,0.00015X0.01605*%
%ADD124R,0.00015X0.01275*%
%ADD125R,0.00015X0.00585*%
%ADD126R,0.00015X0.01605*%
%ADD127R,0.00015X0.00570*%
%ADD128R,0.00015X0.01605*%
%ADD129R,0.00015X0.01260*%
%ADD130R,0.00015X0.00525*%
%ADD131R,0.00015X0.01245*%
%ADD132R,0.00015X0.00495*%
%ADD133R,0.00015X0.01230*%
%ADD134R,0.00015X0.00465*%
%ADD135R,0.00015X0.01590*%
%ADD136R,0.00015X0.01215*%
%ADD137R,0.00015X0.00435*%
%ADD138R,0.00015X0.01590*%
%ADD139R,0.00015X0.00405*%
%ADD140R,0.00015X0.00375*%
%ADD141R,0.00015X0.00360*%
%ADD142R,0.00015X0.01200*%
%ADD143R,0.00015X0.00315*%
%ADD144R,0.00015X0.01185*%
%ADD145R,0.00015X0.00300*%
%ADD146R,0.00015X0.00285*%
%ADD147R,0.00015X0.01185*%
%ADD148R,0.00015X0.00240*%
%ADD149R,0.00015X0.01170*%
%ADD150R,0.00015X0.00225*%
%ADD151R,0.00015X0.01185*%
%ADD152R,0.00015X0.00210*%
%ADD153R,0.00015X0.00180*%
%ADD154R,0.00015X0.00135*%
%ADD155R,0.00015X0.00120*%
%ADD156R,0.00015X0.01590*%
%ADD157R,0.00015X0.01155*%
%ADD158R,0.00015X0.00090*%
%ADD159R,0.00015X0.01590*%
%ADD160R,0.00015X0.01155*%
%ADD161R,0.00015X0.00075*%
%ADD162R,0.00015X0.00060*%
%ADD163R,0.00015X0.00045*%
%ADD164R,0.00015X0.00015*%
%ADD165R,0.00015X0.01140*%
%ADD166R,0.00015X0.01140*%
%ADD167R,0.00015X0.01575*%
%ADD168R,0.00015X0.01575*%
%ADD169R,0.00015X0.01125*%
%ADD170R,0.00015X0.01140*%
%ADD171R,0.00015X0.01140*%
%ADD172R,0.00015X0.01125*%
%ADD173R,0.00015X0.01560*%
%ADD174R,0.00015X0.01560*%
%ADD175R,0.00015X0.01545*%
%ADD176R,0.00015X0.01545*%
%ADD177R,0.00015X0.01545*%
%ADD178R,0.00015X0.01530*%
%ADD179R,0.00015X0.01530*%
%ADD180R,0.00015X0.01530*%
%ADD181R,0.00015X0.01515*%
%ADD182R,0.00015X0.01515*%
%ADD183R,0.00015X0.01110*%
%ADD184R,0.00015X0.01500*%
%ADD185R,0.00015X0.01110*%
%ADD186R,0.00015X0.01500*%
%ADD187R,0.00015X0.01485*%
%ADD188R,0.00015X0.01155*%
%ADD189R,0.00015X0.01470*%
%ADD190R,0.00015X0.01470*%
%ADD191R,0.00015X0.01455*%
%ADD192R,0.00015X0.01155*%
%ADD193R,0.00015X0.01455*%
%ADD194R,0.00015X0.01455*%
%ADD195R,0.00015X0.01170*%
%ADD196R,0.00015X0.01425*%
%ADD197R,0.00015X0.01410*%
%ADD198R,0.00015X0.01185*%
%ADD199R,0.00015X0.01395*%
%ADD200R,0.00015X0.01215*%
%ADD201R,0.00015X0.01380*%
%ADD202R,0.00015X0.01230*%
%ADD203R,0.00015X0.01230*%
%ADD204R,0.00015X0.01230*%
%ADD205R,0.00015X0.01365*%
%ADD206R,0.00015X0.01245*%
%ADD207R,0.00015X0.01365*%
%ADD208R,0.00015X0.00015*%
%ADD209R,0.00015X0.01260*%
%ADD210R,0.00015X0.00045*%
%ADD211R,0.00015X0.01290*%
%ADD212R,0.00015X0.01215*%
%ADD213R,0.00015X0.01290*%
%ADD214R,0.00015X0.01320*%
%ADD215R,0.00015X0.01305*%
%ADD216R,0.00015X0.01290*%
%ADD217R,0.00015X0.01335*%
%ADD218R,0.00015X0.00180*%
%ADD219R,0.00015X0.01320*%
%ADD220R,0.00015X0.00210*%
%ADD221R,0.00015X0.01365*%
%ADD222R,0.00015X0.00225*%
%ADD223R,0.00015X0.01380*%
%ADD224R,0.00015X0.01275*%
%ADD225R,0.00015X0.00270*%
%ADD226R,0.00015X0.00285*%
%ADD227R,0.00015X0.01410*%
%ADD228R,0.00015X0.00330*%
%ADD229R,0.00015X0.01440*%
%ADD230R,0.00015X0.00375*%
%ADD231R,0.00015X0.01485*%
%ADD232R,0.00015X0.00420*%
%ADD233R,0.00015X0.01515*%
%ADD234R,0.00015X0.00450*%
%ADD235R,0.00015X0.01320*%
%ADD236R,0.00015X0.01635*%
%ADD237R,0.00015X0.01335*%
%ADD238R,0.00015X0.00555*%
%ADD239R,0.00015X0.01695*%
%ADD240R,0.00015X0.01650*%
%ADD241R,0.00015X0.00600*%
%ADD242R,0.00015X0.03615*%
%ADD243R,0.00015X0.00630*%
%ADD244R,0.00015X0.01395*%
%ADD245R,0.00015X0.00690*%
%ADD246R,0.00015X0.00720*%
%ADD247R,0.00015X0.03600*%
%ADD248R,0.00015X0.00105*%
%ADD249R,0.00015X0.01440*%
%ADD250R,0.00015X0.00765*%
%ADD251R,0.00015X0.03600*%
%ADD252R,0.00015X0.00135*%
%ADD253R,0.00015X0.00825*%
%ADD254R,0.00015X0.00165*%
%ADD255R,0.00015X0.00885*%
%ADD256R,0.00015X0.03585*%
%ADD257R,0.00015X0.00195*%
%ADD258R,0.00015X0.00960*%
%ADD259R,0.00015X0.03570*%
%ADD260R,0.00015X0.00255*%
%ADD261R,0.00015X0.02835*%
%ADD262R,0.00015X0.03570*%
%ADD263R,0.00015X0.00285*%
%ADD264R,0.00015X0.03555*%
%ADD265R,0.00015X0.00315*%
%ADD266R,0.00015X0.02835*%
%ADD267R,0.00015X0.00345*%
%ADD268R,0.00015X0.03540*%
%ADD269R,0.00015X0.00405*%
%ADD270R,0.00015X0.02820*%
%ADD271R,0.00015X0.03525*%
%ADD272R,0.00015X0.00435*%
%ADD273R,0.00015X0.03525*%
%ADD274R,0.00015X0.00465*%
%ADD275R,0.00015X0.03510*%
%ADD276R,0.00015X0.02805*%
%ADD277R,0.00015X0.00555*%
%ADD278R,0.00015X0.02805*%
%ADD279R,0.00015X0.03495*%
%ADD280R,0.00015X0.00585*%
%ADD281R,0.00015X0.00615*%
%ADD282R,0.00015X0.00645*%
%ADD283R,0.00015X0.02775*%
%ADD284R,0.00015X0.00720*%
%ADD285R,0.00015X0.00735*%
%ADD286R,0.00015X0.00765*%
%ADD287R,0.00015X0.00795*%
%ADD288R,0.00015X0.02295*%
%ADD289R,0.00015X0.02265*%
%ADD290R,0.00015X0.00855*%
%ADD291R,0.00015X0.02250*%
%ADD292R,0.00015X0.00885*%
%ADD293R,0.00015X0.02715*%
%ADD294R,0.00015X0.02235*%
%ADD295R,0.00015X0.00930*%
%ADD296R,0.00015X0.02205*%
%ADD297R,0.00015X0.02700*%
%ADD298R,0.00015X0.00990*%
%ADD299R,0.00015X0.02160*%
%ADD300R,0.00015X0.01020*%
%ADD301R,0.00015X0.02685*%
%ADD302R,0.00015X0.02130*%
%ADD303R,0.00015X0.01050*%
%ADD304R,0.00015X0.02670*%
%ADD305R,0.00015X0.02100*%
%ADD306R,0.00015X0.02670*%
%ADD307R,0.00015X0.02070*%
%ADD308R,0.00015X0.02040*%
%ADD309R,0.00015X0.02010*%
%ADD310R,0.00015X0.02595*%
%ADD311R,0.00015X0.01980*%
%ADD312R,0.00015X0.01170*%
%ADD313R,0.00015X0.01950*%
%ADD314R,0.00015X0.02520*%
%ADD315R,0.00015X0.02475*%
%ADD316R,0.00015X0.01875*%
%ADD317R,0.00015X0.02430*%
%ADD318R,0.00015X0.02400*%
%ADD319R,0.00015X0.01800*%
%ADD320R,0.00015X0.01395*%
%ADD321R,0.00015X0.01215*%
%ADD322R,0.00015X0.02340*%
%ADD323R,0.00015X0.01755*%
%ADD324R,0.00015X0.02310*%
%ADD325R,0.00015X0.01725*%
%ADD326R,0.00015X0.02250*%
%ADD327R,0.00015X0.01665*%
%ADD328R,0.00015X0.02205*%
%ADD329R,0.00015X0.02145*%
%ADD330R,0.00015X0.02040*%
%ADD331R,0.00015X0.01980*%
%ADD332R,0.00015X0.01920*%
%ADD333R,0.00015X0.01845*%
%ADD334R,0.00015X0.01305*%
%ADD335R,0.00015X0.01665*%
%ADD336R,0.00015X0.01785*%
%ADD337R,0.00015X0.03315*%
%ADD338R,0.00015X0.01005*%
%ADD339R,0.00015X0.01470*%
%ADD340R,0.00015X0.00900*%
%ADD341R,0.00015X0.03285*%
%ADD342R,0.00015X0.03210*%
%ADD343R,0.00015X0.03195*%
%ADD344R,0.00015X0.03165*%
%ADD345R,0.00015X0.03150*%
%ADD346R,0.00015X0.00390*%
%ADD347R,0.00015X0.03120*%
%ADD348R,0.00015X0.03105*%
%ADD349R,0.00015X0.03060*%
%ADD350R,0.00015X0.03045*%
%ADD351R,0.00015X0.03015*%
%ADD352R,0.00015X0.03000*%
%ADD353R,0.00015X0.02970*%
%ADD354R,0.00015X0.02745*%
%ADD355R,0.00015X0.02625*%
%ADD356R,0.00015X0.02595*%
%ADD357R,0.00015X0.02535*%
%ADD358R,0.00015X0.02460*%
%ADD359R,0.00015X0.02385*%
%ADD360R,0.00015X0.02355*%
%ADD361R,0.00015X0.02325*%
%ADD362R,0.00015X0.02280*%
%ADD363R,0.00015X0.00135*%
%ADD364R,0.00015X0.00345*%
%ADD365R,0.00015X0.02115*%
%ADD366R,0.00015X0.02085*%
%ADD367R,0.00015X0.00435*%
%ADD368R,0.00015X0.00465*%
%ADD369R,0.00015X0.01995*%
%ADD370R,0.00015X0.00495*%
%ADD371R,0.00015X0.00540*%
%ADD372R,0.00015X0.01860*%
%ADD373R,0.00015X0.00480*%
%ADD374R,0.00015X0.01815*%
%ADD375R,0.00015X0.01695*%
%ADD376R,0.00015X0.00660*%
%ADD377R,0.00015X0.00615*%
%ADD378R,0.00015X0.00705*%
%ADD379R,0.00015X0.00750*%
%ADD380R,0.00015X0.00630*%
%ADD381R,0.00015X0.00645*%
%ADD382R,0.00015X0.00810*%
%ADD383R,0.00015X0.00855*%
%ADD384R,0.00015X0.01260*%
%ADD385R,0.00015X0.00915*%
%ADD386R,0.00015X0.00660*%
%ADD387R,0.00015X0.01005*%
%ADD388R,0.00015X0.01035*%
%ADD389R,0.00015X0.01050*%
%ADD390R,0.00015X0.01080*%
%ADD391R,0.00015X0.00390*%
%ADD392R,0.00015X0.00480*%
%ADD393R,0.00015X0.00510*%
%ADD394R,0.00015X0.00540*%
%ADD395R,0.00015X0.00675*%
%ADD396R,0.00015X0.00600*%
%ADD397R,0.00015X0.00660*%
%ADD398R,0.00015X0.00690*%
%ADD399R,0.00015X0.00750*%
%ADD400R,0.00015X0.00255*%
%ADD401R,0.00015X0.00690*%
%ADD402R,0.00015X0.00555*%
%ADD403R,0.00015X0.01080*%
%ADD404R,0.00015X0.00705*%
%ADD405R,0.00015X0.00690*%
%ADD406R,0.00015X0.00960*%
%ADD407R,0.00015X0.00705*%
%ADD408R,0.00015X0.00915*%
%ADD409R,0.00015X0.00720*%
%ADD410R,0.00015X0.00795*%
%ADD411R,0.00015X0.00795*%
%ADD412R,0.00015X0.00420*%
%ADD413R,0.00015X0.00150*%
%ADD414R,0.00015X0.00780*%
%ADD415R,0.00015X0.00765*%
%ADD416R,0.00015X0.00780*%
%ADD417R,0.00015X0.00780*%
%ADD418R,0.00015X0.00810*%
%ADD419R,0.00015X0.00765*%
%ADD420R,0.00015X0.00810*%
%ADD421R,0.00015X0.00840*%
%ADD422R,0.00015X0.00870*%
%ADD423R,0.00015X0.00870*%
%ADD424R,0.00015X0.00870*%
%ADD425R,0.00015X0.00915*%
%ADD426R,0.00015X0.00975*%
%ADD427R,0.00015X0.01020*%
%ADD428R,0.00015X0.00810*%
%ADD429R,0.00015X0.01065*%
%ADD430R,0.00015X0.01245*%
%ADD431R,0.00015X0.00315*%
%ADD432R,0.00015X0.02460*%
%ADD433R,0.00015X0.00840*%
%ADD434R,0.00015X0.04455*%
%ADD435R,0.00015X0.03090*%
%ADD436R,0.00015X0.04575*%
%ADD437R,0.00015X0.04635*%
%ADD438R,0.00015X0.01770*%
%ADD439R,0.00015X0.04665*%
%ADD440R,0.00015X0.03375*%
%ADD441R,0.00015X0.01815*%
%ADD442R,0.00015X0.04710*%
%ADD443R,0.00015X0.00855*%
%ADD444R,0.00015X0.03465*%
%ADD445R,0.00015X0.01890*%
%ADD446R,0.00015X0.04740*%
%ADD447R,0.00015X0.04770*%
%ADD448R,0.00015X0.04800*%
%ADD449R,0.00015X0.03630*%
%ADD450R,0.00015X0.04815*%
%ADD451R,0.00015X0.03675*%
%ADD452R,0.00015X0.02055*%
%ADD453R,0.00015X0.04815*%
%ADD454R,0.00015X0.03720*%
%ADD455R,0.00015X0.04845*%
%ADD456R,0.00015X0.03765*%
%ADD457R,0.00015X0.02130*%
%ADD458R,0.00015X0.04860*%
%ADD459R,0.00015X0.03810*%
%ADD460R,0.00015X0.02160*%
%ADD461R,0.00015X0.03840*%
%ADD462R,0.00015X0.03870*%
%ADD463R,0.00015X0.02220*%
%ADD464R,0.00015X0.04875*%
%ADD465R,0.00015X0.03900*%
%ADD466R,0.00015X0.02265*%
%ADD467R,0.00015X0.04875*%
%ADD468R,0.00015X0.03945*%
%ADD469R,0.00015X0.03975*%
%ADD470R,0.00015X0.02310*%
%ADD471R,0.00015X0.04890*%
%ADD472R,0.00015X0.04005*%
%ADD473R,0.00015X0.04035*%
%ADD474R,0.00015X0.02370*%
%ADD475R,0.00015X0.04890*%
%ADD476R,0.00015X0.00885*%
%ADD477R,0.00015X0.04050*%
%ADD478R,0.00015X0.04095*%
%ADD479R,0.00015X0.04110*%
%ADD480R,0.00015X0.00900*%
%ADD481R,0.00015X0.04140*%
%ADD482R,0.00015X0.04155*%
%ADD483R,0.00015X0.02520*%
%ADD484R,0.00015X0.04845*%
%ADD485R,0.00015X0.04185*%
%ADD486R,0.00015X0.04200*%
%ADD487R,0.00015X0.02550*%
%ADD488R,0.00015X0.04830*%
%ADD489R,0.00015X0.04230*%
%ADD490R,0.00015X0.02580*%
%ADD491R,0.00015X0.04830*%
%ADD492R,0.00015X0.04245*%
%ADD493R,0.00015X0.02595*%
%ADD494R,0.00015X0.04815*%
%ADD495R,0.00015X0.04275*%
%ADD496R,0.00015X0.04800*%
%ADD497R,0.00015X0.00930*%
%ADD498R,0.00015X0.04290*%
%ADD499R,0.00015X0.02640*%
%ADD500R,0.00015X0.04785*%
%ADD501R,0.00015X0.04305*%
%ADD502R,0.00015X0.04755*%
%ADD503R,0.00015X0.04335*%
%ADD504R,0.00015X0.04740*%
%ADD505R,0.00015X0.04350*%
%ADD506R,0.00015X0.04725*%
%ADD507R,0.00015X0.00930*%
%ADD508R,0.00015X0.04365*%
%ADD509R,0.00015X0.04695*%
%ADD510R,0.00015X0.00945*%
%ADD511R,0.00015X0.04380*%
%ADD512R,0.00015X0.04665*%
%ADD513R,0.00015X0.04410*%
%ADD514R,0.00015X0.04425*%
%ADD515R,0.00015X0.04605*%
%ADD516R,0.00015X0.04455*%
%ADD517R,0.00015X0.04530*%
%ADD518R,0.00015X0.04470*%
%ADD519R,0.00015X0.04485*%
%ADD520R,0.00015X0.04500*%
%ADD521R,0.00015X0.04530*%
%ADD522R,0.00015X0.04395*%
%ADD523R,0.00015X0.00975*%
%ADD524R,0.00015X0.04530*%
%ADD525R,0.00015X0.04545*%
%ADD526R,0.00015X0.02955*%
%ADD527R,0.00015X0.04440*%
%ADD528R,0.00015X0.04560*%
%ADD529R,0.00015X0.02970*%
%ADD530R,0.00015X0.04590*%
%ADD531R,0.00015X0.03000*%
%ADD532R,0.00015X0.04500*%
%ADD533R,0.00015X0.01005*%
%ADD534R,0.00015X0.00840*%
%ADD535R,0.00015X0.03030*%
%ADD536R,0.00015X0.00840*%
%ADD537R,0.00015X0.01020*%
%ADD538R,0.00015X0.04635*%
%ADD539R,0.00015X0.03090*%
%ADD540R,0.00015X0.04590*%
%ADD541R,0.00015X0.04650*%
%ADD542R,0.00015X0.04590*%
%ADD543R,0.00015X0.04620*%
%ADD544R,0.00015X0.04680*%
%ADD545R,0.00015X0.04695*%
%ADD546R,0.00015X0.03180*%
%ADD547R,0.00015X0.04665*%
%ADD548R,0.00015X0.01065*%
%ADD549R,0.00015X0.04710*%
%ADD550R,0.00015X0.03180*%
%ADD551R,0.00015X0.03210*%
%ADD552R,0.00015X0.04695*%
%ADD553R,0.00015X0.04740*%
%ADD554R,0.00015X0.03240*%
%ADD555R,0.00015X0.04755*%
%ADD556R,0.00015X0.04770*%
%ADD557R,0.00015X0.03315*%
%ADD558R,0.00015X0.04785*%
%ADD559R,0.00015X0.00870*%
%ADD560R,0.00015X0.04770*%
%ADD561R,0.00015X0.03330*%
%ADD562R,0.00015X0.04785*%
%ADD563R,0.00015X0.03360*%
%ADD564R,0.00015X0.04845*%
%ADD565R,0.00015X0.01380*%
%ADD566R,0.00015X0.02955*%
%ADD567R,0.00015X0.02370*%
%ADD568R,0.00015X0.04830*%
%ADD569R,0.00015X0.02070*%
%ADD570R,0.00015X0.01905*%
%ADD571R,0.00015X0.01860*%
%ADD572R,0.00015X0.04845*%
%ADD573R,0.00015X0.01845*%
%ADD574R,0.00015X0.01350*%
%ADD575R,0.00015X0.01800*%
%ADD576R,0.00015X0.01740*%
%ADD577R,0.00015X0.01695*%
%ADD578R,0.00015X0.00990*%
%ADD579R,0.00015X0.01635*%
%ADD580R,0.00015X0.04860*%
%ADD581R,0.00015X0.01620*%
%ADD582R,0.00015X0.04860*%
%ADD583R,0.00015X0.01605*%
%ADD584R,0.00015X0.01620*%
%ADD585R,0.00015X0.00915*%
%ADD586R,0.00015X0.01035*%
%ADD587R,0.00015X0.03390*%
%ADD588R,0.00015X0.03255*%
%ADD589R,0.00015X0.03240*%
%ADD590R,0.00015X0.03195*%
%ADD591R,0.00015X0.00945*%
%ADD592R,0.00015X0.03165*%
%ADD593R,0.00015X0.03105*%
%ADD594R,0.00015X0.03075*%
%ADD595R,0.00015X0.03045*%
%ADD596R,0.00015X0.03015*%
%ADD597R,0.00015X0.02985*%
%ADD598R,0.00015X0.02955*%
%ADD599R,0.00015X0.02895*%
%ADD600R,0.00015X0.02760*%
%ADD601R,0.00015X0.00990*%
%ADD602R,0.00015X0.02610*%
%ADD603R,0.00015X0.01260*%
%ADD604R,0.00015X0.02565*%
%ADD605R,0.00015X0.02505*%
%ADD606R,0.00015X0.02430*%
%ADD607R,0.00015X0.02280*%
%ADD608R,0.00015X0.04755*%
%ADD609R,0.00015X0.02205*%
%ADD610R,0.00015X0.02130*%
%ADD611R,0.00015X0.04710*%
%ADD612R,0.00015X0.01980*%
%ADD613R,0.00015X0.01065*%
%ADD614R,0.00015X0.01920*%
%ADD615R,0.00015X0.04665*%
%ADD616R,0.00015X0.01425*%
%ADD617R,0.00015X0.04620*%
%ADD618R,0.00015X0.04620*%
%ADD619R,0.00015X0.04605*%
%ADD620R,0.00015X0.04590*%
%ADD621R,0.00015X0.04560*%
%ADD622R,0.00015X0.04560*%
%ADD623R,0.00015X0.04530*%
%ADD624R,0.00015X0.04515*%
%ADD625R,0.00015X0.04515*%
%ADD626R,0.00015X0.01560*%
%ADD627R,0.00015X0.04470*%
%ADD628R,0.00015X0.04455*%
%ADD629R,0.00015X0.04425*%
%ADD630R,0.00015X0.01620*%
%ADD631R,0.00015X0.04395*%
%ADD632R,0.00015X0.04320*%
%ADD633R,0.00015X0.01665*%
%ADD634R,0.00015X0.01680*%
%ADD635R,0.00015X0.04305*%
%ADD636R,0.00015X0.01680*%
%ADD637R,0.00015X0.04290*%
%ADD638R,0.00015X0.01320*%
%ADD639R,0.00015X0.04260*%
%ADD640R,0.00015X0.01710*%
%ADD641R,0.00015X0.04245*%
%ADD642R,0.00015X0.04230*%
%ADD643R,0.00015X0.04200*%
%ADD644R,0.00015X0.01740*%
%ADD645R,0.00015X0.04185*%
%ADD646R,0.00015X0.04170*%
%ADD647R,0.00015X0.04140*%
%ADD648R,0.00015X0.04125*%
%ADD649R,0.00015X0.04110*%
%ADD650R,0.00015X0.01785*%
%ADD651R,0.00015X0.04080*%
%ADD652R,0.00015X0.04065*%
%ADD653R,0.00015X0.01815*%
%ADD654R,0.00015X0.04020*%
%ADD655R,0.00015X0.01845*%
%ADD656R,0.00015X0.04005*%
%ADD657R,0.00015X0.03990*%
%ADD658R,0.00015X0.03960*%
%ADD659R,0.00015X0.03945*%
%ADD660R,0.00015X0.03915*%
%ADD661R,0.00015X0.03885*%
%ADD662R,0.00015X0.01890*%
%ADD663R,0.00015X0.03870*%
%ADD664R,0.00015X0.01695*%
%ADD665R,0.00015X0.03855*%
%ADD666R,0.00015X0.01935*%
%ADD667R,0.00015X0.01755*%
%ADD668R,0.00015X0.03795*%
%ADD669R,0.00015X0.03780*%
%ADD670R,0.00015X0.01950*%
%ADD671R,0.00015X0.03750*%
%ADD672R,0.00015X0.03705*%
%ADD673R,0.00015X0.02055*%
%ADD674R,0.00015X0.03660*%
%ADD675R,0.00015X0.03645*%
%ADD676R,0.00015X0.02010*%
%ADD677R,0.00015X0.04020*%
%ADD678R,0.00015X0.03615*%
%ADD679R,0.00015X0.03585*%
%ADD680R,0.00015X0.03960*%
%ADD681R,0.00015X0.03540*%
%ADD682R,0.00015X0.02055*%
%ADD683R,0.00015X0.03930*%
%ADD684R,0.00015X0.03915*%
%ADD685R,0.00015X0.03480*%
%ADD686R,0.00015X0.03885*%
%ADD687R,0.00015X0.02085*%
%ADD688R,0.00015X0.03405*%
%ADD689R,0.00015X0.03345*%
%ADD690R,0.00015X0.02115*%
%ADD691R,0.00015X0.03780*%
%ADD692R,0.00015X0.03765*%
%ADD693R,0.00015X0.02145*%
%ADD694R,0.00015X0.03735*%
%ADD695R,0.00015X0.03690*%
%ADD696R,0.00015X0.03195*%
%ADD697R,0.00015X0.02175*%
%ADD698R,0.00015X0.03660*%
%ADD699R,0.00015X0.02190*%
%ADD700R,0.00015X0.03630*%
%ADD701R,0.00015X0.03120*%
%ADD702R,0.00015X0.03030*%
%ADD703R,0.00015X0.02235*%
%ADD704R,0.00015X0.02310*%
%ADD705R,0.00015X0.02715*%
%ADD706R,0.00015X0.02340*%
%ADD707R,0.00015X0.02415*%
%ADD708R,0.00015X0.02385*%
%ADD709R,0.00015X0.03045*%
%ADD710R,0.00015X0.02445*%
%ADD711R,0.00015X0.02220*%
%ADD712R,0.00015X0.02040*%
%ADD713R,0.00015X0.02505*%
%ADD714R,0.00015X0.03810*%
%ADD715R,0.00015X0.01860*%
%ADD716R,0.00015X0.01785*%
%ADD717R,0.00015X0.02580*%
%ADD718R,0.00015X0.01725*%
%ADD719R,0.00015X0.02580*%
%ADD720R,0.00015X0.02490*%
%ADD721R,0.00015X0.03780*%
%ADD722R,0.00015X0.02670*%
%ADD723R,0.00015X0.03735*%
%ADD724R,0.00015X0.02685*%
%ADD725R,0.00015X0.03705*%
%ADD726R,0.00015X0.03690*%
%ADD727R,0.00015X0.02760*%
%ADD728R,0.00015X0.03660*%
%ADD729R,0.00015X0.03660*%
%ADD730R,0.00015X0.02820*%
%ADD731R,0.00015X0.02025*%
%ADD732R,0.00015X0.02190*%
%ADD733R,0.00015X0.02955*%
%ADD734R,0.00015X0.03510*%
%ADD735R,0.00015X0.02415*%
%ADD736R,0.00015X0.02790*%
%ADD737R,0.00015X0.02535*%
%ADD738R,0.00015X0.02655*%
%ADD739R,0.00015X0.03345*%
%ADD740R,0.00015X0.02550*%
%ADD741R,0.00015X0.02880*%
%ADD742R,0.00015X0.03090*%
%ADD743R,0.00015X0.03060*%
%ADD744R,0.00015X0.03075*%
%ADD745R,0.00015X0.03030*%
%ADD746R,0.00015X0.01995*%
%ADD747R,0.00015X0.02910*%
%ADD748R,0.00015X0.03015*%
%ADD749R,0.00015X0.02985*%
%ADD750R,0.00015X0.02790*%
%ADD751R,0.00015X0.01830*%
%ADD752R,0.00015X0.02940*%
%ADD753R,0.00015X0.02685*%
%ADD754R,0.00015X0.02640*%
%ADD755R,0.00015X0.02505*%
%ADD756R,0.00015X0.02460*%
%ADD757R,0.00015X0.02355*%
%ADD758R,0.00015X0.01905*%
%ADD759R,0.00015X0.02190*%
%ADD760R,0.00015X0.01890*%
%ADD761R,0.00015X0.02745*%
%ADD762R,0.00015X0.01965*%
%ADD763R,0.00015X0.02670*%
%ADD764R,0.00015X0.01995*%
%ADD765R,0.00015X0.02580*%
%ADD766R,0.00015X0.02085*%
%ADD767R,0.00015X0.02520*%
%ADD768R,0.00015X0.02520*%
%ADD769R,0.00015X0.02160*%
%ADD770R,0.00015X0.02445*%
%ADD771R,0.00015X0.02430*%
%ADD772R,0.00015X0.02265*%
%ADD773R,0.00015X0.02355*%
%ADD774R,0.00015X0.02385*%
%ADD775R,0.00015X0.02505*%
%ADD776R,0.00015X0.02610*%
%ADD777R,0.00015X0.02145*%
%ADD778R,0.00015X0.02850*%
%ADD779R,0.00015X0.01965*%
%ADD780R,0.00015X0.03060*%
%ADD781R,0.00015X0.03195*%
%ADD782R,0.00015X0.01830*%
%ADD783R,0.00015X0.01770*%
%ADD784R,0.00015X0.03585*%
%ADD785R,0.00015X0.03645*%
%ADD786R,0.00015X0.03780*%
%ADD787R,0.00015X0.01620*%
%ADD788R,0.00015X0.03990*%
%ADD789R,0.00015X0.04080*%
%ADD790R,0.00015X0.04155*%
%ADD791R,0.00015X0.01470*%
%ADD792R,0.00015X0.04335*%
%ADD793R,0.00015X0.06105*%
%ADD794R,0.00015X0.06075*%
%ADD795R,0.00015X0.06060*%
%ADD796R,0.00015X0.06030*%
%ADD797R,0.00015X0.06015*%
%ADD798R,0.00015X0.05985*%
%ADD799R,0.00015X0.05970*%
%ADD800R,0.00015X0.05940*%
%ADD801R,0.00015X0.05925*%
%ADD802R,0.00015X0.05895*%
%ADD803R,0.00015X0.05865*%
%ADD804R,0.00015X0.05835*%
%ADD805R,0.00015X0.05820*%
%ADD806R,0.00015X0.05775*%
%ADD807R,0.00015X0.05760*%
%ADD808R,0.00015X0.05715*%
%ADD809R,0.00015X0.05700*%
%ADD810R,0.00015X0.05655*%
%ADD811R,0.00015X0.05640*%
%ADD812R,0.00015X0.05595*%
%ADD813R,0.00015X0.05580*%
%ADD814R,0.00015X0.05535*%
%ADD815R,0.00015X0.05505*%
%ADD816R,0.00015X0.05460*%
%ADD817R,0.00015X0.05445*%
%ADD818R,0.00015X0.05400*%
%ADD819R,0.00015X0.05370*%
%ADD820R,0.00015X0.05325*%
%ADD821R,0.00015X0.05340*%
%ADD822R,0.00015X0.05355*%
%ADD823R,0.00015X0.05355*%
%ADD824R,0.00015X0.05370*%
%ADD825R,0.00015X0.05385*%
%ADD826R,0.00015X0.05385*%
%ADD827R,0.00015X0.05415*%
%ADD828R,0.00015X0.05430*%
%ADD829R,0.00015X0.05430*%
%ADD830R,0.00015X0.05460*%
%ADD831R,0.00015X0.05460*%
%ADD832R,0.00015X0.05475*%
%ADD833R,0.00015X0.05490*%
%ADD834R,0.00015X0.04020*%
%ADD835R,0.00015X0.03870*%
%ADD836R,0.00015X0.03555*%
%ADD837R,0.00015X0.03450*%
%ADD838R,0.00015X0.01635*%
%ADD839R,0.00015X0.00960*%
%ADD840R,0.00015X0.00570*%
%ADD841R,0.00015X0.00525*%
%ADD842R,0.00015X0.00360*%
%ADD843R,0.00015X0.00240*%
%ADD844R,0.00015X0.00210*%
%ADD845R,0.00015X0.00165*%
%ADD846R,0.00015X0.00120*%
%ADD847R,0.00015X0.00075*%
%ADD848R,0.00015X0.00030*%
%ADD849R,0.00015X0.00030*%
%ADD850R,0.00015X0.00030*%
%ADD851R,0.00015X0.01335*%
%ADD852R,0.00015X0.01530*%
%ADD853R,0.00015X0.01740*%
%ADD854R,0.00015X0.01770*%
%ADD855R,0.00015X0.01875*%
%ADD856R,0.00015X0.01860*%
%ADD857R,0.00015X0.02070*%
%ADD858R,0.00015X0.02295*%
%ADD859R,0.00015X0.02340*%
%ADD860R,0.00015X0.02415*%
%ADD861R,0.00015X0.02475*%
%ADD862R,0.00015X0.02595*%
%ADD863R,0.00015X0.02640*%
%ADD864R,0.00015X0.02760*%
%ADD865R,0.00015X0.06000*%
%ADD866R,0.00015X0.05850*%
%ADD867R,0.00015X0.05790*%
%ADD868R,0.00015X0.05730*%
%ADD869R,0.00015X0.05700*%
%ADD870R,0.00015X0.05640*%
%ADD871R,0.00015X0.05535*%
%ADD872R,0.00015X0.05490*%
%ADD873R,0.00015X0.05430*%
%ADD874R,0.00015X0.05280*%
%ADD875R,0.00015X0.05220*%
%ADD876R,0.00015X0.05160*%
%ADD877R,0.00015X0.05115*%
%ADD878R,0.00015X0.05070*%
%ADD879R,0.00015X0.05010*%
%ADD880R,0.00015X0.04950*%
%ADD881R,0.00015X0.04920*%
%ADD882R,0.00015X0.04440*%
%ADD883R,0.00015X0.04380*%
%ADD884R,0.00015X0.04185*%
%ADD885R,0.00015X0.03930*%
%ADD886R,0.00015X0.03870*%
%ADD887R,0.00015X0.03720*%
%ADD888R,0.00015X0.03570*%
%ADD889R,0.00015X0.03405*%
%ADD890R,0.00015X0.03150*%
%ADD891R,0.00015X0.02880*%
%ADD892R,0.00015X0.02730*%
%ADD893R,0.00015X0.02370*%
%ADD894R,0.00015X0.02220*%
%ADD895R,0.00015X0.02100*%
%ADD896C,0.01000*%
%ADD897C,0.01600*%
%ADD898C,0.00787*%
D10*
X0136307Y0106554D02*
X0136758Y0106104D01*
X0137658Y0106104D01*
X0138109Y0106554D01*
X0138109Y0107005D01*
X0137658Y0107455D01*
X0137208Y0107455D01*
X0137658Y0107455D02*
X0138109Y0107905D01*
X0138109Y0108356D01*
X0137658Y0108806D01*
X0136758Y0108806D01*
X0136307Y0108356D01*
X0139254Y0108806D02*
X0139254Y0107005D01*
X0140155Y0106104D01*
X0141055Y0107005D01*
X0141055Y0108806D01*
X0142200Y0108356D02*
X0142651Y0108806D01*
X0143551Y0108806D01*
X0144002Y0108356D01*
X0144002Y0107905D01*
X0143551Y0107455D01*
X0144002Y0107005D01*
X0144002Y0106554D01*
X0143551Y0106104D01*
X0142651Y0106104D01*
X0142200Y0106554D01*
X0143101Y0107455D02*
X0143551Y0107455D01*
X0146432Y0107005D02*
X0147783Y0107005D01*
X0148234Y0107455D01*
X0148234Y0108356D01*
X0147783Y0108806D01*
X0146432Y0108806D01*
X0146432Y0106104D01*
X0147333Y0107005D02*
X0148234Y0106104D01*
X0149379Y0106554D02*
X0149829Y0106104D01*
X0150730Y0106104D01*
X0151180Y0106554D01*
X0151180Y0107005D01*
X0150730Y0107455D01*
X0149829Y0107455D01*
X0149379Y0107905D01*
X0149379Y0108356D01*
X0149829Y0108806D01*
X0150730Y0108806D01*
X0151180Y0108356D01*
X0152325Y0108806D02*
X0154127Y0108806D01*
X0153226Y0108806D02*
X0153226Y0106104D01*
X0157622Y0105933D02*
X0159624Y0105933D01*
X0158623Y0105933D02*
X0158623Y0108936D01*
X0157622Y0107935D01*
X0160845Y0108435D02*
X0161346Y0108936D01*
X0162346Y0108936D01*
X0162847Y0108435D01*
X0162847Y0107935D01*
X0162346Y0107434D01*
X0162847Y0106934D01*
X0162847Y0106433D01*
X0162346Y0105933D01*
X0161346Y0105933D01*
X0160845Y0106433D01*
X0161846Y0107434D02*
X0162346Y0107434D01*
X0167629Y0108956D02*
X0169631Y0108956D01*
X0168630Y0108956D02*
X0168630Y0105954D01*
X0170852Y0105954D02*
X0172854Y0108956D01*
X0170852Y0108956D02*
X0172854Y0105954D01*
X0177629Y0105954D02*
X0177629Y0108956D01*
X0179131Y0108956D01*
X0179631Y0108456D01*
X0179631Y0107455D01*
X0179131Y0106955D01*
X0177629Y0106955D01*
X0178630Y0106955D02*
X0179631Y0105954D01*
X0180852Y0105954D02*
X0182854Y0108956D01*
X0180852Y0108956D02*
X0182854Y0105954D01*
X0187656Y0106804D02*
X0188106Y0106354D01*
X0189007Y0106354D01*
X0189457Y0106804D01*
X0189457Y0107705D01*
X0189007Y0108155D01*
X0188556Y0108155D01*
X0187656Y0107705D01*
X0187656Y0109056D01*
X0189457Y0109056D01*
X0190602Y0109056D02*
X0190602Y0107255D01*
X0191503Y0106354D01*
X0192404Y0107255D01*
X0192404Y0109056D01*
X0196375Y0109366D02*
X0202477Y0109366D01*
X0196375Y0109366D02*
X0196375Y0110941D01*
X0192545Y0113790D02*
X0192545Y0115592D01*
X0192545Y0116737D02*
X0192545Y0118538D01*
X0192545Y0117637D02*
X0189843Y0117637D01*
X0190744Y0116737D01*
X0189843Y0113790D02*
X0192545Y0113790D01*
X0199643Y0120183D02*
X0201895Y0120183D01*
X0202345Y0120633D01*
X0202345Y0121534D01*
X0201895Y0121985D01*
X0199643Y0121985D01*
X0200093Y0123130D02*
X0200544Y0123130D01*
X0200994Y0123580D01*
X0200994Y0124481D01*
X0201444Y0124931D01*
X0201895Y0124931D01*
X0202345Y0124481D01*
X0202345Y0123580D01*
X0201895Y0123130D01*
X0200093Y0123130D02*
X0199643Y0123580D01*
X0199643Y0124481D01*
X0200093Y0124931D01*
X0199643Y0126076D02*
X0199643Y0127427D01*
X0200093Y0127878D01*
X0200544Y0127878D01*
X0200994Y0127427D01*
X0200994Y0126076D01*
X0202345Y0126076D02*
X0202345Y0127427D01*
X0201895Y0127878D01*
X0201444Y0127878D01*
X0200994Y0127427D01*
X0202345Y0126076D02*
X0199643Y0126076D01*
X0193795Y0130290D02*
X0191093Y0130290D01*
X0191093Y0131641D01*
X0191543Y0132092D01*
X0192444Y0132092D01*
X0192894Y0131641D01*
X0192894Y0130290D01*
X0192894Y0131191D02*
X0193795Y0132092D01*
X0193795Y0133237D02*
X0193345Y0133237D01*
X0191543Y0135038D01*
X0191093Y0135038D01*
X0191093Y0133237D01*
X0196375Y0136531D02*
X0196375Y0138500D01*
X0202871Y0138500D01*
X0202945Y0140737D02*
X0200243Y0140737D01*
X0202945Y0140737D02*
X0202945Y0142538D01*
X0202945Y0143683D02*
X0201144Y0145485D01*
X0200693Y0145485D01*
X0200243Y0145034D01*
X0200243Y0144133D01*
X0200693Y0143683D01*
X0202945Y0143683D02*
X0202945Y0145485D01*
X0204285Y0148518D02*
X0205186Y0148518D01*
X0205636Y0148968D01*
X0205636Y0150770D01*
X0205186Y0151220D01*
X0204285Y0151220D01*
X0203835Y0150770D01*
X0203835Y0148968D01*
X0204285Y0148518D01*
X0201789Y0149869D02*
X0200888Y0149869D01*
X0200888Y0148518D02*
X0200888Y0151220D01*
X0202690Y0151220D01*
X0199743Y0151220D02*
X0199743Y0148518D01*
X0197942Y0151220D01*
X0197942Y0148518D01*
X0196878Y0148518D02*
X0195977Y0148518D01*
X0196428Y0148518D02*
X0196428Y0151220D01*
X0196878Y0151220D02*
X0195977Y0151220D01*
X0194832Y0151220D02*
X0193031Y0151220D01*
X0193932Y0151220D02*
X0193932Y0148518D01*
X0184209Y0153047D02*
X0184209Y0180606D01*
X0206257Y0180606D01*
X0206257Y0153047D01*
X0211768Y0153047D01*
X0211768Y0180606D01*
X0206257Y0180606D01*
X0191055Y0185205D02*
X0189254Y0185205D01*
X0190605Y0186556D01*
X0190605Y0183854D01*
X0182529Y0184304D02*
X0182078Y0183854D01*
X0181177Y0183854D01*
X0180727Y0184304D01*
X0180727Y0185205D02*
X0181628Y0185655D01*
X0182078Y0185655D01*
X0182529Y0185205D01*
X0182529Y0184304D01*
X0180727Y0185205D02*
X0180727Y0186556D01*
X0182529Y0186556D01*
X0178681Y0186556D02*
X0178681Y0183854D01*
X0177781Y0183854D02*
X0179582Y0183854D01*
X0177781Y0185655D02*
X0178681Y0186556D01*
X0174002Y0183854D02*
X0172200Y0183854D01*
X0172200Y0186556D01*
X0171055Y0186106D02*
X0170605Y0186556D01*
X0169704Y0186556D01*
X0169254Y0186106D01*
X0169254Y0184304D01*
X0169704Y0183854D01*
X0170605Y0183854D01*
X0171055Y0184304D01*
X0168109Y0184304D02*
X0167658Y0183854D01*
X0166758Y0183854D01*
X0166307Y0184304D01*
X0166758Y0185205D02*
X0167658Y0185205D01*
X0168109Y0184755D01*
X0168109Y0184304D01*
X0166758Y0185205D02*
X0166307Y0185655D01*
X0166307Y0186106D01*
X0166758Y0186556D01*
X0167658Y0186556D01*
X0168109Y0186106D01*
X0163752Y0185655D02*
X0163752Y0183854D01*
X0163752Y0185205D02*
X0161950Y0185205D01*
X0161950Y0185655D02*
X0161950Y0183854D01*
X0160805Y0184304D02*
X0160805Y0186106D01*
X0160355Y0186556D01*
X0159004Y0186556D01*
X0159004Y0183854D01*
X0160355Y0183854D01*
X0160805Y0184304D01*
X0161950Y0185655D02*
X0162851Y0186556D01*
X0163752Y0185655D01*
X0157859Y0186106D02*
X0157408Y0186556D01*
X0156508Y0186556D01*
X0156057Y0186106D01*
X0156057Y0185655D01*
X0156508Y0185205D01*
X0157408Y0185205D01*
X0157859Y0184755D01*
X0157859Y0184304D01*
X0157408Y0183854D01*
X0156508Y0183854D01*
X0156057Y0184304D01*
X0154002Y0184429D02*
X0153551Y0183979D01*
X0152651Y0183979D01*
X0152200Y0184429D01*
X0151055Y0184880D02*
X0151055Y0186681D01*
X0152200Y0186231D02*
X0152651Y0186681D01*
X0153551Y0186681D01*
X0154002Y0186231D01*
X0154002Y0185780D01*
X0153551Y0185330D01*
X0154002Y0184880D01*
X0154002Y0184429D01*
X0153551Y0185330D02*
X0153101Y0185330D01*
X0151055Y0184880D02*
X0150155Y0183979D01*
X0149254Y0184880D01*
X0149254Y0186681D01*
X0148109Y0186231D02*
X0148109Y0185780D01*
X0147658Y0185330D01*
X0148109Y0184880D01*
X0148109Y0184429D01*
X0147658Y0183979D01*
X0146758Y0183979D01*
X0146307Y0184429D01*
X0147208Y0185330D02*
X0147658Y0185330D01*
X0148109Y0186231D02*
X0147658Y0186681D01*
X0146758Y0186681D01*
X0146307Y0186231D01*
X0143877Y0186106D02*
X0143426Y0186556D01*
X0142075Y0186556D01*
X0142075Y0183854D01*
X0143426Y0183854D01*
X0143877Y0184304D01*
X0143877Y0186106D01*
X0140930Y0186556D02*
X0140930Y0183854D01*
X0139129Y0186556D01*
X0139129Y0183854D01*
X0137984Y0184304D02*
X0137984Y0185205D01*
X0137083Y0185205D01*
X0136182Y0186106D02*
X0136182Y0184304D01*
X0136633Y0183854D01*
X0137533Y0183854D01*
X0137984Y0184304D01*
X0137984Y0186106D02*
X0137533Y0186556D01*
X0136633Y0186556D01*
X0136182Y0186106D01*
X0135445Y0180485D02*
X0135445Y0178683D01*
X0135445Y0179584D02*
X0132743Y0179584D01*
X0133644Y0178683D01*
X0134094Y0177538D02*
X0134544Y0177088D01*
X0134544Y0175737D01*
X0134544Y0176637D02*
X0135445Y0177538D01*
X0134094Y0177538D02*
X0133193Y0177538D01*
X0132743Y0177088D01*
X0132743Y0175737D01*
X0135445Y0175737D01*
X0135095Y0163933D02*
X0129595Y0163933D01*
X0129595Y0158433D01*
X0114593Y0156284D02*
X0112792Y0156284D01*
X0114143Y0157635D01*
X0114143Y0154933D01*
X0114700Y0153435D02*
X0112899Y0153435D01*
X0112899Y0152084D01*
X0113799Y0152535D01*
X0114250Y0152535D01*
X0114700Y0152084D01*
X0114700Y0151183D01*
X0114250Y0150733D01*
X0113349Y0150733D01*
X0112899Y0151183D01*
X0111754Y0151183D02*
X0111303Y0150733D01*
X0110402Y0150733D01*
X0109952Y0151183D01*
X0109952Y0152985D01*
X0110402Y0153435D01*
X0111303Y0153435D01*
X0111754Y0152985D01*
X0111196Y0154933D02*
X0111647Y0155383D01*
X0111196Y0154933D02*
X0110296Y0154933D01*
X0109845Y0155383D01*
X0109845Y0157185D01*
X0110296Y0157635D01*
X0111196Y0157635D01*
X0111647Y0157185D01*
X0097001Y0168154D02*
X0094442Y0168154D01*
X0097001Y0168154D02*
X0097001Y0186461D01*
X0085190Y0186461D02*
X0085190Y0168154D01*
X0087749Y0168154D01*
X0085190Y0191185D02*
X0085190Y0195713D01*
X0090701Y0195713D01*
X0160452Y0152485D02*
X0160452Y0150683D01*
X0160902Y0150233D01*
X0161803Y0150233D01*
X0162254Y0150683D01*
X0163399Y0150233D02*
X0165200Y0150233D01*
X0164299Y0150233D02*
X0164299Y0152935D01*
X0163399Y0152035D01*
X0162254Y0152485D02*
X0161803Y0152935D01*
X0160902Y0152935D01*
X0160452Y0152485D01*
X0160321Y0145010D02*
X0159421Y0145010D01*
X0158970Y0144560D01*
X0158970Y0142758D01*
X0159421Y0142308D01*
X0160321Y0142308D01*
X0160772Y0142758D01*
X0161917Y0142758D02*
X0162367Y0142308D01*
X0163268Y0142308D01*
X0163718Y0142758D01*
X0163718Y0143209D01*
X0163268Y0143659D01*
X0161917Y0143659D01*
X0161917Y0142758D01*
X0161917Y0143659D02*
X0162817Y0144560D01*
X0163718Y0145010D01*
X0160772Y0144560D02*
X0160321Y0145010D01*
X0154145Y0137130D02*
X0152343Y0138931D01*
X0151893Y0138931D01*
X0151893Y0137130D01*
X0152343Y0135985D02*
X0151893Y0135534D01*
X0151893Y0134633D01*
X0152343Y0134183D01*
X0154145Y0134183D01*
X0154595Y0134633D01*
X0154595Y0135534D01*
X0154145Y0135985D01*
X0154145Y0137130D02*
X0154595Y0137130D01*
X0151867Y0131807D02*
X0149721Y0131807D01*
X0149721Y0129661D01*
X0163323Y0131807D02*
X0165469Y0131807D01*
X0165469Y0129661D01*
X0168845Y0128635D02*
X0170196Y0128635D01*
X0170647Y0128185D01*
X0170647Y0127284D01*
X0170196Y0126834D01*
X0168845Y0126834D01*
X0169746Y0126834D02*
X0170647Y0125933D01*
X0171792Y0126383D02*
X0171792Y0126834D01*
X0172242Y0127284D01*
X0173143Y0127284D01*
X0173593Y0126834D01*
X0173593Y0126383D01*
X0173143Y0125933D01*
X0172242Y0125933D01*
X0171792Y0126383D01*
X0172242Y0127284D02*
X0171792Y0127735D01*
X0171792Y0128185D01*
X0172242Y0128635D01*
X0173143Y0128635D01*
X0173593Y0128185D01*
X0173593Y0127735D01*
X0173143Y0127284D01*
X0173143Y0123635D02*
X0172242Y0123635D01*
X0171792Y0123185D01*
X0171792Y0122735D01*
X0172242Y0122284D01*
X0173593Y0122284D01*
X0173593Y0121383D02*
X0173593Y0123185D01*
X0173143Y0123635D01*
X0173593Y0121383D02*
X0173143Y0120933D01*
X0172242Y0120933D01*
X0171792Y0121383D01*
X0170647Y0120933D02*
X0169746Y0121834D01*
X0170196Y0121834D02*
X0168845Y0121834D01*
X0168845Y0120933D02*
X0168845Y0123635D01*
X0170196Y0123635D01*
X0170647Y0123185D01*
X0170647Y0122284D01*
X0170196Y0121834D01*
X0168845Y0125933D02*
X0168845Y0128635D01*
X0168196Y0134433D02*
X0167296Y0134433D01*
X0166845Y0134883D01*
X0166845Y0136685D01*
X0167296Y0137135D01*
X0168196Y0137135D01*
X0168647Y0136685D01*
X0169792Y0136235D02*
X0170692Y0137135D01*
X0170692Y0134433D01*
X0169792Y0134433D02*
X0171593Y0134433D01*
X0172738Y0134883D02*
X0174540Y0136685D01*
X0174540Y0134883D01*
X0174089Y0134433D01*
X0173189Y0134433D01*
X0172738Y0134883D01*
X0172738Y0136685D01*
X0173189Y0137135D01*
X0174089Y0137135D01*
X0174540Y0136685D01*
X0176593Y0135088D02*
X0177043Y0135538D01*
X0178845Y0135538D01*
X0179295Y0135088D01*
X0179295Y0134187D01*
X0178845Y0133737D01*
X0177944Y0134187D02*
X0177944Y0135538D01*
X0177944Y0134187D02*
X0177494Y0133737D01*
X0177043Y0133737D01*
X0176593Y0134187D01*
X0176593Y0135088D01*
X0177043Y0132592D02*
X0176593Y0132141D01*
X0176593Y0131240D01*
X0177043Y0130790D01*
X0178845Y0130790D01*
X0179295Y0131240D01*
X0179295Y0132141D01*
X0178845Y0132592D01*
X0184093Y0128088D02*
X0184543Y0128538D01*
X0184994Y0128538D01*
X0185444Y0128088D01*
X0185444Y0127187D01*
X0184994Y0126737D01*
X0184543Y0126737D01*
X0184093Y0127187D01*
X0184093Y0128088D01*
X0185444Y0128088D02*
X0185894Y0128538D01*
X0186345Y0128538D01*
X0186795Y0128088D01*
X0186795Y0127187D01*
X0186345Y0126737D01*
X0185894Y0126737D01*
X0185444Y0127187D01*
X0186345Y0125592D02*
X0186795Y0125141D01*
X0186795Y0124240D01*
X0186345Y0123790D01*
X0184543Y0123790D01*
X0184093Y0124240D01*
X0184093Y0125141D01*
X0184543Y0125592D01*
X0168647Y0134883D02*
X0168196Y0134433D01*
X0176343Y0141290D02*
X0178595Y0141290D01*
X0179045Y0141740D01*
X0179045Y0142641D01*
X0178595Y0143092D01*
X0176343Y0143092D01*
X0176793Y0144237D02*
X0176343Y0144687D01*
X0176343Y0145588D01*
X0176793Y0146038D01*
X0177244Y0146038D01*
X0177694Y0145588D01*
X0178144Y0146038D01*
X0178595Y0146038D01*
X0179045Y0145588D01*
X0179045Y0144687D01*
X0178595Y0144237D01*
X0177694Y0145137D02*
X0177694Y0145588D01*
X0184209Y0153047D02*
X0206257Y0153047D01*
X0212320Y0138500D02*
X0215863Y0138500D01*
X0216060Y0138500D02*
X0216060Y0109366D01*
X0218422Y0107988D01*
X0218422Y0139878D01*
X0216060Y0138500D01*
X0213595Y0138433D02*
X0213595Y0109433D01*
X0212320Y0109366D02*
X0215863Y0109366D01*
X0165469Y0116059D02*
X0163323Y0116059D01*
X0165469Y0116059D02*
X0165469Y0118205D01*
X0151867Y0116059D02*
X0149721Y0116059D01*
X0149721Y0118205D01*
X0138246Y0115185D02*
X0138246Y0112483D01*
X0137345Y0112483D02*
X0139147Y0112483D01*
X0137345Y0114285D02*
X0138246Y0115185D01*
X0136200Y0114735D02*
X0136200Y0112933D01*
X0135750Y0112483D01*
X0134849Y0112483D01*
X0134399Y0112933D01*
X0134399Y0114735D01*
X0134849Y0115185D01*
X0135750Y0115185D01*
X0136200Y0114735D01*
X0135299Y0113384D02*
X0136200Y0112483D01*
X0128200Y0120233D02*
X0127299Y0121134D01*
X0127750Y0121134D02*
X0126399Y0121134D01*
X0126399Y0120233D02*
X0126399Y0122935D01*
X0127750Y0122935D01*
X0128200Y0122485D01*
X0128200Y0121584D01*
X0127750Y0121134D01*
X0125254Y0121584D02*
X0124803Y0121134D01*
X0123452Y0121134D01*
X0124353Y0121134D02*
X0125254Y0120233D01*
X0125254Y0121584D02*
X0125254Y0122485D01*
X0124803Y0122935D01*
X0123452Y0122935D01*
X0123452Y0120233D01*
X0118795Y0126533D02*
X0111395Y0126533D01*
X0112795Y0136333D02*
X0118795Y0136333D01*
X0118045Y0138083D02*
X0116693Y0138083D01*
X0116693Y0140785D01*
X0118045Y0140785D01*
X0118495Y0140335D01*
X0118495Y0139885D01*
X0118045Y0139434D01*
X0116693Y0139434D01*
X0115548Y0139434D02*
X0114648Y0139434D01*
X0115548Y0139434D02*
X0115548Y0138533D01*
X0115098Y0138083D01*
X0114197Y0138083D01*
X0113747Y0138533D01*
X0113747Y0140335D01*
X0114197Y0140785D01*
X0115098Y0140785D01*
X0115548Y0140335D01*
X0118045Y0139434D02*
X0118495Y0138984D01*
X0118495Y0138533D01*
X0118045Y0138083D01*
X0112602Y0138083D02*
X0111701Y0138984D01*
X0112152Y0138984D02*
X0110800Y0138984D01*
X0110800Y0138083D02*
X0110800Y0140785D01*
X0112152Y0140785D01*
X0112602Y0140335D01*
X0112602Y0139434D01*
X0112152Y0138984D01*
X0129452Y0135935D02*
X0129452Y0133233D01*
X0129452Y0134134D02*
X0130803Y0134134D01*
X0131254Y0134584D01*
X0131254Y0135485D01*
X0130803Y0135935D01*
X0129452Y0135935D01*
X0130353Y0134134D02*
X0131254Y0133233D01*
X0132399Y0133233D02*
X0133750Y0133233D01*
X0134200Y0133683D01*
X0134200Y0134134D01*
X0133750Y0134584D01*
X0132399Y0134584D01*
X0133750Y0134584D02*
X0134200Y0135035D01*
X0134200Y0135485D01*
X0133750Y0135935D01*
X0132399Y0135935D01*
X0132399Y0133233D01*
X0132849Y0130935D02*
X0132399Y0130485D01*
X0132399Y0128683D01*
X0132849Y0128233D01*
X0133750Y0128233D01*
X0134200Y0128683D01*
X0134200Y0129584D01*
X0133299Y0129584D01*
X0134200Y0130485D02*
X0133750Y0130935D01*
X0132849Y0130935D01*
X0131254Y0130485D02*
X0131254Y0129584D01*
X0130803Y0129134D01*
X0129452Y0129134D01*
X0130353Y0129134D02*
X0131254Y0128233D01*
X0129452Y0128233D02*
X0129452Y0130935D01*
X0130803Y0130935D01*
X0131254Y0130485D01*
X0178452Y0155933D02*
X0178902Y0155483D01*
X0179803Y0155483D01*
X0180254Y0155933D01*
X0181399Y0155483D02*
X0183200Y0157285D01*
X0183200Y0157735D01*
X0182750Y0158185D01*
X0181849Y0158185D01*
X0181399Y0157735D01*
X0180254Y0157735D02*
X0179803Y0158185D01*
X0178902Y0158185D01*
X0178452Y0157735D01*
X0178452Y0155933D01*
X0181399Y0155483D02*
X0183200Y0155483D01*
X0176196Y0166833D02*
X0175296Y0166833D01*
X0174845Y0167283D01*
X0174845Y0168184D02*
X0175746Y0168635D01*
X0176196Y0168635D01*
X0176647Y0168184D01*
X0176647Y0167283D01*
X0176196Y0166833D01*
X0174845Y0168184D02*
X0174845Y0169535D01*
X0176647Y0169535D01*
X0173700Y0169085D02*
X0173700Y0168184D01*
X0173250Y0167734D01*
X0171899Y0167734D01*
X0172799Y0167734D02*
X0173700Y0166833D01*
X0171899Y0166833D02*
X0171899Y0169535D01*
X0173250Y0169535D01*
X0173700Y0169085D01*
X0163445Y0170737D02*
X0160743Y0170737D01*
X0160743Y0172088D01*
X0161193Y0172538D01*
X0162094Y0172538D01*
X0162544Y0172088D01*
X0162544Y0170737D01*
X0162544Y0171637D02*
X0163445Y0172538D01*
X0163445Y0173683D02*
X0161644Y0175485D01*
X0161193Y0175485D01*
X0160743Y0175034D01*
X0160743Y0174133D01*
X0161193Y0173683D01*
X0163445Y0173683D02*
X0163445Y0175485D01*
D11*
X0158095Y0173933D02*
X0158095Y0172933D01*
X0174095Y0163433D02*
X0175095Y0163433D01*
X0140595Y0177933D02*
X0139595Y0177933D01*
X0121345Y0178933D02*
X0120345Y0178933D01*
X0117595Y0181683D02*
X0117595Y0182683D01*
X0085595Y0196433D02*
X0085551Y0196431D01*
X0085508Y0196425D01*
X0085466Y0196416D01*
X0085424Y0196403D01*
X0085384Y0196386D01*
X0085345Y0196366D01*
X0085308Y0196343D01*
X0085274Y0196316D01*
X0085241Y0196287D01*
X0085212Y0196254D01*
X0085185Y0196220D01*
X0085162Y0196183D01*
X0085142Y0196144D01*
X0085125Y0196104D01*
X0085112Y0196062D01*
X0085103Y0196020D01*
X0085097Y0195977D01*
X0085095Y0195933D01*
X0085095Y0101433D01*
X0085097Y0101293D01*
X0085103Y0101153D01*
X0085113Y0101013D01*
X0085126Y0100873D01*
X0085144Y0100734D01*
X0085166Y0100595D01*
X0085191Y0100458D01*
X0085220Y0100320D01*
X0085253Y0100184D01*
X0085290Y0100049D01*
X0085331Y0099915D01*
X0085376Y0099782D01*
X0085424Y0099650D01*
X0085476Y0099520D01*
X0085531Y0099391D01*
X0085590Y0099264D01*
X0085653Y0099138D01*
X0085719Y0099014D01*
X0085788Y0098893D01*
X0085861Y0098773D01*
X0085938Y0098655D01*
X0086017Y0098540D01*
X0086100Y0098426D01*
X0086186Y0098316D01*
X0086275Y0098207D01*
X0086367Y0098101D01*
X0086462Y0097998D01*
X0086559Y0097897D01*
X0086660Y0097800D01*
X0086763Y0097705D01*
X0086869Y0097613D01*
X0086978Y0097524D01*
X0087088Y0097438D01*
X0087202Y0097355D01*
X0087317Y0097276D01*
X0087435Y0097199D01*
X0087555Y0097126D01*
X0087676Y0097057D01*
X0087800Y0096991D01*
X0087926Y0096928D01*
X0088053Y0096869D01*
X0088182Y0096814D01*
X0088312Y0096762D01*
X0088444Y0096714D01*
X0088577Y0096669D01*
X0088711Y0096628D01*
X0088846Y0096591D01*
X0088982Y0096558D01*
X0089120Y0096529D01*
X0089257Y0096504D01*
X0089396Y0096482D01*
X0089535Y0096464D01*
X0089675Y0096451D01*
X0089815Y0096441D01*
X0089955Y0096435D01*
X0090095Y0096433D01*
X0117595Y0096433D01*
X0210095Y0096433D01*
X0210235Y0096435D01*
X0210375Y0096441D01*
X0210515Y0096451D01*
X0210655Y0096464D01*
X0210794Y0096482D01*
X0210933Y0096504D01*
X0211070Y0096529D01*
X0211208Y0096558D01*
X0211344Y0096591D01*
X0211479Y0096628D01*
X0211613Y0096669D01*
X0211746Y0096714D01*
X0211878Y0096762D01*
X0212008Y0096814D01*
X0212137Y0096869D01*
X0212264Y0096928D01*
X0212390Y0096991D01*
X0212514Y0097057D01*
X0212635Y0097126D01*
X0212755Y0097199D01*
X0212873Y0097276D01*
X0212988Y0097355D01*
X0213102Y0097438D01*
X0213212Y0097524D01*
X0213321Y0097613D01*
X0213427Y0097705D01*
X0213530Y0097800D01*
X0213631Y0097897D01*
X0213728Y0097998D01*
X0213823Y0098101D01*
X0213915Y0098207D01*
X0214004Y0098316D01*
X0214090Y0098426D01*
X0214173Y0098540D01*
X0214252Y0098655D01*
X0214329Y0098773D01*
X0214402Y0098893D01*
X0214471Y0099014D01*
X0214537Y0099138D01*
X0214600Y0099264D01*
X0214659Y0099391D01*
X0214714Y0099520D01*
X0214766Y0099650D01*
X0214814Y0099782D01*
X0214859Y0099915D01*
X0214900Y0100049D01*
X0214937Y0100184D01*
X0214970Y0100320D01*
X0214999Y0100458D01*
X0215024Y0100595D01*
X0215046Y0100734D01*
X0215064Y0100873D01*
X0215077Y0101013D01*
X0215087Y0101153D01*
X0215093Y0101293D01*
X0215095Y0101433D01*
X0215095Y0191433D01*
X0215093Y0191573D01*
X0215087Y0191713D01*
X0215077Y0191853D01*
X0215064Y0191993D01*
X0215046Y0192132D01*
X0215024Y0192271D01*
X0214999Y0192408D01*
X0214970Y0192546D01*
X0214937Y0192682D01*
X0214900Y0192817D01*
X0214859Y0192951D01*
X0214814Y0193084D01*
X0214766Y0193216D01*
X0214714Y0193346D01*
X0214659Y0193475D01*
X0214600Y0193602D01*
X0214537Y0193728D01*
X0214471Y0193852D01*
X0214402Y0193973D01*
X0214329Y0194093D01*
X0214252Y0194211D01*
X0214173Y0194326D01*
X0214090Y0194440D01*
X0214004Y0194550D01*
X0213915Y0194659D01*
X0213823Y0194765D01*
X0213728Y0194868D01*
X0213631Y0194969D01*
X0213530Y0195066D01*
X0213427Y0195161D01*
X0213321Y0195253D01*
X0213212Y0195342D01*
X0213102Y0195428D01*
X0212988Y0195511D01*
X0212873Y0195590D01*
X0212755Y0195667D01*
X0212635Y0195740D01*
X0212514Y0195809D01*
X0212390Y0195875D01*
X0212264Y0195938D01*
X0212137Y0195997D01*
X0212008Y0196052D01*
X0211878Y0196104D01*
X0211746Y0196152D01*
X0211613Y0196197D01*
X0211479Y0196238D01*
X0211344Y0196275D01*
X0211208Y0196308D01*
X0211070Y0196337D01*
X0210933Y0196362D01*
X0210794Y0196384D01*
X0210655Y0196402D01*
X0210515Y0196415D01*
X0210375Y0196425D01*
X0210235Y0196431D01*
X0210095Y0196433D01*
X0085595Y0196433D01*
X0125095Y0134433D02*
X0126095Y0134433D01*
X0126095Y0129933D02*
X0125095Y0129933D01*
X0125095Y0125433D02*
X0126095Y0125433D01*
X0177095Y0127433D02*
X0178095Y0127433D01*
X0178095Y0122433D02*
X0177095Y0122433D01*
X0189095Y0132433D02*
X0189095Y0133433D01*
D12*
X0186095Y0133433D02*
X0186095Y0132433D01*
X0184095Y0132433D02*
X0184095Y0133433D01*
X0182095Y0133433D02*
X0182095Y0132433D01*
X0180095Y0132433D02*
X0180095Y0133433D01*
X0179286Y0138933D02*
X0175905Y0138933D01*
X0180386Y0142876D02*
X0180386Y0144990D01*
X0179286Y0148933D02*
X0175905Y0148933D01*
X0180095Y0152183D02*
X0181095Y0152183D01*
X0181095Y0154183D02*
X0180095Y0154183D01*
X0163595Y0148933D02*
X0162595Y0148933D01*
X0162595Y0146933D02*
X0163595Y0146933D01*
X0162220Y0140808D02*
X0161220Y0140808D01*
X0161220Y0138808D02*
X0162220Y0138808D01*
X0159095Y0136933D02*
X0158095Y0136933D01*
X0158095Y0134933D02*
X0159095Y0134933D01*
X0172095Y0132933D02*
X0173095Y0132933D01*
X0173095Y0130933D02*
X0172095Y0130933D01*
X0172595Y0111433D02*
X0167595Y0111433D01*
X0165095Y0108933D01*
X0165095Y0096433D01*
X0175095Y0096433D01*
X0175095Y0108933D01*
X0172595Y0111433D01*
X0175095Y0108933D02*
X0177595Y0111433D01*
X0182595Y0111433D01*
X0185095Y0108933D01*
X0185095Y0096433D01*
X0195095Y0096433D01*
X0195095Y0108933D01*
X0192595Y0111433D01*
X0187595Y0111433D01*
X0185095Y0108933D01*
X0185095Y0096433D02*
X0175095Y0096433D01*
X0165095Y0096433D02*
X0155095Y0096433D01*
X0155095Y0108933D01*
X0152595Y0111433D01*
X0147595Y0111433D01*
X0145095Y0108933D01*
X0145095Y0096433D01*
X0155095Y0096433D01*
X0145095Y0096433D02*
X0135095Y0096433D01*
X0135095Y0108933D01*
X0137595Y0111433D01*
X0142595Y0111433D01*
X0145095Y0108933D01*
X0155095Y0108933D02*
X0157595Y0111433D01*
X0162595Y0111433D01*
X0165095Y0108933D01*
X0135095Y0096433D02*
X0117595Y0096433D01*
X0113827Y0098028D02*
X0130363Y0098028D01*
X0130363Y0109839D02*
X0113827Y0109839D01*
X0095945Y0124926D02*
X0091742Y0124926D01*
X0091742Y0127028D01*
X0092442Y0127728D01*
X0095245Y0127728D01*
X0095945Y0127028D01*
X0095945Y0124926D01*
X0099242Y0126844D02*
X0099242Y0129647D01*
X0099242Y0128245D02*
X0103445Y0128245D01*
X0102745Y0131448D02*
X0101343Y0131448D01*
X0100643Y0132149D01*
X0100643Y0133550D01*
X0101343Y0134251D01*
X0102044Y0134251D01*
X0102044Y0131448D01*
X0102745Y0131448D02*
X0103445Y0132149D01*
X0103445Y0133550D01*
X0103445Y0136052D02*
X0103445Y0137453D01*
X0103445Y0136753D02*
X0099242Y0136753D01*
X0099242Y0136052D01*
X0095945Y0136936D02*
X0093843Y0136936D01*
X0093143Y0136236D01*
X0093143Y0134134D01*
X0095945Y0134134D01*
X0094544Y0132332D02*
X0093843Y0132332D01*
X0093143Y0131632D01*
X0093143Y0130231D01*
X0093843Y0129530D01*
X0095245Y0129530D01*
X0095945Y0130231D01*
X0095945Y0131632D01*
X0094544Y0132332D02*
X0094544Y0129530D01*
X0094544Y0138738D02*
X0093143Y0140840D01*
X0093143Y0142574D02*
X0095245Y0142574D01*
X0095945Y0143275D01*
X0095945Y0145377D01*
X0096646Y0145377D02*
X0097346Y0144676D01*
X0097346Y0143976D01*
X0098541Y0144426D02*
X0099242Y0144426D01*
X0100643Y0144426D02*
X0103445Y0144426D01*
X0103445Y0143725D02*
X0103445Y0145127D01*
X0103445Y0146795D02*
X0100643Y0146795D01*
X0100643Y0148896D01*
X0101343Y0149597D01*
X0103445Y0149597D01*
X0103445Y0152099D02*
X0099942Y0152099D01*
X0099242Y0152800D01*
X0101343Y0152800D02*
X0101343Y0151399D01*
X0101343Y0154468D02*
X0102745Y0154468D01*
X0103445Y0155168D01*
X0103445Y0156570D01*
X0102745Y0157270D01*
X0101343Y0157270D01*
X0100643Y0156570D01*
X0100643Y0155168D01*
X0101343Y0154468D01*
X0095945Y0153884D02*
X0095945Y0151782D01*
X0091742Y0151782D01*
X0091742Y0153884D01*
X0092442Y0154585D01*
X0095245Y0154585D01*
X0095945Y0153884D01*
X0093843Y0156386D02*
X0093843Y0159189D01*
X0091742Y0158488D02*
X0093843Y0156386D01*
X0091742Y0158488D02*
X0095945Y0158488D01*
X0096646Y0145377D02*
X0093143Y0145377D01*
X0095945Y0140840D02*
X0094544Y0138738D01*
X0095945Y0138738D02*
X0091742Y0138738D01*
X0100643Y0139822D02*
X0100643Y0141223D01*
X0101343Y0141924D01*
X0102044Y0141924D01*
X0102044Y0139121D01*
X0102745Y0139121D02*
X0101343Y0139121D01*
X0100643Y0139822D01*
X0102745Y0139121D02*
X0103445Y0139822D01*
X0103445Y0141223D01*
X0100643Y0143725D02*
X0100643Y0144426D01*
X0111395Y0136533D02*
X0111397Y0136553D01*
X0111403Y0136571D01*
X0111412Y0136589D01*
X0111424Y0136604D01*
X0111439Y0136616D01*
X0111457Y0136625D01*
X0111475Y0136631D01*
X0111495Y0136633D01*
X0111515Y0136631D01*
X0111533Y0136625D01*
X0111551Y0136616D01*
X0111566Y0136604D01*
X0111578Y0136589D01*
X0111587Y0136571D01*
X0111593Y0136553D01*
X0111595Y0136533D01*
X0111593Y0136513D01*
X0111587Y0136495D01*
X0111578Y0136477D01*
X0111566Y0136462D01*
X0111551Y0136450D01*
X0111533Y0136441D01*
X0111515Y0136435D01*
X0111495Y0136433D01*
X0111475Y0136435D01*
X0111457Y0136441D01*
X0111439Y0136450D01*
X0111424Y0136462D01*
X0111412Y0136477D01*
X0111403Y0136495D01*
X0111397Y0136513D01*
X0111395Y0136533D01*
X0118595Y0151433D02*
X0119595Y0151433D01*
X0119595Y0153433D02*
X0118595Y0153433D01*
X0118595Y0155433D02*
X0119595Y0155433D01*
X0119595Y0157433D02*
X0118595Y0157433D01*
X0137595Y0181433D02*
X0142595Y0181433D01*
X0145095Y0183933D01*
X0145095Y0196433D01*
X0135095Y0196433D02*
X0185095Y0196433D01*
X0185095Y0183933D01*
X0187595Y0181433D01*
X0192595Y0181433D01*
X0195095Y0183933D01*
X0195095Y0196433D01*
X0185095Y0196433D01*
X0175095Y0196433D02*
X0175095Y0183933D01*
X0177595Y0181433D01*
X0182595Y0181433D01*
X0185095Y0183933D01*
X0175095Y0183933D02*
X0172595Y0181433D01*
X0167595Y0181433D01*
X0165095Y0183933D01*
X0165095Y0196433D01*
X0155095Y0196433D02*
X0155095Y0183933D01*
X0157595Y0181433D01*
X0162595Y0181433D01*
X0165095Y0183933D01*
X0155095Y0183933D02*
X0152595Y0181433D01*
X0147595Y0181433D01*
X0145095Y0183933D01*
X0137595Y0181433D02*
X0135095Y0183933D01*
X0135095Y0196433D01*
X0115095Y0196433D01*
D13*
X0090095Y0095933D02*
X0210345Y0095933D01*
X0210490Y0095939D01*
X0210636Y0095948D01*
X0210781Y0095961D01*
X0210925Y0095978D01*
X0211069Y0096000D01*
X0211213Y0096024D01*
X0211356Y0096053D01*
X0211497Y0096086D01*
X0211638Y0096122D01*
X0211778Y0096163D01*
X0211917Y0096207D01*
X0212055Y0096255D01*
X0212191Y0096306D01*
X0212325Y0096361D01*
X0212459Y0096420D01*
X0212590Y0096483D01*
X0212720Y0096549D01*
X0212848Y0096618D01*
X0212974Y0096691D01*
X0213098Y0096767D01*
X0213220Y0096847D01*
X0213340Y0096930D01*
X0213457Y0097016D01*
X0213572Y0097105D01*
X0213685Y0097197D01*
X0213795Y0097293D01*
X0213902Y0097391D01*
X0214007Y0097492D01*
X0214109Y0097596D01*
X0214208Y0097703D01*
X0214304Y0097812D01*
X0214397Y0097924D01*
X0214487Y0098038D01*
X0214574Y0098155D01*
X0214658Y0098274D01*
X0214739Y0098395D01*
X0214816Y0098519D01*
X0214890Y0098644D01*
X0214960Y0098772D01*
X0215027Y0098901D01*
X0215090Y0099032D01*
X0215150Y0099165D01*
X0215207Y0099299D01*
X0215259Y0099435D01*
X0215308Y0099572D01*
X0215353Y0099710D01*
X0215394Y0099850D01*
X0215432Y0099991D01*
X0215466Y0100132D01*
X0215496Y0100275D01*
X0215522Y0100418D01*
X0215544Y0100562D01*
X0215562Y0100706D01*
X0215577Y0100851D01*
X0215587Y0100996D01*
X0215593Y0101142D01*
X0215596Y0101287D01*
X0215595Y0101433D01*
X0215595Y0191433D01*
X0215596Y0191434D02*
X0215592Y0191582D01*
X0215584Y0191729D01*
X0215573Y0191877D01*
X0215557Y0192024D01*
X0215538Y0192171D01*
X0215515Y0192318D01*
X0215488Y0192463D01*
X0215457Y0192608D01*
X0215422Y0192752D01*
X0215383Y0192895D01*
X0215341Y0193037D01*
X0215295Y0193177D01*
X0215245Y0193317D01*
X0215191Y0193455D01*
X0215134Y0193591D01*
X0215073Y0193726D01*
X0215008Y0193860D01*
X0214940Y0193991D01*
X0214869Y0194121D01*
X0214794Y0194249D01*
X0214715Y0194375D01*
X0214634Y0194498D01*
X0214549Y0194619D01*
X0214461Y0194739D01*
X0214370Y0194855D01*
X0214275Y0194969D01*
X0214178Y0195081D01*
X0214078Y0195190D01*
X0213975Y0195296D01*
X0213869Y0195400D01*
X0213760Y0195501D01*
X0213649Y0195598D01*
X0213535Y0195693D01*
X0213419Y0195785D01*
X0213300Y0195873D01*
X0213179Y0195959D01*
X0213056Y0196041D01*
X0212931Y0196120D01*
X0212803Y0196195D01*
X0212674Y0196267D01*
X0212542Y0196336D01*
X0212409Y0196401D01*
X0212275Y0196462D01*
X0212138Y0196520D01*
X0212000Y0196574D01*
X0211861Y0196625D01*
X0211721Y0196672D01*
X0211579Y0196715D01*
X0211436Y0196754D01*
X0211292Y0196790D01*
X0211148Y0196821D01*
X0211002Y0196849D01*
X0210856Y0196873D01*
X0210709Y0196893D01*
X0210562Y0196909D01*
X0210415Y0196921D01*
X0210267Y0196929D01*
X0210119Y0196933D01*
X0209970Y0196934D01*
X0209970Y0196933D02*
X0084720Y0196933D01*
X0084720Y0101183D01*
X0084724Y0101040D01*
X0084732Y0100896D01*
X0084743Y0100753D01*
X0084758Y0100609D01*
X0084777Y0100467D01*
X0084800Y0100325D01*
X0084827Y0100183D01*
X0084858Y0100043D01*
X0084892Y0099903D01*
X0084931Y0099764D01*
X0084973Y0099627D01*
X0085018Y0099490D01*
X0085068Y0099355D01*
X0085121Y0099222D01*
X0085177Y0099089D01*
X0085238Y0098959D01*
X0085301Y0098830D01*
X0085369Y0098702D01*
X0085439Y0098577D01*
X0085513Y0098453D01*
X0085590Y0098332D01*
X0085671Y0098213D01*
X0085755Y0098096D01*
X0085841Y0097981D01*
X0085931Y0097869D01*
X0086024Y0097759D01*
X0086120Y0097652D01*
X0086219Y0097547D01*
X0086321Y0097445D01*
X0086425Y0097346D01*
X0086532Y0097250D01*
X0086641Y0097156D01*
X0086753Y0097066D01*
X0086868Y0096979D01*
X0086984Y0096895D01*
X0087103Y0096814D01*
X0087224Y0096736D01*
X0087348Y0096662D01*
X0087473Y0096591D01*
X0087600Y0096523D01*
X0087729Y0096459D01*
X0087859Y0096398D01*
X0087991Y0096341D01*
X0088125Y0096288D01*
X0088260Y0096238D01*
X0088396Y0096192D01*
X0088533Y0096149D01*
X0088672Y0096110D01*
X0088812Y0096075D01*
X0088952Y0096044D01*
X0089093Y0096017D01*
X0089235Y0095993D01*
X0089378Y0095974D01*
X0089521Y0095958D01*
X0089664Y0095946D01*
X0089808Y0095938D01*
X0089952Y0095934D01*
X0090096Y0095933D01*
D14*
X0115768Y0111733D02*
X0115768Y0115136D01*
X0117469Y0115136D01*
X0118036Y0114569D01*
X0118036Y0114002D01*
X0117469Y0113435D01*
X0115768Y0113435D01*
X0117469Y0113435D02*
X0118036Y0112867D01*
X0118036Y0112300D01*
X0117469Y0111733D01*
X0115768Y0111733D01*
X0119451Y0112300D02*
X0120018Y0111733D01*
X0121152Y0111733D01*
X0121719Y0112300D01*
X0121719Y0113435D01*
X0121152Y0114002D01*
X0120018Y0114002D01*
X0119451Y0113435D01*
X0119451Y0112300D01*
X0123134Y0112300D02*
X0123701Y0111733D01*
X0124835Y0111733D01*
X0125403Y0112300D01*
X0125403Y0113435D01*
X0124835Y0114002D01*
X0123701Y0114002D01*
X0123134Y0113435D01*
X0123134Y0112300D01*
X0126817Y0114002D02*
X0127951Y0114002D01*
X0127384Y0114569D02*
X0127384Y0112300D01*
X0127951Y0111733D01*
X0199709Y0189733D02*
X0200843Y0190867D01*
X0200843Y0193136D01*
X0202258Y0192002D02*
X0203392Y0193136D01*
X0203392Y0189733D01*
X0202258Y0189733D02*
X0204526Y0189733D01*
X0205941Y0189733D02*
X0205941Y0190300D01*
X0206508Y0190300D01*
X0206508Y0189733D01*
X0205941Y0189733D01*
X0207783Y0190300D02*
X0208350Y0189733D01*
X0209484Y0189733D01*
X0210051Y0190300D01*
X0210051Y0192569D01*
X0207783Y0190300D01*
X0207783Y0192569D01*
X0208350Y0193136D01*
X0209484Y0193136D01*
X0210051Y0192569D01*
X0199709Y0189733D02*
X0198575Y0190867D01*
X0198575Y0193136D01*
D15*
X0125095Y0167433D02*
X0125097Y0167477D01*
X0125103Y0167521D01*
X0125113Y0167564D01*
X0125126Y0167606D01*
X0125143Y0167647D01*
X0125164Y0167686D01*
X0125188Y0167723D01*
X0125215Y0167758D01*
X0125245Y0167790D01*
X0125278Y0167820D01*
X0125314Y0167846D01*
X0125351Y0167870D01*
X0125391Y0167889D01*
X0125432Y0167906D01*
X0125475Y0167918D01*
X0125518Y0167927D01*
X0125562Y0167932D01*
X0125606Y0167933D01*
X0125650Y0167930D01*
X0125694Y0167923D01*
X0125737Y0167912D01*
X0125779Y0167898D01*
X0125819Y0167880D01*
X0125858Y0167858D01*
X0125894Y0167834D01*
X0125928Y0167806D01*
X0125960Y0167775D01*
X0125989Y0167741D01*
X0126015Y0167705D01*
X0126037Y0167667D01*
X0126056Y0167627D01*
X0126071Y0167585D01*
X0126083Y0167543D01*
X0126091Y0167499D01*
X0126095Y0167455D01*
X0126095Y0167411D01*
X0126091Y0167367D01*
X0126083Y0167323D01*
X0126071Y0167281D01*
X0126056Y0167239D01*
X0126037Y0167199D01*
X0126015Y0167161D01*
X0125989Y0167125D01*
X0125960Y0167091D01*
X0125928Y0167060D01*
X0125894Y0167032D01*
X0125858Y0167008D01*
X0125819Y0166986D01*
X0125779Y0166968D01*
X0125737Y0166954D01*
X0125694Y0166943D01*
X0125650Y0166936D01*
X0125606Y0166933D01*
X0125562Y0166934D01*
X0125518Y0166939D01*
X0125475Y0166948D01*
X0125432Y0166960D01*
X0125391Y0166977D01*
X0125351Y0166996D01*
X0125314Y0167020D01*
X0125278Y0167046D01*
X0125245Y0167076D01*
X0125215Y0167108D01*
X0125188Y0167143D01*
X0125164Y0167180D01*
X0125143Y0167219D01*
X0125126Y0167260D01*
X0125113Y0167302D01*
X0125103Y0167345D01*
X0125097Y0167389D01*
X0125095Y0167433D01*
X0098595Y0193933D02*
X0098597Y0193977D01*
X0098603Y0194021D01*
X0098613Y0194064D01*
X0098626Y0194106D01*
X0098643Y0194147D01*
X0098664Y0194186D01*
X0098688Y0194223D01*
X0098715Y0194258D01*
X0098745Y0194290D01*
X0098778Y0194320D01*
X0098814Y0194346D01*
X0098851Y0194370D01*
X0098891Y0194389D01*
X0098932Y0194406D01*
X0098975Y0194418D01*
X0099018Y0194427D01*
X0099062Y0194432D01*
X0099106Y0194433D01*
X0099150Y0194430D01*
X0099194Y0194423D01*
X0099237Y0194412D01*
X0099279Y0194398D01*
X0099319Y0194380D01*
X0099358Y0194358D01*
X0099394Y0194334D01*
X0099428Y0194306D01*
X0099460Y0194275D01*
X0099489Y0194241D01*
X0099515Y0194205D01*
X0099537Y0194167D01*
X0099556Y0194127D01*
X0099571Y0194085D01*
X0099583Y0194043D01*
X0099591Y0193999D01*
X0099595Y0193955D01*
X0099595Y0193911D01*
X0099591Y0193867D01*
X0099583Y0193823D01*
X0099571Y0193781D01*
X0099556Y0193739D01*
X0099537Y0193699D01*
X0099515Y0193661D01*
X0099489Y0193625D01*
X0099460Y0193591D01*
X0099428Y0193560D01*
X0099394Y0193532D01*
X0099358Y0193508D01*
X0099319Y0193486D01*
X0099279Y0193468D01*
X0099237Y0193454D01*
X0099194Y0193443D01*
X0099150Y0193436D01*
X0099106Y0193433D01*
X0099062Y0193434D01*
X0099018Y0193439D01*
X0098975Y0193448D01*
X0098932Y0193460D01*
X0098891Y0193477D01*
X0098851Y0193496D01*
X0098814Y0193520D01*
X0098778Y0193546D01*
X0098745Y0193576D01*
X0098715Y0193608D01*
X0098688Y0193643D01*
X0098664Y0193680D01*
X0098643Y0193719D01*
X0098626Y0193760D01*
X0098613Y0193802D01*
X0098603Y0193845D01*
X0098597Y0193889D01*
X0098595Y0193933D01*
X0148595Y0113933D02*
X0148597Y0113977D01*
X0148603Y0114021D01*
X0148613Y0114064D01*
X0148626Y0114106D01*
X0148643Y0114147D01*
X0148664Y0114186D01*
X0148688Y0114223D01*
X0148715Y0114258D01*
X0148745Y0114290D01*
X0148778Y0114320D01*
X0148814Y0114346D01*
X0148851Y0114370D01*
X0148891Y0114389D01*
X0148932Y0114406D01*
X0148975Y0114418D01*
X0149018Y0114427D01*
X0149062Y0114432D01*
X0149106Y0114433D01*
X0149150Y0114430D01*
X0149194Y0114423D01*
X0149237Y0114412D01*
X0149279Y0114398D01*
X0149319Y0114380D01*
X0149358Y0114358D01*
X0149394Y0114334D01*
X0149428Y0114306D01*
X0149460Y0114275D01*
X0149489Y0114241D01*
X0149515Y0114205D01*
X0149537Y0114167D01*
X0149556Y0114127D01*
X0149571Y0114085D01*
X0149583Y0114043D01*
X0149591Y0113999D01*
X0149595Y0113955D01*
X0149595Y0113911D01*
X0149591Y0113867D01*
X0149583Y0113823D01*
X0149571Y0113781D01*
X0149556Y0113739D01*
X0149537Y0113699D01*
X0149515Y0113661D01*
X0149489Y0113625D01*
X0149460Y0113591D01*
X0149428Y0113560D01*
X0149394Y0113532D01*
X0149358Y0113508D01*
X0149319Y0113486D01*
X0149279Y0113468D01*
X0149237Y0113454D01*
X0149194Y0113443D01*
X0149150Y0113436D01*
X0149106Y0113433D01*
X0149062Y0113434D01*
X0149018Y0113439D01*
X0148975Y0113448D01*
X0148932Y0113460D01*
X0148891Y0113477D01*
X0148851Y0113496D01*
X0148814Y0113520D01*
X0148778Y0113546D01*
X0148745Y0113576D01*
X0148715Y0113608D01*
X0148688Y0113643D01*
X0148664Y0113680D01*
X0148643Y0113719D01*
X0148626Y0113760D01*
X0148613Y0113802D01*
X0148603Y0113845D01*
X0148597Y0113889D01*
X0148595Y0113933D01*
D16*
X0106725Y0105016D03*
X0105465Y0106096D03*
X0103815Y0105991D03*
D17*
X0106710Y0105008D03*
D18*
X0106695Y0105008D03*
X0100395Y0120398D03*
X0099945Y0122048D03*
X0099870Y0122033D03*
X0099795Y0122018D03*
X0100770Y0122093D03*
D19*
X0097845Y0120908D03*
X0103245Y0114923D03*
X0103320Y0114923D03*
X0103170Y0107798D03*
X0103095Y0107798D03*
X0103020Y0107798D03*
X0102945Y0107798D03*
X0102870Y0107798D03*
X0102795Y0107798D03*
X0102720Y0107798D03*
X0102645Y0107798D03*
X0102570Y0107798D03*
X0102495Y0107798D03*
X0102420Y0107798D03*
X0102345Y0107798D03*
X0102270Y0107798D03*
X0102195Y0107798D03*
X0102120Y0107798D03*
X0102045Y0107798D03*
X0101970Y0107798D03*
X0101895Y0107798D03*
X0101820Y0107798D03*
X0101745Y0107798D03*
X0101670Y0107798D03*
X0101595Y0107798D03*
X0101520Y0107798D03*
X0101445Y0107798D03*
X0101370Y0107798D03*
X0101295Y0107798D03*
X0101220Y0107798D03*
X0101145Y0107798D03*
X0101070Y0107798D03*
X0104295Y0107798D03*
X0104370Y0107798D03*
X0104445Y0107798D03*
X0104520Y0107798D03*
X0104595Y0107798D03*
X0104670Y0107798D03*
X0104745Y0107798D03*
X0104820Y0107798D03*
X0104895Y0107798D03*
X0104970Y0107798D03*
X0105045Y0107798D03*
X0105120Y0107798D03*
X0105195Y0107798D03*
X0105270Y0107798D03*
X0105345Y0107798D03*
X0105420Y0107798D03*
X0105495Y0107798D03*
X0105570Y0107798D03*
X0105645Y0107798D03*
X0105720Y0107798D03*
X0105795Y0107798D03*
X0105870Y0107798D03*
X0105945Y0107798D03*
X0106020Y0107798D03*
X0106095Y0107798D03*
X0106170Y0107798D03*
X0106245Y0107798D03*
X0106320Y0107798D03*
X0106395Y0107798D03*
X0106470Y0107798D03*
X0106545Y0107798D03*
X0106620Y0107798D03*
X0106695Y0107798D03*
D20*
X0106695Y0110378D03*
X0106620Y0110378D03*
X0106545Y0110378D03*
X0106470Y0110378D03*
X0106395Y0110378D03*
X0106320Y0110378D03*
X0106245Y0110378D03*
X0106170Y0110378D03*
X0106095Y0110378D03*
X0106020Y0110378D03*
X0105945Y0110378D03*
X0105870Y0110378D03*
X0105795Y0110378D03*
X0105720Y0110378D03*
X0105645Y0110378D03*
X0105570Y0110378D03*
X0105495Y0110378D03*
X0105420Y0110378D03*
X0105345Y0110378D03*
X0105270Y0110378D03*
X0105195Y0110378D03*
X0105120Y0110378D03*
X0105045Y0110378D03*
X0104970Y0110378D03*
X0104895Y0110378D03*
X0104820Y0110378D03*
X0104745Y0110378D03*
X0104670Y0110378D03*
X0104595Y0110378D03*
X0104520Y0110378D03*
X0104445Y0110378D03*
X0104370Y0110378D03*
X0104295Y0110378D03*
X0098445Y0107738D03*
X0098445Y0113228D03*
X0098370Y0113228D03*
X0098295Y0113228D03*
X0098220Y0113228D03*
X0098145Y0113228D03*
X0098070Y0113228D03*
X0097995Y0113228D03*
X0097920Y0113228D03*
X0097845Y0113228D03*
X0097770Y0113228D03*
X0097695Y0113228D03*
X0097620Y0113228D03*
X0097545Y0113228D03*
X0097470Y0113228D03*
X0097395Y0113228D03*
X0097320Y0113228D03*
X0097245Y0113228D03*
X0097170Y0113228D03*
X0097095Y0113228D03*
X0097020Y0113228D03*
X0096945Y0113228D03*
X0096870Y0113228D03*
X0096795Y0113228D03*
X0098520Y0113228D03*
D21*
X0106695Y0113828D03*
D22*
X0103395Y0114916D03*
X0103170Y0114916D03*
X0103170Y0117136D03*
X0103095Y0117136D03*
X0103020Y0117136D03*
X0102945Y0117136D03*
X0102870Y0117136D03*
X0102795Y0117136D03*
X0102720Y0117136D03*
X0102645Y0117136D03*
X0103245Y0117136D03*
X0103320Y0117136D03*
X0103395Y0117136D03*
X0103470Y0117136D03*
X0103545Y0117136D03*
X0103620Y0117136D03*
X0103695Y0117136D03*
X0103770Y0117136D03*
X0103845Y0117136D03*
X0103920Y0117136D03*
X0103995Y0117136D03*
X0104070Y0117136D03*
X0104145Y0117136D03*
X0104220Y0117136D03*
X0104295Y0117136D03*
X0104370Y0117136D03*
X0104445Y0117136D03*
X0104520Y0117136D03*
X0104595Y0117136D03*
X0104670Y0117136D03*
X0104745Y0117136D03*
X0104820Y0117136D03*
X0104895Y0117136D03*
X0104970Y0117136D03*
X0105045Y0117136D03*
X0105120Y0117136D03*
X0105195Y0117136D03*
X0105270Y0117136D03*
X0105345Y0117136D03*
X0105420Y0117136D03*
X0105495Y0117136D03*
X0105570Y0117136D03*
X0105645Y0117136D03*
X0105720Y0117136D03*
X0105795Y0117136D03*
X0105870Y0117136D03*
X0105945Y0117136D03*
X0106020Y0117136D03*
X0106095Y0117136D03*
X0106170Y0117136D03*
X0106245Y0117136D03*
X0106320Y0117136D03*
X0106395Y0117136D03*
X0106470Y0117136D03*
X0106545Y0117136D03*
X0106620Y0117136D03*
X0106695Y0117136D03*
X0100170Y0118186D03*
X0098595Y0110356D03*
X0096645Y0110386D03*
X0104220Y0107806D03*
D23*
X0106680Y0105008D03*
X0098760Y0107858D03*
X0099480Y0119918D03*
X0098460Y0121418D03*
X0098475Y0121433D03*
X0098505Y0121448D03*
D24*
X0097860Y0120923D03*
X0097830Y0120893D03*
X0103185Y0114923D03*
X0103200Y0114923D03*
X0103215Y0114923D03*
X0103230Y0114923D03*
X0103260Y0114923D03*
X0103275Y0114923D03*
X0103290Y0114923D03*
X0103305Y0114923D03*
X0103335Y0114923D03*
X0103350Y0114923D03*
X0103365Y0114923D03*
X0103380Y0114923D03*
X0102750Y0109493D03*
X0102750Y0107798D03*
X0102735Y0107798D03*
X0102705Y0107798D03*
X0102690Y0107798D03*
X0102675Y0107798D03*
X0102660Y0107798D03*
X0102630Y0107798D03*
X0102615Y0107798D03*
X0102600Y0107798D03*
X0102585Y0107798D03*
X0102555Y0107798D03*
X0102540Y0107798D03*
X0102525Y0107798D03*
X0102510Y0107798D03*
X0102480Y0107798D03*
X0102465Y0107798D03*
X0102450Y0107798D03*
X0102435Y0107798D03*
X0102405Y0107798D03*
X0102390Y0107798D03*
X0102375Y0107798D03*
X0102360Y0107798D03*
X0102330Y0107798D03*
X0102315Y0107798D03*
X0102300Y0107798D03*
X0102285Y0107798D03*
X0102255Y0107798D03*
X0102240Y0107798D03*
X0102225Y0107798D03*
X0102210Y0107798D03*
X0102180Y0107798D03*
X0102165Y0107798D03*
X0102150Y0107798D03*
X0102135Y0107798D03*
X0102105Y0107798D03*
X0102090Y0107798D03*
X0102075Y0107798D03*
X0102060Y0107798D03*
X0102030Y0107798D03*
X0102015Y0107798D03*
X0102000Y0107798D03*
X0101985Y0107798D03*
X0101955Y0107798D03*
X0101940Y0107798D03*
X0101925Y0107798D03*
X0101910Y0107798D03*
X0101880Y0107798D03*
X0101865Y0107798D03*
X0101850Y0107798D03*
X0101835Y0107798D03*
X0101805Y0107798D03*
X0101790Y0107798D03*
X0101775Y0107798D03*
X0101760Y0107798D03*
X0101730Y0107798D03*
X0101715Y0107798D03*
X0101700Y0107798D03*
X0101685Y0107798D03*
X0101655Y0107798D03*
X0101640Y0107798D03*
X0101625Y0107798D03*
X0101610Y0107798D03*
X0101580Y0107798D03*
X0101565Y0107798D03*
X0101550Y0107798D03*
X0101535Y0107798D03*
X0101505Y0107798D03*
X0101490Y0107798D03*
X0101475Y0107798D03*
X0101460Y0107798D03*
X0101430Y0107798D03*
X0101415Y0107798D03*
X0101400Y0107798D03*
X0101385Y0107798D03*
X0101355Y0107798D03*
X0101340Y0107798D03*
X0101325Y0107798D03*
X0101310Y0107798D03*
X0101280Y0107798D03*
X0101265Y0107798D03*
X0101250Y0107798D03*
X0101235Y0107798D03*
X0101205Y0107798D03*
X0101190Y0107798D03*
X0101175Y0107798D03*
X0101160Y0107798D03*
X0101130Y0107798D03*
X0101115Y0107798D03*
X0101100Y0107798D03*
X0101085Y0107798D03*
X0101055Y0107798D03*
X0101040Y0107798D03*
X0101025Y0107798D03*
X0101010Y0107798D03*
X0102765Y0107798D03*
X0102780Y0107798D03*
X0102810Y0107798D03*
X0102825Y0107798D03*
X0102840Y0107798D03*
X0102855Y0107798D03*
X0102885Y0107798D03*
X0102900Y0107798D03*
X0102915Y0107798D03*
X0102930Y0107798D03*
X0102960Y0107798D03*
X0102975Y0107798D03*
X0102990Y0107798D03*
X0103005Y0107798D03*
X0103035Y0107798D03*
X0103050Y0107798D03*
X0103065Y0107798D03*
X0103080Y0107798D03*
X0103110Y0107798D03*
X0103125Y0107798D03*
X0103140Y0107798D03*
X0103155Y0107798D03*
X0103185Y0107798D03*
X0103200Y0107798D03*
X0104280Y0107798D03*
X0104310Y0107798D03*
X0104325Y0107798D03*
X0104340Y0107798D03*
X0104355Y0107798D03*
X0104385Y0107798D03*
X0104400Y0107798D03*
X0104415Y0107798D03*
X0104430Y0107798D03*
X0104460Y0107798D03*
X0104475Y0107798D03*
X0104490Y0107798D03*
X0104505Y0107798D03*
X0104535Y0107798D03*
X0104550Y0107798D03*
X0104565Y0107798D03*
X0104580Y0107798D03*
X0104610Y0107798D03*
X0104625Y0107798D03*
X0104640Y0107798D03*
X0104655Y0107798D03*
X0104685Y0107798D03*
X0104700Y0107798D03*
X0104715Y0107798D03*
X0104730Y0107798D03*
X0104760Y0107798D03*
X0104775Y0107798D03*
X0104790Y0107798D03*
X0104805Y0107798D03*
X0104835Y0107798D03*
X0104850Y0107798D03*
X0104865Y0107798D03*
X0104880Y0107798D03*
X0104910Y0107798D03*
X0104925Y0107798D03*
X0104940Y0107798D03*
X0104955Y0107798D03*
X0104985Y0107798D03*
X0105000Y0107798D03*
X0105015Y0107798D03*
X0105030Y0107798D03*
X0105060Y0107798D03*
X0105075Y0107798D03*
X0105090Y0107798D03*
X0105105Y0107798D03*
X0105135Y0107798D03*
X0105150Y0107798D03*
X0105165Y0107798D03*
X0105180Y0107798D03*
X0105210Y0107798D03*
X0105225Y0107798D03*
X0105240Y0107798D03*
X0105255Y0107798D03*
X0105285Y0107798D03*
X0105300Y0107798D03*
X0105315Y0107798D03*
X0105330Y0107798D03*
X0105360Y0107798D03*
X0105375Y0107798D03*
X0105390Y0107798D03*
X0105405Y0107798D03*
X0105435Y0107798D03*
X0105450Y0107798D03*
X0105465Y0107798D03*
X0105480Y0107798D03*
X0105510Y0107798D03*
X0105525Y0107798D03*
X0105540Y0107798D03*
X0105555Y0107798D03*
X0105585Y0107798D03*
X0105600Y0107798D03*
X0105615Y0107798D03*
X0105630Y0107798D03*
X0105660Y0107798D03*
X0105675Y0107798D03*
X0105690Y0107798D03*
X0105705Y0107798D03*
X0105735Y0107798D03*
X0105750Y0107798D03*
X0105765Y0107798D03*
X0105780Y0107798D03*
X0105810Y0107798D03*
X0105825Y0107798D03*
X0105840Y0107798D03*
X0105855Y0107798D03*
X0105885Y0107798D03*
X0105900Y0107798D03*
X0105915Y0107798D03*
X0105930Y0107798D03*
X0105960Y0107798D03*
X0105975Y0107798D03*
X0105990Y0107798D03*
X0106005Y0107798D03*
X0106035Y0107798D03*
X0106050Y0107798D03*
X0106065Y0107798D03*
X0106080Y0107798D03*
X0106110Y0107798D03*
X0106125Y0107798D03*
X0106140Y0107798D03*
X0106155Y0107798D03*
X0106185Y0107798D03*
X0106200Y0107798D03*
X0106215Y0107798D03*
X0106230Y0107798D03*
X0106260Y0107798D03*
X0106275Y0107798D03*
X0106290Y0107798D03*
X0106305Y0107798D03*
X0106335Y0107798D03*
X0106350Y0107798D03*
X0106365Y0107798D03*
X0106380Y0107798D03*
X0106410Y0107798D03*
X0106425Y0107798D03*
X0106440Y0107798D03*
X0106455Y0107798D03*
X0106485Y0107798D03*
X0106500Y0107798D03*
X0106515Y0107798D03*
X0106530Y0107798D03*
X0106560Y0107798D03*
X0106575Y0107798D03*
X0106590Y0107798D03*
X0106605Y0107798D03*
X0106635Y0107798D03*
X0106650Y0107798D03*
X0106665Y0107798D03*
X0106680Y0107798D03*
D25*
X0106680Y0110378D03*
X0106665Y0110378D03*
X0106650Y0110378D03*
X0106635Y0110378D03*
X0106605Y0110378D03*
X0106590Y0110378D03*
X0106575Y0110378D03*
X0106560Y0110378D03*
X0106530Y0110378D03*
X0106515Y0110378D03*
X0106500Y0110378D03*
X0106485Y0110378D03*
X0106455Y0110378D03*
X0106440Y0110378D03*
X0106425Y0110378D03*
X0106410Y0110378D03*
X0106380Y0110378D03*
X0106365Y0110378D03*
X0106350Y0110378D03*
X0106335Y0110378D03*
X0106305Y0110378D03*
X0106290Y0110378D03*
X0106275Y0110378D03*
X0106260Y0110378D03*
X0106230Y0110378D03*
X0106215Y0110378D03*
X0106200Y0110378D03*
X0106185Y0110378D03*
X0106155Y0110378D03*
X0106140Y0110378D03*
X0106125Y0110378D03*
X0106110Y0110378D03*
X0106080Y0110378D03*
X0106065Y0110378D03*
X0106050Y0110378D03*
X0106035Y0110378D03*
X0106005Y0110378D03*
X0105990Y0110378D03*
X0105975Y0110378D03*
X0105960Y0110378D03*
X0105930Y0110378D03*
X0105915Y0110378D03*
X0105900Y0110378D03*
X0105885Y0110378D03*
X0105855Y0110378D03*
X0105840Y0110378D03*
X0105825Y0110378D03*
X0105810Y0110378D03*
X0105780Y0110378D03*
X0105765Y0110378D03*
X0105750Y0110378D03*
X0105735Y0110378D03*
X0105705Y0110378D03*
X0105690Y0110378D03*
X0105675Y0110378D03*
X0105660Y0110378D03*
X0105630Y0110378D03*
X0105615Y0110378D03*
X0105600Y0110378D03*
X0105585Y0110378D03*
X0105555Y0110378D03*
X0105540Y0110378D03*
X0105525Y0110378D03*
X0105510Y0110378D03*
X0105480Y0110378D03*
X0105465Y0110378D03*
X0105450Y0110378D03*
X0105435Y0110378D03*
X0105405Y0110378D03*
X0105390Y0110378D03*
X0105375Y0110378D03*
X0105360Y0110378D03*
X0105330Y0110378D03*
X0105315Y0110378D03*
X0105300Y0110378D03*
X0105285Y0110378D03*
X0105255Y0110378D03*
X0105240Y0110378D03*
X0105225Y0110378D03*
X0105210Y0110378D03*
X0105180Y0110378D03*
X0105165Y0110378D03*
X0105150Y0110378D03*
X0105135Y0110378D03*
X0105105Y0110378D03*
X0105090Y0110378D03*
X0105075Y0110378D03*
X0105060Y0110378D03*
X0105030Y0110378D03*
X0105015Y0110378D03*
X0105000Y0110378D03*
X0104985Y0110378D03*
X0104955Y0110378D03*
X0104940Y0110378D03*
X0104925Y0110378D03*
X0104910Y0110378D03*
X0104880Y0110378D03*
X0104865Y0110378D03*
X0104850Y0110378D03*
X0104835Y0110378D03*
X0104805Y0110378D03*
X0104790Y0110378D03*
X0104775Y0110378D03*
X0104760Y0110378D03*
X0104730Y0110378D03*
X0104715Y0110378D03*
X0104700Y0110378D03*
X0104685Y0110378D03*
X0104655Y0110378D03*
X0104640Y0110378D03*
X0104625Y0110378D03*
X0104610Y0110378D03*
X0104580Y0110378D03*
X0104565Y0110378D03*
X0104550Y0110378D03*
X0104535Y0110378D03*
X0104505Y0110378D03*
X0104490Y0110378D03*
X0104475Y0110378D03*
X0104460Y0110378D03*
X0104430Y0110378D03*
X0104415Y0110378D03*
X0104400Y0110378D03*
X0104385Y0110378D03*
X0104355Y0110378D03*
X0104340Y0110378D03*
X0104325Y0110378D03*
X0104310Y0110378D03*
X0104280Y0110378D03*
X0104265Y0110378D03*
X0103080Y0112688D03*
X0101865Y0113888D03*
X0098505Y0113228D03*
X0098490Y0113228D03*
X0098475Y0113228D03*
X0098460Y0113228D03*
X0098430Y0113228D03*
X0098415Y0113228D03*
X0098400Y0113228D03*
X0098385Y0113228D03*
X0098355Y0113228D03*
X0098340Y0113228D03*
X0098325Y0113228D03*
X0098310Y0113228D03*
X0098280Y0113228D03*
X0098265Y0113228D03*
X0098250Y0113228D03*
X0098235Y0113228D03*
X0098205Y0113228D03*
X0098190Y0113228D03*
X0098175Y0113228D03*
X0098160Y0113228D03*
X0098130Y0113228D03*
X0098115Y0113228D03*
X0098100Y0113228D03*
X0098085Y0113228D03*
X0098055Y0113228D03*
X0098040Y0113228D03*
X0098025Y0113228D03*
X0098010Y0113228D03*
X0097980Y0113228D03*
X0097965Y0113228D03*
X0097950Y0113228D03*
X0097935Y0113228D03*
X0097905Y0113228D03*
X0097890Y0113228D03*
X0097875Y0113228D03*
X0097860Y0113228D03*
X0097830Y0113228D03*
X0097815Y0113228D03*
X0097800Y0113228D03*
X0097785Y0113228D03*
X0097755Y0113228D03*
X0097740Y0113228D03*
X0097725Y0113228D03*
X0097710Y0113228D03*
X0097680Y0113228D03*
X0097665Y0113228D03*
X0097650Y0113228D03*
X0097635Y0113228D03*
X0097605Y0113228D03*
X0097590Y0113228D03*
X0097575Y0113228D03*
X0097560Y0113228D03*
X0097530Y0113228D03*
X0097515Y0113228D03*
X0097500Y0113228D03*
X0097485Y0113228D03*
X0097455Y0113228D03*
X0097440Y0113228D03*
X0097425Y0113228D03*
X0097410Y0113228D03*
X0097380Y0113228D03*
X0097365Y0113228D03*
X0097350Y0113228D03*
X0097335Y0113228D03*
X0097305Y0113228D03*
X0097290Y0113228D03*
X0097275Y0113228D03*
X0097260Y0113228D03*
X0097230Y0113228D03*
X0097215Y0113228D03*
X0097200Y0113228D03*
X0097185Y0113228D03*
X0097155Y0113228D03*
X0097140Y0113228D03*
X0097125Y0113228D03*
X0097110Y0113228D03*
X0097080Y0113228D03*
X0097065Y0113228D03*
X0097050Y0113228D03*
X0097035Y0113228D03*
X0097005Y0113228D03*
X0096990Y0113228D03*
X0096975Y0113228D03*
X0096960Y0113228D03*
X0096930Y0113228D03*
X0096915Y0113228D03*
X0096900Y0113228D03*
X0096885Y0113228D03*
X0096855Y0113228D03*
X0096840Y0113228D03*
X0096825Y0113228D03*
X0096810Y0113228D03*
X0096780Y0113228D03*
X0096765Y0113228D03*
X0096750Y0113228D03*
X0096735Y0113228D03*
X0096675Y0110378D03*
X0098550Y0110363D03*
X0098460Y0107738D03*
X0097815Y0120878D03*
X0097875Y0120938D03*
X0097890Y0120953D03*
D26*
X0096510Y0118058D03*
X0095775Y0111803D03*
X0099060Y0109178D03*
X0106680Y0113828D03*
X0096735Y0102008D03*
D27*
X0098415Y0107716D03*
X0098430Y0107731D03*
X0098565Y0110356D03*
X0098580Y0110356D03*
X0096660Y0110386D03*
X0096630Y0110386D03*
X0098535Y0113236D03*
X0098550Y0113236D03*
X0098565Y0113236D03*
X0098580Y0113236D03*
X0103140Y0114916D03*
X0103155Y0114916D03*
X0103410Y0114916D03*
X0103425Y0114916D03*
X0103425Y0117136D03*
X0103410Y0117136D03*
X0103380Y0117136D03*
X0103365Y0117136D03*
X0103350Y0117136D03*
X0103335Y0117136D03*
X0103305Y0117136D03*
X0103290Y0117136D03*
X0103275Y0117136D03*
X0103260Y0117136D03*
X0103230Y0117136D03*
X0103215Y0117136D03*
X0103200Y0117136D03*
X0103185Y0117136D03*
X0103155Y0117136D03*
X0103140Y0117136D03*
X0103125Y0117136D03*
X0103110Y0117136D03*
X0103080Y0117136D03*
X0103065Y0117136D03*
X0103050Y0117136D03*
X0103035Y0117136D03*
X0103005Y0117136D03*
X0102990Y0117136D03*
X0102975Y0117136D03*
X0102960Y0117136D03*
X0102930Y0117136D03*
X0102915Y0117136D03*
X0102900Y0117136D03*
X0102885Y0117136D03*
X0102855Y0117136D03*
X0102840Y0117136D03*
X0102825Y0117136D03*
X0102810Y0117136D03*
X0102780Y0117136D03*
X0102765Y0117136D03*
X0102750Y0117136D03*
X0102735Y0117136D03*
X0102705Y0117136D03*
X0102690Y0117136D03*
X0102675Y0117136D03*
X0102660Y0117136D03*
X0102630Y0117136D03*
X0102615Y0117136D03*
X0102600Y0117136D03*
X0101760Y0117136D03*
X0101175Y0117136D03*
X0103440Y0117136D03*
X0103455Y0117136D03*
X0103485Y0117136D03*
X0103500Y0117136D03*
X0103515Y0117136D03*
X0103530Y0117136D03*
X0103560Y0117136D03*
X0103575Y0117136D03*
X0103590Y0117136D03*
X0103605Y0117136D03*
X0103635Y0117136D03*
X0103650Y0117136D03*
X0103665Y0117136D03*
X0103680Y0117136D03*
X0103710Y0117136D03*
X0103725Y0117136D03*
X0103740Y0117136D03*
X0103755Y0117136D03*
X0103785Y0117136D03*
X0103800Y0117136D03*
X0103815Y0117136D03*
X0103830Y0117136D03*
X0103860Y0117136D03*
X0103875Y0117136D03*
X0103890Y0117136D03*
X0103905Y0117136D03*
X0103935Y0117136D03*
X0103950Y0117136D03*
X0103965Y0117136D03*
X0103980Y0117136D03*
X0104010Y0117136D03*
X0104025Y0117136D03*
X0104040Y0117136D03*
X0104055Y0117136D03*
X0104085Y0117136D03*
X0104100Y0117136D03*
X0104115Y0117136D03*
X0104130Y0117136D03*
X0104160Y0117136D03*
X0104175Y0117136D03*
X0104190Y0117136D03*
X0104205Y0117136D03*
X0104235Y0117136D03*
X0104250Y0117136D03*
X0104265Y0117136D03*
X0104280Y0117136D03*
X0104310Y0117136D03*
X0104325Y0117136D03*
X0104340Y0117136D03*
X0104355Y0117136D03*
X0104385Y0117136D03*
X0104400Y0117136D03*
X0104415Y0117136D03*
X0104430Y0117136D03*
X0104460Y0117136D03*
X0104475Y0117136D03*
X0104490Y0117136D03*
X0104505Y0117136D03*
X0104535Y0117136D03*
X0104550Y0117136D03*
X0104565Y0117136D03*
X0104580Y0117136D03*
X0104610Y0117136D03*
X0104625Y0117136D03*
X0104640Y0117136D03*
X0104655Y0117136D03*
X0104685Y0117136D03*
X0104700Y0117136D03*
X0104715Y0117136D03*
X0104730Y0117136D03*
X0104760Y0117136D03*
X0104775Y0117136D03*
X0104790Y0117136D03*
X0104805Y0117136D03*
X0104835Y0117136D03*
X0104850Y0117136D03*
X0104865Y0117136D03*
X0104880Y0117136D03*
X0104910Y0117136D03*
X0104925Y0117136D03*
X0104940Y0117136D03*
X0104955Y0117136D03*
X0104985Y0117136D03*
X0105000Y0117136D03*
X0105015Y0117136D03*
X0105030Y0117136D03*
X0105060Y0117136D03*
X0105075Y0117136D03*
X0105090Y0117136D03*
X0105105Y0117136D03*
X0105135Y0117136D03*
X0105150Y0117136D03*
X0105165Y0117136D03*
X0105180Y0117136D03*
X0105210Y0117136D03*
X0105225Y0117136D03*
X0105240Y0117136D03*
X0105255Y0117136D03*
X0105285Y0117136D03*
X0105300Y0117136D03*
X0105315Y0117136D03*
X0105330Y0117136D03*
X0105360Y0117136D03*
X0105375Y0117136D03*
X0105390Y0117136D03*
X0105405Y0117136D03*
X0105435Y0117136D03*
X0105450Y0117136D03*
X0105465Y0117136D03*
X0105480Y0117136D03*
X0105510Y0117136D03*
X0105525Y0117136D03*
X0105540Y0117136D03*
X0105555Y0117136D03*
X0105585Y0117136D03*
X0105600Y0117136D03*
X0105615Y0117136D03*
X0105630Y0117136D03*
X0105660Y0117136D03*
X0105675Y0117136D03*
X0105690Y0117136D03*
X0105705Y0117136D03*
X0105735Y0117136D03*
X0105750Y0117136D03*
X0105765Y0117136D03*
X0105780Y0117136D03*
X0105810Y0117136D03*
X0105825Y0117136D03*
X0105840Y0117136D03*
X0105855Y0117136D03*
X0105885Y0117136D03*
X0105900Y0117136D03*
X0105915Y0117136D03*
X0105930Y0117136D03*
X0105960Y0117136D03*
X0105975Y0117136D03*
X0105990Y0117136D03*
X0106005Y0117136D03*
X0106035Y0117136D03*
X0106050Y0117136D03*
X0106065Y0117136D03*
X0106080Y0117136D03*
X0106110Y0117136D03*
X0106125Y0117136D03*
X0106140Y0117136D03*
X0106155Y0117136D03*
X0106185Y0117136D03*
X0106200Y0117136D03*
X0106215Y0117136D03*
X0106230Y0117136D03*
X0106260Y0117136D03*
X0106275Y0117136D03*
X0106290Y0117136D03*
X0106305Y0117136D03*
X0106335Y0117136D03*
X0106350Y0117136D03*
X0106365Y0117136D03*
X0106380Y0117136D03*
X0106410Y0117136D03*
X0106425Y0117136D03*
X0106440Y0117136D03*
X0106455Y0117136D03*
X0106485Y0117136D03*
X0106500Y0117136D03*
X0106515Y0117136D03*
X0106530Y0117136D03*
X0106560Y0117136D03*
X0106575Y0117136D03*
X0106590Y0117136D03*
X0106605Y0117136D03*
X0106635Y0117136D03*
X0106650Y0117136D03*
X0106665Y0117136D03*
X0106680Y0117136D03*
X0099030Y0119506D03*
X0086565Y0110341D03*
X0104175Y0107806D03*
X0104190Y0107806D03*
X0104205Y0107806D03*
X0104235Y0107806D03*
X0104250Y0107806D03*
X0104265Y0107806D03*
D28*
X0106665Y0105016D03*
X0100185Y0118201D03*
X0099075Y0119551D03*
X0099090Y0119566D03*
D29*
X0102690Y0113746D03*
X0106635Y0113821D03*
X0106650Y0113821D03*
X0106665Y0113821D03*
X0094560Y0104146D03*
D30*
X0098235Y0107641D03*
X0098250Y0107641D03*
X0098775Y0110281D03*
X0098760Y0110296D03*
X0096465Y0110446D03*
X0096450Y0110461D03*
X0096450Y0113146D03*
X0098775Y0113311D03*
X0102975Y0114856D03*
X0103650Y0114826D03*
X0101655Y0117136D03*
X0101640Y0117136D03*
X0101280Y0117136D03*
X0097605Y0120646D03*
X0097590Y0120631D03*
X0103965Y0110326D03*
X0103980Y0110326D03*
X0103980Y0107851D03*
X0103965Y0107851D03*
X0106650Y0105016D03*
X0105540Y0103801D03*
X0103860Y0103786D03*
X0103830Y0103801D03*
X0086580Y0110341D03*
D31*
X0091680Y0103643D03*
X0091710Y0103643D03*
X0093075Y0099173D03*
X0098040Y0107543D03*
X0098055Y0107543D03*
X0103815Y0110258D03*
X0102840Y0114758D03*
X0102855Y0114773D03*
X0098775Y0119168D03*
X0106635Y0105008D03*
X0105735Y0103943D03*
D32*
X0106620Y0105008D03*
D33*
X0106620Y0113813D03*
D34*
X0106605Y0105008D03*
X0091305Y0103733D03*
X0097215Y0120083D03*
D35*
X0102705Y0113738D03*
X0106590Y0113813D03*
X0106605Y0113813D03*
X0099030Y0109178D03*
X0095790Y0111803D03*
D36*
X0097635Y0107311D03*
X0102735Y0105031D03*
X0105840Y0104116D03*
X0106590Y0105016D03*
X0105030Y0113566D03*
X0105015Y0113581D03*
X0104985Y0113611D03*
X0104955Y0113641D03*
X0104940Y0113656D03*
X0104910Y0113686D03*
X0104880Y0113716D03*
X0104865Y0113731D03*
X0104835Y0113761D03*
X0104805Y0113791D03*
X0098550Y0116911D03*
X0091200Y0116911D03*
X0091185Y0103786D03*
X0094365Y0099976D03*
D37*
X0096255Y0100936D03*
X0091080Y0103846D03*
X0102750Y0105031D03*
X0106575Y0105016D03*
X0101985Y0113881D03*
X0098640Y0116836D03*
X0091065Y0116836D03*
D38*
X0096525Y0118081D03*
X0095805Y0111796D03*
X0106530Y0113806D03*
X0106560Y0113806D03*
X0106575Y0113806D03*
D39*
X0102780Y0112891D03*
X0097365Y0107131D03*
X0091005Y0103891D03*
X0106560Y0105016D03*
X0091005Y0116791D03*
D40*
X0106545Y0105016D03*
D41*
X0106545Y0113806D03*
D42*
X0102960Y0109493D03*
X0106530Y0105023D03*
X0095535Y0105998D03*
X0095505Y0105968D03*
X0095460Y0105923D03*
X0096105Y0100958D03*
X0098550Y0118643D03*
D43*
X0102060Y0113873D03*
X0102990Y0109493D03*
X0106515Y0105023D03*
X0096090Y0100973D03*
X0093150Y0099518D03*
D44*
X0096765Y0102053D03*
X0099960Y0105968D03*
X0099015Y0109178D03*
X0099000Y0109178D03*
X0106485Y0113798D03*
X0106500Y0113798D03*
X0106515Y0113798D03*
D45*
X0099900Y0108953D03*
X0097005Y0106868D03*
X0096990Y0106853D03*
X0095280Y0105698D03*
X0106500Y0105023D03*
X0098790Y0116648D03*
X0096990Y0119543D03*
D46*
X0097935Y0117428D03*
X0090750Y0116543D03*
X0096930Y0106808D03*
X0096915Y0106793D03*
X0095190Y0105563D03*
X0090765Y0104123D03*
X0090750Y0104138D03*
X0094665Y0100358D03*
X0100050Y0106148D03*
X0106485Y0105023D03*
D47*
X0106470Y0105023D03*
D48*
X0106470Y0113791D03*
X0095820Y0111796D03*
X0094545Y0104101D03*
D49*
X0095100Y0105428D03*
X0096810Y0106703D03*
X0096015Y0101048D03*
X0094740Y0100448D03*
X0106455Y0105023D03*
X0095355Y0111803D03*
D50*
X0098985Y0109171D03*
X0102735Y0113731D03*
X0106440Y0113791D03*
X0106455Y0113791D03*
X0098490Y0117841D03*
X0096540Y0118096D03*
X0087165Y0110341D03*
D51*
X0090630Y0116408D03*
X0096210Y0117533D03*
X0102150Y0113858D03*
X0103125Y0109508D03*
X0106440Y0105023D03*
X0095055Y0105338D03*
X0090630Y0104273D03*
X0093180Y0099668D03*
D52*
X0094830Y0100553D03*
X0095010Y0105263D03*
X0095715Y0105953D03*
X0096660Y0106568D03*
X0090585Y0104318D03*
X0090585Y0116363D03*
X0106425Y0105023D03*
D53*
X0106425Y0113783D03*
X0106410Y0113783D03*
X0096780Y0102083D03*
D54*
X0094980Y0105211D03*
X0095730Y0105946D03*
X0106410Y0105031D03*
X0090540Y0116311D03*
D55*
X0095745Y0105923D03*
X0096420Y0101378D03*
X0093195Y0099743D03*
X0106395Y0105023D03*
D56*
X0106395Y0113783D03*
D57*
X0098055Y0117571D03*
X0090465Y0116221D03*
X0106380Y0105031D03*
X0095925Y0101131D03*
D58*
X0106335Y0113776D03*
X0106350Y0113776D03*
X0106365Y0113776D03*
X0106380Y0113776D03*
X0098505Y0117841D03*
D59*
X0095430Y0111796D03*
X0099705Y0109081D03*
X0096465Y0106381D03*
X0094905Y0105061D03*
X0094965Y0100696D03*
X0090435Y0104506D03*
X0090435Y0116176D03*
X0106365Y0105031D03*
D60*
X0106350Y0105031D03*
X0094875Y0104986D03*
X0095025Y0100756D03*
X0090375Y0104581D03*
X0086925Y0110341D03*
X0090360Y0116086D03*
X0090375Y0116101D03*
X0098100Y0117616D03*
D61*
X0102285Y0113836D03*
X0106335Y0105031D03*
X0094860Y0104956D03*
X0095055Y0100786D03*
X0090330Y0104641D03*
D62*
X0106320Y0105038D03*
D63*
X0106320Y0113768D03*
D64*
X0102315Y0113828D03*
X0098880Y0116318D03*
X0096285Y0117728D03*
X0090240Y0115928D03*
X0090240Y0104753D03*
X0090255Y0104738D03*
X0103005Y0105053D03*
X0106305Y0105038D03*
D65*
X0106305Y0113768D03*
X0106290Y0113768D03*
X0102765Y0113723D03*
X0094530Y0104048D03*
D66*
X0094785Y0104783D03*
X0096225Y0106118D03*
X0096240Y0106133D03*
X0096510Y0101573D03*
X0095835Y0101213D03*
X0090150Y0104888D03*
X0090135Y0104903D03*
X0090135Y0115778D03*
X0090150Y0115793D03*
X0090165Y0115823D03*
X0096300Y0117758D03*
X0103035Y0105053D03*
X0106290Y0105038D03*
D67*
X0106275Y0105038D03*
X0103050Y0105038D03*
X0096210Y0106103D03*
X0096525Y0101603D03*
X0095205Y0100928D03*
X0090090Y0104978D03*
X0090075Y0115688D03*
D68*
X0087180Y0110341D03*
X0093330Y0100336D03*
X0106260Y0113761D03*
X0106275Y0113761D03*
D69*
X0099525Y0109148D03*
X0106260Y0105038D03*
X0095250Y0100973D03*
X0089925Y0105248D03*
X0089865Y0105353D03*
X0089700Y0105638D03*
X0089640Y0105743D03*
X0089580Y0105848D03*
X0089535Y0105923D03*
X0089475Y0106028D03*
X0089310Y0106313D03*
X0089250Y0106418D03*
X0089190Y0106523D03*
X0089085Y0106703D03*
X0088965Y0106913D03*
X0088860Y0107093D03*
X0088800Y0107198D03*
X0088740Y0107303D03*
X0088575Y0107588D03*
X0088410Y0107873D03*
X0088350Y0107978D03*
X0088305Y0108053D03*
X0088185Y0108263D03*
X0088125Y0108368D03*
X0088110Y0108398D03*
X0088140Y0112343D03*
X0088200Y0112448D03*
X0088305Y0112628D03*
X0088425Y0112838D03*
X0088530Y0113018D03*
X0088590Y0113123D03*
X0088650Y0113228D03*
X0088815Y0113513D03*
X0088875Y0113618D03*
X0088980Y0113798D03*
X0089040Y0113903D03*
X0089205Y0114188D03*
X0089265Y0114293D03*
X0089310Y0114368D03*
X0089430Y0114578D03*
X0089655Y0114968D03*
X0089715Y0115073D03*
X0089760Y0115148D03*
X0089985Y0115538D03*
D70*
X0098220Y0117706D03*
X0099495Y0109156D03*
X0103170Y0104956D03*
X0106245Y0105046D03*
D71*
X0106245Y0113761D03*
X0098520Y0117841D03*
X0096570Y0118126D03*
D72*
X0096330Y0117811D03*
X0095535Y0111796D03*
X0102390Y0113821D03*
X0106230Y0105031D03*
X0096135Y0106006D03*
X0094740Y0104671D03*
X0088035Y0108556D03*
D73*
X0098910Y0109163D03*
X0106200Y0113753D03*
X0106215Y0113753D03*
X0106230Y0113753D03*
D74*
X0106215Y0105023D03*
X0103200Y0104933D03*
X0103185Y0104948D03*
X0095880Y0105818D03*
X0095310Y0101033D03*
X0088035Y0112133D03*
D75*
X0099480Y0109156D03*
X0103215Y0104926D03*
X0106185Y0105001D03*
X0106200Y0105016D03*
X0095790Y0101251D03*
D76*
X0095880Y0111796D03*
X0106155Y0113746D03*
X0106185Y0113746D03*
D77*
X0102420Y0113813D03*
X0096345Y0117833D03*
X0103245Y0104903D03*
X0106170Y0104993D03*
D78*
X0106170Y0113746D03*
D79*
X0099450Y0109156D03*
X0103290Y0104881D03*
X0106155Y0104986D03*
X0095775Y0101266D03*
X0088005Y0108631D03*
X0087015Y0110341D03*
X0088005Y0112051D03*
D80*
X0094710Y0104588D03*
X0096075Y0105938D03*
X0099435Y0109163D03*
X0102435Y0113813D03*
X0098250Y0117728D03*
X0106140Y0104978D03*
X0106125Y0104963D03*
D81*
X0106125Y0113738D03*
X0106110Y0113738D03*
X0106140Y0113738D03*
X0094515Y0104003D03*
D82*
X0103365Y0104836D03*
X0106110Y0104956D03*
X0087990Y0112006D03*
D83*
X0096045Y0105893D03*
X0106095Y0104948D03*
D84*
X0106095Y0113738D03*
X0095895Y0111803D03*
D85*
X0087990Y0108683D03*
X0106080Y0104933D03*
D86*
X0103215Y0108961D03*
X0105735Y0113731D03*
X0106050Y0113731D03*
X0106065Y0113731D03*
X0106080Y0113731D03*
D87*
X0102450Y0113806D03*
X0099405Y0109171D03*
X0103455Y0104791D03*
X0103485Y0104776D03*
X0106035Y0104911D03*
X0106065Y0104926D03*
X0095415Y0101131D03*
X0095400Y0101116D03*
D88*
X0095430Y0101138D03*
X0096030Y0105878D03*
X0099390Y0109178D03*
X0102465Y0113798D03*
X0098280Y0117743D03*
X0106050Y0104918D03*
D89*
X0103230Y0108968D03*
X0105750Y0113723D03*
X0106005Y0113723D03*
X0106035Y0113723D03*
X0095910Y0111803D03*
X0096600Y0118163D03*
D90*
X0106020Y0104903D03*
D91*
X0103245Y0108968D03*
X0106020Y0113723D03*
D92*
X0099375Y0109171D03*
X0096015Y0105856D03*
X0094680Y0104506D03*
X0096600Y0101761D03*
X0106005Y0104896D03*
X0096375Y0117886D03*
D93*
X0099360Y0109178D03*
X0095925Y0105788D03*
X0105990Y0104888D03*
D94*
X0103260Y0108976D03*
X0105765Y0113716D03*
X0105960Y0113716D03*
X0105975Y0113716D03*
X0105990Y0113716D03*
X0095925Y0111796D03*
X0087210Y0110341D03*
X0096840Y0102181D03*
D95*
X0095460Y0101168D03*
X0096000Y0105833D03*
X0105960Y0104873D03*
X0105975Y0104873D03*
X0102480Y0113798D03*
D96*
X0105945Y0104866D03*
D97*
X0105945Y0113708D03*
D98*
X0105930Y0104851D03*
X0105915Y0104851D03*
X0095475Y0101176D03*
X0087975Y0108751D03*
D99*
X0103275Y0108983D03*
X0103290Y0108983D03*
X0105780Y0113708D03*
X0105900Y0113708D03*
X0105915Y0113708D03*
X0105930Y0113708D03*
D100*
X0098310Y0117758D03*
X0096390Y0117908D03*
X0095985Y0105818D03*
X0095940Y0105773D03*
X0094665Y0104468D03*
X0096615Y0101783D03*
X0095730Y0101303D03*
X0095490Y0101198D03*
X0105900Y0104843D03*
D101*
X0105885Y0104836D03*
X0099330Y0109186D03*
X0102510Y0113791D03*
X0095505Y0101206D03*
X0087060Y0110341D03*
D102*
X0103305Y0108991D03*
X0105855Y0113701D03*
X0105885Y0113701D03*
D103*
X0102495Y0113798D03*
X0099345Y0109178D03*
X0105870Y0104828D03*
D104*
X0105870Y0113701D03*
X0105795Y0113701D03*
D105*
X0105855Y0104821D03*
X0095625Y0111796D03*
D106*
X0101115Y0117128D03*
X0100230Y0118268D03*
X0099165Y0119648D03*
X0099180Y0119663D03*
X0099210Y0119693D03*
X0098040Y0121088D03*
X0098055Y0121103D03*
X0102660Y0105023D03*
X0105840Y0105773D03*
D107*
X0103335Y0108998D03*
X0105810Y0113693D03*
X0105825Y0113693D03*
X0105840Y0113693D03*
X0096630Y0118193D03*
D108*
X0097815Y0117173D03*
X0104160Y0114443D03*
X0104175Y0114428D03*
X0103680Y0110153D03*
X0102840Y0109493D03*
X0097740Y0107378D03*
X0097725Y0107363D03*
X0103530Y0104063D03*
X0105825Y0104078D03*
X0091305Y0116948D03*
X0091290Y0116948D03*
D109*
X0098415Y0121388D03*
X0098430Y0121403D03*
X0099450Y0119903D03*
X0099465Y0119903D03*
X0099435Y0119888D03*
X0100335Y0118403D03*
X0101055Y0117128D03*
X0105825Y0105803D03*
D110*
X0105810Y0104041D03*
X0100065Y0106126D03*
X0097815Y0107416D03*
X0102930Y0112711D03*
X0097260Y0120166D03*
X0091410Y0116986D03*
X0091380Y0103711D03*
X0091365Y0103711D03*
D111*
X0105810Y0105833D03*
X0100440Y0118508D03*
X0099705Y0120083D03*
X0098850Y0121658D03*
D112*
X0091470Y0117001D03*
X0103995Y0114586D03*
X0105795Y0104026D03*
D113*
X0105795Y0105863D03*
X0100995Y0117128D03*
X0100545Y0118598D03*
X0100095Y0120293D03*
X0099495Y0121928D03*
X0099420Y0121913D03*
X0099345Y0121883D03*
X0099570Y0121958D03*
X0086520Y0110348D03*
D114*
X0091485Y0103681D03*
X0091500Y0103681D03*
X0096330Y0110581D03*
X0103740Y0110206D03*
X0103755Y0110221D03*
X0103935Y0114631D03*
X0100050Y0117931D03*
X0102705Y0105031D03*
X0103590Y0103981D03*
X0105780Y0103996D03*
D115*
X0105780Y0105871D03*
X0101955Y0117136D03*
X0100980Y0117136D03*
X0100680Y0118696D03*
X0100710Y0118711D03*
X0100410Y0120406D03*
X0100455Y0120421D03*
X0100500Y0120436D03*
X0100515Y0120436D03*
X0100530Y0120436D03*
X0100710Y0120481D03*
X0100935Y0122071D03*
X0100950Y0122071D03*
X0100860Y0122086D03*
X0100830Y0122086D03*
X0100815Y0122086D03*
X0100800Y0122086D03*
X0100785Y0122086D03*
X0100260Y0122086D03*
X0100230Y0122086D03*
X0100215Y0122086D03*
X0100200Y0122086D03*
X0100185Y0122086D03*
X0100110Y0122071D03*
X0100080Y0122071D03*
X0099990Y0122056D03*
D116*
X0097350Y0120301D03*
X0098730Y0119086D03*
X0096975Y0117121D03*
X0091605Y0117031D03*
X0091590Y0117031D03*
X0091575Y0117031D03*
X0086610Y0110341D03*
X0091560Y0103666D03*
X0091575Y0103666D03*
X0097980Y0107506D03*
X0098880Y0110191D03*
X0101910Y0113881D03*
X0103875Y0114676D03*
X0103890Y0114661D03*
X0103800Y0107926D03*
X0103605Y0103966D03*
X0105765Y0103981D03*
D117*
X0105765Y0105893D03*
X0100905Y0118823D03*
X0100890Y0118823D03*
X0100935Y0118838D03*
X0100950Y0118853D03*
X0100965Y0118853D03*
X0101505Y0120503D03*
X0101535Y0120503D03*
X0101055Y0122078D03*
X0101040Y0122078D03*
D118*
X0103860Y0114683D03*
X0098880Y0113408D03*
X0105750Y0103958D03*
X0091605Y0103658D03*
X0091590Y0103658D03*
D119*
X0105750Y0105908D03*
X0101025Y0118883D03*
X0101055Y0118898D03*
X0101190Y0118943D03*
D120*
X0101250Y0118958D03*
X0101310Y0118973D03*
X0101325Y0118973D03*
X0101355Y0118988D03*
X0101385Y0118988D03*
X0101400Y0118988D03*
X0101430Y0119003D03*
X0101460Y0119003D03*
X0101475Y0119003D03*
X0101640Y0119018D03*
X0101655Y0119018D03*
X0101685Y0119018D03*
X0101700Y0119018D03*
X0101610Y0120503D03*
X0101115Y0122078D03*
X0101100Y0122078D03*
X0105735Y0105923D03*
D121*
X0105720Y0103928D03*
X0103845Y0107903D03*
X0091770Y0117053D03*
D122*
X0105720Y0105938D03*
D123*
X0105720Y0112838D03*
X0105495Y0113078D03*
D124*
X0103785Y0114743D03*
X0100080Y0118013D03*
X0098805Y0119213D03*
X0097455Y0120458D03*
X0097650Y0117068D03*
X0097665Y0117068D03*
X0097680Y0117068D03*
X0097710Y0117068D03*
X0097725Y0117068D03*
X0097740Y0117068D03*
X0097755Y0117068D03*
X0097785Y0117068D03*
X0091980Y0117068D03*
X0091965Y0117068D03*
X0091950Y0117068D03*
X0091935Y0117068D03*
X0091905Y0117068D03*
X0091890Y0117068D03*
X0091875Y0117068D03*
X0091860Y0117068D03*
X0096375Y0110513D03*
X0098850Y0110228D03*
X0098115Y0107573D03*
X0098100Y0107573D03*
X0103875Y0107888D03*
X0103875Y0110288D03*
X0103860Y0110288D03*
X0105705Y0103913D03*
X0105690Y0103898D03*
X0091860Y0103628D03*
X0091830Y0103628D03*
X0091815Y0103628D03*
X0091800Y0103628D03*
X0091785Y0103628D03*
D125*
X0105705Y0105953D03*
X0101805Y0113903D03*
X0102015Y0119003D03*
X0102030Y0119003D03*
X0101175Y0122078D03*
D126*
X0105510Y0113063D03*
X0105705Y0112853D03*
X0099990Y0108803D03*
D127*
X0105690Y0105961D03*
X0101685Y0120496D03*
D128*
X0102825Y0112808D03*
X0105480Y0113093D03*
X0105660Y0112898D03*
X0105675Y0112883D03*
X0105690Y0112868D03*
X0097530Y0107243D03*
X0091140Y0103808D03*
X0091125Y0116873D03*
D129*
X0092010Y0117076D03*
X0092025Y0117076D03*
X0092040Y0117076D03*
X0092055Y0117076D03*
X0092085Y0117076D03*
X0092100Y0117076D03*
X0092115Y0117076D03*
X0092130Y0117076D03*
X0092160Y0117076D03*
X0092175Y0117076D03*
X0092190Y0117076D03*
X0092205Y0117076D03*
X0092235Y0117076D03*
X0092250Y0117076D03*
X0092265Y0117076D03*
X0092280Y0117076D03*
X0092310Y0117076D03*
X0092325Y0117076D03*
X0092340Y0117076D03*
X0092355Y0117076D03*
X0092385Y0117076D03*
X0092400Y0117076D03*
X0092415Y0117076D03*
X0092430Y0117076D03*
X0092460Y0117076D03*
X0092475Y0117076D03*
X0092490Y0117076D03*
X0092505Y0117076D03*
X0092535Y0117076D03*
X0092550Y0117076D03*
X0092565Y0117076D03*
X0092580Y0117076D03*
X0092610Y0117076D03*
X0092625Y0117076D03*
X0092640Y0117076D03*
X0092655Y0117076D03*
X0092685Y0117076D03*
X0092700Y0117076D03*
X0092715Y0117076D03*
X0092730Y0117076D03*
X0092760Y0117076D03*
X0092775Y0117076D03*
X0092790Y0117076D03*
X0092805Y0117076D03*
X0092835Y0117076D03*
X0092850Y0117076D03*
X0092865Y0117076D03*
X0092880Y0117076D03*
X0092910Y0117076D03*
X0092925Y0117076D03*
X0092940Y0117076D03*
X0092955Y0117076D03*
X0092985Y0117076D03*
X0093000Y0117076D03*
X0093015Y0117076D03*
X0093030Y0117076D03*
X0093060Y0117076D03*
X0093075Y0117076D03*
X0093090Y0117076D03*
X0093105Y0117076D03*
X0093135Y0117076D03*
X0093150Y0117076D03*
X0093165Y0117076D03*
X0093180Y0117076D03*
X0093210Y0117076D03*
X0093225Y0117076D03*
X0093240Y0117076D03*
X0093255Y0117076D03*
X0093285Y0117076D03*
X0093300Y0117076D03*
X0093315Y0117076D03*
X0093330Y0117076D03*
X0093360Y0117076D03*
X0093375Y0117076D03*
X0093390Y0117076D03*
X0093405Y0117076D03*
X0093435Y0117076D03*
X0093450Y0117076D03*
X0093465Y0117076D03*
X0093480Y0117076D03*
X0093510Y0117076D03*
X0093525Y0117076D03*
X0093540Y0117076D03*
X0093555Y0117076D03*
X0093585Y0117076D03*
X0093600Y0117076D03*
X0093615Y0117076D03*
X0093630Y0117076D03*
X0093660Y0117076D03*
X0093675Y0117076D03*
X0093690Y0117076D03*
X0093705Y0117076D03*
X0093735Y0117076D03*
X0093750Y0117076D03*
X0093765Y0117076D03*
X0093780Y0117076D03*
X0093810Y0117076D03*
X0093825Y0117076D03*
X0093840Y0117076D03*
X0093855Y0117076D03*
X0093885Y0117076D03*
X0093900Y0117076D03*
X0093915Y0117076D03*
X0093930Y0117076D03*
X0093960Y0117076D03*
X0093975Y0117076D03*
X0093990Y0117076D03*
X0094005Y0117076D03*
X0094035Y0117076D03*
X0094050Y0117076D03*
X0094065Y0117076D03*
X0094080Y0117076D03*
X0094110Y0117076D03*
X0094125Y0117076D03*
X0094140Y0117076D03*
X0094155Y0117076D03*
X0094185Y0117076D03*
X0094200Y0117076D03*
X0094215Y0117076D03*
X0094230Y0117076D03*
X0094260Y0117076D03*
X0094275Y0117076D03*
X0094290Y0117076D03*
X0094305Y0117076D03*
X0094335Y0117076D03*
X0094350Y0117076D03*
X0094365Y0117076D03*
X0094380Y0117076D03*
X0094410Y0117076D03*
X0094425Y0117076D03*
X0094440Y0117076D03*
X0094455Y0117076D03*
X0094485Y0117076D03*
X0094500Y0117076D03*
X0094515Y0117076D03*
X0094530Y0117076D03*
X0094560Y0117076D03*
X0094575Y0117076D03*
X0094590Y0117076D03*
X0094605Y0117076D03*
X0094635Y0117076D03*
X0094650Y0117076D03*
X0094665Y0117076D03*
X0094680Y0117076D03*
X0094710Y0117076D03*
X0094725Y0117076D03*
X0094740Y0117076D03*
X0094755Y0117076D03*
X0094785Y0117076D03*
X0094800Y0117076D03*
X0094815Y0117076D03*
X0094830Y0117076D03*
X0094860Y0117076D03*
X0094875Y0117076D03*
X0094890Y0117076D03*
X0094905Y0117076D03*
X0094935Y0117076D03*
X0094950Y0117076D03*
X0094965Y0117076D03*
X0094980Y0117076D03*
X0095010Y0117076D03*
X0095025Y0117076D03*
X0095040Y0117076D03*
X0095055Y0117076D03*
X0095085Y0117076D03*
X0095100Y0117076D03*
X0095115Y0117076D03*
X0095130Y0117076D03*
X0095160Y0117076D03*
X0095175Y0117076D03*
X0095190Y0117076D03*
X0095205Y0117076D03*
X0095235Y0117076D03*
X0095250Y0117076D03*
X0095265Y0117076D03*
X0095280Y0117076D03*
X0095310Y0117076D03*
X0095325Y0117076D03*
X0095340Y0117076D03*
X0095355Y0117076D03*
X0095385Y0117076D03*
X0095400Y0117076D03*
X0095415Y0117076D03*
X0095430Y0117076D03*
X0095460Y0117076D03*
X0095475Y0117076D03*
X0095490Y0117076D03*
X0095505Y0117076D03*
X0095535Y0117076D03*
X0095550Y0117076D03*
X0095565Y0117076D03*
X0095580Y0117076D03*
X0095610Y0117076D03*
X0095625Y0117076D03*
X0095640Y0117076D03*
X0095655Y0117076D03*
X0095685Y0117076D03*
X0095700Y0117076D03*
X0095715Y0117076D03*
X0095730Y0117076D03*
X0095760Y0117076D03*
X0095775Y0117076D03*
X0095790Y0117076D03*
X0095805Y0117076D03*
X0095835Y0117076D03*
X0095850Y0117076D03*
X0095865Y0117076D03*
X0095880Y0117076D03*
X0095910Y0117076D03*
X0095925Y0117076D03*
X0095940Y0117076D03*
X0095955Y0117076D03*
X0095985Y0117076D03*
X0096000Y0117076D03*
X0096015Y0117076D03*
X0096030Y0117076D03*
X0096060Y0117076D03*
X0096075Y0117076D03*
X0096090Y0117076D03*
X0096105Y0117076D03*
X0096135Y0117076D03*
X0096150Y0117076D03*
X0096165Y0117076D03*
X0096180Y0117076D03*
X0096990Y0117076D03*
X0097005Y0117076D03*
X0097035Y0117076D03*
X0097050Y0117076D03*
X0097065Y0117076D03*
X0097080Y0117076D03*
X0097110Y0117076D03*
X0097125Y0117076D03*
X0097140Y0117076D03*
X0097155Y0117076D03*
X0097185Y0117076D03*
X0097200Y0117076D03*
X0097215Y0117076D03*
X0097230Y0117076D03*
X0097260Y0117076D03*
X0097275Y0117076D03*
X0097290Y0117076D03*
X0097305Y0117076D03*
X0097335Y0117076D03*
X0097350Y0117076D03*
X0097365Y0117076D03*
X0097380Y0117076D03*
X0097410Y0117076D03*
X0097425Y0117076D03*
X0097440Y0117076D03*
X0097455Y0117076D03*
X0097485Y0117076D03*
X0097500Y0117076D03*
X0097515Y0117076D03*
X0097530Y0117076D03*
X0097560Y0117076D03*
X0097575Y0117076D03*
X0097590Y0117076D03*
X0097605Y0117076D03*
X0097635Y0117076D03*
X0101415Y0117136D03*
X0101430Y0117136D03*
X0101460Y0117136D03*
X0101475Y0117136D03*
X0101490Y0117136D03*
X0101505Y0117136D03*
X0102900Y0114811D03*
X0103755Y0114766D03*
X0098835Y0113356D03*
X0096390Y0113101D03*
X0096390Y0110506D03*
X0098835Y0110236D03*
X0098130Y0107581D03*
X0103890Y0107881D03*
X0103710Y0103876D03*
X0103725Y0103861D03*
X0105675Y0103891D03*
D130*
X0105675Y0105968D03*
X0103635Y0105878D03*
X0103350Y0112658D03*
X0102075Y0119003D03*
X0101205Y0122078D03*
D131*
X0098835Y0119258D03*
X0097515Y0120533D03*
X0097500Y0120518D03*
X0102915Y0114818D03*
X0103740Y0114773D03*
X0102780Y0109493D03*
X0103905Y0107873D03*
X0105660Y0103868D03*
X0096405Y0110483D03*
X0096405Y0113108D03*
D132*
X0103365Y0112658D03*
X0103650Y0105893D03*
X0105660Y0105983D03*
D133*
X0105645Y0103861D03*
X0103770Y0103831D03*
X0103920Y0110311D03*
X0103020Y0112696D03*
X0103695Y0114796D03*
X0101595Y0117136D03*
X0101370Y0117136D03*
X0097545Y0120571D03*
D134*
X0105645Y0105998D03*
D135*
X0105645Y0112921D03*
X0105570Y0112996D03*
D136*
X0103665Y0114818D03*
X0102960Y0114848D03*
X0101625Y0117128D03*
X0101310Y0117128D03*
X0100110Y0118073D03*
X0098880Y0119318D03*
X0097560Y0120593D03*
X0098790Y0113318D03*
X0096435Y0113138D03*
X0096435Y0110468D03*
X0098790Y0110273D03*
X0103950Y0110318D03*
X0105630Y0103853D03*
X0105615Y0103838D03*
X0105600Y0103838D03*
X0105585Y0103823D03*
X0093060Y0099113D03*
D137*
X0105630Y0106013D03*
X0101235Y0122078D03*
D138*
X0097140Y0119941D03*
X0097830Y0117226D03*
X0091155Y0116881D03*
X0091140Y0116881D03*
X0102840Y0112786D03*
X0105300Y0113281D03*
X0105315Y0113266D03*
X0105330Y0113251D03*
X0105375Y0113206D03*
X0105390Y0113191D03*
X0105405Y0113176D03*
X0105450Y0113131D03*
X0105465Y0113116D03*
X0105525Y0113041D03*
X0105540Y0113026D03*
X0105555Y0113011D03*
X0105585Y0112981D03*
X0105600Y0112966D03*
X0105615Y0112951D03*
X0105630Y0112936D03*
X0103635Y0110086D03*
X0097560Y0107266D03*
X0103500Y0104131D03*
X0094380Y0100006D03*
X0091155Y0103801D03*
D139*
X0105615Y0106013D03*
X0102060Y0117128D03*
X0102135Y0119003D03*
D140*
X0103425Y0112658D03*
X0105600Y0106028D03*
D141*
X0105585Y0106036D03*
X0103710Y0105931D03*
D142*
X0105570Y0103816D03*
X0103620Y0114841D03*
X0101295Y0117136D03*
X0098895Y0119341D03*
D143*
X0105570Y0106043D03*
D144*
X0105555Y0103808D03*
X0104010Y0110333D03*
X0103635Y0114833D03*
X0097635Y0120683D03*
D145*
X0100860Y0117136D03*
X0102075Y0117136D03*
X0102165Y0119011D03*
X0105555Y0106051D03*
X0092790Y0098521D03*
D146*
X0105540Y0106058D03*
D147*
X0105525Y0103793D03*
X0103905Y0103763D03*
X0103890Y0103778D03*
X0103875Y0103778D03*
X0104010Y0107843D03*
X0098280Y0107663D03*
X0098265Y0107648D03*
X0096480Y0110438D03*
X0096480Y0113153D03*
X0096465Y0113153D03*
X0098760Y0113303D03*
X0101880Y0113888D03*
X0102990Y0114863D03*
X0103605Y0114848D03*
X0103035Y0112688D03*
X0101265Y0117128D03*
X0100125Y0118103D03*
X0098910Y0119363D03*
X0097650Y0120698D03*
D148*
X0105525Y0106066D03*
D149*
X0105510Y0103786D03*
X0105480Y0103771D03*
X0105465Y0103771D03*
X0105450Y0103756D03*
X0105435Y0103756D03*
X0103950Y0103756D03*
X0103935Y0103756D03*
X0102675Y0105031D03*
X0104025Y0107836D03*
X0104040Y0107836D03*
X0098310Y0107671D03*
X0098730Y0110311D03*
X0098730Y0113281D03*
X0098715Y0113281D03*
X0103005Y0114871D03*
X0103590Y0114856D03*
X0101700Y0117136D03*
X0101685Y0117136D03*
X0101250Y0117136D03*
X0101235Y0117136D03*
X0098925Y0119371D03*
X0097665Y0120721D03*
D150*
X0102180Y0119003D03*
X0103500Y0112658D03*
X0105510Y0106073D03*
D151*
X0105495Y0103778D03*
X0103920Y0103763D03*
X0103995Y0107843D03*
X0098295Y0107663D03*
X0098745Y0110303D03*
X0101670Y0117128D03*
X0097620Y0120668D03*
D152*
X0105495Y0106081D03*
D153*
X0105480Y0106096D03*
X0101805Y0120496D03*
D154*
X0102090Y0117128D03*
X0105450Y0106103D03*
X0092655Y0098363D03*
D155*
X0103830Y0106006D03*
X0105435Y0106111D03*
D156*
X0103650Y0108046D03*
X0105435Y0113146D03*
X0105360Y0113221D03*
X0095265Y0111796D03*
D157*
X0104070Y0110348D03*
X0103995Y0103733D03*
X0104070Y0103718D03*
X0105420Y0103748D03*
X0097695Y0120743D03*
D158*
X0103845Y0106006D03*
X0105420Y0106111D03*
D159*
X0105420Y0113161D03*
X0105345Y0113236D03*
X0101970Y0113881D03*
X0096195Y0100876D03*
X0086670Y0110341D03*
D160*
X0096510Y0110423D03*
X0096525Y0110423D03*
X0096540Y0110408D03*
X0098685Y0110333D03*
X0098700Y0110318D03*
X0098715Y0110318D03*
X0098355Y0107693D03*
X0104055Y0110348D03*
X0098700Y0113273D03*
X0096540Y0113183D03*
X0096525Y0113183D03*
X0100140Y0118133D03*
X0098940Y0119393D03*
X0098955Y0119408D03*
X0103050Y0114893D03*
X0103065Y0114893D03*
X0104010Y0103733D03*
X0104025Y0103733D03*
X0104040Y0103718D03*
X0104055Y0103718D03*
X0105315Y0103718D03*
X0105360Y0103733D03*
X0105375Y0103733D03*
X0105390Y0103733D03*
X0105405Y0103748D03*
D161*
X0105405Y0106118D03*
X0103860Y0106013D03*
X0103575Y0112658D03*
X0092580Y0098288D03*
D162*
X0092565Y0098281D03*
X0092550Y0098266D03*
X0105390Y0106126D03*
D163*
X0105375Y0106133D03*
X0103590Y0112658D03*
D164*
X0103605Y0112658D03*
X0105360Y0106133D03*
D165*
X0105345Y0103726D03*
X0105270Y0103711D03*
X0105045Y0103681D03*
X0104295Y0103681D03*
X0098370Y0107701D03*
X0098670Y0110341D03*
X0096570Y0110401D03*
X0096570Y0113191D03*
X0098670Y0113266D03*
X0103095Y0114901D03*
X0101220Y0117136D03*
X0098970Y0119431D03*
D166*
X0097710Y0120766D03*
X0097725Y0120781D03*
X0101205Y0117136D03*
X0101715Y0117136D03*
X0101730Y0117136D03*
X0103080Y0114901D03*
X0103500Y0114886D03*
X0103515Y0114886D03*
X0098685Y0113266D03*
X0098640Y0113251D03*
X0096555Y0113191D03*
X0096555Y0110401D03*
X0098655Y0110341D03*
X0098340Y0107686D03*
X0104085Y0110356D03*
X0104100Y0110356D03*
X0104115Y0110356D03*
X0104115Y0103711D03*
X0104100Y0103711D03*
X0104085Y0103711D03*
X0104280Y0103681D03*
X0104310Y0103681D03*
X0104325Y0103681D03*
X0104340Y0103681D03*
X0105060Y0103681D03*
X0105075Y0103681D03*
X0105285Y0103711D03*
X0105300Y0103711D03*
X0105330Y0103726D03*
D167*
X0097590Y0107288D03*
X0097575Y0107273D03*
X0102855Y0112763D03*
X0105060Y0113528D03*
X0105075Y0113513D03*
X0105090Y0113498D03*
X0105105Y0113483D03*
X0105135Y0113453D03*
X0105150Y0113438D03*
X0105165Y0113423D03*
X0105180Y0113408D03*
X0105210Y0113378D03*
X0105225Y0113363D03*
X0105240Y0113348D03*
X0105255Y0113333D03*
X0105285Y0113303D03*
X0098580Y0116888D03*
X0098610Y0118838D03*
X0091185Y0116903D03*
X0096240Y0100898D03*
D168*
X0091170Y0103793D03*
X0102870Y0109493D03*
X0105270Y0113318D03*
X0105195Y0113393D03*
X0105120Y0113468D03*
X0091170Y0116888D03*
D169*
X0096585Y0113198D03*
X0096600Y0113198D03*
X0096615Y0113213D03*
X0096630Y0113213D03*
X0098610Y0113243D03*
X0098625Y0113243D03*
X0098655Y0113258D03*
X0098640Y0110348D03*
X0098625Y0110348D03*
X0098610Y0110348D03*
X0096615Y0110393D03*
X0096600Y0110393D03*
X0096585Y0110393D03*
X0098385Y0107708D03*
X0098400Y0107708D03*
X0104130Y0107813D03*
X0104160Y0107813D03*
X0104160Y0110363D03*
X0104130Y0110363D03*
X0103065Y0112688D03*
X0103110Y0114908D03*
X0103125Y0114908D03*
X0103440Y0114908D03*
X0103455Y0114908D03*
X0103485Y0114893D03*
X0101190Y0117128D03*
X0100155Y0118163D03*
X0099000Y0119468D03*
X0099015Y0119483D03*
X0097755Y0120818D03*
X0097785Y0120848D03*
X0097800Y0120863D03*
X0104235Y0103688D03*
X0104250Y0103688D03*
X0104265Y0103688D03*
X0104355Y0103673D03*
X0104385Y0103673D03*
X0104400Y0103673D03*
X0104415Y0103673D03*
X0104430Y0103673D03*
X0104460Y0103673D03*
X0104475Y0103673D03*
X0104490Y0103673D03*
X0104505Y0103673D03*
X0104535Y0103673D03*
X0104550Y0103673D03*
X0104565Y0103673D03*
X0104580Y0103673D03*
X0104610Y0103673D03*
X0104625Y0103673D03*
X0104640Y0103673D03*
X0104655Y0103673D03*
X0104685Y0103673D03*
X0104700Y0103673D03*
X0104715Y0103673D03*
X0104730Y0103673D03*
X0104760Y0103673D03*
X0104775Y0103673D03*
X0104790Y0103673D03*
X0104805Y0103673D03*
X0104835Y0103673D03*
X0104850Y0103673D03*
X0104865Y0103673D03*
X0104880Y0103673D03*
X0104910Y0103673D03*
X0104925Y0103673D03*
X0104940Y0103673D03*
X0104955Y0103673D03*
X0104985Y0103673D03*
X0105000Y0103673D03*
X0105015Y0103673D03*
X0105030Y0103673D03*
X0105090Y0103688D03*
X0105105Y0103688D03*
X0105135Y0103688D03*
X0105150Y0103688D03*
X0105165Y0103688D03*
X0105240Y0103703D03*
X0105255Y0103703D03*
D170*
X0105225Y0103696D03*
X0105210Y0103696D03*
X0105180Y0103696D03*
X0104205Y0103696D03*
X0104190Y0103696D03*
X0104175Y0103696D03*
X0104160Y0103696D03*
X0104115Y0107821D03*
X0104100Y0107821D03*
X0104085Y0107821D03*
X0098985Y0119446D03*
X0097740Y0120796D03*
D171*
X0104145Y0103696D03*
X0105195Y0103696D03*
D172*
X0105120Y0103688D03*
X0104970Y0103673D03*
X0104895Y0103673D03*
X0104820Y0103673D03*
X0104745Y0103673D03*
X0104670Y0103673D03*
X0104595Y0103673D03*
X0104520Y0103673D03*
X0104445Y0103673D03*
X0104370Y0103673D03*
X0104220Y0103688D03*
X0104145Y0107813D03*
X0104145Y0110363D03*
X0098595Y0113243D03*
X0096645Y0113213D03*
X0101745Y0117128D03*
X0103470Y0114893D03*
X0097770Y0120833D03*
X0093045Y0099068D03*
D173*
X0102870Y0112741D03*
X0104820Y0113776D03*
X0104895Y0113701D03*
X0104970Y0113626D03*
X0105045Y0113551D03*
X0100020Y0117811D03*
D174*
X0098565Y0116896D03*
X0097155Y0119971D03*
X0104850Y0113746D03*
X0104925Y0113671D03*
X0105000Y0113596D03*
X0097605Y0107296D03*
D175*
X0091230Y0103763D03*
X0091215Y0103763D03*
X0091200Y0103778D03*
X0104550Y0114053D03*
X0104565Y0114038D03*
X0104625Y0113978D03*
X0104640Y0113963D03*
X0104700Y0113903D03*
X0104715Y0113888D03*
X0104775Y0113828D03*
X0104790Y0113813D03*
D176*
X0104760Y0113843D03*
X0104730Y0113873D03*
X0104685Y0113918D03*
X0104655Y0113948D03*
X0104610Y0113993D03*
X0104580Y0114023D03*
X0102885Y0112718D03*
X0103650Y0110108D03*
X0102855Y0109493D03*
X0103665Y0108023D03*
X0097650Y0107318D03*
X0096210Y0100868D03*
X0091215Y0116918D03*
X0098625Y0118883D03*
D177*
X0104595Y0114008D03*
X0104670Y0113933D03*
X0104745Y0113858D03*
D178*
X0104535Y0114076D03*
X0104460Y0114151D03*
X0104385Y0114226D03*
X0104310Y0114301D03*
X0097665Y0107326D03*
X0086655Y0110341D03*
X0091230Y0116926D03*
X0093105Y0099301D03*
D179*
X0104520Y0114091D03*
X0104445Y0114166D03*
X0104370Y0114241D03*
X0097170Y0120001D03*
X0091245Y0116926D03*
D180*
X0097185Y0120031D03*
X0104325Y0114286D03*
X0104340Y0114271D03*
X0104355Y0114256D03*
X0104400Y0114211D03*
X0104415Y0114196D03*
X0104430Y0114181D03*
X0104475Y0114136D03*
X0104490Y0114121D03*
X0104505Y0114106D03*
X0101955Y0113881D03*
X0096225Y0100861D03*
X0094350Y0099961D03*
D181*
X0097695Y0107348D03*
X0104295Y0114323D03*
D182*
X0104280Y0114338D03*
X0104265Y0114353D03*
X0102900Y0112718D03*
X0098640Y0118913D03*
X0103515Y0104093D03*
X0094335Y0099938D03*
X0091260Y0103748D03*
D183*
X0096690Y0110371D03*
X0096705Y0110371D03*
X0096735Y0110371D03*
X0096750Y0110371D03*
X0096765Y0110371D03*
X0096780Y0110371D03*
X0096810Y0110371D03*
X0096825Y0110371D03*
X0096840Y0110371D03*
X0096855Y0110371D03*
X0096885Y0110371D03*
X0096900Y0110371D03*
X0096915Y0110371D03*
X0096930Y0110371D03*
X0096960Y0110371D03*
X0096975Y0110371D03*
X0096990Y0110371D03*
X0097005Y0110371D03*
X0097035Y0110371D03*
X0097050Y0110371D03*
X0097065Y0110371D03*
X0097080Y0110371D03*
X0097110Y0110371D03*
X0097125Y0110371D03*
X0097140Y0110371D03*
X0097155Y0110371D03*
X0097185Y0110371D03*
X0097200Y0110371D03*
X0097215Y0110371D03*
X0097230Y0110371D03*
X0097260Y0110371D03*
X0097275Y0110371D03*
X0097290Y0110371D03*
X0097305Y0110371D03*
X0097335Y0110371D03*
X0097350Y0110371D03*
X0097365Y0110371D03*
X0097380Y0110371D03*
X0097410Y0110371D03*
X0097425Y0110371D03*
X0097440Y0110371D03*
X0097455Y0110371D03*
X0097485Y0110371D03*
X0097500Y0110371D03*
X0097515Y0110371D03*
X0097530Y0110371D03*
X0097560Y0110371D03*
X0097575Y0110371D03*
X0097590Y0110371D03*
X0097605Y0110371D03*
X0097635Y0110371D03*
X0097650Y0110371D03*
X0097665Y0110371D03*
X0097680Y0110371D03*
X0097710Y0110371D03*
X0097725Y0110371D03*
X0097740Y0110371D03*
X0097755Y0110371D03*
X0097785Y0110371D03*
X0097800Y0110371D03*
X0097815Y0110371D03*
X0097830Y0110371D03*
X0097860Y0110371D03*
X0097875Y0110371D03*
X0097890Y0110371D03*
X0097905Y0110371D03*
X0097935Y0110371D03*
X0097950Y0110371D03*
X0097965Y0110371D03*
X0097980Y0110371D03*
X0098010Y0110371D03*
X0098025Y0110371D03*
X0098040Y0110371D03*
X0098055Y0110371D03*
X0098085Y0110371D03*
X0098100Y0110371D03*
X0098115Y0110371D03*
X0098130Y0110371D03*
X0098160Y0110371D03*
X0098175Y0110371D03*
X0098190Y0110371D03*
X0098205Y0110371D03*
X0098235Y0110371D03*
X0098250Y0110371D03*
X0098265Y0110371D03*
X0098280Y0110371D03*
X0098310Y0110371D03*
X0098325Y0110371D03*
X0098340Y0110371D03*
X0098355Y0110371D03*
X0098385Y0110371D03*
X0098400Y0110371D03*
X0098415Y0110371D03*
X0098430Y0110371D03*
X0098460Y0110371D03*
X0098475Y0110371D03*
X0098490Y0110371D03*
X0098505Y0110371D03*
X0098535Y0110371D03*
X0096705Y0113221D03*
X0096690Y0113221D03*
X0096675Y0113221D03*
X0096660Y0113221D03*
X0104175Y0110371D03*
X0104190Y0110371D03*
X0104205Y0110371D03*
X0104235Y0110371D03*
X0104250Y0110371D03*
D184*
X0103665Y0110131D03*
X0104250Y0114361D03*
X0104235Y0114376D03*
X0104205Y0114406D03*
X0104190Y0114421D03*
X0096960Y0117196D03*
X0097200Y0120061D03*
X0091275Y0116941D03*
X0097710Y0107356D03*
X0091290Y0103741D03*
X0091275Y0103741D03*
D185*
X0096720Y0110371D03*
X0096795Y0110371D03*
X0096870Y0110371D03*
X0096945Y0110371D03*
X0097020Y0110371D03*
X0097095Y0110371D03*
X0097170Y0110371D03*
X0097245Y0110371D03*
X0097320Y0110371D03*
X0097395Y0110371D03*
X0097470Y0110371D03*
X0097545Y0110371D03*
X0097620Y0110371D03*
X0097695Y0110371D03*
X0097770Y0110371D03*
X0097845Y0110371D03*
X0097920Y0110371D03*
X0097995Y0110371D03*
X0098070Y0110371D03*
X0098145Y0110371D03*
X0098220Y0110371D03*
X0098295Y0110371D03*
X0098370Y0110371D03*
X0098445Y0110371D03*
X0098520Y0110371D03*
X0096720Y0113221D03*
X0104220Y0110371D03*
X0099045Y0119521D03*
D186*
X0104220Y0114391D03*
D187*
X0104145Y0114458D03*
D188*
X0103575Y0114863D03*
X0103560Y0114863D03*
X0103530Y0114878D03*
X0103035Y0114878D03*
X0103050Y0112688D03*
X0104055Y0107828D03*
X0098325Y0107678D03*
X0104130Y0103703D03*
X0097680Y0120728D03*
D189*
X0098655Y0118951D03*
X0104130Y0114466D03*
X0097785Y0107401D03*
X0091335Y0103726D03*
X0086640Y0110341D03*
D190*
X0091335Y0116956D03*
X0097230Y0120106D03*
X0104100Y0114496D03*
X0104115Y0114481D03*
X0102915Y0112711D03*
X0101940Y0113881D03*
X0100005Y0108736D03*
X0097755Y0107386D03*
X0103710Y0107986D03*
X0095250Y0111796D03*
D191*
X0091380Y0116978D03*
X0091350Y0116963D03*
X0100035Y0117878D03*
X0104085Y0114503D03*
D192*
X0103545Y0114878D03*
X0104070Y0107828D03*
D193*
X0103695Y0110168D03*
X0104070Y0114518D03*
D194*
X0104055Y0114533D03*
X0097800Y0107408D03*
X0091350Y0103718D03*
X0094305Y0099893D03*
D195*
X0103965Y0103741D03*
X0103980Y0103741D03*
X0102765Y0109501D03*
X0104025Y0110341D03*
X0104040Y0110341D03*
X0096510Y0113176D03*
D196*
X0097830Y0107423D03*
X0102825Y0109493D03*
X0103710Y0110183D03*
X0104040Y0114548D03*
X0104025Y0114563D03*
X0102780Y0114683D03*
X0098685Y0119003D03*
X0097275Y0120188D03*
X0091425Y0116993D03*
X0091410Y0103703D03*
X0094290Y0099863D03*
X0103560Y0104018D03*
D197*
X0097875Y0107446D03*
X0097860Y0107446D03*
X0091440Y0103696D03*
X0091425Y0103696D03*
X0104010Y0114571D03*
D198*
X0103995Y0110333D03*
D199*
X0103755Y0107948D03*
X0097905Y0107468D03*
X0096330Y0113018D03*
X0091500Y0117008D03*
X0091485Y0117008D03*
X0097305Y0120233D03*
X0098700Y0119033D03*
X0103965Y0114608D03*
X0103980Y0114593D03*
D200*
X0097575Y0120608D03*
X0103950Y0107858D03*
X0103815Y0103808D03*
D201*
X0103950Y0114616D03*
X0091530Y0117016D03*
X0091515Y0117016D03*
D202*
X0098805Y0113326D03*
X0098805Y0110266D03*
X0098205Y0107626D03*
X0103935Y0107866D03*
X0103800Y0103816D03*
X0102930Y0114826D03*
D203*
X0103680Y0114811D03*
X0101610Y0117136D03*
X0101580Y0117136D03*
X0101565Y0117136D03*
X0101550Y0117136D03*
X0101385Y0117136D03*
X0101355Y0117136D03*
X0101340Y0117136D03*
X0101325Y0117136D03*
X0098865Y0119296D03*
X0098850Y0119281D03*
X0097530Y0120556D03*
X0103935Y0110311D03*
X0098190Y0107611D03*
X0098175Y0107611D03*
X0103785Y0103831D03*
D204*
X0103920Y0107866D03*
X0096420Y0110476D03*
X0096420Y0113116D03*
D205*
X0091545Y0117023D03*
X0103920Y0114638D03*
X0103770Y0110228D03*
D206*
X0103905Y0110303D03*
X0098160Y0107603D03*
X0103740Y0103853D03*
X0103755Y0103838D03*
X0103725Y0114788D03*
X0103710Y0114788D03*
X0101535Y0117128D03*
X0101400Y0117128D03*
D207*
X0102810Y0114728D03*
X0103905Y0114653D03*
X0102960Y0112703D03*
X0102810Y0109493D03*
X0097965Y0107498D03*
X0097950Y0107498D03*
X0091530Y0103673D03*
X0091515Y0103673D03*
X0091560Y0117023D03*
X0097335Y0120278D03*
X0098715Y0119063D03*
X0097800Y0117113D03*
D208*
X0103890Y0106028D03*
X0092490Y0098213D03*
X0092475Y0098198D03*
D209*
X0092475Y0103621D03*
X0092460Y0103621D03*
X0092430Y0103621D03*
X0092415Y0103621D03*
X0092400Y0103621D03*
X0092385Y0103621D03*
X0092355Y0103621D03*
X0092340Y0103621D03*
X0092325Y0103621D03*
X0092310Y0103621D03*
X0092280Y0103621D03*
X0092265Y0103621D03*
X0092250Y0103621D03*
X0092235Y0103621D03*
X0092205Y0103621D03*
X0092190Y0103621D03*
X0092175Y0103621D03*
X0092160Y0103621D03*
X0092130Y0103621D03*
X0092115Y0103621D03*
X0092100Y0103621D03*
X0092085Y0103621D03*
X0092055Y0103621D03*
X0092040Y0103621D03*
X0092025Y0103621D03*
X0092010Y0103621D03*
X0091980Y0103621D03*
X0091965Y0103621D03*
X0091950Y0103621D03*
X0091935Y0103621D03*
X0091905Y0103621D03*
X0091890Y0103621D03*
X0091875Y0103621D03*
X0092490Y0103621D03*
X0092505Y0103621D03*
X0092535Y0103621D03*
X0092550Y0103621D03*
X0092565Y0103621D03*
X0092580Y0103621D03*
X0092610Y0103621D03*
X0092625Y0103621D03*
X0092640Y0103621D03*
X0092655Y0103621D03*
X0092685Y0103621D03*
X0092700Y0103621D03*
X0092715Y0103621D03*
X0092730Y0103621D03*
X0092760Y0103621D03*
X0092775Y0103621D03*
X0092790Y0103621D03*
X0092805Y0103621D03*
X0092835Y0103621D03*
X0092850Y0103621D03*
X0092865Y0103621D03*
X0092880Y0103621D03*
X0092910Y0103621D03*
X0092925Y0103621D03*
X0092940Y0103621D03*
X0092955Y0103621D03*
X0092985Y0103621D03*
X0093000Y0103621D03*
X0093015Y0103621D03*
X0093030Y0103621D03*
X0093060Y0103621D03*
X0093075Y0103621D03*
X0093090Y0103621D03*
X0093105Y0103621D03*
X0093135Y0103621D03*
X0093150Y0103621D03*
X0093165Y0103621D03*
X0093180Y0103621D03*
X0093210Y0103621D03*
X0093225Y0103621D03*
X0093240Y0103621D03*
X0093255Y0103621D03*
X0093285Y0103621D03*
X0093300Y0103621D03*
X0093315Y0103621D03*
X0093330Y0103621D03*
X0093360Y0103621D03*
X0093375Y0103621D03*
X0093390Y0103621D03*
X0093405Y0103621D03*
X0093435Y0103621D03*
X0093450Y0103621D03*
X0093465Y0103621D03*
X0093480Y0103621D03*
X0103890Y0110296D03*
X0103005Y0112696D03*
X0102885Y0114796D03*
X0097485Y0120496D03*
D210*
X0103875Y0106028D03*
D211*
X0103860Y0107896D03*
X0102990Y0112696D03*
X0098850Y0113371D03*
X0095235Y0111796D03*
D212*
X0103845Y0103793D03*
D213*
X0103845Y0110281D03*
X0091845Y0117061D03*
X0091770Y0103636D03*
D214*
X0103845Y0114706D03*
X0091695Y0117046D03*
D215*
X0091725Y0117053D03*
X0091740Y0117053D03*
X0091755Y0117053D03*
X0097425Y0120413D03*
X0103815Y0114728D03*
X0103830Y0114713D03*
X0098865Y0110213D03*
X0096360Y0110528D03*
X0096360Y0113063D03*
X0103830Y0107903D03*
D216*
X0103830Y0110266D03*
X0098085Y0107566D03*
X0102690Y0105031D03*
X0103665Y0103906D03*
X0103680Y0103891D03*
X0091755Y0103636D03*
X0091740Y0103636D03*
X0091725Y0103636D03*
X0096375Y0113086D03*
X0091830Y0117061D03*
X0091815Y0117061D03*
X0091800Y0117061D03*
X0091785Y0117061D03*
X0097440Y0120436D03*
X0098790Y0119191D03*
X0103800Y0114736D03*
D217*
X0102825Y0114743D03*
X0102975Y0112703D03*
X0103785Y0110243D03*
X0103815Y0107918D03*
X0098010Y0107528D03*
X0091650Y0117038D03*
X0091635Y0117038D03*
X0097365Y0120323D03*
X0097380Y0120353D03*
D218*
X0103800Y0105991D03*
X0092700Y0098416D03*
D219*
X0091665Y0103651D03*
X0091650Y0103651D03*
X0091635Y0103651D03*
X0103800Y0110251D03*
X0100065Y0117976D03*
X0097410Y0120391D03*
D220*
X0103785Y0105976D03*
D221*
X0103785Y0107933D03*
X0097935Y0107483D03*
D222*
X0103770Y0105968D03*
D223*
X0103770Y0107941D03*
X0097920Y0107476D03*
D224*
X0103695Y0103883D03*
X0091845Y0103628D03*
X0102870Y0114788D03*
X0103770Y0114758D03*
X0097770Y0117068D03*
X0097695Y0117068D03*
X0097470Y0120473D03*
X0091995Y0117068D03*
X0091920Y0117068D03*
D225*
X0101790Y0120496D03*
X0103755Y0105961D03*
D226*
X0103740Y0105953D03*
X0092775Y0098498D03*
D227*
X0093090Y0099241D03*
X0094275Y0099856D03*
X0103740Y0107956D03*
X0103725Y0110191D03*
X0101925Y0113881D03*
X0097290Y0120211D03*
X0091455Y0117001D03*
X0091440Y0117001D03*
X0086625Y0110341D03*
D228*
X0092805Y0098536D03*
X0103725Y0105946D03*
X0101790Y0113911D03*
X0101265Y0122071D03*
D229*
X0091365Y0116971D03*
X0103725Y0107971D03*
D230*
X0103695Y0105923D03*
D231*
X0103695Y0107993D03*
D232*
X0103680Y0105916D03*
D233*
X0103680Y0108008D03*
X0097680Y0107333D03*
X0091260Y0116933D03*
D234*
X0102675Y0109516D03*
X0103665Y0105901D03*
D235*
X0103635Y0103936D03*
X0103650Y0103921D03*
X0098025Y0107536D03*
X0098865Y0113386D03*
X0091710Y0117046D03*
X0091680Y0117046D03*
X0091665Y0117046D03*
X0098760Y0119146D03*
D236*
X0097110Y0119873D03*
X0091080Y0116843D03*
X0086685Y0110348D03*
X0091110Y0103823D03*
X0094410Y0100043D03*
X0096180Y0100898D03*
X0097485Y0107213D03*
X0097500Y0107228D03*
X0102885Y0109493D03*
X0103635Y0108068D03*
X0102810Y0112823D03*
D237*
X0097995Y0107513D03*
X0103620Y0103943D03*
X0091620Y0117038D03*
D238*
X0102045Y0119003D03*
X0103620Y0105863D03*
D239*
X0103620Y0108098D03*
X0091020Y0103883D03*
X0091020Y0116798D03*
D240*
X0103620Y0110056D03*
X0097470Y0107206D03*
D241*
X0103605Y0105856D03*
X0092925Y0098746D03*
X0102015Y0117136D03*
X0101160Y0122071D03*
D242*
X0103575Y0109058D03*
X0103590Y0109058D03*
X0103605Y0109058D03*
D243*
X0103590Y0105841D03*
D244*
X0103575Y0104003D03*
X0097890Y0107453D03*
X0091455Y0103688D03*
D245*
X0086505Y0110341D03*
X0101160Y0118936D03*
X0101175Y0118936D03*
X0101205Y0118951D03*
X0101235Y0118951D03*
X0101265Y0118966D03*
X0101280Y0118966D03*
X0101340Y0118981D03*
X0103275Y0112666D03*
X0103575Y0105826D03*
X0102630Y0105016D03*
D246*
X0103560Y0105811D03*
X0100980Y0118861D03*
X0101085Y0118906D03*
X0101550Y0120496D03*
D247*
X0096690Y0118246D03*
X0096060Y0111796D03*
X0103530Y0109051D03*
X0103560Y0109051D03*
X0087255Y0110341D03*
D248*
X0092625Y0098333D03*
X0092610Y0098318D03*
X0103560Y0112658D03*
D249*
X0098670Y0118981D03*
X0097245Y0120136D03*
X0091395Y0116986D03*
X0103545Y0104041D03*
D250*
X0103545Y0105788D03*
X0092970Y0098843D03*
X0100770Y0118748D03*
X0100545Y0120443D03*
X0100695Y0120473D03*
X0100770Y0120488D03*
X0100845Y0120503D03*
X0101070Y0120518D03*
X0101220Y0120518D03*
X0101445Y0120503D03*
X0100995Y0122078D03*
D251*
X0096045Y0111796D03*
X0103545Y0109051D03*
D252*
X0103545Y0112658D03*
D253*
X0103200Y0112673D03*
X0100560Y0118613D03*
X0100590Y0118628D03*
X0100605Y0118643D03*
X0100050Y0120263D03*
X0100065Y0120278D03*
X0100080Y0120278D03*
X0100110Y0120293D03*
X0100140Y0120308D03*
X0099525Y0121943D03*
X0099480Y0121928D03*
X0099465Y0121928D03*
X0099450Y0121913D03*
X0099435Y0121913D03*
X0099405Y0121898D03*
X0099390Y0121898D03*
X0099360Y0121883D03*
X0099315Y0121868D03*
X0103530Y0105773D03*
X0092985Y0098888D03*
D254*
X0103530Y0112658D03*
D255*
X0101835Y0113888D03*
X0101910Y0117128D03*
X0101025Y0117128D03*
X0100410Y0118478D03*
X0100425Y0118493D03*
X0099690Y0120068D03*
X0099735Y0120098D03*
X0099765Y0120113D03*
X0098835Y0121643D03*
X0098805Y0121628D03*
X0098775Y0121613D03*
X0098880Y0121673D03*
X0098910Y0121688D03*
X0098940Y0121703D03*
X0098880Y0107903D03*
X0098865Y0107903D03*
X0103515Y0105743D03*
D256*
X0103515Y0109043D03*
X0103500Y0109043D03*
X0099900Y0105803D03*
D257*
X0103515Y0112658D03*
X0092715Y0098423D03*
D258*
X0103500Y0105706D03*
X0098730Y0107851D03*
X0103140Y0112681D03*
X0101865Y0117136D03*
X0100305Y0118366D03*
X0099375Y0119836D03*
X0099390Y0119851D03*
X0099405Y0119866D03*
X0098385Y0121366D03*
X0098400Y0121381D03*
X0098355Y0121351D03*
X0098340Y0121336D03*
D259*
X0096675Y0118231D03*
X0096030Y0111796D03*
X0103485Y0109036D03*
D260*
X0103485Y0112658D03*
X0092760Y0098483D03*
D261*
X0103470Y0104783D03*
D262*
X0103470Y0109036D03*
D263*
X0103470Y0112658D03*
D264*
X0103455Y0109028D03*
X0103440Y0109028D03*
X0096015Y0111803D03*
X0096900Y0102278D03*
D265*
X0103455Y0112658D03*
D266*
X0098265Y0117743D03*
X0096360Y0117863D03*
X0095580Y0111803D03*
X0095910Y0105803D03*
X0096585Y0101723D03*
X0095760Y0101273D03*
X0093255Y0100028D03*
X0103380Y0104828D03*
X0103410Y0104813D03*
X0103425Y0104798D03*
X0103440Y0104798D03*
D267*
X0103440Y0112658D03*
D268*
X0103425Y0109021D03*
X0103410Y0109021D03*
X0096000Y0111796D03*
D269*
X0103410Y0112658D03*
D270*
X0099420Y0109171D03*
X0103395Y0104821D03*
X0095370Y0101086D03*
D271*
X0103395Y0109013D03*
X0096645Y0118208D03*
D272*
X0103395Y0112658D03*
D273*
X0103380Y0109013D03*
X0099915Y0105833D03*
X0095985Y0111803D03*
D274*
X0103380Y0112658D03*
X0092865Y0098633D03*
D275*
X0094485Y0103891D03*
X0103350Y0109006D03*
X0103365Y0109006D03*
X0087225Y0110341D03*
D276*
X0103305Y0104873D03*
X0103335Y0104858D03*
X0103350Y0104843D03*
D277*
X0103335Y0112658D03*
D278*
X0100020Y0106193D03*
X0103320Y0104858D03*
X0096570Y0101693D03*
D279*
X0096870Y0102233D03*
X0103320Y0108998D03*
D280*
X0103320Y0112658D03*
D281*
X0103305Y0112658D03*
D282*
X0103290Y0112658D03*
X0102690Y0109508D03*
D283*
X0099465Y0109163D03*
X0096105Y0105968D03*
X0096090Y0105953D03*
X0094725Y0104633D03*
X0095340Y0101063D03*
X0095325Y0101048D03*
X0103230Y0104918D03*
X0103260Y0104903D03*
X0103275Y0104888D03*
D284*
X0103260Y0112666D03*
X0101010Y0118876D03*
X0101040Y0118891D03*
D285*
X0100920Y0118838D03*
X0101520Y0120503D03*
X0103245Y0112673D03*
D286*
X0103230Y0112673D03*
X0100755Y0118748D03*
X0100785Y0118763D03*
X0100815Y0118778D03*
X0100680Y0120473D03*
X0100665Y0120473D03*
X0100725Y0120488D03*
X0100740Y0120488D03*
X0100755Y0120488D03*
X0100785Y0120488D03*
X0100830Y0120503D03*
X0100860Y0120503D03*
X0100875Y0120503D03*
X0100890Y0120503D03*
X0101010Y0120518D03*
X0101025Y0120518D03*
X0101040Y0120518D03*
X0101055Y0120518D03*
X0101235Y0120518D03*
X0101250Y0120518D03*
X0101265Y0120518D03*
X0101400Y0120503D03*
X0101415Y0120503D03*
X0101430Y0120503D03*
X0101010Y0122078D03*
X0100980Y0122078D03*
X0100965Y0122078D03*
D287*
X0100755Y0122093D03*
X0100740Y0122093D03*
X0100725Y0122093D03*
X0100305Y0122093D03*
X0100290Y0122093D03*
X0100275Y0122093D03*
X0099975Y0122048D03*
X0099960Y0122048D03*
X0099930Y0122048D03*
X0099915Y0122048D03*
X0099900Y0122033D03*
X0099885Y0122033D03*
X0099855Y0122033D03*
X0099825Y0122018D03*
X0099810Y0122018D03*
X0100365Y0120398D03*
X0100380Y0120398D03*
X0100350Y0120383D03*
X0100335Y0120383D03*
X0100305Y0120368D03*
X0100290Y0120368D03*
X0100650Y0118673D03*
X0103215Y0112673D03*
X0102705Y0109508D03*
D288*
X0103200Y0109508D03*
X0099765Y0109058D03*
X0096585Y0106493D03*
X0094965Y0105173D03*
X0090525Y0104393D03*
X0094875Y0100598D03*
D289*
X0094860Y0100583D03*
X0096405Y0101333D03*
X0103185Y0109508D03*
D290*
X0103185Y0112673D03*
X0099840Y0120158D03*
X0099135Y0121793D03*
X0099165Y0121808D03*
X0099030Y0121748D03*
X0099000Y0121733D03*
D291*
X0090570Y0116341D03*
X0103170Y0109501D03*
X0095970Y0101086D03*
X0094845Y0100561D03*
X0090570Y0104341D03*
D292*
X0102645Y0105023D03*
X0103170Y0112673D03*
X0098745Y0121598D03*
X0098820Y0121643D03*
D293*
X0098205Y0117698D03*
X0088050Y0112163D03*
X0088050Y0108518D03*
X0096150Y0106028D03*
X0099510Y0109148D03*
X0103140Y0104978D03*
X0103155Y0104963D03*
X0095280Y0101003D03*
X0095265Y0100988D03*
X0093240Y0099968D03*
D294*
X0103155Y0109508D03*
D295*
X0103155Y0112681D03*
X0101880Y0117136D03*
X0100350Y0118411D03*
X0099525Y0119956D03*
X0099540Y0119971D03*
X0098565Y0121486D03*
X0098550Y0121486D03*
X0098535Y0121471D03*
X0098790Y0107881D03*
X0098805Y0107881D03*
D296*
X0096690Y0106598D03*
X0096675Y0106583D03*
X0095025Y0105293D03*
X0103140Y0109508D03*
X0102165Y0113858D03*
X0096960Y0119393D03*
X0090615Y0116393D03*
D297*
X0088080Y0112231D03*
X0088065Y0112201D03*
X0088065Y0108481D03*
X0088080Y0108451D03*
X0094755Y0104701D03*
X0095865Y0105841D03*
X0096165Y0106051D03*
X0095805Y0101236D03*
X0103110Y0105001D03*
X0103125Y0104986D03*
X0102375Y0113821D03*
D298*
X0103125Y0112681D03*
X0101850Y0117136D03*
X0101085Y0117136D03*
X0100275Y0118336D03*
X0099285Y0119761D03*
X0099300Y0119776D03*
X0099315Y0119791D03*
X0098250Y0121261D03*
X0098235Y0121261D03*
X0098265Y0121276D03*
X0098280Y0121291D03*
X0098205Y0121231D03*
X0098685Y0107836D03*
D299*
X0096750Y0106651D03*
X0096735Y0106636D03*
X0096375Y0101266D03*
X0096000Y0101056D03*
X0103110Y0109501D03*
X0098835Y0116536D03*
X0097980Y0117481D03*
X0086835Y0110341D03*
D300*
X0098610Y0107806D03*
X0103110Y0112681D03*
X0101835Y0117136D03*
X0101100Y0117136D03*
X0099255Y0119731D03*
X0098115Y0121156D03*
X0098130Y0121171D03*
D301*
X0089145Y0114083D03*
X0088245Y0108158D03*
X0103095Y0105008D03*
D302*
X0103095Y0109501D03*
D303*
X0103095Y0112681D03*
X0097995Y0121051D03*
D304*
X0098190Y0117691D03*
X0090060Y0115666D03*
X0090015Y0115591D03*
X0089925Y0115441D03*
X0089835Y0115276D03*
X0089790Y0115201D03*
X0089700Y0115051D03*
X0089625Y0114916D03*
X0089580Y0114841D03*
X0089400Y0114526D03*
X0089355Y0114451D03*
X0089325Y0114391D03*
X0089280Y0114316D03*
X0089235Y0114241D03*
X0089190Y0114166D03*
X0089100Y0114001D03*
X0089055Y0113926D03*
X0089010Y0113851D03*
X0088965Y0113776D03*
X0088935Y0113716D03*
X0088890Y0113641D03*
X0088800Y0113491D03*
X0088710Y0113326D03*
X0088665Y0113251D03*
X0088575Y0113101D03*
X0088500Y0112966D03*
X0088455Y0112891D03*
X0088410Y0112816D03*
X0088275Y0112576D03*
X0088230Y0112501D03*
X0088185Y0112426D03*
X0088155Y0112366D03*
X0088110Y0112291D03*
X0086985Y0110341D03*
X0088155Y0108316D03*
X0088200Y0108241D03*
X0088290Y0108076D03*
X0088335Y0108001D03*
X0088380Y0107926D03*
X0088425Y0107851D03*
X0088455Y0107791D03*
X0088500Y0107716D03*
X0088590Y0107566D03*
X0088680Y0107401D03*
X0088725Y0107326D03*
X0088815Y0107176D03*
X0088890Y0107041D03*
X0088935Y0106966D03*
X0088980Y0106891D03*
X0089115Y0106651D03*
X0089160Y0106576D03*
X0089205Y0106501D03*
X0089235Y0106441D03*
X0089280Y0106366D03*
X0089325Y0106291D03*
X0089460Y0106051D03*
X0089505Y0105976D03*
X0089550Y0105901D03*
X0089625Y0105766D03*
X0089715Y0105616D03*
X0089850Y0105376D03*
X0089940Y0105226D03*
X0089985Y0105151D03*
X0090015Y0105091D03*
X0090030Y0105076D03*
X0099540Y0109141D03*
X0103080Y0105016D03*
D305*
X0102855Y0105046D03*
X0099855Y0108991D03*
X0103080Y0109501D03*
X0096825Y0106711D03*
X0095115Y0105451D03*
X0096360Y0101221D03*
X0090705Y0104191D03*
X0090690Y0104206D03*
X0090690Y0116476D03*
D306*
X0090030Y0115621D03*
X0090000Y0115561D03*
X0089955Y0115486D03*
X0089940Y0115456D03*
X0089910Y0115411D03*
X0089865Y0115336D03*
X0089850Y0115306D03*
X0089805Y0115231D03*
X0089775Y0115171D03*
X0089730Y0115096D03*
X0089685Y0115021D03*
X0089640Y0114946D03*
X0089610Y0114886D03*
X0089565Y0114811D03*
X0089550Y0114781D03*
X0089505Y0114706D03*
X0089475Y0114661D03*
X0089460Y0114631D03*
X0089415Y0114556D03*
X0089385Y0114496D03*
X0089340Y0114421D03*
X0089250Y0114271D03*
X0089175Y0114136D03*
X0089160Y0114106D03*
X0089130Y0114061D03*
X0089115Y0114031D03*
X0089085Y0113986D03*
X0089025Y0113881D03*
X0088950Y0113746D03*
X0088905Y0113671D03*
X0088860Y0113596D03*
X0088830Y0113536D03*
X0088785Y0113461D03*
X0088740Y0113386D03*
X0088725Y0113356D03*
X0088680Y0113281D03*
X0088635Y0113206D03*
X0088605Y0113146D03*
X0088560Y0113071D03*
X0088515Y0112996D03*
X0088485Y0112936D03*
X0088440Y0112861D03*
X0088380Y0112756D03*
X0088350Y0112711D03*
X0088335Y0112681D03*
X0088290Y0112606D03*
X0088260Y0112546D03*
X0088215Y0112471D03*
X0088125Y0112321D03*
X0088140Y0108346D03*
X0088215Y0108211D03*
X0088230Y0108181D03*
X0088260Y0108136D03*
X0088275Y0108106D03*
X0088365Y0107956D03*
X0088440Y0107821D03*
X0088485Y0107746D03*
X0088515Y0107686D03*
X0088530Y0107671D03*
X0088560Y0107611D03*
X0088605Y0107536D03*
X0088650Y0107461D03*
X0088665Y0107431D03*
X0088710Y0107356D03*
X0088755Y0107281D03*
X0088785Y0107221D03*
X0088830Y0107146D03*
X0088875Y0107071D03*
X0088905Y0107011D03*
X0088950Y0106936D03*
X0089010Y0106831D03*
X0089040Y0106786D03*
X0089055Y0106756D03*
X0089100Y0106681D03*
X0089130Y0106621D03*
X0089175Y0106546D03*
X0089265Y0106396D03*
X0089340Y0106261D03*
X0089355Y0106231D03*
X0089385Y0106186D03*
X0089400Y0106156D03*
X0089430Y0106111D03*
X0089490Y0106006D03*
X0089565Y0105871D03*
X0089610Y0105796D03*
X0089655Y0105721D03*
X0089685Y0105661D03*
X0089730Y0105586D03*
X0089775Y0105511D03*
X0089790Y0105481D03*
X0089835Y0105406D03*
X0089880Y0105331D03*
X0089910Y0105271D03*
X0089955Y0105196D03*
X0090000Y0105121D03*
X0103065Y0105031D03*
X0102360Y0113821D03*
X0096315Y0117781D03*
D307*
X0097950Y0117451D03*
X0103065Y0109501D03*
X0096855Y0106741D03*
X0096030Y0101026D03*
D308*
X0094680Y0100381D03*
X0093165Y0099586D03*
X0095175Y0105541D03*
X0096900Y0106786D03*
X0103050Y0109501D03*
X0102105Y0113866D03*
X0086805Y0110341D03*
D309*
X0086790Y0110341D03*
X0090765Y0116566D03*
X0098805Y0116611D03*
X0103035Y0109501D03*
X0099885Y0108961D03*
X0096960Y0106831D03*
X0095205Y0105586D03*
D310*
X0090195Y0104813D03*
X0103020Y0105053D03*
D311*
X0103020Y0109501D03*
D312*
X0098745Y0113296D03*
X0096495Y0113161D03*
X0096495Y0110431D03*
X0103020Y0114871D03*
D313*
X0102075Y0113866D03*
X0103005Y0109501D03*
X0097035Y0106891D03*
X0095625Y0106021D03*
X0090810Y0104071D03*
X0094605Y0100291D03*
X0086775Y0110341D03*
X0090810Y0116611D03*
D314*
X0090300Y0116011D03*
X0090300Y0104671D03*
X0090315Y0104656D03*
X0095805Y0105886D03*
X0096480Y0101506D03*
X0102990Y0105046D03*
D315*
X0102975Y0105053D03*
X0099660Y0109103D03*
X0096390Y0106298D03*
X0096375Y0106283D03*
X0095790Y0105893D03*
X0096465Y0101468D03*
X0095040Y0100763D03*
D316*
X0094560Y0100238D03*
X0095385Y0105833D03*
X0095400Y0105848D03*
X0097125Y0106958D03*
X0097140Y0106973D03*
X0102975Y0109493D03*
X0097890Y0117353D03*
D317*
X0096255Y0117661D03*
X0090405Y0116146D03*
X0099690Y0109096D03*
X0102960Y0105046D03*
X0096450Y0101446D03*
X0102255Y0113836D03*
D318*
X0098070Y0117586D03*
X0090420Y0116161D03*
X0102945Y0105046D03*
D319*
X0102945Y0109501D03*
X0095295Y0111796D03*
X0096120Y0100951D03*
D320*
X0091470Y0103688D03*
X0102945Y0112703D03*
X0102795Y0114713D03*
D321*
X0102945Y0114833D03*
X0098220Y0107633D03*
D322*
X0102930Y0105046D03*
D323*
X0102930Y0109493D03*
X0102015Y0113873D03*
X0097860Y0117293D03*
X0090975Y0116768D03*
X0097305Y0107093D03*
D324*
X0096555Y0106471D03*
X0102915Y0105046D03*
X0095400Y0111796D03*
D325*
X0097350Y0107123D03*
X0102765Y0105038D03*
X0102915Y0109493D03*
X0098685Y0116798D03*
X0097065Y0119768D03*
X0090990Y0116783D03*
X0090990Y0103898D03*
X0094455Y0100103D03*
D326*
X0096630Y0106546D03*
X0102900Y0105046D03*
X0102180Y0113851D03*
X0098850Y0116476D03*
X0098010Y0117526D03*
X0095385Y0111796D03*
X0086865Y0110341D03*
D327*
X0091065Y0103853D03*
X0097455Y0107198D03*
X0102900Y0109493D03*
X0098655Y0116828D03*
X0098580Y0118763D03*
D328*
X0099810Y0109028D03*
X0102885Y0105038D03*
X0090615Y0104288D03*
D329*
X0102870Y0105038D03*
D330*
X0102840Y0105046D03*
X0095340Y0111796D03*
D331*
X0095325Y0111796D03*
X0096975Y0106846D03*
X0095250Y0105661D03*
X0096330Y0101146D03*
X0096060Y0100996D03*
X0102825Y0105046D03*
D332*
X0102810Y0105031D03*
X0099915Y0108931D03*
X0097065Y0106921D03*
X0095340Y0105781D03*
D333*
X0097170Y0106988D03*
X0102795Y0105038D03*
D334*
X0098070Y0107558D03*
X0102795Y0109493D03*
X0091695Y0103643D03*
D335*
X0102795Y0112853D03*
X0097845Y0117263D03*
X0097095Y0119843D03*
D336*
X0097260Y0107063D03*
X0102780Y0105038D03*
X0094500Y0100163D03*
D337*
X0102750Y0113723D03*
D338*
X0102735Y0109493D03*
X0098160Y0121193D03*
X0098175Y0121208D03*
X0098190Y0121223D03*
D339*
X0091320Y0116956D03*
X0097770Y0107386D03*
X0102720Y0105031D03*
D340*
X0102720Y0109501D03*
D341*
X0102720Y0113738D03*
D342*
X0102675Y0113746D03*
X0095760Y0111796D03*
X0099975Y0106021D03*
D343*
X0102660Y0113753D03*
D344*
X0102645Y0113753D03*
D345*
X0102630Y0113761D03*
X0099150Y0109186D03*
X0099135Y0109186D03*
X0095730Y0111796D03*
X0098415Y0117811D03*
X0094590Y0104251D03*
X0096705Y0101956D03*
D346*
X0092835Y0098581D03*
X0102615Y0105016D03*
X0096180Y0118111D03*
D347*
X0096465Y0118006D03*
X0095715Y0111796D03*
X0099165Y0109186D03*
X0099180Y0109186D03*
X0102615Y0113761D03*
D348*
X0102600Y0113768D03*
D349*
X0102585Y0113776D03*
X0099225Y0109186D03*
X0095655Y0101341D03*
X0095640Y0101326D03*
X0093285Y0100156D03*
D350*
X0102570Y0113783D03*
D351*
X0102555Y0113783D03*
X0095700Y0101333D03*
D352*
X0099285Y0109186D03*
X0095655Y0111796D03*
X0102540Y0113791D03*
D353*
X0102525Y0113791D03*
X0100005Y0106141D03*
X0095955Y0105766D03*
X0095550Y0101251D03*
D354*
X0096555Y0101663D03*
X0102405Y0113813D03*
D355*
X0102345Y0113828D03*
X0099570Y0109133D03*
X0086970Y0110348D03*
D356*
X0095490Y0111803D03*
X0102330Y0113828D03*
D357*
X0102300Y0113828D03*
X0099630Y0109118D03*
X0096330Y0106238D03*
X0096315Y0106223D03*
X0094830Y0104888D03*
X0090285Y0104693D03*
X0090285Y0115988D03*
X0098130Y0117638D03*
D358*
X0102270Y0113836D03*
D359*
X0102240Y0113843D03*
X0096480Y0106388D03*
X0094950Y0100673D03*
X0090450Y0116198D03*
D360*
X0096240Y0117623D03*
X0102225Y0113843D03*
X0099735Y0109073D03*
X0094935Y0100658D03*
X0090465Y0104468D03*
D361*
X0094950Y0105143D03*
X0095940Y0101108D03*
X0094905Y0100628D03*
X0102210Y0113843D03*
X0090510Y0116273D03*
D362*
X0102195Y0113851D03*
D363*
X0102195Y0119003D03*
X0101295Y0122078D03*
D364*
X0101775Y0120503D03*
X0102150Y0119003D03*
D365*
X0102135Y0113858D03*
X0094725Y0100433D03*
D366*
X0095670Y0105983D03*
X0102120Y0113858D03*
D367*
X0102120Y0119003D03*
X0101745Y0120503D03*
D368*
X0102105Y0119003D03*
D369*
X0102090Y0113858D03*
X0090780Y0116573D03*
X0090780Y0104108D03*
X0094650Y0100343D03*
D370*
X0092880Y0098663D03*
X0102090Y0119003D03*
D371*
X0102060Y0119011D03*
X0102030Y0117136D03*
X0086490Y0110341D03*
D372*
X0095445Y0105901D03*
X0094545Y0100216D03*
X0102045Y0113866D03*
D373*
X0102045Y0117136D03*
X0101220Y0122071D03*
D374*
X0097035Y0119693D03*
X0097875Y0117323D03*
X0102030Y0113873D03*
X0097200Y0107018D03*
X0095580Y0106043D03*
X0095565Y0106028D03*
X0090915Y0103973D03*
X0094515Y0100178D03*
D375*
X0099975Y0108848D03*
X0102000Y0113873D03*
D376*
X0102000Y0117136D03*
X0100935Y0117136D03*
X0101490Y0119011D03*
X0101505Y0119011D03*
X0101535Y0119011D03*
X0101550Y0119011D03*
X0101565Y0119011D03*
X0101580Y0119011D03*
X0101610Y0119011D03*
X0101625Y0119011D03*
X0101715Y0119011D03*
X0101730Y0119011D03*
X0101760Y0119011D03*
X0101775Y0119011D03*
X0101790Y0119011D03*
X0101805Y0119011D03*
X0101835Y0119011D03*
X0101850Y0119011D03*
X0101865Y0119011D03*
X0101880Y0119011D03*
X0092940Y0098776D03*
D377*
X0101985Y0119003D03*
X0102000Y0119003D03*
X0101655Y0120503D03*
D378*
X0101580Y0120503D03*
X0101565Y0120503D03*
X0101085Y0122078D03*
X0101100Y0118913D03*
X0101115Y0118913D03*
X0100950Y0117128D03*
X0101985Y0117128D03*
X0092955Y0098813D03*
D379*
X0101820Y0113896D03*
X0101970Y0117136D03*
X0100845Y0118801D03*
X0100920Y0120511D03*
X0100995Y0120511D03*
X0101145Y0120526D03*
X0101295Y0120511D03*
X0101370Y0120511D03*
X0096195Y0118126D03*
D380*
X0101970Y0119011D03*
X0101145Y0122071D03*
D381*
X0101130Y0122078D03*
X0101640Y0120503D03*
X0101910Y0119003D03*
X0101925Y0119003D03*
X0101940Y0119003D03*
X0101955Y0119003D03*
D382*
X0100635Y0118666D03*
X0100125Y0120301D03*
X0100155Y0120316D03*
X0100185Y0120331D03*
X0100200Y0120331D03*
X0100215Y0120331D03*
X0100275Y0120361D03*
X0099840Y0122026D03*
X0099780Y0122011D03*
X0099765Y0122011D03*
X0099675Y0121981D03*
X0099660Y0121981D03*
X0099630Y0121981D03*
X0099615Y0121966D03*
X0099600Y0121966D03*
X0099585Y0121966D03*
X0099555Y0121951D03*
X0099540Y0121951D03*
X0099510Y0121936D03*
X0101940Y0117136D03*
D383*
X0101925Y0117128D03*
X0101010Y0117128D03*
X0099900Y0120188D03*
X0099885Y0120188D03*
X0099915Y0120203D03*
X0099930Y0120203D03*
X0099105Y0121778D03*
X0099090Y0121778D03*
X0099075Y0121763D03*
X0099060Y0121763D03*
D384*
X0098820Y0119236D03*
X0097620Y0117076D03*
X0097545Y0117076D03*
X0097470Y0117076D03*
X0097395Y0117076D03*
X0097320Y0117076D03*
X0097245Y0117076D03*
X0097170Y0117076D03*
X0097095Y0117076D03*
X0097020Y0117076D03*
X0096195Y0117076D03*
X0096120Y0117076D03*
X0096045Y0117076D03*
X0095970Y0117076D03*
X0095895Y0117076D03*
X0095820Y0117076D03*
X0095745Y0117076D03*
X0095670Y0117076D03*
X0095595Y0117076D03*
X0095520Y0117076D03*
X0095445Y0117076D03*
X0095370Y0117076D03*
X0095295Y0117076D03*
X0095220Y0117076D03*
X0095145Y0117076D03*
X0095070Y0117076D03*
X0094995Y0117076D03*
X0094920Y0117076D03*
X0094845Y0117076D03*
X0094770Y0117076D03*
X0094695Y0117076D03*
X0094620Y0117076D03*
X0094545Y0117076D03*
X0094470Y0117076D03*
X0094395Y0117076D03*
X0094320Y0117076D03*
X0094245Y0117076D03*
X0094170Y0117076D03*
X0094095Y0117076D03*
X0094020Y0117076D03*
X0093945Y0117076D03*
X0093870Y0117076D03*
X0093795Y0117076D03*
X0093720Y0117076D03*
X0093645Y0117076D03*
X0093570Y0117076D03*
X0093495Y0117076D03*
X0093420Y0117076D03*
X0093345Y0117076D03*
X0093270Y0117076D03*
X0093195Y0117076D03*
X0093120Y0117076D03*
X0093045Y0117076D03*
X0092970Y0117076D03*
X0092895Y0117076D03*
X0092820Y0117076D03*
X0092745Y0117076D03*
X0092670Y0117076D03*
X0092595Y0117076D03*
X0092520Y0117076D03*
X0092445Y0117076D03*
X0092370Y0117076D03*
X0092295Y0117076D03*
X0092220Y0117076D03*
X0092145Y0117076D03*
X0092070Y0117076D03*
X0086595Y0110341D03*
X0101895Y0113881D03*
X0101520Y0117136D03*
X0101445Y0117136D03*
D385*
X0101895Y0117128D03*
X0100395Y0118463D03*
X0099645Y0120038D03*
X0098670Y0121553D03*
X0098820Y0107888D03*
D386*
X0101520Y0119011D03*
X0101595Y0119011D03*
X0101745Y0119011D03*
X0101820Y0119011D03*
X0101895Y0119011D03*
D387*
X0100260Y0118313D03*
X0101850Y0113888D03*
X0098640Y0107813D03*
X0098625Y0107813D03*
D388*
X0098595Y0107798D03*
X0101820Y0117128D03*
X0099195Y0119678D03*
X0098070Y0121118D03*
D389*
X0098025Y0121081D03*
X0098010Y0121066D03*
X0097980Y0121036D03*
X0099150Y0119626D03*
X0100215Y0118246D03*
X0101130Y0117136D03*
X0101805Y0117136D03*
X0098550Y0107776D03*
X0098535Y0107776D03*
X0093030Y0099016D03*
D390*
X0098475Y0107746D03*
X0098505Y0107761D03*
X0101160Y0117136D03*
X0101775Y0117136D03*
X0101790Y0117136D03*
X0099060Y0119536D03*
X0097905Y0120961D03*
D391*
X0101250Y0122071D03*
X0101760Y0120496D03*
D392*
X0101730Y0120496D03*
X0100890Y0117136D03*
D393*
X0101715Y0120496D03*
D394*
X0101700Y0120496D03*
D395*
X0101670Y0119018D03*
X0101445Y0119003D03*
X0101370Y0118988D03*
X0101295Y0118973D03*
D396*
X0101670Y0120496D03*
X0100920Y0117136D03*
D397*
X0101415Y0118996D03*
X0101625Y0120496D03*
D398*
X0101595Y0120496D03*
D399*
X0101490Y0120496D03*
X0101475Y0120496D03*
X0101460Y0120496D03*
X0101385Y0120511D03*
X0101355Y0120511D03*
X0101340Y0120511D03*
X0101325Y0120511D03*
X0101310Y0120511D03*
X0101280Y0120511D03*
X0101205Y0120526D03*
X0101190Y0120526D03*
X0101175Y0120526D03*
X0101160Y0120526D03*
X0101130Y0120526D03*
X0101115Y0120526D03*
X0101100Y0120526D03*
X0101085Y0120526D03*
X0100980Y0120511D03*
X0100965Y0120511D03*
X0100950Y0120511D03*
X0100935Y0120511D03*
X0100905Y0120511D03*
X0100815Y0120496D03*
X0100800Y0120496D03*
X0101025Y0122071D03*
X0100875Y0118816D03*
X0100860Y0118801D03*
X0100830Y0118786D03*
X0100800Y0118771D03*
X0100965Y0117136D03*
D400*
X0101280Y0122078D03*
D401*
X0101220Y0118951D03*
D402*
X0100905Y0117128D03*
X0101190Y0122078D03*
D403*
X0101145Y0117136D03*
D404*
X0101145Y0118928D03*
X0101070Y0122078D03*
D405*
X0101130Y0118921D03*
D406*
X0100320Y0118381D03*
X0101070Y0117136D03*
X0098370Y0121351D03*
D407*
X0101070Y0118898D03*
D408*
X0100380Y0118448D03*
X0101040Y0117128D03*
X0099585Y0119993D03*
X0099555Y0119978D03*
X0098625Y0121523D03*
X0098610Y0121523D03*
X0098640Y0121538D03*
X0098835Y0107888D03*
D409*
X0100995Y0118876D03*
D410*
X0100695Y0118703D03*
X0100920Y0122078D03*
X0100020Y0122063D03*
D411*
X0100005Y0122063D03*
X0100035Y0122063D03*
X0100050Y0122063D03*
X0100065Y0122063D03*
X0100125Y0122078D03*
X0100140Y0122078D03*
X0100155Y0122078D03*
X0099750Y0122003D03*
X0099735Y0122003D03*
X0100875Y0122078D03*
X0100890Y0122078D03*
X0100905Y0122078D03*
X0100485Y0120428D03*
X0100440Y0120413D03*
X0100425Y0120413D03*
X0100260Y0120353D03*
X0100665Y0118688D03*
D412*
X0100875Y0117136D03*
X0092850Y0098611D03*
D413*
X0092670Y0098371D03*
X0100845Y0117136D03*
D414*
X0100470Y0120421D03*
X0100245Y0122086D03*
X0100170Y0122086D03*
X0100095Y0122071D03*
X0100845Y0122086D03*
D415*
X0100605Y0120458D03*
X0100740Y0118733D03*
D416*
X0100725Y0118726D03*
X0100590Y0120451D03*
X0100575Y0120451D03*
X0100560Y0120451D03*
X0100635Y0120466D03*
X0100650Y0120466D03*
X0100650Y0122101D03*
X0100635Y0122101D03*
X0100605Y0122101D03*
X0100590Y0122101D03*
X0100575Y0122101D03*
X0100560Y0122101D03*
X0100530Y0122101D03*
X0100515Y0122101D03*
X0100500Y0122101D03*
X0100485Y0122101D03*
X0100455Y0122101D03*
X0100440Y0122101D03*
X0100425Y0122101D03*
X0100410Y0122101D03*
X0100380Y0122101D03*
X0100365Y0122101D03*
X0100350Y0122101D03*
X0100335Y0122101D03*
X0100665Y0122101D03*
X0100680Y0122101D03*
X0100710Y0122101D03*
D417*
X0100695Y0122101D03*
X0100620Y0122101D03*
X0100545Y0122101D03*
X0100470Y0122101D03*
X0100395Y0122101D03*
X0100320Y0122101D03*
D418*
X0099645Y0121981D03*
X0100320Y0120376D03*
X0100170Y0120316D03*
X0100620Y0118651D03*
D419*
X0100620Y0120458D03*
D420*
X0100230Y0120346D03*
X0099705Y0121996D03*
X0099690Y0121996D03*
X0100575Y0118621D03*
D421*
X0100530Y0118591D03*
X0100515Y0118576D03*
X0100500Y0118561D03*
X0099975Y0120226D03*
X0099960Y0120226D03*
X0099990Y0120241D03*
X0100005Y0120241D03*
X0100035Y0120256D03*
X0099375Y0121891D03*
X0099330Y0121876D03*
X0099300Y0121861D03*
X0099285Y0121861D03*
X0099225Y0121831D03*
X0099210Y0121831D03*
X0099180Y0121816D03*
X0099150Y0121801D03*
D422*
X0098955Y0121711D03*
X0098925Y0121696D03*
X0099750Y0120106D03*
X0099780Y0120121D03*
X0099810Y0120136D03*
X0100485Y0118546D03*
D423*
X0100470Y0118531D03*
X0099795Y0120136D03*
X0099045Y0121756D03*
X0098895Y0121681D03*
X0098895Y0107911D03*
D424*
X0100455Y0118516D03*
X0099825Y0120151D03*
X0099855Y0120166D03*
X0099015Y0121741D03*
X0098985Y0121726D03*
X0098865Y0121666D03*
D425*
X0099600Y0120008D03*
X0100365Y0118433D03*
D426*
X0100290Y0118343D03*
X0099330Y0119798D03*
X0099360Y0119828D03*
X0098310Y0121313D03*
X0098325Y0121328D03*
X0098700Y0107843D03*
X0098715Y0107843D03*
D427*
X0100245Y0118291D03*
D428*
X0100245Y0120346D03*
X0099720Y0121996D03*
D429*
X0097965Y0121028D03*
X0097950Y0121013D03*
X0097935Y0120998D03*
X0099135Y0119618D03*
X0099105Y0119588D03*
X0100200Y0118223D03*
X0098490Y0107753D03*
D430*
X0098820Y0110258D03*
X0098820Y0113348D03*
X0100095Y0118043D03*
D431*
X0086475Y0110348D03*
X0100080Y0106103D03*
D432*
X0100035Y0106171D03*
X0099675Y0109096D03*
X0096405Y0106321D03*
X0090360Y0104596D03*
D433*
X0100020Y0120256D03*
D434*
X0100005Y0116348D03*
X0099300Y0115148D03*
D435*
X0096450Y0117991D03*
X0087105Y0110341D03*
X0099210Y0109186D03*
X0099990Y0106081D03*
D436*
X0099285Y0104978D03*
X0097725Y0103373D03*
X0097710Y0103358D03*
X0099435Y0115313D03*
X0099990Y0116273D03*
D437*
X0099975Y0116228D03*
X0099465Y0115373D03*
X0099150Y0115163D03*
X0099225Y0104918D03*
X0099210Y0104903D03*
X0097815Y0103478D03*
X0097800Y0103463D03*
X0094275Y0102953D03*
D438*
X0096135Y0100936D03*
X0093135Y0099436D03*
X0097275Y0107071D03*
X0097290Y0107086D03*
X0099960Y0108871D03*
X0098715Y0116761D03*
D439*
X0099960Y0116183D03*
X0099165Y0104858D03*
D440*
X0099945Y0105923D03*
D441*
X0099945Y0108893D03*
D442*
X0099945Y0116146D03*
D443*
X0099870Y0120173D03*
X0099945Y0120218D03*
X0099195Y0121823D03*
X0099120Y0121793D03*
D444*
X0096615Y0118178D03*
X0095940Y0111803D03*
X0099930Y0105878D03*
X0094500Y0103943D03*
D445*
X0090855Y0104026D03*
X0097110Y0106951D03*
X0099930Y0108916D03*
X0090855Y0116656D03*
X0086760Y0110341D03*
D446*
X0097980Y0103651D03*
X0099015Y0104701D03*
X0099030Y0104716D03*
X0099930Y0116116D03*
D447*
X0099915Y0116086D03*
X0098985Y0104671D03*
D448*
X0098910Y0104596D03*
X0098880Y0104566D03*
X0098865Y0104551D03*
X0098175Y0103861D03*
X0098160Y0103846D03*
X0098130Y0103816D03*
X0098115Y0103801D03*
X0087600Y0110341D03*
X0099900Y0116056D03*
D449*
X0099885Y0105766D03*
X0093375Y0100501D03*
D450*
X0098190Y0103883D03*
X0099885Y0116033D03*
D451*
X0099870Y0105743D03*
D452*
X0099870Y0108983D03*
D453*
X0099870Y0116003D03*
D454*
X0096180Y0111796D03*
X0099855Y0105721D03*
X0096990Y0102421D03*
X0093390Y0100546D03*
D455*
X0098280Y0103973D03*
X0098325Y0104018D03*
X0098340Y0104033D03*
X0098355Y0104048D03*
X0098700Y0104393D03*
X0098715Y0104408D03*
X0098730Y0104423D03*
X0099630Y0115643D03*
X0099855Y0115973D03*
D456*
X0099840Y0105683D03*
D457*
X0096780Y0106681D03*
X0099840Y0109006D03*
X0090675Y0104221D03*
X0090675Y0116461D03*
D458*
X0087615Y0110341D03*
X0098400Y0104086D03*
X0098415Y0104101D03*
X0098430Y0104116D03*
X0098475Y0104161D03*
X0098490Y0104176D03*
X0098550Y0104236D03*
X0098565Y0104251D03*
X0098580Y0104266D03*
X0098625Y0104311D03*
X0098640Y0104326D03*
X0098655Y0104341D03*
X0099660Y0115681D03*
X0099690Y0115726D03*
X0099810Y0115906D03*
X0099825Y0115936D03*
X0099840Y0115951D03*
D459*
X0096810Y0118351D03*
X0087315Y0110341D03*
X0097050Y0102511D03*
X0099825Y0105661D03*
D460*
X0099825Y0109021D03*
D461*
X0099810Y0105631D03*
X0094410Y0103606D03*
X0096825Y0118366D03*
D462*
X0099795Y0105616D03*
D463*
X0099795Y0109036D03*
D464*
X0098520Y0104213D03*
X0099795Y0115883D03*
D465*
X0099780Y0105586D03*
D466*
X0096615Y0106523D03*
X0099780Y0109043D03*
X0090555Y0104363D03*
X0096225Y0117578D03*
D467*
X0099675Y0115703D03*
X0099705Y0115748D03*
X0099735Y0115793D03*
X0099765Y0115838D03*
X0099780Y0115853D03*
X0098505Y0104198D03*
D468*
X0099765Y0105563D03*
D469*
X0099750Y0105548D03*
X0087360Y0110348D03*
X0096915Y0118433D03*
D470*
X0098040Y0117556D03*
X0099750Y0109066D03*
X0094890Y0100606D03*
X0090510Y0104416D03*
X0086880Y0110341D03*
D471*
X0099750Y0115816D03*
D472*
X0096930Y0118448D03*
X0099735Y0105518D03*
D473*
X0099720Y0105503D03*
D474*
X0096495Y0106411D03*
X0099720Y0109081D03*
D475*
X0099720Y0115771D03*
D476*
X0099720Y0120083D03*
D477*
X0099705Y0105481D03*
X0097200Y0102721D03*
D478*
X0099690Y0105458D03*
D479*
X0099675Y0105436D03*
D480*
X0098850Y0107896D03*
X0093000Y0098926D03*
X0099615Y0120016D03*
X0099630Y0120031D03*
X0099660Y0120046D03*
X0099675Y0120061D03*
X0098715Y0121576D03*
X0098700Y0121576D03*
X0098685Y0121561D03*
X0098655Y0121546D03*
X0098730Y0121591D03*
X0098760Y0121606D03*
X0098790Y0121621D03*
D481*
X0099660Y0105421D03*
D482*
X0099645Y0105398D03*
D483*
X0099645Y0109111D03*
D484*
X0099645Y0115658D03*
D485*
X0099630Y0105383D03*
D486*
X0099615Y0105361D03*
D487*
X0096300Y0106201D03*
X0099615Y0109126D03*
X0095475Y0111796D03*
X0090255Y0115951D03*
X0095115Y0100846D03*
X0095100Y0100831D03*
D488*
X0098235Y0103921D03*
X0098250Y0103936D03*
X0098760Y0104446D03*
X0098775Y0104461D03*
X0098925Y0115171D03*
X0099615Y0115621D03*
D489*
X0099600Y0105346D03*
D490*
X0099600Y0109126D03*
X0094815Y0104851D03*
X0095850Y0101191D03*
X0090225Y0104776D03*
X0086955Y0110341D03*
D491*
X0098205Y0103891D03*
X0098265Y0103951D03*
X0098790Y0104476D03*
X0098805Y0104491D03*
X0099600Y0115591D03*
D492*
X0099585Y0105323D03*
X0097350Y0102923D03*
X0094335Y0103268D03*
D493*
X0093225Y0099893D03*
X0090210Y0104798D03*
X0099585Y0109133D03*
X0090210Y0115883D03*
D494*
X0098940Y0115163D03*
X0098955Y0115163D03*
X0099585Y0115568D03*
X0098850Y0104543D03*
X0098835Y0104528D03*
D495*
X0099570Y0105308D03*
D496*
X0098895Y0104581D03*
X0098145Y0103831D03*
X0099570Y0115546D03*
D497*
X0099570Y0119986D03*
X0098520Y0121456D03*
D498*
X0087450Y0110341D03*
X0099555Y0105286D03*
D499*
X0099555Y0109141D03*
X0090105Y0104956D03*
X0090090Y0115711D03*
X0098175Y0117676D03*
D500*
X0099555Y0115523D03*
X0099000Y0115163D03*
X0098985Y0115163D03*
X0098925Y0104618D03*
X0098100Y0103778D03*
X0098085Y0103763D03*
D501*
X0099540Y0105263D03*
D502*
X0099000Y0104693D03*
X0098040Y0103718D03*
X0087585Y0110348D03*
X0099540Y0115493D03*
D503*
X0099525Y0105248D03*
D504*
X0099525Y0115471D03*
D505*
X0099375Y0115156D03*
X0087465Y0110341D03*
X0097455Y0103051D03*
X0099510Y0105226D03*
D506*
X0099060Y0104753D03*
X0097965Y0103643D03*
X0097950Y0103628D03*
X0099060Y0115163D03*
X0099510Y0115448D03*
D507*
X0099510Y0119941D03*
X0098490Y0121441D03*
X0098580Y0121501D03*
X0086535Y0110341D03*
X0098775Y0107866D03*
D508*
X0099495Y0105218D03*
X0097470Y0103073D03*
D509*
X0099495Y0115418D03*
D510*
X0099420Y0119873D03*
X0099495Y0119933D03*
X0098745Y0107858D03*
D511*
X0099480Y0105196D03*
X0097485Y0103096D03*
X0099360Y0115156D03*
D512*
X0099480Y0115403D03*
X0097860Y0103523D03*
X0097830Y0103493D03*
D513*
X0097515Y0103126D03*
X0099465Y0105181D03*
X0099330Y0115156D03*
D514*
X0099390Y0115208D03*
X0099450Y0105158D03*
X0099435Y0105143D03*
X0097530Y0103148D03*
X0094305Y0103118D03*
D515*
X0099240Y0104933D03*
X0099255Y0104948D03*
X0099450Y0115343D03*
D516*
X0099420Y0105128D03*
D517*
X0099420Y0115276D03*
D518*
X0099285Y0115156D03*
X0099405Y0105106D03*
D519*
X0099390Y0105098D03*
X0097605Y0103238D03*
X0099405Y0115238D03*
D520*
X0099255Y0115156D03*
X0087510Y0110341D03*
X0099360Y0105061D03*
X0099375Y0105076D03*
D521*
X0099345Y0105046D03*
D522*
X0099345Y0115148D03*
D523*
X0095220Y0111803D03*
X0098670Y0107828D03*
X0099345Y0119813D03*
X0098295Y0121298D03*
D524*
X0099240Y0115156D03*
X0099330Y0105031D03*
X0097665Y0103306D03*
X0094290Y0103036D03*
D525*
X0099315Y0105008D03*
X0087525Y0110348D03*
D526*
X0099315Y0109178D03*
X0096630Y0101813D03*
D527*
X0099315Y0115156D03*
D528*
X0099225Y0115156D03*
X0099210Y0115156D03*
X0099300Y0105001D03*
D529*
X0099300Y0109186D03*
X0095640Y0111796D03*
X0095535Y0101236D03*
D530*
X0099270Y0104971D03*
D531*
X0099270Y0109186D03*
X0096645Y0101836D03*
X0096420Y0117946D03*
D532*
X0099270Y0115156D03*
D533*
X0099270Y0119753D03*
X0098145Y0121178D03*
D534*
X0099270Y0121846D03*
D535*
X0099255Y0109186D03*
X0099240Y0109186D03*
X0095625Y0101311D03*
X0095610Y0101296D03*
D536*
X0099240Y0121846D03*
X0099255Y0121846D03*
D537*
X0098100Y0121141D03*
X0099240Y0119716D03*
X0099225Y0119701D03*
X0086550Y0110341D03*
X0098580Y0107791D03*
D538*
X0099195Y0104888D03*
D539*
X0099195Y0109186D03*
D540*
X0099195Y0115156D03*
D541*
X0099135Y0115156D03*
X0087555Y0110341D03*
X0099180Y0104866D03*
D542*
X0087540Y0110341D03*
X0099180Y0115156D03*
D543*
X0099165Y0115156D03*
D544*
X0099105Y0115156D03*
X0099150Y0104836D03*
X0099135Y0104821D03*
X0097890Y0103561D03*
X0097875Y0103546D03*
D545*
X0099120Y0104813D03*
D546*
X0099120Y0109186D03*
X0095745Y0111796D03*
D547*
X0099120Y0115163D03*
D548*
X0099120Y0119603D03*
X0098520Y0107768D03*
D549*
X0099105Y0104791D03*
X0099090Y0104776D03*
X0099075Y0104761D03*
X0097935Y0103606D03*
X0097905Y0103576D03*
X0099075Y0115156D03*
D550*
X0099105Y0109186D03*
D551*
X0099090Y0109186D03*
X0099075Y0109186D03*
D552*
X0099090Y0115163D03*
D553*
X0099045Y0115156D03*
X0099045Y0104731D03*
D554*
X0099045Y0109186D03*
D555*
X0098025Y0103703D03*
X0098010Y0103688D03*
X0099015Y0115163D03*
X0099030Y0115163D03*
D556*
X0098970Y0104656D03*
X0098070Y0103756D03*
D557*
X0098970Y0109178D03*
D558*
X0098970Y0115163D03*
D559*
X0098970Y0121726D03*
D560*
X0098955Y0104641D03*
X0098055Y0103741D03*
D561*
X0098940Y0109171D03*
X0098955Y0109171D03*
X0095835Y0111796D03*
X0096555Y0118111D03*
D562*
X0098940Y0104633D03*
D563*
X0098925Y0109171D03*
X0095865Y0111796D03*
D564*
X0098910Y0115163D03*
X0098685Y0104378D03*
X0098385Y0104078D03*
X0098310Y0104003D03*
D565*
X0098895Y0110161D03*
X0098895Y0113431D03*
X0097320Y0120256D03*
D566*
X0098895Y0116108D03*
D567*
X0098865Y0116416D03*
X0096510Y0106426D03*
X0095760Y0105916D03*
D568*
X0098220Y0103906D03*
X0098820Y0104506D03*
D569*
X0096870Y0106756D03*
X0095145Y0105496D03*
X0094695Y0100396D03*
X0090720Y0116506D03*
X0098820Y0116581D03*
D570*
X0098775Y0116678D03*
X0097005Y0119603D03*
X0097080Y0106928D03*
X0095610Y0106028D03*
X0095355Y0105803D03*
X0094575Y0100253D03*
D571*
X0095430Y0105886D03*
X0097155Y0106981D03*
X0098760Y0116701D03*
X0090885Y0116686D03*
D572*
X0098745Y0104438D03*
X0098670Y0104363D03*
X0098370Y0104063D03*
X0098295Y0103988D03*
D573*
X0095595Y0106043D03*
X0095520Y0105983D03*
X0086745Y0110348D03*
X0098745Y0116723D03*
X0097020Y0119648D03*
D574*
X0098745Y0119116D03*
X0096345Y0113041D03*
X0096345Y0110551D03*
X0091545Y0103666D03*
D575*
X0090930Y0103951D03*
X0097230Y0107041D03*
X0086730Y0110341D03*
X0090915Y0116716D03*
X0090930Y0116731D03*
X0098730Y0116746D03*
D576*
X0098700Y0116776D03*
X0098565Y0118711D03*
X0097335Y0107116D03*
X0086715Y0110341D03*
D577*
X0097395Y0107153D03*
X0098670Y0116813D03*
D578*
X0098655Y0107821D03*
D579*
X0098625Y0116858D03*
D580*
X0098610Y0104296D03*
X0098535Y0104221D03*
X0098460Y0104146D03*
D581*
X0091125Y0103816D03*
X0091110Y0116866D03*
X0098610Y0116866D03*
D582*
X0098595Y0104281D03*
X0098445Y0104131D03*
D583*
X0097545Y0107258D03*
X0098595Y0116873D03*
D584*
X0098595Y0118801D03*
X0091095Y0116851D03*
D585*
X0098595Y0121508D03*
D586*
X0098085Y0121133D03*
X0098565Y0107783D03*
D587*
X0096810Y0102136D03*
X0098535Y0117841D03*
X0096585Y0118141D03*
D588*
X0098475Y0117833D03*
X0093315Y0100283D03*
D589*
X0096750Y0102031D03*
X0087150Y0110341D03*
X0098460Y0117826D03*
D590*
X0098445Y0117818D03*
X0096495Y0118043D03*
D591*
X0098445Y0121403D03*
D592*
X0098430Y0117818D03*
X0096480Y0118028D03*
X0093300Y0100223D03*
D593*
X0094605Y0104288D03*
X0098400Y0117803D03*
D594*
X0098385Y0117803D03*
X0096675Y0101903D03*
D595*
X0098370Y0117788D03*
D596*
X0098355Y0117788D03*
X0094635Y0104378D03*
D597*
X0094650Y0104423D03*
X0095580Y0101273D03*
X0087075Y0110348D03*
X0098340Y0117773D03*
D598*
X0098325Y0117773D03*
X0096405Y0117923D03*
X0095715Y0101318D03*
D599*
X0098295Y0117758D03*
D600*
X0098235Y0117721D03*
X0095550Y0111796D03*
D601*
X0098220Y0121246D03*
D602*
X0098160Y0117661D03*
X0096255Y0106156D03*
X0095835Y0105856D03*
X0095175Y0100906D03*
X0095160Y0100891D03*
X0090180Y0104836D03*
X0090165Y0104866D03*
D603*
X0091920Y0103621D03*
X0091995Y0103621D03*
X0092070Y0103621D03*
X0092145Y0103621D03*
X0092220Y0103621D03*
X0092295Y0103621D03*
X0092370Y0103621D03*
X0092445Y0103621D03*
X0092520Y0103621D03*
X0092595Y0103621D03*
X0092670Y0103621D03*
X0092745Y0103621D03*
X0092820Y0103621D03*
X0092895Y0103621D03*
X0092970Y0103621D03*
X0093045Y0103621D03*
X0093120Y0103621D03*
X0093195Y0103621D03*
X0093270Y0103621D03*
X0093345Y0103621D03*
X0093420Y0103621D03*
X0093495Y0103621D03*
X0098145Y0107596D03*
D604*
X0096495Y0101543D03*
X0098145Y0117653D03*
D605*
X0098115Y0117623D03*
X0090330Y0116048D03*
X0090315Y0116033D03*
X0096360Y0106268D03*
X0095880Y0101168D03*
D606*
X0096435Y0106351D03*
X0098085Y0117601D03*
D607*
X0098025Y0117541D03*
X0090555Y0116326D03*
X0096600Y0106516D03*
X0095955Y0101101D03*
D608*
X0097995Y0103673D03*
D609*
X0097995Y0117503D03*
D610*
X0097965Y0117466D03*
X0095685Y0105976D03*
D611*
X0097920Y0103591D03*
X0087570Y0110341D03*
D612*
X0090795Y0116596D03*
X0097920Y0117406D03*
D613*
X0097920Y0120983D03*
D614*
X0097905Y0117376D03*
X0090840Y0116641D03*
X0095325Y0105766D03*
X0090840Y0104041D03*
X0094590Y0100276D03*
X0096315Y0101116D03*
D615*
X0097845Y0103508D03*
D616*
X0097845Y0107438D03*
X0091395Y0103703D03*
D617*
X0097785Y0103441D03*
D618*
X0097770Y0103426D03*
D619*
X0097755Y0103403D03*
D620*
X0097740Y0103396D03*
D621*
X0097695Y0103336D03*
D622*
X0097680Y0103321D03*
D623*
X0097650Y0103291D03*
D624*
X0097635Y0103268D03*
D625*
X0097620Y0103253D03*
D626*
X0097620Y0107296D03*
D627*
X0097590Y0103216D03*
X0097575Y0103201D03*
D628*
X0097560Y0103178D03*
D629*
X0097545Y0103163D03*
D630*
X0097515Y0107236D03*
X0097125Y0119911D03*
D631*
X0097500Y0103103D03*
D632*
X0097440Y0103036D03*
X0097425Y0103021D03*
D633*
X0094425Y0100058D03*
X0097440Y0107183D03*
D634*
X0097425Y0107176D03*
X0091035Y0103876D03*
X0086700Y0110341D03*
D635*
X0097410Y0102998D03*
D636*
X0096165Y0100906D03*
X0091050Y0103861D03*
X0097410Y0107161D03*
X0091050Y0116821D03*
D637*
X0097395Y0102976D03*
D638*
X0097395Y0120376D03*
D639*
X0097380Y0102961D03*
D640*
X0096150Y0100921D03*
X0097380Y0107146D03*
X0095280Y0111796D03*
D641*
X0097365Y0102938D03*
D642*
X0097335Y0102901D03*
X0087435Y0110341D03*
D643*
X0097320Y0102886D03*
X0093495Y0100846D03*
D644*
X0094470Y0100126D03*
X0097320Y0107101D03*
D645*
X0097305Y0102863D03*
D646*
X0097290Y0102841D03*
D647*
X0097275Y0102826D03*
X0087405Y0110341D03*
D648*
X0097260Y0102803D03*
D649*
X0097245Y0102781D03*
D650*
X0090945Y0103943D03*
X0097245Y0107048D03*
D651*
X0097230Y0102766D03*
X0087390Y0110341D03*
D652*
X0097215Y0102743D03*
D653*
X0097215Y0107033D03*
D654*
X0097185Y0102706D03*
D655*
X0095475Y0105938D03*
X0095490Y0105953D03*
X0097185Y0107003D03*
D656*
X0097170Y0102683D03*
D657*
X0097155Y0102661D03*
D658*
X0097140Y0102646D03*
D659*
X0097125Y0102623D03*
D660*
X0097110Y0102593D03*
D661*
X0097095Y0102578D03*
D662*
X0097095Y0106936D03*
D663*
X0097080Y0102556D03*
D664*
X0094440Y0100088D03*
X0091035Y0116813D03*
X0097080Y0119813D03*
D665*
X0096840Y0118373D03*
X0097065Y0102533D03*
D666*
X0096075Y0100988D03*
X0090825Y0104063D03*
X0095310Y0105743D03*
X0097050Y0106898D03*
X0090825Y0116618D03*
D667*
X0090960Y0116753D03*
X0097050Y0119738D03*
X0090960Y0103928D03*
D668*
X0097035Y0102488D03*
X0096285Y0111803D03*
D669*
X0097020Y0102466D03*
D670*
X0095295Y0105721D03*
X0097020Y0106876D03*
D671*
X0097005Y0102451D03*
X0096225Y0111796D03*
X0096210Y0111796D03*
D672*
X0096750Y0118298D03*
X0094440Y0103718D03*
X0096975Y0102398D03*
D673*
X0095160Y0105518D03*
X0095655Y0105998D03*
X0096975Y0119483D03*
D674*
X0096960Y0102376D03*
D675*
X0096945Y0102353D03*
D676*
X0096945Y0106816D03*
D677*
X0096945Y0118456D03*
D678*
X0096930Y0102323D03*
D679*
X0096915Y0102308D03*
D680*
X0096900Y0118426D03*
D681*
X0096660Y0118216D03*
X0096885Y0102256D03*
D682*
X0096885Y0106763D03*
X0090735Y0104153D03*
X0090735Y0116528D03*
D683*
X0096885Y0118411D03*
X0093435Y0100681D03*
D684*
X0094395Y0103538D03*
X0096870Y0118403D03*
D685*
X0095955Y0111796D03*
X0096855Y0102211D03*
D686*
X0096855Y0118388D03*
D687*
X0096840Y0106733D03*
D688*
X0096825Y0102158D03*
D689*
X0096795Y0102113D03*
D690*
X0096795Y0106688D03*
D691*
X0096270Y0111796D03*
X0096795Y0118336D03*
D692*
X0096780Y0118328D03*
X0096240Y0111803D03*
X0087300Y0110348D03*
D693*
X0095085Y0105398D03*
X0096765Y0106658D03*
X0090660Y0104243D03*
D694*
X0096765Y0118313D03*
D695*
X0096735Y0118291D03*
D696*
X0096720Y0101978D03*
D697*
X0096720Y0106628D03*
X0090645Y0104258D03*
D698*
X0087270Y0110341D03*
X0096720Y0118276D03*
D699*
X0096705Y0106606D03*
X0095700Y0105961D03*
X0095040Y0105316D03*
X0094800Y0100516D03*
X0094785Y0100501D03*
D700*
X0096075Y0111796D03*
X0096090Y0111796D03*
X0096705Y0118261D03*
D701*
X0096690Y0101926D03*
D702*
X0096660Y0101866D03*
X0087090Y0110341D03*
D703*
X0096645Y0106553D03*
D704*
X0096570Y0106486D03*
D705*
X0096540Y0101633D03*
D706*
X0096525Y0106441D03*
X0096540Y0106456D03*
X0090480Y0116236D03*
D707*
X0096450Y0106358D03*
X0095775Y0105908D03*
D708*
X0096435Y0101408D03*
X0090450Y0104483D03*
D709*
X0095685Y0101348D03*
X0096435Y0117968D03*
D710*
X0096420Y0106328D03*
X0095895Y0101153D03*
D711*
X0096390Y0101296D03*
X0094815Y0100531D03*
X0090600Y0104311D03*
X0090600Y0116371D03*
D712*
X0096345Y0101191D03*
D713*
X0096345Y0106253D03*
D714*
X0096315Y0111796D03*
X0096300Y0111796D03*
D715*
X0095415Y0105871D03*
X0090885Y0103996D03*
X0096300Y0101071D03*
D716*
X0096285Y0101033D03*
D717*
X0095130Y0100861D03*
X0096285Y0106186D03*
X0090225Y0115906D03*
D718*
X0096270Y0100988D03*
D719*
X0096270Y0106171D03*
D720*
X0096270Y0117691D03*
D721*
X0096255Y0111796D03*
D722*
X0089895Y0115381D03*
X0090045Y0115636D03*
X0089520Y0114736D03*
X0089295Y0114346D03*
X0089220Y0114211D03*
X0089070Y0113956D03*
X0088995Y0113821D03*
X0088770Y0113431D03*
X0088395Y0112786D03*
X0088245Y0112531D03*
X0088170Y0112396D03*
X0088170Y0108286D03*
X0088320Y0108031D03*
X0088395Y0107896D03*
X0088620Y0107506D03*
X0088995Y0106861D03*
X0089145Y0106606D03*
X0089220Y0106471D03*
X0089295Y0106336D03*
X0089445Y0106081D03*
X0089520Y0105946D03*
X0089745Y0105556D03*
X0089820Y0105436D03*
X0090045Y0105046D03*
X0094770Y0104746D03*
X0096195Y0106081D03*
X0095820Y0101221D03*
D723*
X0096195Y0111803D03*
D724*
X0089880Y0115358D03*
X0089535Y0114758D03*
X0089490Y0114683D03*
X0088755Y0113408D03*
X0088365Y0112733D03*
X0088635Y0107483D03*
X0089025Y0106808D03*
X0089415Y0106133D03*
X0089760Y0105533D03*
X0089805Y0105458D03*
X0096180Y0106058D03*
X0095235Y0100958D03*
D725*
X0096165Y0111803D03*
D726*
X0096150Y0111796D03*
X0096135Y0111796D03*
D727*
X0088020Y0108586D03*
X0096120Y0105991D03*
D728*
X0096120Y0111796D03*
D729*
X0096105Y0111796D03*
D730*
X0096060Y0105916D03*
X0095385Y0101101D03*
X0087030Y0110341D03*
D731*
X0096045Y0101018D03*
D732*
X0095985Y0101071D03*
D733*
X0095970Y0105788D03*
D734*
X0095970Y0111796D03*
D735*
X0094890Y0105023D03*
X0095910Y0101138D03*
X0094980Y0100703D03*
X0090405Y0104543D03*
X0086910Y0110348D03*
D736*
X0095895Y0105811D03*
D737*
X0095865Y0101183D03*
D738*
X0095850Y0105848D03*
X0090075Y0104993D03*
X0090060Y0105023D03*
X0090105Y0115733D03*
D739*
X0095850Y0111803D03*
D740*
X0090270Y0115966D03*
X0090270Y0104716D03*
X0095820Y0105871D03*
D741*
X0095745Y0101296D03*
X0095445Y0101161D03*
X0095595Y0111796D03*
D742*
X0095700Y0111796D03*
D743*
X0095685Y0111796D03*
D744*
X0095670Y0101348D03*
D745*
X0095670Y0111796D03*
D746*
X0095640Y0106013D03*
X0095235Y0105638D03*
X0094635Y0100328D03*
D747*
X0095610Y0111796D03*
X0087975Y0111946D03*
D748*
X0095595Y0101288D03*
D749*
X0095565Y0101258D03*
D750*
X0095355Y0101071D03*
X0095565Y0111796D03*
D751*
X0095550Y0106021D03*
X0090900Y0103981D03*
D752*
X0093270Y0100096D03*
X0095520Y0101221D03*
D753*
X0088920Y0106988D03*
X0088695Y0107378D03*
X0088470Y0107768D03*
X0088095Y0108428D03*
X0088095Y0112253D03*
X0088470Y0112913D03*
X0088695Y0113303D03*
X0088920Y0113693D03*
X0089370Y0114473D03*
X0089595Y0114863D03*
X0089820Y0115253D03*
X0095520Y0111803D03*
D754*
X0095505Y0111796D03*
X0095190Y0100921D03*
D755*
X0095460Y0111803D03*
D756*
X0095445Y0111796D03*
D757*
X0095415Y0111803D03*
X0094935Y0105113D03*
X0090480Y0104453D03*
D758*
X0095370Y0105818D03*
D759*
X0095370Y0111796D03*
D760*
X0095310Y0111796D03*
D761*
X0095295Y0101018D03*
D762*
X0095265Y0105683D03*
D763*
X0095220Y0100951D03*
X0089970Y0105166D03*
X0089895Y0105301D03*
X0089670Y0105691D03*
X0089595Y0105826D03*
X0089370Y0106216D03*
X0089070Y0106726D03*
X0088845Y0107116D03*
X0088770Y0107251D03*
X0088545Y0107641D03*
X0088320Y0112651D03*
X0088545Y0113041D03*
X0088620Y0113176D03*
X0088845Y0113566D03*
X0089445Y0114601D03*
X0089670Y0114991D03*
X0089745Y0115126D03*
X0089970Y0115516D03*
D764*
X0095220Y0105608D03*
D765*
X0095145Y0100876D03*
D766*
X0094710Y0100418D03*
X0095130Y0105473D03*
X0090705Y0116498D03*
D767*
X0086940Y0110341D03*
X0095085Y0100816D03*
D768*
X0095070Y0100801D03*
D769*
X0094770Y0100486D03*
X0095070Y0105376D03*
X0090645Y0116431D03*
D770*
X0090390Y0116123D03*
X0090390Y0104558D03*
X0093210Y0099818D03*
X0095010Y0100733D03*
D771*
X0094995Y0100726D03*
D772*
X0094995Y0105233D03*
D773*
X0094920Y0100643D03*
D774*
X0094920Y0105083D03*
D775*
X0094845Y0104918D03*
D776*
X0094800Y0104821D03*
X0090180Y0115846D03*
D777*
X0090660Y0116438D03*
X0094755Y0100463D03*
D778*
X0094695Y0104551D03*
D779*
X0090795Y0104093D03*
X0094620Y0100313D03*
D780*
X0094620Y0104341D03*
D781*
X0094575Y0104198D03*
X0087135Y0110348D03*
D782*
X0090900Y0116701D03*
X0094530Y0100201D03*
D783*
X0094485Y0100141D03*
D784*
X0094470Y0103838D03*
D785*
X0094455Y0103778D03*
D786*
X0094425Y0103666D03*
X0093405Y0100591D03*
D787*
X0094395Y0100021D03*
D788*
X0094380Y0103471D03*
D789*
X0094365Y0103411D03*
X0093465Y0100771D03*
D790*
X0093480Y0100808D03*
X0094350Y0103343D03*
D791*
X0091320Y0103726D03*
X0094320Y0099916D03*
D792*
X0094320Y0103193D03*
D793*
X0094260Y0102188D03*
D794*
X0094245Y0102173D03*
D795*
X0094230Y0102151D03*
X0087960Y0110341D03*
D796*
X0094215Y0102136D03*
D797*
X0094200Y0102113D03*
D798*
X0094185Y0102098D03*
D799*
X0094170Y0102076D03*
D800*
X0094155Y0102061D03*
X0087930Y0110341D03*
D801*
X0094140Y0102038D03*
D802*
X0094125Y0102023D03*
X0087915Y0110348D03*
D803*
X0094110Y0101993D03*
D804*
X0094095Y0101978D03*
D805*
X0094080Y0101956D03*
D806*
X0094065Y0101933D03*
D807*
X0094050Y0101911D03*
D808*
X0094035Y0101888D03*
D809*
X0094020Y0101866D03*
D810*
X0094005Y0101843D03*
D811*
X0093990Y0101821D03*
D812*
X0093975Y0101798D03*
D813*
X0093960Y0101776D03*
X0087825Y0110341D03*
D814*
X0093945Y0101753D03*
D815*
X0093930Y0101723D03*
X0093510Y0101498D03*
D816*
X0093915Y0101701D03*
D817*
X0093900Y0101678D03*
X0093615Y0101528D03*
X0093600Y0101528D03*
D818*
X0093690Y0101551D03*
X0093705Y0101551D03*
X0093885Y0101656D03*
D819*
X0093870Y0101626D03*
D820*
X0093855Y0101603D03*
X0093840Y0101588D03*
X0087750Y0110348D03*
D821*
X0093810Y0101581D03*
X0093825Y0101581D03*
D822*
X0093795Y0101573D03*
D823*
X0093780Y0101573D03*
D824*
X0093765Y0101566D03*
X0093750Y0101566D03*
X0087765Y0110341D03*
D825*
X0093735Y0101558D03*
D826*
X0093720Y0101558D03*
D827*
X0093675Y0101543D03*
X0093660Y0101543D03*
D828*
X0093645Y0101536D03*
D829*
X0093630Y0101536D03*
D830*
X0093585Y0101521D03*
D831*
X0093570Y0101521D03*
D832*
X0093555Y0101513D03*
X0093540Y0101513D03*
D833*
X0093525Y0101506D03*
D834*
X0093450Y0100726D03*
X0087375Y0110341D03*
D835*
X0093420Y0100636D03*
D836*
X0093360Y0100448D03*
D837*
X0093345Y0100396D03*
D838*
X0093120Y0099368D03*
X0091095Y0103838D03*
D839*
X0093015Y0098971D03*
D840*
X0092910Y0098716D03*
D841*
X0092895Y0098693D03*
D842*
X0092820Y0098566D03*
D843*
X0092745Y0098461D03*
D844*
X0092730Y0098446D03*
D845*
X0092685Y0098393D03*
D846*
X0092640Y0098341D03*
D847*
X0092595Y0098303D03*
D848*
X0092535Y0098251D03*
D849*
X0092520Y0098236D03*
D850*
X0092505Y0098221D03*
D851*
X0091620Y0103658D03*
D852*
X0091245Y0103756D03*
D853*
X0090975Y0103921D03*
D854*
X0090945Y0116746D03*
D855*
X0090870Y0104018D03*
D856*
X0090870Y0116671D03*
D857*
X0090720Y0104176D03*
D858*
X0090540Y0104378D03*
X0090525Y0116288D03*
D859*
X0090495Y0116251D03*
X0090495Y0104431D03*
D860*
X0090420Y0104528D03*
D861*
X0090345Y0104618D03*
X0090345Y0116063D03*
D862*
X0090195Y0115868D03*
D863*
X0090120Y0115756D03*
X0090120Y0104926D03*
D864*
X0088020Y0112096D03*
D865*
X0087945Y0110341D03*
D866*
X0087900Y0110341D03*
D867*
X0087885Y0110341D03*
D868*
X0087870Y0110341D03*
D869*
X0087855Y0110341D03*
D870*
X0087840Y0110341D03*
D871*
X0087810Y0110348D03*
D872*
X0087795Y0110341D03*
D873*
X0087780Y0110341D03*
D874*
X0087735Y0110341D03*
D875*
X0087720Y0110341D03*
D876*
X0087705Y0110341D03*
D877*
X0087690Y0110348D03*
D878*
X0087675Y0110341D03*
D879*
X0087660Y0110341D03*
D880*
X0087645Y0110341D03*
D881*
X0087630Y0110341D03*
D882*
X0087495Y0110341D03*
D883*
X0087480Y0110341D03*
D884*
X0087420Y0110348D03*
D885*
X0087345Y0110341D03*
D886*
X0087330Y0110341D03*
D887*
X0087285Y0110341D03*
D888*
X0087240Y0110341D03*
D889*
X0087195Y0110348D03*
D890*
X0087120Y0110341D03*
D891*
X0087045Y0110341D03*
D892*
X0087000Y0110341D03*
D893*
X0086895Y0110341D03*
D894*
X0086850Y0110341D03*
D895*
X0086820Y0110341D03*
D896*
X0173595Y0150233D03*
D897*
X0134845Y0120933D03*
D898*
X0153264Y0112220D02*
X0153266Y0112259D01*
X0153272Y0112298D01*
X0153282Y0112336D01*
X0153295Y0112373D01*
X0153312Y0112408D01*
X0153332Y0112442D01*
X0153356Y0112473D01*
X0153383Y0112502D01*
X0153412Y0112528D01*
X0153444Y0112551D01*
X0153478Y0112571D01*
X0153514Y0112587D01*
X0153551Y0112599D01*
X0153590Y0112608D01*
X0153629Y0112613D01*
X0153668Y0112614D01*
X0153707Y0112611D01*
X0153746Y0112604D01*
X0153783Y0112593D01*
X0153820Y0112579D01*
X0153855Y0112561D01*
X0153888Y0112540D01*
X0153919Y0112515D01*
X0153947Y0112488D01*
X0153972Y0112458D01*
X0153994Y0112425D01*
X0154013Y0112391D01*
X0154028Y0112355D01*
X0154040Y0112317D01*
X0154048Y0112279D01*
X0154052Y0112240D01*
X0154052Y0112200D01*
X0154048Y0112161D01*
X0154040Y0112123D01*
X0154028Y0112085D01*
X0154013Y0112049D01*
X0153994Y0112015D01*
X0153972Y0111982D01*
X0153947Y0111952D01*
X0153919Y0111925D01*
X0153888Y0111900D01*
X0153855Y0111879D01*
X0153820Y0111861D01*
X0153783Y0111847D01*
X0153746Y0111836D01*
X0153707Y0111829D01*
X0153668Y0111826D01*
X0153629Y0111827D01*
X0153590Y0111832D01*
X0153551Y0111841D01*
X0153514Y0111853D01*
X0153478Y0111869D01*
X0153444Y0111889D01*
X0153412Y0111912D01*
X0153383Y0111938D01*
X0153356Y0111967D01*
X0153332Y0111998D01*
X0153312Y0112032D01*
X0153295Y0112067D01*
X0153282Y0112104D01*
X0153272Y0112142D01*
X0153266Y0112181D01*
X0153264Y0112220D01*
X0098575Y0193783D02*
X0098577Y0193822D01*
X0098583Y0193861D01*
X0098593Y0193899D01*
X0098606Y0193936D01*
X0098623Y0193971D01*
X0098643Y0194005D01*
X0098667Y0194036D01*
X0098694Y0194065D01*
X0098723Y0194091D01*
X0098755Y0194114D01*
X0098789Y0194134D01*
X0098825Y0194150D01*
X0098862Y0194162D01*
X0098901Y0194171D01*
X0098940Y0194176D01*
X0098979Y0194177D01*
X0099018Y0194174D01*
X0099057Y0194167D01*
X0099094Y0194156D01*
X0099131Y0194142D01*
X0099166Y0194124D01*
X0099199Y0194103D01*
X0099230Y0194078D01*
X0099258Y0194051D01*
X0099283Y0194021D01*
X0099305Y0193988D01*
X0099324Y0193954D01*
X0099339Y0193918D01*
X0099351Y0193880D01*
X0099359Y0193842D01*
X0099363Y0193803D01*
X0099363Y0193763D01*
X0099359Y0193724D01*
X0099351Y0193686D01*
X0099339Y0193648D01*
X0099324Y0193612D01*
X0099305Y0193578D01*
X0099283Y0193545D01*
X0099258Y0193515D01*
X0099230Y0193488D01*
X0099199Y0193463D01*
X0099166Y0193442D01*
X0099131Y0193424D01*
X0099094Y0193410D01*
X0099057Y0193399D01*
X0099018Y0193392D01*
X0098979Y0193389D01*
X0098940Y0193390D01*
X0098901Y0193395D01*
X0098862Y0193404D01*
X0098825Y0193416D01*
X0098789Y0193432D01*
X0098755Y0193452D01*
X0098723Y0193475D01*
X0098694Y0193501D01*
X0098667Y0193530D01*
X0098643Y0193561D01*
X0098623Y0193595D01*
X0098606Y0193630D01*
X0098593Y0193667D01*
X0098583Y0193705D01*
X0098577Y0193744D01*
X0098575Y0193783D01*
M02*
