G75*
%MOIN*%
%OFA0B0*%
%FSLAX25Y25*%
%IPPOS*%
%LPD*%
%AMOC8*
5,1,8,0,0,1.08239X$1,22.5*
%
%ADD10C,0.00100*%
%ADD11C,0.00591*%
%ADD12C,0.09500*%
%ADD13C,0.00900*%
%ADD14C,0.00354*%
%ADD15C,0.00661*%
%ADD16R,0.04000X0.03800*%
%ADD17R,0.03800X0.04000*%
%ADD18R,0.03937X0.03150*%
%ADD19R,0.04724X0.02165*%
%ADD20C,0.03740*%
%ADD21R,0.05315X0.01575*%
%ADD22C,0.04000*%
%ADD23C,0.04724*%
%ADD24R,0.01181X0.02598*%
%ADD25R,0.01969X0.03543*%
%ADD26R,0.03937X0.03937*%
%ADD27R,0.04921X0.01969*%
%ADD28R,0.04921X0.03937*%
%ADD29R,0.06425X0.06425*%
%ADD30C,0.06425*%
%ADD31C,0.00266*%
%ADD32R,0.07874X0.07874*%
%ADD33R,0.03543X0.03937*%
%ADD34C,0.01000*%
%ADD35C,0.02400*%
%ADD36C,0.02000*%
%ADD37C,0.00600*%
%ADD38C,0.01600*%
%ADD39C,0.01200*%
%ADD40C,0.01100*%
%ADD41C,0.04000*%
%ADD42C,0.03937*%
%ADD43C,0.01575*%
D10*
X0090095Y0095933D02*
X0210345Y0095933D01*
X0210490Y0095939D01*
X0210636Y0095948D01*
X0210781Y0095961D01*
X0210925Y0095978D01*
X0211069Y0096000D01*
X0211213Y0096024D01*
X0211356Y0096053D01*
X0211497Y0096086D01*
X0211638Y0096122D01*
X0211778Y0096163D01*
X0211917Y0096207D01*
X0212055Y0096255D01*
X0212191Y0096306D01*
X0212325Y0096361D01*
X0212459Y0096420D01*
X0212590Y0096483D01*
X0212720Y0096549D01*
X0212848Y0096618D01*
X0212974Y0096691D01*
X0213098Y0096767D01*
X0213220Y0096847D01*
X0213340Y0096930D01*
X0213457Y0097016D01*
X0213572Y0097105D01*
X0213685Y0097197D01*
X0213795Y0097293D01*
X0213902Y0097391D01*
X0214007Y0097492D01*
X0214109Y0097596D01*
X0214208Y0097703D01*
X0214304Y0097812D01*
X0214397Y0097924D01*
X0214487Y0098038D01*
X0214574Y0098155D01*
X0214658Y0098274D01*
X0214739Y0098395D01*
X0214816Y0098519D01*
X0214890Y0098644D01*
X0214960Y0098772D01*
X0215027Y0098901D01*
X0215090Y0099032D01*
X0215150Y0099165D01*
X0215207Y0099299D01*
X0215259Y0099435D01*
X0215308Y0099572D01*
X0215353Y0099710D01*
X0215394Y0099850D01*
X0215432Y0099991D01*
X0215466Y0100132D01*
X0215496Y0100275D01*
X0215522Y0100418D01*
X0215544Y0100562D01*
X0215562Y0100706D01*
X0215577Y0100851D01*
X0215587Y0100996D01*
X0215593Y0101142D01*
X0215596Y0101287D01*
X0215595Y0101433D01*
X0215595Y0191433D01*
X0215596Y0191434D02*
X0215592Y0191582D01*
X0215584Y0191729D01*
X0215573Y0191877D01*
X0215557Y0192024D01*
X0215538Y0192171D01*
X0215515Y0192318D01*
X0215488Y0192463D01*
X0215457Y0192608D01*
X0215422Y0192752D01*
X0215383Y0192895D01*
X0215341Y0193037D01*
X0215295Y0193177D01*
X0215245Y0193317D01*
X0215191Y0193455D01*
X0215134Y0193591D01*
X0215073Y0193726D01*
X0215008Y0193860D01*
X0214940Y0193991D01*
X0214869Y0194121D01*
X0214794Y0194249D01*
X0214715Y0194375D01*
X0214634Y0194498D01*
X0214549Y0194619D01*
X0214461Y0194739D01*
X0214370Y0194855D01*
X0214275Y0194969D01*
X0214178Y0195081D01*
X0214078Y0195190D01*
X0213975Y0195296D01*
X0213869Y0195400D01*
X0213760Y0195501D01*
X0213649Y0195598D01*
X0213535Y0195693D01*
X0213419Y0195785D01*
X0213300Y0195873D01*
X0213179Y0195959D01*
X0213056Y0196041D01*
X0212931Y0196120D01*
X0212803Y0196195D01*
X0212674Y0196267D01*
X0212542Y0196336D01*
X0212409Y0196401D01*
X0212275Y0196462D01*
X0212138Y0196520D01*
X0212000Y0196574D01*
X0211861Y0196625D01*
X0211721Y0196672D01*
X0211579Y0196715D01*
X0211436Y0196754D01*
X0211292Y0196790D01*
X0211148Y0196821D01*
X0211002Y0196849D01*
X0210856Y0196873D01*
X0210709Y0196893D01*
X0210562Y0196909D01*
X0210415Y0196921D01*
X0210267Y0196929D01*
X0210119Y0196933D01*
X0209970Y0196934D01*
X0209970Y0196933D02*
X0084720Y0196933D01*
X0084720Y0101183D01*
X0084724Y0101040D01*
X0084732Y0100896D01*
X0084743Y0100753D01*
X0084758Y0100609D01*
X0084777Y0100467D01*
X0084800Y0100325D01*
X0084827Y0100183D01*
X0084858Y0100043D01*
X0084892Y0099903D01*
X0084931Y0099764D01*
X0084973Y0099627D01*
X0085018Y0099490D01*
X0085068Y0099355D01*
X0085121Y0099222D01*
X0085177Y0099089D01*
X0085238Y0098959D01*
X0085301Y0098830D01*
X0085369Y0098702D01*
X0085439Y0098577D01*
X0085513Y0098453D01*
X0085590Y0098332D01*
X0085671Y0098213D01*
X0085755Y0098096D01*
X0085841Y0097981D01*
X0085931Y0097869D01*
X0086024Y0097759D01*
X0086120Y0097652D01*
X0086219Y0097547D01*
X0086321Y0097445D01*
X0086425Y0097346D01*
X0086532Y0097250D01*
X0086641Y0097156D01*
X0086753Y0097066D01*
X0086868Y0096979D01*
X0086984Y0096895D01*
X0087103Y0096814D01*
X0087224Y0096736D01*
X0087348Y0096662D01*
X0087473Y0096591D01*
X0087600Y0096523D01*
X0087729Y0096459D01*
X0087859Y0096398D01*
X0087991Y0096341D01*
X0088125Y0096288D01*
X0088260Y0096238D01*
X0088396Y0096192D01*
X0088533Y0096149D01*
X0088672Y0096110D01*
X0088812Y0096075D01*
X0088952Y0096044D01*
X0089093Y0096017D01*
X0089235Y0095993D01*
X0089378Y0095974D01*
X0089521Y0095958D01*
X0089664Y0095946D01*
X0089808Y0095938D01*
X0089952Y0095934D01*
X0090096Y0095933D01*
D11*
X0122741Y0126319D02*
X0124119Y0126319D01*
X0124119Y0124547D01*
X0122741Y0124547D01*
X0122741Y0126319D01*
X0122741Y0125137D02*
X0124119Y0125137D01*
X0124119Y0125727D02*
X0122741Y0125727D01*
X0122741Y0126317D02*
X0124119Y0126317D01*
X0124119Y0130819D02*
X0122741Y0130819D01*
X0124119Y0130819D02*
X0124119Y0129047D01*
X0122741Y0129047D01*
X0122741Y0130819D01*
X0122741Y0129637D02*
X0124119Y0129637D01*
X0124119Y0130227D02*
X0122741Y0130227D01*
X0122741Y0130817D02*
X0124119Y0130817D01*
X0124119Y0135319D02*
X0122741Y0135319D01*
X0124119Y0135319D02*
X0124119Y0133547D01*
X0122741Y0133547D01*
X0122741Y0135319D01*
X0122741Y0134137D02*
X0124119Y0134137D01*
X0124119Y0134727D02*
X0122741Y0134727D01*
X0122741Y0135317D02*
X0124119Y0135317D01*
X0127071Y0135319D02*
X0128449Y0135319D01*
X0128449Y0133547D01*
X0127071Y0133547D01*
X0127071Y0135319D01*
X0127071Y0134137D02*
X0128449Y0134137D01*
X0128449Y0134727D02*
X0127071Y0134727D01*
X0127071Y0135317D02*
X0128449Y0135317D01*
X0128449Y0130819D02*
X0127071Y0130819D01*
X0128449Y0130819D02*
X0128449Y0129047D01*
X0127071Y0129047D01*
X0127071Y0130819D01*
X0127071Y0129637D02*
X0128449Y0129637D01*
X0128449Y0130227D02*
X0127071Y0130227D01*
X0127071Y0130817D02*
X0128449Y0130817D01*
X0128449Y0126319D02*
X0127071Y0126319D01*
X0128449Y0126319D02*
X0128449Y0124547D01*
X0127071Y0124547D01*
X0127071Y0126319D01*
X0127071Y0125137D02*
X0128449Y0125137D01*
X0128449Y0125727D02*
X0127071Y0125727D01*
X0127071Y0126317D02*
X0128449Y0126317D01*
X0174741Y0126547D02*
X0176119Y0126547D01*
X0174741Y0126547D02*
X0174741Y0128319D01*
X0176119Y0128319D01*
X0176119Y0126547D01*
X0176119Y0127137D02*
X0174741Y0127137D01*
X0174741Y0127727D02*
X0176119Y0127727D01*
X0176119Y0128317D02*
X0174741Y0128317D01*
X0179071Y0126547D02*
X0180449Y0126547D01*
X0179071Y0126547D02*
X0179071Y0128319D01*
X0180449Y0128319D01*
X0180449Y0126547D01*
X0180449Y0127137D02*
X0179071Y0127137D01*
X0179071Y0127727D02*
X0180449Y0127727D01*
X0180449Y0128317D02*
X0179071Y0128317D01*
X0179071Y0121547D02*
X0180449Y0121547D01*
X0179071Y0121547D02*
X0179071Y0123319D01*
X0180449Y0123319D01*
X0180449Y0121547D01*
X0180449Y0122137D02*
X0179071Y0122137D01*
X0179071Y0122727D02*
X0180449Y0122727D01*
X0180449Y0123317D02*
X0179071Y0123317D01*
X0176119Y0121547D02*
X0174741Y0121547D01*
X0174741Y0123319D01*
X0176119Y0123319D01*
X0176119Y0121547D01*
X0176119Y0122137D02*
X0174741Y0122137D01*
X0174741Y0122727D02*
X0176119Y0122727D01*
X0176119Y0123317D02*
X0174741Y0123317D01*
X0188209Y0130079D02*
X0188209Y0131457D01*
X0189981Y0131457D01*
X0189981Y0130079D01*
X0188209Y0130079D01*
X0188209Y0130669D02*
X0189981Y0130669D01*
X0189981Y0131259D02*
X0188209Y0131259D01*
X0188209Y0134409D02*
X0188209Y0135787D01*
X0189981Y0135787D01*
X0189981Y0134409D01*
X0188209Y0134409D01*
X0188209Y0134999D02*
X0189981Y0134999D01*
X0189981Y0135589D02*
X0188209Y0135589D01*
X0177449Y0162547D02*
X0176071Y0162547D01*
X0176071Y0164319D01*
X0177449Y0164319D01*
X0177449Y0162547D01*
X0177449Y0163137D02*
X0176071Y0163137D01*
X0176071Y0163727D02*
X0177449Y0163727D01*
X0177449Y0164317D02*
X0176071Y0164317D01*
X0173119Y0162547D02*
X0171741Y0162547D01*
X0171741Y0164319D01*
X0173119Y0164319D01*
X0173119Y0162547D01*
X0173119Y0163137D02*
X0171741Y0163137D01*
X0171741Y0163727D02*
X0173119Y0163727D01*
X0173119Y0164317D02*
X0171741Y0164317D01*
X0157209Y0170579D02*
X0157209Y0171957D01*
X0158981Y0171957D01*
X0158981Y0170579D01*
X0157209Y0170579D01*
X0157209Y0171169D02*
X0158981Y0171169D01*
X0158981Y0171759D02*
X0157209Y0171759D01*
X0157209Y0174909D02*
X0157209Y0176287D01*
X0158981Y0176287D01*
X0158981Y0174909D01*
X0157209Y0174909D01*
X0157209Y0175499D02*
X0158981Y0175499D01*
X0158981Y0176089D02*
X0157209Y0176089D01*
X0142949Y0178819D02*
X0141571Y0178819D01*
X0142949Y0178819D02*
X0142949Y0177047D01*
X0141571Y0177047D01*
X0141571Y0178819D01*
X0141571Y0177637D02*
X0142949Y0177637D01*
X0142949Y0178227D02*
X0141571Y0178227D01*
X0141571Y0178817D02*
X0142949Y0178817D01*
X0138619Y0178819D02*
X0137241Y0178819D01*
X0138619Y0178819D02*
X0138619Y0177047D01*
X0137241Y0177047D01*
X0137241Y0178819D01*
X0137241Y0177637D02*
X0138619Y0177637D01*
X0138619Y0178227D02*
X0137241Y0178227D01*
X0137241Y0178817D02*
X0138619Y0178817D01*
D12*
X0197595Y0173520D03*
X0197595Y0159740D03*
D13*
X0148645Y0144883D02*
X0131545Y0144883D01*
X0131545Y0161983D01*
X0148645Y0161983D01*
X0148645Y0144883D01*
X0148645Y0145782D02*
X0131545Y0145782D01*
X0131545Y0146681D02*
X0148645Y0146681D01*
X0148645Y0147580D02*
X0131545Y0147580D01*
X0131545Y0148479D02*
X0148645Y0148479D01*
X0148645Y0149378D02*
X0131545Y0149378D01*
X0131545Y0150277D02*
X0148645Y0150277D01*
X0148645Y0151176D02*
X0131545Y0151176D01*
X0131545Y0152075D02*
X0148645Y0152075D01*
X0148645Y0152974D02*
X0131545Y0152974D01*
X0131545Y0153873D02*
X0148645Y0153873D01*
X0148645Y0154772D02*
X0131545Y0154772D01*
X0131545Y0155671D02*
X0148645Y0155671D01*
X0148645Y0156570D02*
X0131545Y0156570D01*
X0131545Y0157469D02*
X0148645Y0157469D01*
X0148645Y0158368D02*
X0131545Y0158368D01*
X0131545Y0159267D02*
X0148645Y0159267D01*
X0148645Y0160166D02*
X0131545Y0160166D01*
X0131545Y0161065D02*
X0148645Y0161065D01*
X0148645Y0161964D02*
X0131545Y0161964D01*
D14*
X0125872Y0161878D02*
X0125872Y0162704D01*
X0128118Y0162704D01*
X0128118Y0161878D01*
X0125872Y0161878D01*
X0125872Y0162231D02*
X0128118Y0162231D01*
X0128118Y0162584D02*
X0125872Y0162584D01*
X0125872Y0163847D02*
X0125872Y0164673D01*
X0128118Y0164673D01*
X0128118Y0163847D01*
X0125872Y0163847D01*
X0125872Y0164200D02*
X0128118Y0164200D01*
X0128118Y0164553D02*
X0125872Y0164553D01*
X0128855Y0167656D02*
X0129681Y0167656D01*
X0129681Y0165410D01*
X0128855Y0165410D01*
X0128855Y0167656D01*
X0128855Y0165763D02*
X0129681Y0165763D01*
X0129681Y0166116D02*
X0128855Y0166116D01*
X0128855Y0166469D02*
X0129681Y0166469D01*
X0129681Y0166822D02*
X0128855Y0166822D01*
X0128855Y0167175D02*
X0129681Y0167175D01*
X0129681Y0167528D02*
X0128855Y0167528D01*
X0130824Y0167656D02*
X0131650Y0167656D01*
X0131650Y0165410D01*
X0130824Y0165410D01*
X0130824Y0167656D01*
X0130824Y0165763D02*
X0131650Y0165763D01*
X0131650Y0166116D02*
X0130824Y0166116D01*
X0130824Y0166469D02*
X0131650Y0166469D01*
X0131650Y0166822D02*
X0130824Y0166822D01*
X0130824Y0167175D02*
X0131650Y0167175D01*
X0131650Y0167528D02*
X0130824Y0167528D01*
X0132792Y0167656D02*
X0133618Y0167656D01*
X0133618Y0165410D01*
X0132792Y0165410D01*
X0132792Y0167656D01*
X0132792Y0165763D02*
X0133618Y0165763D01*
X0133618Y0166116D02*
X0132792Y0166116D01*
X0132792Y0166469D02*
X0133618Y0166469D01*
X0133618Y0166822D02*
X0132792Y0166822D01*
X0132792Y0167175D02*
X0133618Y0167175D01*
X0133618Y0167528D02*
X0132792Y0167528D01*
X0134761Y0167656D02*
X0135587Y0167656D01*
X0135587Y0165410D01*
X0134761Y0165410D01*
X0134761Y0167656D01*
X0134761Y0165763D02*
X0135587Y0165763D01*
X0135587Y0166116D02*
X0134761Y0166116D01*
X0134761Y0166469D02*
X0135587Y0166469D01*
X0135587Y0166822D02*
X0134761Y0166822D01*
X0134761Y0167175D02*
X0135587Y0167175D01*
X0135587Y0167528D02*
X0134761Y0167528D01*
X0136729Y0167656D02*
X0137555Y0167656D01*
X0137555Y0165410D01*
X0136729Y0165410D01*
X0136729Y0167656D01*
X0136729Y0165763D02*
X0137555Y0165763D01*
X0137555Y0166116D02*
X0136729Y0166116D01*
X0136729Y0166469D02*
X0137555Y0166469D01*
X0137555Y0166822D02*
X0136729Y0166822D01*
X0136729Y0167175D02*
X0137555Y0167175D01*
X0137555Y0167528D02*
X0136729Y0167528D01*
X0138698Y0167656D02*
X0139524Y0167656D01*
X0139524Y0165410D01*
X0138698Y0165410D01*
X0138698Y0167656D01*
X0138698Y0165763D02*
X0139524Y0165763D01*
X0139524Y0166116D02*
X0138698Y0166116D01*
X0138698Y0166469D02*
X0139524Y0166469D01*
X0139524Y0166822D02*
X0138698Y0166822D01*
X0138698Y0167175D02*
X0139524Y0167175D01*
X0139524Y0167528D02*
X0138698Y0167528D01*
X0140666Y0167656D02*
X0141492Y0167656D01*
X0141492Y0165410D01*
X0140666Y0165410D01*
X0140666Y0167656D01*
X0140666Y0165763D02*
X0141492Y0165763D01*
X0141492Y0166116D02*
X0140666Y0166116D01*
X0140666Y0166469D02*
X0141492Y0166469D01*
X0141492Y0166822D02*
X0140666Y0166822D01*
X0140666Y0167175D02*
X0141492Y0167175D01*
X0141492Y0167528D02*
X0140666Y0167528D01*
X0142635Y0167656D02*
X0143461Y0167656D01*
X0143461Y0165410D01*
X0142635Y0165410D01*
X0142635Y0167656D01*
X0142635Y0165763D02*
X0143461Y0165763D01*
X0143461Y0166116D02*
X0142635Y0166116D01*
X0142635Y0166469D02*
X0143461Y0166469D01*
X0143461Y0166822D02*
X0142635Y0166822D01*
X0142635Y0167175D02*
X0143461Y0167175D01*
X0143461Y0167528D02*
X0142635Y0167528D01*
X0144603Y0167656D02*
X0145429Y0167656D01*
X0145429Y0165410D01*
X0144603Y0165410D01*
X0144603Y0167656D01*
X0144603Y0165763D02*
X0145429Y0165763D01*
X0145429Y0166116D02*
X0144603Y0166116D01*
X0144603Y0166469D02*
X0145429Y0166469D01*
X0145429Y0166822D02*
X0144603Y0166822D01*
X0144603Y0167175D02*
X0145429Y0167175D01*
X0145429Y0167528D02*
X0144603Y0167528D01*
X0146572Y0167656D02*
X0147398Y0167656D01*
X0147398Y0165410D01*
X0146572Y0165410D01*
X0146572Y0167656D01*
X0146572Y0165763D02*
X0147398Y0165763D01*
X0147398Y0166116D02*
X0146572Y0166116D01*
X0146572Y0166469D02*
X0147398Y0166469D01*
X0147398Y0166822D02*
X0146572Y0166822D01*
X0146572Y0167175D02*
X0147398Y0167175D01*
X0147398Y0167528D02*
X0146572Y0167528D01*
X0148540Y0167656D02*
X0149366Y0167656D01*
X0149366Y0165410D01*
X0148540Y0165410D01*
X0148540Y0167656D01*
X0148540Y0165763D02*
X0149366Y0165763D01*
X0149366Y0166116D02*
X0148540Y0166116D01*
X0148540Y0166469D02*
X0149366Y0166469D01*
X0149366Y0166822D02*
X0148540Y0166822D01*
X0148540Y0167175D02*
X0149366Y0167175D01*
X0149366Y0167528D02*
X0148540Y0167528D01*
X0150509Y0167656D02*
X0151335Y0167656D01*
X0151335Y0165410D01*
X0150509Y0165410D01*
X0150509Y0167656D01*
X0150509Y0165763D02*
X0151335Y0165763D01*
X0151335Y0166116D02*
X0150509Y0166116D01*
X0150509Y0166469D02*
X0151335Y0166469D01*
X0151335Y0166822D02*
X0150509Y0166822D01*
X0150509Y0167175D02*
X0151335Y0167175D01*
X0151335Y0167528D02*
X0150509Y0167528D01*
X0154318Y0164673D02*
X0154318Y0163847D01*
X0152072Y0163847D01*
X0152072Y0164673D01*
X0154318Y0164673D01*
X0154318Y0164200D02*
X0152072Y0164200D01*
X0152072Y0164553D02*
X0154318Y0164553D01*
X0154318Y0162704D02*
X0154318Y0161878D01*
X0152072Y0161878D01*
X0152072Y0162704D01*
X0154318Y0162704D01*
X0154318Y0162231D02*
X0152072Y0162231D01*
X0152072Y0162584D02*
X0154318Y0162584D01*
X0154318Y0160736D02*
X0154318Y0159910D01*
X0152072Y0159910D01*
X0152072Y0160736D01*
X0154318Y0160736D01*
X0154318Y0160263D02*
X0152072Y0160263D01*
X0152072Y0160616D02*
X0154318Y0160616D01*
X0154318Y0158767D02*
X0154318Y0157941D01*
X0152072Y0157941D01*
X0152072Y0158767D01*
X0154318Y0158767D01*
X0154318Y0158294D02*
X0152072Y0158294D01*
X0152072Y0158647D02*
X0154318Y0158647D01*
X0154318Y0156799D02*
X0154318Y0155973D01*
X0152072Y0155973D01*
X0152072Y0156799D01*
X0154318Y0156799D01*
X0154318Y0156326D02*
X0152072Y0156326D01*
X0152072Y0156679D02*
X0154318Y0156679D01*
X0154318Y0154830D02*
X0154318Y0154004D01*
X0152072Y0154004D01*
X0152072Y0154830D01*
X0154318Y0154830D01*
X0154318Y0154357D02*
X0152072Y0154357D01*
X0152072Y0154710D02*
X0154318Y0154710D01*
X0154318Y0152862D02*
X0154318Y0152036D01*
X0152072Y0152036D01*
X0152072Y0152862D01*
X0154318Y0152862D01*
X0154318Y0152389D02*
X0152072Y0152389D01*
X0152072Y0152742D02*
X0154318Y0152742D01*
X0154318Y0150893D02*
X0154318Y0150067D01*
X0152072Y0150067D01*
X0152072Y0150893D01*
X0154318Y0150893D01*
X0154318Y0150420D02*
X0152072Y0150420D01*
X0152072Y0150773D02*
X0154318Y0150773D01*
X0154318Y0148925D02*
X0154318Y0148099D01*
X0152072Y0148099D01*
X0152072Y0148925D01*
X0154318Y0148925D01*
X0154318Y0148452D02*
X0152072Y0148452D01*
X0152072Y0148805D02*
X0154318Y0148805D01*
X0154318Y0146956D02*
X0154318Y0146130D01*
X0152072Y0146130D01*
X0152072Y0146956D01*
X0154318Y0146956D01*
X0154318Y0146483D02*
X0152072Y0146483D01*
X0152072Y0146836D02*
X0154318Y0146836D01*
X0154318Y0144988D02*
X0154318Y0144162D01*
X0152072Y0144162D01*
X0152072Y0144988D01*
X0154318Y0144988D01*
X0154318Y0144515D02*
X0152072Y0144515D01*
X0152072Y0144868D02*
X0154318Y0144868D01*
X0154318Y0143019D02*
X0154318Y0142193D01*
X0152072Y0142193D01*
X0152072Y0143019D01*
X0154318Y0143019D01*
X0154318Y0142546D02*
X0152072Y0142546D01*
X0152072Y0142899D02*
X0154318Y0142899D01*
X0151335Y0139210D02*
X0150509Y0139210D01*
X0150509Y0141456D01*
X0151335Y0141456D01*
X0151335Y0139210D01*
X0151335Y0139563D02*
X0150509Y0139563D01*
X0150509Y0139916D02*
X0151335Y0139916D01*
X0151335Y0140269D02*
X0150509Y0140269D01*
X0150509Y0140622D02*
X0151335Y0140622D01*
X0151335Y0140975D02*
X0150509Y0140975D01*
X0150509Y0141328D02*
X0151335Y0141328D01*
X0149366Y0139210D02*
X0148540Y0139210D01*
X0148540Y0141456D01*
X0149366Y0141456D01*
X0149366Y0139210D01*
X0149366Y0139563D02*
X0148540Y0139563D01*
X0148540Y0139916D02*
X0149366Y0139916D01*
X0149366Y0140269D02*
X0148540Y0140269D01*
X0148540Y0140622D02*
X0149366Y0140622D01*
X0149366Y0140975D02*
X0148540Y0140975D01*
X0148540Y0141328D02*
X0149366Y0141328D01*
X0147398Y0139210D02*
X0146572Y0139210D01*
X0146572Y0141456D01*
X0147398Y0141456D01*
X0147398Y0139210D01*
X0147398Y0139563D02*
X0146572Y0139563D01*
X0146572Y0139916D02*
X0147398Y0139916D01*
X0147398Y0140269D02*
X0146572Y0140269D01*
X0146572Y0140622D02*
X0147398Y0140622D01*
X0147398Y0140975D02*
X0146572Y0140975D01*
X0146572Y0141328D02*
X0147398Y0141328D01*
X0145429Y0139210D02*
X0144603Y0139210D01*
X0144603Y0141456D01*
X0145429Y0141456D01*
X0145429Y0139210D01*
X0145429Y0139563D02*
X0144603Y0139563D01*
X0144603Y0139916D02*
X0145429Y0139916D01*
X0145429Y0140269D02*
X0144603Y0140269D01*
X0144603Y0140622D02*
X0145429Y0140622D01*
X0145429Y0140975D02*
X0144603Y0140975D01*
X0144603Y0141328D02*
X0145429Y0141328D01*
X0143461Y0139210D02*
X0142635Y0139210D01*
X0142635Y0141456D01*
X0143461Y0141456D01*
X0143461Y0139210D01*
X0143461Y0139563D02*
X0142635Y0139563D01*
X0142635Y0139916D02*
X0143461Y0139916D01*
X0143461Y0140269D02*
X0142635Y0140269D01*
X0142635Y0140622D02*
X0143461Y0140622D01*
X0143461Y0140975D02*
X0142635Y0140975D01*
X0142635Y0141328D02*
X0143461Y0141328D01*
X0141492Y0139210D02*
X0140666Y0139210D01*
X0140666Y0141456D01*
X0141492Y0141456D01*
X0141492Y0139210D01*
X0141492Y0139563D02*
X0140666Y0139563D01*
X0140666Y0139916D02*
X0141492Y0139916D01*
X0141492Y0140269D02*
X0140666Y0140269D01*
X0140666Y0140622D02*
X0141492Y0140622D01*
X0141492Y0140975D02*
X0140666Y0140975D01*
X0140666Y0141328D02*
X0141492Y0141328D01*
X0139524Y0139210D02*
X0138698Y0139210D01*
X0138698Y0141456D01*
X0139524Y0141456D01*
X0139524Y0139210D01*
X0139524Y0139563D02*
X0138698Y0139563D01*
X0138698Y0139916D02*
X0139524Y0139916D01*
X0139524Y0140269D02*
X0138698Y0140269D01*
X0138698Y0140622D02*
X0139524Y0140622D01*
X0139524Y0140975D02*
X0138698Y0140975D01*
X0138698Y0141328D02*
X0139524Y0141328D01*
X0137555Y0139210D02*
X0136729Y0139210D01*
X0136729Y0141456D01*
X0137555Y0141456D01*
X0137555Y0139210D01*
X0137555Y0139563D02*
X0136729Y0139563D01*
X0136729Y0139916D02*
X0137555Y0139916D01*
X0137555Y0140269D02*
X0136729Y0140269D01*
X0136729Y0140622D02*
X0137555Y0140622D01*
X0137555Y0140975D02*
X0136729Y0140975D01*
X0136729Y0141328D02*
X0137555Y0141328D01*
X0135587Y0139210D02*
X0134761Y0139210D01*
X0134761Y0141456D01*
X0135587Y0141456D01*
X0135587Y0139210D01*
X0135587Y0139563D02*
X0134761Y0139563D01*
X0134761Y0139916D02*
X0135587Y0139916D01*
X0135587Y0140269D02*
X0134761Y0140269D01*
X0134761Y0140622D02*
X0135587Y0140622D01*
X0135587Y0140975D02*
X0134761Y0140975D01*
X0134761Y0141328D02*
X0135587Y0141328D01*
X0133618Y0139210D02*
X0132792Y0139210D01*
X0132792Y0141456D01*
X0133618Y0141456D01*
X0133618Y0139210D01*
X0133618Y0139563D02*
X0132792Y0139563D01*
X0132792Y0139916D02*
X0133618Y0139916D01*
X0133618Y0140269D02*
X0132792Y0140269D01*
X0132792Y0140622D02*
X0133618Y0140622D01*
X0133618Y0140975D02*
X0132792Y0140975D01*
X0132792Y0141328D02*
X0133618Y0141328D01*
X0131650Y0139210D02*
X0130824Y0139210D01*
X0130824Y0141456D01*
X0131650Y0141456D01*
X0131650Y0139210D01*
X0131650Y0139563D02*
X0130824Y0139563D01*
X0130824Y0139916D02*
X0131650Y0139916D01*
X0131650Y0140269D02*
X0130824Y0140269D01*
X0130824Y0140622D02*
X0131650Y0140622D01*
X0131650Y0140975D02*
X0130824Y0140975D01*
X0130824Y0141328D02*
X0131650Y0141328D01*
X0129681Y0139210D02*
X0128855Y0139210D01*
X0128855Y0141456D01*
X0129681Y0141456D01*
X0129681Y0139210D01*
X0129681Y0139563D02*
X0128855Y0139563D01*
X0128855Y0139916D02*
X0129681Y0139916D01*
X0129681Y0140269D02*
X0128855Y0140269D01*
X0128855Y0140622D02*
X0129681Y0140622D01*
X0129681Y0140975D02*
X0128855Y0140975D01*
X0128855Y0141328D02*
X0129681Y0141328D01*
X0125872Y0142193D02*
X0125872Y0143019D01*
X0128118Y0143019D01*
X0128118Y0142193D01*
X0125872Y0142193D01*
X0125872Y0142546D02*
X0128118Y0142546D01*
X0128118Y0142899D02*
X0125872Y0142899D01*
X0125872Y0144162D02*
X0125872Y0144988D01*
X0128118Y0144988D01*
X0128118Y0144162D01*
X0125872Y0144162D01*
X0125872Y0144515D02*
X0128118Y0144515D01*
X0128118Y0144868D02*
X0125872Y0144868D01*
X0125872Y0146130D02*
X0125872Y0146956D01*
X0128118Y0146956D01*
X0128118Y0146130D01*
X0125872Y0146130D01*
X0125872Y0146483D02*
X0128118Y0146483D01*
X0128118Y0146836D02*
X0125872Y0146836D01*
X0125872Y0148099D02*
X0125872Y0148925D01*
X0128118Y0148925D01*
X0128118Y0148099D01*
X0125872Y0148099D01*
X0125872Y0148452D02*
X0128118Y0148452D01*
X0128118Y0148805D02*
X0125872Y0148805D01*
X0125872Y0150067D02*
X0125872Y0150893D01*
X0128118Y0150893D01*
X0128118Y0150067D01*
X0125872Y0150067D01*
X0125872Y0150420D02*
X0128118Y0150420D01*
X0128118Y0150773D02*
X0125872Y0150773D01*
X0125872Y0152036D02*
X0125872Y0152862D01*
X0128118Y0152862D01*
X0128118Y0152036D01*
X0125872Y0152036D01*
X0125872Y0152389D02*
X0128118Y0152389D01*
X0128118Y0152742D02*
X0125872Y0152742D01*
X0125872Y0154004D02*
X0125872Y0154830D01*
X0128118Y0154830D01*
X0128118Y0154004D01*
X0125872Y0154004D01*
X0125872Y0154357D02*
X0128118Y0154357D01*
X0128118Y0154710D02*
X0125872Y0154710D01*
X0125872Y0155973D02*
X0125872Y0156799D01*
X0128118Y0156799D01*
X0128118Y0155973D01*
X0125872Y0155973D01*
X0125872Y0156326D02*
X0128118Y0156326D01*
X0128118Y0156679D02*
X0125872Y0156679D01*
X0125872Y0157941D02*
X0125872Y0158767D01*
X0128118Y0158767D01*
X0128118Y0157941D01*
X0125872Y0157941D01*
X0125872Y0158294D02*
X0128118Y0158294D01*
X0128118Y0158647D02*
X0125872Y0158647D01*
X0125872Y0159910D02*
X0125872Y0160736D01*
X0128118Y0160736D01*
X0128118Y0159910D01*
X0125872Y0159910D01*
X0125872Y0160263D02*
X0128118Y0160263D01*
X0128118Y0160616D02*
X0125872Y0160616D01*
D15*
X0121917Y0157284D02*
X0120373Y0157284D01*
X0121917Y0157284D02*
X0121917Y0155582D01*
X0120373Y0155582D01*
X0120373Y0157284D01*
X0120373Y0156242D02*
X0121917Y0156242D01*
X0121917Y0156902D02*
X0120373Y0156902D01*
X0117802Y0157284D02*
X0116258Y0157284D01*
X0117802Y0157284D02*
X0117802Y0155582D01*
X0116258Y0155582D01*
X0116258Y0157284D01*
X0116258Y0156242D02*
X0117802Y0156242D01*
X0117802Y0156902D02*
X0116258Y0156902D01*
X0116258Y0153284D02*
X0117802Y0153284D01*
X0117802Y0151582D01*
X0116258Y0151582D01*
X0116258Y0153284D01*
X0116258Y0152242D02*
X0117802Y0152242D01*
X0117802Y0152902D02*
X0116258Y0152902D01*
X0120373Y0153284D02*
X0121917Y0153284D01*
X0121917Y0151582D01*
X0120373Y0151582D01*
X0120373Y0153284D01*
X0120373Y0152242D02*
X0121917Y0152242D01*
X0121917Y0152902D02*
X0120373Y0152902D01*
X0155773Y0135082D02*
X0157317Y0135082D01*
X0155773Y0135082D02*
X0155773Y0136784D01*
X0157317Y0136784D01*
X0157317Y0135082D01*
X0157317Y0135742D02*
X0155773Y0135742D01*
X0155773Y0136402D02*
X0157317Y0136402D01*
X0159888Y0135082D02*
X0161432Y0135082D01*
X0159888Y0135082D02*
X0159888Y0136784D01*
X0161432Y0136784D01*
X0161432Y0135082D01*
X0161432Y0135742D02*
X0159888Y0135742D01*
X0159888Y0136402D02*
X0161432Y0136402D01*
X0160442Y0138957D02*
X0158898Y0138957D01*
X0158898Y0140659D01*
X0160442Y0140659D01*
X0160442Y0138957D01*
X0160442Y0139617D02*
X0158898Y0139617D01*
X0158898Y0140277D02*
X0160442Y0140277D01*
X0163013Y0138957D02*
X0164557Y0138957D01*
X0163013Y0138957D02*
X0163013Y0140659D01*
X0164557Y0140659D01*
X0164557Y0138957D01*
X0164557Y0139617D02*
X0163013Y0139617D01*
X0163013Y0140277D02*
X0164557Y0140277D01*
X0164373Y0148784D02*
X0165917Y0148784D01*
X0165917Y0147082D01*
X0164373Y0147082D01*
X0164373Y0148784D01*
X0164373Y0147742D02*
X0165917Y0147742D01*
X0165917Y0148402D02*
X0164373Y0148402D01*
X0161802Y0148784D02*
X0160258Y0148784D01*
X0161802Y0148784D02*
X0161802Y0147082D01*
X0160258Y0147082D01*
X0160258Y0148784D01*
X0160258Y0147742D02*
X0161802Y0147742D01*
X0161802Y0148402D02*
X0160258Y0148402D01*
X0177758Y0154034D02*
X0179302Y0154034D01*
X0179302Y0152332D01*
X0177758Y0152332D01*
X0177758Y0154034D01*
X0177758Y0152992D02*
X0179302Y0152992D01*
X0179302Y0153652D02*
X0177758Y0153652D01*
X0181873Y0154034D02*
X0183417Y0154034D01*
X0183417Y0152332D01*
X0181873Y0152332D01*
X0181873Y0154034D01*
X0181873Y0152992D02*
X0183417Y0152992D01*
X0183417Y0153652D02*
X0181873Y0153652D01*
X0181946Y0135770D02*
X0181946Y0134226D01*
X0180244Y0134226D01*
X0180244Y0135770D01*
X0181946Y0135770D01*
X0181946Y0134886D02*
X0180244Y0134886D01*
X0180244Y0135546D02*
X0181946Y0135546D01*
X0185946Y0135770D02*
X0185946Y0134226D01*
X0184244Y0134226D01*
X0184244Y0135770D01*
X0185946Y0135770D01*
X0185946Y0134886D02*
X0184244Y0134886D01*
X0184244Y0135546D02*
X0185946Y0135546D01*
X0185946Y0131655D02*
X0185946Y0130111D01*
X0184244Y0130111D01*
X0184244Y0131655D01*
X0185946Y0131655D01*
X0185946Y0130771D02*
X0184244Y0130771D01*
X0184244Y0131431D02*
X0185946Y0131431D01*
X0181946Y0131655D02*
X0181946Y0130111D01*
X0180244Y0130111D01*
X0180244Y0131655D01*
X0181946Y0131655D01*
X0181946Y0130771D02*
X0180244Y0130771D01*
X0180244Y0131431D02*
X0181946Y0131431D01*
X0175432Y0131082D02*
X0173888Y0131082D01*
X0173888Y0132784D01*
X0175432Y0132784D01*
X0175432Y0131082D01*
X0175432Y0131742D02*
X0173888Y0131742D01*
X0173888Y0132402D02*
X0175432Y0132402D01*
X0171317Y0131082D02*
X0169773Y0131082D01*
X0169773Y0132784D01*
X0171317Y0132784D01*
X0171317Y0131082D01*
X0171317Y0131742D02*
X0169773Y0131742D01*
X0169773Y0132402D02*
X0171317Y0132402D01*
D16*
X0124192Y0178933D03*
X0117499Y0178933D03*
D17*
X0117595Y0178837D03*
X0117595Y0185530D03*
D18*
X0118048Y0133598D03*
X0112142Y0133598D03*
X0112142Y0129268D03*
X0118048Y0129268D03*
D19*
X0172477Y0140193D03*
X0172477Y0143933D03*
X0172477Y0147673D03*
X0182714Y0147673D03*
X0182714Y0140193D03*
D20*
X0205725Y0130527D02*
X0209465Y0130527D01*
X0209465Y0126787D01*
X0205725Y0126787D01*
X0205725Y0130527D01*
X0205725Y0130526D02*
X0209465Y0130526D01*
X0209465Y0121079D02*
X0205725Y0121079D01*
X0209465Y0121079D02*
X0209465Y0117339D01*
X0205725Y0117339D01*
X0205725Y0121079D01*
X0205725Y0121078D02*
X0209465Y0121078D01*
D21*
X0196276Y0121374D03*
X0196276Y0123933D03*
X0196276Y0126492D03*
X0196276Y0129051D03*
X0196276Y0118815D03*
D22*
X0205595Y0109661D02*
X0209595Y0109661D01*
X0209595Y0138205D02*
X0205595Y0138205D01*
D23*
X0196847Y0133480D03*
X0196847Y0114386D03*
D24*
X0140154Y0117811D03*
X0137595Y0117811D03*
X0135036Y0117811D03*
X0135036Y0125055D03*
X0137595Y0125055D03*
X0140154Y0125055D03*
D25*
X0182930Y0115433D03*
X0187260Y0115433D03*
X0192930Y0142933D03*
X0197260Y0142933D03*
D26*
X0091095Y0170122D03*
D27*
X0087650Y0188823D03*
X0094540Y0188823D03*
D28*
X0094540Y0193744D03*
D29*
X0190095Y0191433D03*
X0190095Y0101433D03*
D30*
X0180095Y0101433D03*
X0170095Y0101433D03*
X0160095Y0101433D03*
X0150095Y0101433D03*
X0140095Y0101433D03*
X0140095Y0191433D03*
X0150095Y0191433D03*
X0160095Y0191433D03*
X0170095Y0191433D03*
X0180095Y0191433D03*
D31*
X0161930Y0133071D02*
X0161930Y0130031D01*
X0161134Y0130031D01*
X0161134Y0133071D01*
X0161930Y0133071D01*
X0161930Y0130296D02*
X0161134Y0130296D01*
X0161134Y0130561D02*
X0161930Y0130561D01*
X0161930Y0130826D02*
X0161134Y0130826D01*
X0161134Y0131091D02*
X0161930Y0131091D01*
X0161930Y0131356D02*
X0161134Y0131356D01*
X0161134Y0131621D02*
X0161930Y0131621D01*
X0161930Y0131886D02*
X0161134Y0131886D01*
X0161134Y0132151D02*
X0161930Y0132151D01*
X0161930Y0132416D02*
X0161134Y0132416D01*
X0161134Y0132681D02*
X0161930Y0132681D01*
X0161930Y0132946D02*
X0161134Y0132946D01*
X0159962Y0133071D02*
X0159962Y0130031D01*
X0159166Y0130031D01*
X0159166Y0133071D01*
X0159962Y0133071D01*
X0159962Y0130296D02*
X0159166Y0130296D01*
X0159166Y0130561D02*
X0159962Y0130561D01*
X0159962Y0130826D02*
X0159166Y0130826D01*
X0159166Y0131091D02*
X0159962Y0131091D01*
X0159962Y0131356D02*
X0159166Y0131356D01*
X0159166Y0131621D02*
X0159962Y0131621D01*
X0159962Y0131886D02*
X0159166Y0131886D01*
X0159166Y0132151D02*
X0159962Y0132151D01*
X0159962Y0132416D02*
X0159166Y0132416D01*
X0159166Y0132681D02*
X0159962Y0132681D01*
X0159962Y0132946D02*
X0159166Y0132946D01*
X0157993Y0133071D02*
X0157993Y0130031D01*
X0157197Y0130031D01*
X0157197Y0133071D01*
X0157993Y0133071D01*
X0157993Y0130296D02*
X0157197Y0130296D01*
X0157197Y0130561D02*
X0157993Y0130561D01*
X0157993Y0130826D02*
X0157197Y0130826D01*
X0157197Y0131091D02*
X0157993Y0131091D01*
X0157993Y0131356D02*
X0157197Y0131356D01*
X0157197Y0131621D02*
X0157993Y0131621D01*
X0157993Y0131886D02*
X0157197Y0131886D01*
X0157197Y0132151D02*
X0157993Y0132151D01*
X0157993Y0132416D02*
X0157197Y0132416D01*
X0157197Y0132681D02*
X0157993Y0132681D01*
X0157993Y0132946D02*
X0157197Y0132946D01*
X0156025Y0133071D02*
X0156025Y0130031D01*
X0155229Y0130031D01*
X0155229Y0133071D01*
X0156025Y0133071D01*
X0156025Y0130296D02*
X0155229Y0130296D01*
X0155229Y0130561D02*
X0156025Y0130561D01*
X0156025Y0130826D02*
X0155229Y0130826D01*
X0155229Y0131091D02*
X0156025Y0131091D01*
X0156025Y0131356D02*
X0155229Y0131356D01*
X0155229Y0131621D02*
X0156025Y0131621D01*
X0156025Y0131886D02*
X0155229Y0131886D01*
X0155229Y0132151D02*
X0156025Y0132151D01*
X0156025Y0132416D02*
X0155229Y0132416D01*
X0155229Y0132681D02*
X0156025Y0132681D01*
X0156025Y0132946D02*
X0155229Y0132946D01*
X0154056Y0133071D02*
X0154056Y0130031D01*
X0153260Y0130031D01*
X0153260Y0133071D01*
X0154056Y0133071D01*
X0154056Y0130296D02*
X0153260Y0130296D01*
X0153260Y0130561D02*
X0154056Y0130561D01*
X0154056Y0130826D02*
X0153260Y0130826D01*
X0153260Y0131091D02*
X0154056Y0131091D01*
X0154056Y0131356D02*
X0153260Y0131356D01*
X0153260Y0131621D02*
X0154056Y0131621D01*
X0154056Y0131886D02*
X0153260Y0131886D01*
X0153260Y0132151D02*
X0154056Y0132151D01*
X0154056Y0132416D02*
X0153260Y0132416D01*
X0153260Y0132681D02*
X0154056Y0132681D01*
X0154056Y0132946D02*
X0153260Y0132946D01*
X0151497Y0128268D02*
X0148457Y0128268D01*
X0151497Y0128268D02*
X0151497Y0127472D01*
X0148457Y0127472D01*
X0148457Y0128268D01*
X0148457Y0127737D02*
X0151497Y0127737D01*
X0151497Y0128002D02*
X0148457Y0128002D01*
X0148457Y0128267D02*
X0151497Y0128267D01*
X0151497Y0126300D02*
X0148457Y0126300D01*
X0151497Y0126300D02*
X0151497Y0125504D01*
X0148457Y0125504D01*
X0148457Y0126300D01*
X0148457Y0125769D02*
X0151497Y0125769D01*
X0151497Y0126034D02*
X0148457Y0126034D01*
X0148457Y0126299D02*
X0151497Y0126299D01*
X0151497Y0124331D02*
X0148457Y0124331D01*
X0151497Y0124331D02*
X0151497Y0123535D01*
X0148457Y0123535D01*
X0148457Y0124331D01*
X0148457Y0123800D02*
X0151497Y0123800D01*
X0151497Y0124065D02*
X0148457Y0124065D01*
X0148457Y0124330D02*
X0151497Y0124330D01*
X0151497Y0122363D02*
X0148457Y0122363D01*
X0151497Y0122363D02*
X0151497Y0121567D01*
X0148457Y0121567D01*
X0148457Y0122363D01*
X0148457Y0121832D02*
X0151497Y0121832D01*
X0151497Y0122097D02*
X0148457Y0122097D01*
X0148457Y0122362D02*
X0151497Y0122362D01*
X0151497Y0120394D02*
X0148457Y0120394D01*
X0151497Y0120394D02*
X0151497Y0119598D01*
X0148457Y0119598D01*
X0148457Y0120394D01*
X0148457Y0119863D02*
X0151497Y0119863D01*
X0151497Y0120128D02*
X0148457Y0120128D01*
X0148457Y0120393D02*
X0151497Y0120393D01*
X0154056Y0117835D02*
X0154056Y0114795D01*
X0153260Y0114795D01*
X0153260Y0117835D01*
X0154056Y0117835D01*
X0154056Y0115060D02*
X0153260Y0115060D01*
X0153260Y0115325D02*
X0154056Y0115325D01*
X0154056Y0115590D02*
X0153260Y0115590D01*
X0153260Y0115855D02*
X0154056Y0115855D01*
X0154056Y0116120D02*
X0153260Y0116120D01*
X0153260Y0116385D02*
X0154056Y0116385D01*
X0154056Y0116650D02*
X0153260Y0116650D01*
X0153260Y0116915D02*
X0154056Y0116915D01*
X0154056Y0117180D02*
X0153260Y0117180D01*
X0153260Y0117445D02*
X0154056Y0117445D01*
X0154056Y0117710D02*
X0153260Y0117710D01*
X0156025Y0117835D02*
X0156025Y0114795D01*
X0155229Y0114795D01*
X0155229Y0117835D01*
X0156025Y0117835D01*
X0156025Y0115060D02*
X0155229Y0115060D01*
X0155229Y0115325D02*
X0156025Y0115325D01*
X0156025Y0115590D02*
X0155229Y0115590D01*
X0155229Y0115855D02*
X0156025Y0115855D01*
X0156025Y0116120D02*
X0155229Y0116120D01*
X0155229Y0116385D02*
X0156025Y0116385D01*
X0156025Y0116650D02*
X0155229Y0116650D01*
X0155229Y0116915D02*
X0156025Y0116915D01*
X0156025Y0117180D02*
X0155229Y0117180D01*
X0155229Y0117445D02*
X0156025Y0117445D01*
X0156025Y0117710D02*
X0155229Y0117710D01*
X0157993Y0117835D02*
X0157993Y0114795D01*
X0157197Y0114795D01*
X0157197Y0117835D01*
X0157993Y0117835D01*
X0157993Y0115060D02*
X0157197Y0115060D01*
X0157197Y0115325D02*
X0157993Y0115325D01*
X0157993Y0115590D02*
X0157197Y0115590D01*
X0157197Y0115855D02*
X0157993Y0115855D01*
X0157993Y0116120D02*
X0157197Y0116120D01*
X0157197Y0116385D02*
X0157993Y0116385D01*
X0157993Y0116650D02*
X0157197Y0116650D01*
X0157197Y0116915D02*
X0157993Y0116915D01*
X0157993Y0117180D02*
X0157197Y0117180D01*
X0157197Y0117445D02*
X0157993Y0117445D01*
X0157993Y0117710D02*
X0157197Y0117710D01*
X0159962Y0117835D02*
X0159962Y0114795D01*
X0159166Y0114795D01*
X0159166Y0117835D01*
X0159962Y0117835D01*
X0159962Y0115060D02*
X0159166Y0115060D01*
X0159166Y0115325D02*
X0159962Y0115325D01*
X0159962Y0115590D02*
X0159166Y0115590D01*
X0159166Y0115855D02*
X0159962Y0115855D01*
X0159962Y0116120D02*
X0159166Y0116120D01*
X0159166Y0116385D02*
X0159962Y0116385D01*
X0159962Y0116650D02*
X0159166Y0116650D01*
X0159166Y0116915D02*
X0159962Y0116915D01*
X0159962Y0117180D02*
X0159166Y0117180D01*
X0159166Y0117445D02*
X0159962Y0117445D01*
X0159962Y0117710D02*
X0159166Y0117710D01*
X0161930Y0117835D02*
X0161930Y0114795D01*
X0161134Y0114795D01*
X0161134Y0117835D01*
X0161930Y0117835D01*
X0161930Y0115060D02*
X0161134Y0115060D01*
X0161134Y0115325D02*
X0161930Y0115325D01*
X0161930Y0115590D02*
X0161134Y0115590D01*
X0161134Y0115855D02*
X0161930Y0115855D01*
X0161930Y0116120D02*
X0161134Y0116120D01*
X0161134Y0116385D02*
X0161930Y0116385D01*
X0161930Y0116650D02*
X0161134Y0116650D01*
X0161134Y0116915D02*
X0161930Y0116915D01*
X0161930Y0117180D02*
X0161134Y0117180D01*
X0161134Y0117445D02*
X0161930Y0117445D01*
X0161930Y0117710D02*
X0161134Y0117710D01*
X0163693Y0120394D02*
X0166733Y0120394D01*
X0166733Y0119598D01*
X0163693Y0119598D01*
X0163693Y0120394D01*
X0163693Y0119863D02*
X0166733Y0119863D01*
X0166733Y0120128D02*
X0163693Y0120128D01*
X0163693Y0120393D02*
X0166733Y0120393D01*
X0166733Y0122363D02*
X0163693Y0122363D01*
X0166733Y0122363D02*
X0166733Y0121567D01*
X0163693Y0121567D01*
X0163693Y0122363D01*
X0163693Y0121832D02*
X0166733Y0121832D01*
X0166733Y0122097D02*
X0163693Y0122097D01*
X0163693Y0122362D02*
X0166733Y0122362D01*
X0166733Y0124331D02*
X0163693Y0124331D01*
X0166733Y0124331D02*
X0166733Y0123535D01*
X0163693Y0123535D01*
X0163693Y0124331D01*
X0163693Y0123800D02*
X0166733Y0123800D01*
X0166733Y0124065D02*
X0163693Y0124065D01*
X0163693Y0124330D02*
X0166733Y0124330D01*
X0166733Y0126300D02*
X0163693Y0126300D01*
X0166733Y0126300D02*
X0166733Y0125504D01*
X0163693Y0125504D01*
X0163693Y0126300D01*
X0163693Y0125769D02*
X0166733Y0125769D01*
X0166733Y0126034D02*
X0163693Y0126034D01*
X0163693Y0126299D02*
X0166733Y0126299D01*
X0166733Y0128268D02*
X0163693Y0128268D01*
X0166733Y0128268D02*
X0166733Y0127472D01*
X0163693Y0127472D01*
X0163693Y0128268D01*
X0163693Y0127737D02*
X0166733Y0127737D01*
X0166733Y0128002D02*
X0163693Y0128002D01*
X0163693Y0128267D02*
X0166733Y0128267D01*
D32*
X0157595Y0123933D03*
D33*
X0130166Y0107083D03*
X0130166Y0100783D03*
X0114024Y0100783D03*
X0114024Y0107083D03*
D34*
X0130166Y0107083D01*
X0129575Y0107673D01*
X0129575Y0118413D01*
X0135095Y0123933D01*
X0135095Y0124996D01*
X0135036Y0125055D01*
X0135036Y0126874D01*
X0139595Y0131433D01*
X0145095Y0131433D01*
X0148953Y0135291D01*
X0148953Y0140333D01*
X0150922Y0140333D02*
X0154995Y0140333D01*
X0156095Y0141433D01*
X0156095Y0151433D01*
X0158095Y0153433D01*
X0167595Y0153433D01*
X0172595Y0158433D01*
X0174209Y0156795D02*
X0180445Y0156795D01*
X0180445Y0157353D02*
X0180445Y0155613D01*
X0180495Y0155563D01*
X0180495Y0155429D01*
X0180426Y0155498D01*
X0180008Y0155739D01*
X0179542Y0155864D01*
X0178581Y0155864D01*
X0178581Y0153234D01*
X0178479Y0153234D01*
X0178479Y0155864D01*
X0177517Y0155864D01*
X0177052Y0155739D01*
X0176634Y0155498D01*
X0176293Y0155158D01*
X0176052Y0154740D01*
X0175927Y0154274D01*
X0175927Y0153234D01*
X0178479Y0153234D01*
X0178479Y0153132D01*
X0178581Y0153132D01*
X0178581Y0150502D01*
X0179542Y0150502D01*
X0180008Y0150627D01*
X0180426Y0150868D01*
X0180495Y0150937D01*
X0180495Y0150056D01*
X0179813Y0150056D01*
X0179051Y0149294D01*
X0179051Y0146052D01*
X0179813Y0145291D01*
X0180495Y0145291D01*
X0180495Y0145086D01*
X0180295Y0144886D01*
X0180295Y0142980D01*
X0180700Y0142576D01*
X0179813Y0142576D01*
X0179051Y0141814D01*
X0179051Y0138572D01*
X0179813Y0137810D01*
X0185614Y0137810D01*
X0186376Y0138572D01*
X0186376Y0141814D01*
X0185614Y0142576D01*
X0184490Y0142576D01*
X0184895Y0142980D01*
X0184895Y0144886D01*
X0184695Y0145086D01*
X0184695Y0145291D01*
X0185614Y0145291D01*
X0186376Y0146052D01*
X0186376Y0149294D01*
X0185614Y0150056D01*
X0184695Y0150056D01*
X0184695Y0151305D01*
X0185047Y0151657D01*
X0185047Y0154709D01*
X0184695Y0155061D01*
X0184695Y0167303D01*
X0179695Y0172303D01*
X0178465Y0173533D01*
X0166948Y0173533D01*
X0167645Y0174230D01*
X0167645Y0176136D01*
X0166298Y0177483D01*
X0165591Y0177483D01*
X0163744Y0179330D01*
X0164895Y0180480D01*
X0164895Y0182386D01*
X0163548Y0183733D01*
X0161642Y0183733D01*
X0160295Y0182386D01*
X0160295Y0181733D01*
X0159441Y0181733D01*
X0161895Y0184187D01*
X0161895Y0187294D01*
X0162651Y0187607D01*
X0163921Y0188877D01*
X0164608Y0190535D01*
X0164608Y0192331D01*
X0163921Y0193989D01*
X0163027Y0194883D01*
X0167163Y0194883D01*
X0166270Y0193989D01*
X0165583Y0192331D01*
X0165583Y0190535D01*
X0166270Y0188877D01*
X0167539Y0187607D01*
X0169198Y0186920D01*
X0170993Y0186920D01*
X0172651Y0187607D01*
X0173921Y0188877D01*
X0174608Y0190535D01*
X0174608Y0192331D01*
X0173921Y0193989D01*
X0173027Y0194883D01*
X0177163Y0194883D01*
X0176270Y0193989D01*
X0175583Y0192331D01*
X0175583Y0190535D01*
X0176270Y0188877D01*
X0177539Y0187607D01*
X0179198Y0186920D01*
X0180993Y0186920D01*
X0182651Y0187607D01*
X0183921Y0188877D01*
X0184608Y0190535D01*
X0184608Y0192331D01*
X0183921Y0193989D01*
X0183027Y0194883D01*
X0185583Y0194883D01*
X0185583Y0187682D01*
X0186344Y0186920D01*
X0193846Y0186920D01*
X0194608Y0187682D01*
X0194608Y0194883D01*
X0209134Y0194883D01*
X0209144Y0194874D01*
X0209981Y0194883D01*
X0209995Y0194883D01*
X0210679Y0194823D01*
X0211951Y0194313D01*
X0212931Y0193355D01*
X0213470Y0192095D01*
X0213545Y0191411D01*
X0213545Y0148933D01*
X0194095Y0148933D01*
X0194095Y0146205D01*
X0192930Y0146205D01*
X0192930Y0142933D01*
X0192930Y0139661D01*
X0194095Y0139661D01*
X0194095Y0135907D01*
X0193742Y0135555D01*
X0193185Y0134209D01*
X0193185Y0132752D01*
X0193742Y0131406D01*
X0193810Y0131339D01*
X0193421Y0131339D01*
X0193040Y0131236D01*
X0192698Y0131039D01*
X0192418Y0130760D01*
X0192221Y0130418D01*
X0192119Y0130036D01*
X0192119Y0129051D01*
X0192119Y0128292D01*
X0191782Y0128292D01*
X0191116Y0128958D01*
X0191576Y0129418D01*
X0191576Y0132117D01*
X0190853Y0132840D01*
X0191083Y0132973D01*
X0191418Y0133307D01*
X0191654Y0133716D01*
X0191776Y0134173D01*
X0191776Y0135098D01*
X0189095Y0135098D01*
X0189095Y0135098D01*
X0191776Y0135098D01*
X0191776Y0136024D01*
X0191654Y0136480D01*
X0191418Y0136890D01*
X0191083Y0137224D01*
X0190674Y0137460D01*
X0190217Y0137583D01*
X0189095Y0137583D01*
X0187973Y0137583D01*
X0187516Y0137460D01*
X0187107Y0137224D01*
X0187094Y0137211D01*
X0187070Y0137235D01*
X0186652Y0137476D01*
X0186187Y0137601D01*
X0185146Y0137601D01*
X0185146Y0135050D01*
X0185044Y0135050D01*
X0185044Y0137601D01*
X0184004Y0137601D01*
X0183538Y0137476D01*
X0183121Y0137235D01*
X0183095Y0137209D01*
X0183070Y0137235D01*
X0182652Y0137476D01*
X0182187Y0137601D01*
X0181146Y0137601D01*
X0181146Y0135050D01*
X0181044Y0135050D01*
X0181044Y0137601D01*
X0180004Y0137601D01*
X0179538Y0137476D01*
X0179121Y0137235D01*
X0178780Y0136894D01*
X0178539Y0136477D01*
X0178414Y0136011D01*
X0178414Y0135050D01*
X0181044Y0135050D01*
X0181044Y0134947D01*
X0178414Y0134947D01*
X0178414Y0133986D01*
X0178539Y0133520D01*
X0178780Y0133103D01*
X0179083Y0132799D01*
X0178614Y0132330D01*
X0178614Y0129914D01*
X0178411Y0129914D01*
X0177595Y0129099D01*
X0176816Y0129878D01*
X0176897Y0129959D01*
X0177138Y0130376D01*
X0177263Y0130842D01*
X0177263Y0131882D01*
X0174712Y0131882D01*
X0174712Y0131984D01*
X0177263Y0131984D01*
X0177263Y0133024D01*
X0177138Y0133490D01*
X0176897Y0133908D01*
X0176556Y0134248D01*
X0176139Y0134489D01*
X0175673Y0134614D01*
X0174712Y0134614D01*
X0174712Y0131984D01*
X0174609Y0131984D01*
X0174609Y0134614D01*
X0173648Y0134614D01*
X0173182Y0134489D01*
X0172765Y0134248D01*
X0172461Y0133945D01*
X0172269Y0134137D01*
X0173195Y0135063D01*
X0173346Y0135215D01*
X0173346Y0135215D01*
X0174577Y0136445D01*
X0174577Y0137810D01*
X0175377Y0137810D01*
X0176139Y0138572D01*
X0176139Y0141814D01*
X0176031Y0141922D01*
X0176039Y0141929D01*
X0176237Y0142271D01*
X0176339Y0142653D01*
X0176339Y0143892D01*
X0172518Y0143892D01*
X0172518Y0143974D01*
X0176339Y0143974D01*
X0176339Y0145213D01*
X0176237Y0145595D01*
X0176039Y0145937D01*
X0176031Y0145945D01*
X0176139Y0146052D01*
X0176139Y0149294D01*
X0175377Y0150056D01*
X0169576Y0150056D01*
X0169400Y0149880D01*
X0169048Y0150233D01*
X0167142Y0150233D01*
X0166958Y0150048D01*
X0166592Y0150414D01*
X0163698Y0150414D01*
X0163229Y0149945D01*
X0162926Y0150248D01*
X0162508Y0150489D01*
X0162042Y0150614D01*
X0161081Y0150614D01*
X0161081Y0147984D01*
X0160979Y0147984D01*
X0160979Y0150614D01*
X0160017Y0150614D01*
X0159552Y0150489D01*
X0159134Y0150248D01*
X0158793Y0149908D01*
X0158552Y0149490D01*
X0158427Y0149024D01*
X0158427Y0147984D01*
X0160979Y0147984D01*
X0160979Y0147882D01*
X0161081Y0147882D01*
X0161081Y0145252D01*
X0162042Y0145252D01*
X0162508Y0145377D01*
X0162926Y0145618D01*
X0163229Y0145921D01*
X0163698Y0145452D01*
X0166592Y0145452D01*
X0166958Y0145818D01*
X0167142Y0145633D01*
X0167925Y0145633D01*
X0167975Y0145583D01*
X0168504Y0145583D01*
X0168696Y0145519D01*
X0168614Y0145213D01*
X0168614Y0143974D01*
X0172435Y0143974D01*
X0172435Y0143892D01*
X0168614Y0143892D01*
X0168614Y0142653D01*
X0168717Y0142271D01*
X0168914Y0141929D01*
X0168922Y0141922D01*
X0168814Y0141814D01*
X0168814Y0138572D01*
X0169353Y0138033D01*
X0169248Y0138033D01*
X0169048Y0138233D01*
X0167142Y0138233D01*
X0166742Y0137833D01*
X0166382Y0137833D01*
X0166060Y0138155D01*
X0166188Y0138282D01*
X0166188Y0141334D01*
X0165233Y0142289D01*
X0162338Y0142289D01*
X0161869Y0141820D01*
X0161566Y0142123D01*
X0161148Y0142364D01*
X0160683Y0142489D01*
X0159721Y0142489D01*
X0159721Y0139859D01*
X0159619Y0139859D01*
X0159619Y0139757D01*
X0157068Y0139757D01*
X0157068Y0138717D01*
X0157095Y0138614D01*
X0156596Y0138614D01*
X0156596Y0135984D01*
X0156494Y0135984D01*
X0156494Y0135882D01*
X0153943Y0135882D01*
X0153943Y0134842D01*
X0154033Y0134505D01*
X0152666Y0134505D01*
X0151827Y0133665D01*
X0151827Y0129702D01*
X0147895Y0129702D01*
X0147895Y0129886D01*
X0146994Y0130787D01*
X0149699Y0133491D01*
X0150753Y0134546D01*
X0150753Y0137733D01*
X0151947Y0137733D01*
X0152747Y0138533D01*
X0155230Y0138533D01*
X0155067Y0138489D01*
X0154649Y0138248D01*
X0154309Y0137908D01*
X0154068Y0137490D01*
X0153943Y0137024D01*
X0153943Y0135984D01*
X0156494Y0135984D01*
X0156494Y0138614D01*
X0155822Y0138614D01*
X0156841Y0139633D01*
X0157068Y0139860D01*
X0157068Y0139859D01*
X0159619Y0139859D01*
X0159619Y0142489D01*
X0158657Y0142489D01*
X0158192Y0142364D01*
X0157895Y0142193D01*
X0157895Y0150687D01*
X0158841Y0151633D01*
X0168341Y0151633D01*
X0172841Y0156133D01*
X0173548Y0156133D01*
X0174895Y0157480D01*
X0174895Y0159386D01*
X0173548Y0160733D01*
X0171642Y0160733D01*
X0170295Y0159386D01*
X0170295Y0158679D01*
X0166850Y0155233D01*
X0157350Y0155233D01*
X0156295Y0154179D01*
X0155795Y0153679D01*
X0155795Y0156554D01*
X0157262Y0156554D01*
X0158341Y0157633D01*
X0159048Y0157633D01*
X0160395Y0158980D01*
X0160395Y0159687D01*
X0162341Y0161633D01*
X0170399Y0161633D01*
X0171080Y0160952D01*
X0173780Y0160952D01*
X0174595Y0161768D01*
X0175411Y0160952D01*
X0178110Y0160952D01*
X0178791Y0161633D01*
X0179850Y0161633D01*
X0180495Y0160987D01*
X0180495Y0157403D01*
X0180445Y0157353D01*
X0180495Y0157793D02*
X0174895Y0157793D01*
X0174895Y0158792D02*
X0180495Y0158792D01*
X0180495Y0159790D02*
X0174491Y0159790D01*
X0170700Y0159790D02*
X0160498Y0159790D01*
X0160206Y0158792D02*
X0170295Y0158792D01*
X0169410Y0157793D02*
X0159208Y0157793D01*
X0157502Y0156795D02*
X0168411Y0156795D01*
X0167413Y0155796D02*
X0155795Y0155796D01*
X0155795Y0154798D02*
X0156914Y0154798D01*
X0155916Y0153799D02*
X0155795Y0153799D01*
X0158011Y0150804D02*
X0176745Y0150804D01*
X0176634Y0150868D02*
X0177052Y0150627D01*
X0177517Y0150502D01*
X0178479Y0150502D01*
X0178479Y0153132D01*
X0175927Y0153132D01*
X0175927Y0152092D01*
X0176052Y0151626D01*
X0176293Y0151209D01*
X0176634Y0150868D01*
X0176005Y0151802D02*
X0168510Y0151802D01*
X0169508Y0152801D02*
X0175927Y0152801D01*
X0175927Y0153799D02*
X0170507Y0153799D01*
X0171505Y0154798D02*
X0176085Y0154798D01*
X0177263Y0155796D02*
X0172504Y0155796D01*
X0178479Y0155796D02*
X0178581Y0155796D01*
X0178581Y0154798D02*
X0178479Y0154798D01*
X0178479Y0153799D02*
X0178581Y0153799D01*
X0178581Y0152801D02*
X0178479Y0152801D01*
X0178479Y0151802D02*
X0178581Y0151802D01*
X0178581Y0150804D02*
X0178479Y0150804D01*
X0179562Y0149805D02*
X0175628Y0149805D01*
X0176139Y0148807D02*
X0179051Y0148807D01*
X0179051Y0147808D02*
X0176139Y0147808D01*
X0176139Y0146810D02*
X0179051Y0146810D01*
X0179293Y0145811D02*
X0176112Y0145811D01*
X0176339Y0144812D02*
X0180295Y0144812D01*
X0180295Y0143814D02*
X0176339Y0143814D01*
X0176339Y0142815D02*
X0180460Y0142815D01*
X0179054Y0141817D02*
X0176136Y0141817D01*
X0176139Y0140818D02*
X0179051Y0140818D01*
X0179051Y0139820D02*
X0176139Y0139820D01*
X0176139Y0138821D02*
X0179051Y0138821D01*
X0179800Y0137823D02*
X0175390Y0137823D01*
X0174577Y0136824D02*
X0178740Y0136824D01*
X0178414Y0135826D02*
X0173958Y0135826D01*
X0172959Y0134827D02*
X0178414Y0134827D01*
X0178456Y0133829D02*
X0176943Y0133829D01*
X0177263Y0132830D02*
X0179052Y0132830D01*
X0178614Y0131832D02*
X0177263Y0131832D01*
X0177261Y0130833D02*
X0178614Y0130833D01*
X0178331Y0129835D02*
X0176859Y0129835D01*
X0175430Y0127433D02*
X0172595Y0127433D01*
X0171095Y0125933D01*
X0165245Y0125933D01*
X0165213Y0125902D01*
X0165213Y0127870D02*
X0165213Y0130315D01*
X0166831Y0131933D01*
X0170545Y0131933D01*
X0165213Y0130315D02*
X0163977Y0131551D01*
X0161532Y0131551D01*
X0159564Y0131551D02*
X0159564Y0133402D01*
X0159595Y0133433D01*
X0157595Y0131551D02*
X0157595Y0128398D01*
X0157095Y0128398D01*
X0157095Y0124433D01*
X0157095Y0123433D01*
X0152931Y0123433D01*
X0152931Y0124433D01*
X0157095Y0124433D01*
X0158095Y0124433D01*
X0158095Y0128398D01*
X0157595Y0128398D01*
X0157595Y0131551D01*
X0157595Y0131551D01*
X0157595Y0130833D02*
X0157595Y0130833D01*
X0157595Y0129835D02*
X0157595Y0129835D01*
X0157595Y0128836D02*
X0157595Y0128836D01*
X0157095Y0127838D02*
X0158095Y0127838D01*
X0158095Y0126839D02*
X0157095Y0126839D01*
X0157095Y0125841D02*
X0158095Y0125841D01*
X0158095Y0124842D02*
X0157095Y0124842D01*
X0157095Y0123844D02*
X0152931Y0123844D01*
X0149977Y0123933D02*
X0144095Y0123933D01*
X0143095Y0124933D01*
X0143095Y0126933D01*
X0142095Y0127933D01*
X0139095Y0127933D01*
X0137595Y0126433D01*
X0137595Y0125055D01*
X0137595Y0122933D01*
X0135095Y0120433D01*
X0135095Y0117870D01*
X0135036Y0117811D01*
X0133146Y0117853D02*
X0131560Y0117853D01*
X0131375Y0117668D02*
X0133146Y0119438D01*
X0133146Y0115973D01*
X0133907Y0115212D01*
X0136165Y0115212D01*
X0136316Y0115362D01*
X0136466Y0115212D01*
X0138354Y0115212D01*
X0138354Y0114945D01*
X0138045Y0114636D01*
X0138045Y0112730D01*
X0138545Y0112230D01*
X0138545Y0110437D01*
X0143295Y0105687D01*
X0144350Y0104633D01*
X0146850Y0104633D01*
X0146881Y0104601D01*
X0146270Y0103989D01*
X0145583Y0102331D01*
X0145583Y0100535D01*
X0146270Y0098877D01*
X0147163Y0097983D01*
X0143027Y0097983D01*
X0143921Y0098877D01*
X0144608Y0100535D01*
X0144608Y0102331D01*
X0143921Y0103989D01*
X0142651Y0105259D01*
X0140993Y0105946D01*
X0139198Y0105946D01*
X0137539Y0105259D01*
X0136270Y0103989D01*
X0135583Y0102331D01*
X0135583Y0100535D01*
X0136270Y0098877D01*
X0137163Y0097983D01*
X0133189Y0097983D01*
X0133335Y0098236D01*
X0133438Y0098617D01*
X0133438Y0100398D01*
X0130552Y0100398D01*
X0130552Y0101169D01*
X0133438Y0101169D01*
X0133438Y0102949D01*
X0133335Y0103331D01*
X0133138Y0103673D01*
X0132859Y0103952D01*
X0132704Y0104042D01*
X0133238Y0104576D01*
X0133238Y0109590D01*
X0132476Y0110351D01*
X0131375Y0110351D01*
X0131375Y0117668D01*
X0131375Y0116854D02*
X0133146Y0116854D01*
X0133263Y0115856D02*
X0131375Y0115856D01*
X0131375Y0114857D02*
X0138267Y0114857D01*
X0138045Y0113859D02*
X0131375Y0113859D01*
X0131375Y0112860D02*
X0138045Y0112860D01*
X0138545Y0111862D02*
X0131375Y0111862D01*
X0131375Y0110863D02*
X0138545Y0110863D01*
X0139118Y0109865D02*
X0132963Y0109865D01*
X0133238Y0108866D02*
X0140117Y0108866D01*
X0141115Y0107868D02*
X0133238Y0107868D01*
X0133238Y0106869D02*
X0142114Y0106869D01*
X0141174Y0105871D02*
X0143112Y0105871D01*
X0143038Y0104872D02*
X0144111Y0104872D01*
X0143969Y0103874D02*
X0146222Y0103874D01*
X0145808Y0102875D02*
X0144382Y0102875D01*
X0144608Y0101877D02*
X0145583Y0101877D01*
X0145583Y0100878D02*
X0144608Y0100878D01*
X0144336Y0099879D02*
X0145854Y0099879D01*
X0146268Y0098881D02*
X0143922Y0098881D01*
X0150095Y0101433D02*
X0150095Y0103933D01*
X0147595Y0106433D01*
X0145095Y0106433D01*
X0140345Y0111183D01*
X0140345Y0113683D01*
X0140154Y0113874D01*
X0140154Y0117811D01*
X0142045Y0117853D02*
X0143795Y0117853D01*
X0143795Y0117730D02*
X0144295Y0117230D01*
X0144295Y0114687D01*
X0155896Y0103087D01*
X0155583Y0102331D01*
X0155583Y0100535D01*
X0156270Y0098877D01*
X0157163Y0097983D01*
X0153027Y0097983D01*
X0153921Y0098877D01*
X0154608Y0100535D01*
X0154608Y0102331D01*
X0153921Y0103989D01*
X0152651Y0105259D01*
X0150993Y0105946D01*
X0150628Y0105946D01*
X0148341Y0108233D01*
X0145841Y0108233D01*
X0142145Y0111929D01*
X0142145Y0112230D01*
X0142645Y0112730D01*
X0142645Y0114636D01*
X0141954Y0115327D01*
X0141954Y0115883D01*
X0142045Y0115973D01*
X0142045Y0119649D01*
X0141529Y0120165D01*
X0144324Y0120165D01*
X0143795Y0119636D01*
X0143795Y0117730D01*
X0144295Y0116854D02*
X0142045Y0116854D01*
X0141954Y0115856D02*
X0144295Y0115856D01*
X0144295Y0114857D02*
X0142424Y0114857D01*
X0142645Y0113859D02*
X0145124Y0113859D01*
X0146122Y0112860D02*
X0142645Y0112860D01*
X0142212Y0111862D02*
X0147121Y0111862D01*
X0148120Y0110863D02*
X0143211Y0110863D01*
X0144209Y0109865D02*
X0149118Y0109865D01*
X0150117Y0108866D02*
X0145208Y0108866D01*
X0148706Y0107868D02*
X0151115Y0107868D01*
X0152114Y0106869D02*
X0149705Y0106869D01*
X0151174Y0105871D02*
X0153112Y0105871D01*
X0153038Y0104872D02*
X0154111Y0104872D01*
X0153969Y0103874D02*
X0155109Y0103874D01*
X0155808Y0102875D02*
X0154382Y0102875D01*
X0154608Y0101877D02*
X0155583Y0101877D01*
X0155583Y0100878D02*
X0154608Y0100878D01*
X0154336Y0099879D02*
X0155854Y0099879D01*
X0156268Y0098881D02*
X0153922Y0098881D01*
X0160095Y0101433D02*
X0146095Y0115433D01*
X0146095Y0118683D01*
X0143795Y0118851D02*
X0142045Y0118851D01*
X0141844Y0119850D02*
X0144009Y0119850D01*
X0140182Y0121965D02*
X0140154Y0121992D01*
X0140154Y0125055D01*
X0140154Y0121992D02*
X0137595Y0119433D01*
X0137595Y0117811D01*
X0133146Y0118851D02*
X0132559Y0118851D01*
X0130463Y0121847D02*
X0110095Y0121847D01*
X0110095Y0122845D02*
X0131462Y0122845D01*
X0130841Y0123633D02*
X0131895Y0124687D01*
X0133146Y0125938D01*
X0133146Y0124529D01*
X0128830Y0120213D01*
X0127775Y0119159D01*
X0127775Y0110271D01*
X0127094Y0109590D01*
X0127094Y0108883D01*
X0117096Y0108883D01*
X0117096Y0109590D01*
X0116334Y0110351D01*
X0111714Y0110351D01*
X0110953Y0109590D01*
X0110953Y0104576D01*
X0111487Y0104042D01*
X0111332Y0103952D01*
X0111052Y0103673D01*
X0110855Y0103331D01*
X0110753Y0102949D01*
X0110753Y0101169D01*
X0113638Y0101169D01*
X0113638Y0100398D01*
X0110753Y0100398D01*
X0110753Y0098617D01*
X0110855Y0098236D01*
X0111001Y0097983D01*
X0110095Y0097983D01*
X0110095Y0126393D01*
X0110342Y0126393D01*
X0110342Y0126140D01*
X0111397Y0125086D01*
X0112850Y0123633D01*
X0121399Y0123633D01*
X0122080Y0122952D01*
X0124780Y0122952D01*
X0125595Y0123768D01*
X0126411Y0122952D01*
X0129110Y0122952D01*
X0129791Y0123633D01*
X0130841Y0123633D01*
X0131051Y0123844D02*
X0132460Y0123844D01*
X0132050Y0124842D02*
X0133146Y0124842D01*
X0133146Y0125841D02*
X0133048Y0125841D01*
X0130095Y0125433D02*
X0127760Y0125433D01*
X0130095Y0125433D02*
X0135174Y0130512D01*
X0135174Y0140333D01*
X0133205Y0140333D02*
X0133205Y0133043D01*
X0130095Y0129933D01*
X0127760Y0129933D01*
X0123430Y0129933D02*
X0121595Y0129933D01*
X0120930Y0129268D01*
X0118048Y0129268D01*
X0113595Y0125433D02*
X0112142Y0126886D01*
X0112142Y0129268D01*
X0110642Y0125841D02*
X0110095Y0125841D01*
X0110095Y0124842D02*
X0111640Y0124842D01*
X0112639Y0123844D02*
X0110095Y0123844D01*
X0113595Y0125433D02*
X0123430Y0125433D01*
X0128830Y0120213D02*
X0128830Y0120213D01*
X0128466Y0119850D02*
X0110095Y0119850D01*
X0110095Y0120848D02*
X0129465Y0120848D01*
X0127775Y0118851D02*
X0110095Y0118851D01*
X0110095Y0117853D02*
X0127775Y0117853D01*
X0127775Y0116854D02*
X0110095Y0116854D01*
X0110095Y0115856D02*
X0127775Y0115856D01*
X0127775Y0114857D02*
X0110095Y0114857D01*
X0110095Y0113859D02*
X0127775Y0113859D01*
X0127775Y0112860D02*
X0110095Y0112860D01*
X0110095Y0111862D02*
X0127775Y0111862D01*
X0127775Y0110863D02*
X0110095Y0110863D01*
X0110095Y0109865D02*
X0111228Y0109865D01*
X0110953Y0108866D02*
X0110095Y0108866D01*
X0110095Y0107868D02*
X0110953Y0107868D01*
X0110953Y0106869D02*
X0110095Y0106869D01*
X0110095Y0105871D02*
X0110953Y0105871D01*
X0110953Y0104872D02*
X0110095Y0104872D01*
X0110095Y0103874D02*
X0111253Y0103874D01*
X0110753Y0102875D02*
X0110095Y0102875D01*
X0110095Y0101877D02*
X0110753Y0101877D01*
X0110095Y0100878D02*
X0113638Y0100878D01*
X0114410Y0100878D02*
X0129780Y0100878D01*
X0129780Y0101169D02*
X0129780Y0100398D01*
X0126894Y0100398D01*
X0126894Y0098617D01*
X0126997Y0098236D01*
X0127143Y0097983D01*
X0117048Y0097983D01*
X0117194Y0098236D01*
X0117296Y0098617D01*
X0117296Y0100398D01*
X0114410Y0100398D01*
X0114410Y0101169D01*
X0117296Y0101169D01*
X0117296Y0102949D01*
X0117194Y0103331D01*
X0116996Y0103673D01*
X0116717Y0103952D01*
X0116562Y0104042D01*
X0117096Y0104576D01*
X0117096Y0105283D01*
X0127094Y0105283D01*
X0127094Y0104576D01*
X0127628Y0104042D01*
X0127473Y0103952D01*
X0127194Y0103673D01*
X0126997Y0103331D01*
X0126894Y0102949D01*
X0126894Y0101169D01*
X0129780Y0101169D01*
X0130552Y0100878D02*
X0135583Y0100878D01*
X0135583Y0101877D02*
X0133438Y0101877D01*
X0133438Y0102875D02*
X0135808Y0102875D01*
X0136222Y0103874D02*
X0132937Y0103874D01*
X0133238Y0104872D02*
X0137152Y0104872D01*
X0139016Y0105871D02*
X0133238Y0105871D01*
X0133438Y0099879D02*
X0135854Y0099879D01*
X0136268Y0098881D02*
X0133438Y0098881D01*
X0126894Y0098881D02*
X0117296Y0098881D01*
X0117296Y0099879D02*
X0126894Y0099879D01*
X0126894Y0101877D02*
X0117296Y0101877D01*
X0117296Y0102875D02*
X0126894Y0102875D01*
X0127395Y0103874D02*
X0116796Y0103874D01*
X0117096Y0104872D02*
X0127094Y0104872D01*
X0127369Y0109865D02*
X0116821Y0109865D01*
X0110753Y0099879D02*
X0110095Y0099879D01*
X0110095Y0098881D02*
X0110753Y0098881D01*
X0140182Y0121965D02*
X0149977Y0121965D01*
X0149977Y0119996D02*
X0149977Y0116815D01*
X0149095Y0115933D01*
X0151395Y0115687D02*
X0151777Y0116069D01*
X0151777Y0118165D01*
X0151827Y0118165D01*
X0151827Y0114201D01*
X0151858Y0114169D01*
X0151858Y0113124D01*
X0156295Y0108687D01*
X0157350Y0107633D01*
X0165341Y0107633D01*
X0168295Y0110587D01*
X0168295Y0105572D01*
X0167539Y0105259D01*
X0166270Y0103989D01*
X0165583Y0102331D01*
X0165583Y0100535D01*
X0166270Y0098877D01*
X0167163Y0097983D01*
X0163027Y0097983D01*
X0163921Y0098877D01*
X0164608Y0100535D01*
X0164608Y0102331D01*
X0163921Y0103989D01*
X0162651Y0105259D01*
X0160993Y0105946D01*
X0159198Y0105946D01*
X0158441Y0105632D01*
X0150244Y0113830D01*
X0151395Y0114980D01*
X0151395Y0115687D01*
X0151563Y0115856D02*
X0151827Y0115856D01*
X0151827Y0116854D02*
X0151777Y0116854D01*
X0151777Y0117853D02*
X0151827Y0117853D01*
X0153658Y0116315D02*
X0153658Y0113870D01*
X0158095Y0109433D01*
X0164595Y0109433D01*
X0170095Y0114933D01*
X0170095Y0101433D01*
X0165854Y0099879D02*
X0164336Y0099879D01*
X0164608Y0100878D02*
X0165583Y0100878D01*
X0165583Y0101877D02*
X0164608Y0101877D01*
X0164382Y0102875D02*
X0165808Y0102875D01*
X0166222Y0103874D02*
X0163969Y0103874D01*
X0163038Y0104872D02*
X0167152Y0104872D01*
X0168295Y0105871D02*
X0161174Y0105871D01*
X0159016Y0105871D02*
X0158203Y0105871D01*
X0157205Y0106869D02*
X0168295Y0106869D01*
X0168295Y0107868D02*
X0165575Y0107868D01*
X0166574Y0108866D02*
X0168295Y0108866D01*
X0168295Y0109865D02*
X0167572Y0109865D01*
X0165477Y0112860D02*
X0157214Y0112860D01*
X0156982Y0113161D02*
X0157595Y0113161D01*
X0157595Y0116315D01*
X0157595Y0119468D01*
X0157095Y0119468D01*
X0157095Y0123433D01*
X0158095Y0123433D01*
X0158095Y0119468D01*
X0157595Y0119468D01*
X0157595Y0116315D01*
X0157595Y0116315D01*
X0157595Y0116315D01*
X0157595Y0113161D01*
X0158209Y0113161D01*
X0158624Y0113273D01*
X0158778Y0113361D01*
X0162524Y0113361D01*
X0163364Y0114201D01*
X0163364Y0118165D01*
X0167327Y0118165D01*
X0168167Y0119004D01*
X0168167Y0122133D01*
X0170350Y0122133D01*
X0170795Y0121687D01*
X0171850Y0120633D01*
X0173399Y0120633D01*
X0173471Y0120561D01*
X0173045Y0120136D01*
X0173045Y0118230D01*
X0174392Y0116883D01*
X0174675Y0116883D01*
X0174825Y0116733D01*
X0174142Y0116733D01*
X0172795Y0115386D01*
X0172795Y0113480D01*
X0174142Y0112133D01*
X0174850Y0112133D01*
X0178295Y0108687D01*
X0178295Y0105572D01*
X0177539Y0105259D01*
X0176270Y0103989D01*
X0175583Y0102331D01*
X0175583Y0100535D01*
X0176270Y0098877D01*
X0177163Y0097983D01*
X0173027Y0097983D01*
X0173921Y0098877D01*
X0174608Y0100535D01*
X0174608Y0102331D01*
X0173921Y0103989D01*
X0172651Y0105259D01*
X0171895Y0105572D01*
X0171895Y0113480D01*
X0172395Y0113980D01*
X0172395Y0115886D01*
X0171048Y0117233D01*
X0169142Y0117233D01*
X0167795Y0115886D01*
X0167795Y0115179D01*
X0163850Y0111233D01*
X0158841Y0111233D01*
X0156887Y0113187D01*
X0156982Y0113161D01*
X0157595Y0113859D02*
X0157595Y0113859D01*
X0157595Y0114857D02*
X0157595Y0114857D01*
X0157595Y0115856D02*
X0157595Y0115856D01*
X0157595Y0116854D02*
X0157595Y0116854D01*
X0157595Y0117853D02*
X0157595Y0117853D01*
X0157595Y0118851D02*
X0157595Y0118851D01*
X0157095Y0119850D02*
X0158095Y0119850D01*
X0158095Y0120848D02*
X0157095Y0120848D01*
X0157095Y0121847D02*
X0158095Y0121847D01*
X0158095Y0122845D02*
X0157095Y0122845D01*
X0158095Y0123433D02*
X0158095Y0124433D01*
X0162260Y0124433D01*
X0162260Y0123433D01*
X0158095Y0123433D01*
X0158095Y0123844D02*
X0162260Y0123844D01*
X0165213Y0123933D02*
X0171095Y0123933D01*
X0172595Y0122433D01*
X0175430Y0122433D01*
X0177304Y0120477D02*
X0177595Y0120768D01*
X0178411Y0119952D01*
X0181110Y0119952D01*
X0181791Y0120633D01*
X0183841Y0120633D01*
X0184895Y0121687D01*
X0185341Y0122133D01*
X0186295Y0122133D01*
X0186295Y0120480D01*
X0187642Y0119133D01*
X0189325Y0119133D01*
X0188697Y0118505D01*
X0185738Y0118505D01*
X0185095Y0117862D01*
X0184453Y0118505D01*
X0181407Y0118505D01*
X0180646Y0117743D01*
X0180646Y0116852D01*
X0177645Y0119853D01*
X0177645Y0120136D01*
X0177304Y0120477D01*
X0177648Y0119850D02*
X0186926Y0119850D01*
X0186295Y0120848D02*
X0184056Y0120848D01*
X0185054Y0121847D02*
X0186295Y0121847D01*
X0188595Y0121433D02*
X0193717Y0121433D01*
X0196276Y0123933D02*
X0190095Y0123933D01*
X0185095Y0128933D01*
X0185095Y0130883D01*
X0189095Y0130768D02*
X0189095Y0128433D01*
X0191036Y0126492D01*
X0196276Y0126492D01*
X0194095Y0129051D02*
X0192119Y0129051D01*
X0194095Y0129051D01*
X0194095Y0129051D01*
X0192119Y0128836D02*
X0191237Y0128836D01*
X0191576Y0129835D02*
X0192119Y0129835D01*
X0192492Y0130833D02*
X0191576Y0130833D01*
X0191576Y0131832D02*
X0193566Y0131832D01*
X0193185Y0132830D02*
X0190863Y0132830D01*
X0191684Y0133829D02*
X0193185Y0133829D01*
X0193441Y0134827D02*
X0191776Y0134827D01*
X0191776Y0135826D02*
X0194014Y0135826D01*
X0194095Y0136824D02*
X0191455Y0136824D01*
X0189095Y0136824D02*
X0189095Y0136824D01*
X0189095Y0137583D02*
X0189095Y0135099D01*
X0189095Y0135099D01*
X0189095Y0137583D01*
X0189095Y0135826D02*
X0189095Y0135826D01*
X0185146Y0135826D02*
X0185044Y0135826D01*
X0185044Y0135050D02*
X0185044Y0134947D01*
X0182414Y0134947D01*
X0181146Y0134947D01*
X0181146Y0135050D01*
X0185044Y0135050D01*
X0185044Y0136824D02*
X0185146Y0136824D01*
X0185627Y0137823D02*
X0194095Y0137823D01*
X0194095Y0138821D02*
X0186376Y0138821D01*
X0186376Y0139820D02*
X0191269Y0139820D01*
X0191367Y0139764D02*
X0191748Y0139661D01*
X0192930Y0139661D01*
X0192930Y0142933D01*
X0192930Y0142933D01*
X0192930Y0142933D01*
X0190446Y0142933D01*
X0190446Y0140964D01*
X0190548Y0140582D01*
X0190745Y0140240D01*
X0191025Y0139961D01*
X0191367Y0139764D01*
X0190485Y0140818D02*
X0186376Y0140818D01*
X0186373Y0141817D02*
X0190446Y0141817D01*
X0190446Y0142815D02*
X0184730Y0142815D01*
X0184895Y0143814D02*
X0190446Y0143814D01*
X0190446Y0142933D02*
X0192930Y0142933D01*
X0192930Y0142933D01*
X0192930Y0146205D01*
X0191748Y0146205D01*
X0191367Y0146102D01*
X0191025Y0145905D01*
X0190745Y0145626D01*
X0190548Y0145284D01*
X0190446Y0144902D01*
X0190446Y0142933D01*
X0190446Y0144812D02*
X0184895Y0144812D01*
X0186135Y0145811D02*
X0190930Y0145811D01*
X0192930Y0145811D02*
X0192930Y0145811D01*
X0192930Y0144812D02*
X0192930Y0144812D01*
X0192930Y0143814D02*
X0192930Y0143814D01*
X0192930Y0142815D02*
X0192930Y0142815D01*
X0192930Y0141817D02*
X0192930Y0141817D01*
X0192930Y0140818D02*
X0192930Y0140818D01*
X0192930Y0139820D02*
X0192930Y0139820D01*
X0196095Y0139661D02*
X0196095Y0137269D01*
X0196467Y0137343D01*
X0196560Y0137343D01*
X0196560Y0133768D01*
X0197135Y0133768D01*
X0200709Y0133768D01*
X0200709Y0133861D01*
X0200561Y0134607D01*
X0200270Y0135310D01*
X0199847Y0135942D01*
X0199309Y0136480D01*
X0198677Y0136903D01*
X0197974Y0137194D01*
X0197227Y0137343D01*
X0197135Y0137343D01*
X0197135Y0133768D01*
X0197135Y0133193D01*
X0200709Y0133193D01*
X0200709Y0133100D01*
X0200561Y0132354D01*
X0200270Y0131651D01*
X0199847Y0131018D01*
X0199720Y0130891D01*
X0200234Y0130377D01*
X0200234Y0117489D01*
X0199720Y0116975D01*
X0199847Y0116848D01*
X0200270Y0116215D01*
X0200561Y0115512D01*
X0200709Y0114766D01*
X0200709Y0114673D01*
X0197135Y0114673D01*
X0197135Y0114098D01*
X0200709Y0114098D01*
X0200709Y0114005D01*
X0200561Y0113259D01*
X0200270Y0112556D01*
X0199847Y0111924D01*
X0199309Y0111386D01*
X0198677Y0110963D01*
X0197974Y0110672D01*
X0197227Y0110524D01*
X0197135Y0110524D01*
X0197135Y0114098D01*
X0196560Y0114098D01*
X0196560Y0110524D01*
X0196467Y0110524D01*
X0196095Y0110598D01*
X0196095Y0097983D01*
X0210302Y0097983D01*
X0210945Y0098061D01*
X0212132Y0098586D01*
X0213028Y0099525D01*
X0213497Y0100735D01*
X0213545Y0101378D01*
X0213545Y0101409D01*
X0213526Y0102234D01*
X0213545Y0102254D01*
X0213545Y0146433D01*
X0196095Y0146433D01*
X0196095Y0146205D01*
X0197260Y0146205D01*
X0197260Y0142933D01*
X0197261Y0142933D01*
X0197261Y0142933D01*
X0199745Y0142933D01*
X0199745Y0140964D01*
X0199643Y0140582D01*
X0199445Y0140240D01*
X0199166Y0139961D01*
X0198824Y0139764D01*
X0198442Y0139661D01*
X0197261Y0139661D01*
X0197261Y0142933D01*
X0199745Y0142933D01*
X0199745Y0144902D01*
X0199643Y0145284D01*
X0199445Y0145626D01*
X0199166Y0145905D01*
X0198824Y0146102D01*
X0198442Y0146205D01*
X0197261Y0146205D01*
X0197261Y0142933D01*
X0197260Y0142933D01*
X0197260Y0139661D01*
X0196095Y0139661D01*
X0196095Y0138821D02*
X0202149Y0138821D01*
X0202095Y0138549D02*
X0202230Y0139226D01*
X0202493Y0139863D01*
X0202877Y0140436D01*
X0203364Y0140923D01*
X0203937Y0141306D01*
X0204574Y0141570D01*
X0205250Y0141705D01*
X0207595Y0141705D01*
X0207595Y0138205D01*
X0207595Y0138205D01*
X0207595Y0138205D01*
X0202095Y0138205D01*
X0202095Y0138549D01*
X0202095Y0138205D02*
X0202095Y0137860D01*
X0202230Y0137184D01*
X0202493Y0136547D01*
X0202877Y0135974D01*
X0203364Y0135486D01*
X0203937Y0135103D01*
X0204574Y0134839D01*
X0205250Y0134705D01*
X0207595Y0134705D01*
X0207595Y0138205D01*
X0207595Y0141705D01*
X0209940Y0141705D01*
X0210616Y0141570D01*
X0211253Y0141306D01*
X0211826Y0140923D01*
X0212314Y0140436D01*
X0212697Y0139863D01*
X0212961Y0139226D01*
X0213095Y0138549D01*
X0213095Y0138205D01*
X0207595Y0138205D01*
X0207595Y0138205D01*
X0202095Y0138205D01*
X0202103Y0137823D02*
X0196095Y0137823D01*
X0196560Y0136824D02*
X0197135Y0136824D01*
X0197135Y0135826D02*
X0196560Y0135826D01*
X0196560Y0134827D02*
X0197135Y0134827D01*
X0197135Y0133829D02*
X0196560Y0133829D01*
X0198794Y0136824D02*
X0202379Y0136824D01*
X0203024Y0135826D02*
X0199925Y0135826D01*
X0200470Y0134827D02*
X0204634Y0134827D01*
X0204742Y0133768D02*
X0204129Y0133514D01*
X0203577Y0133145D01*
X0203107Y0132676D01*
X0202739Y0132124D01*
X0202484Y0131511D01*
X0202355Y0130859D01*
X0202355Y0129157D01*
X0207095Y0129157D01*
X0207095Y0128157D01*
X0208095Y0128157D01*
X0208095Y0124449D01*
X0208095Y0119709D01*
X0207095Y0119709D01*
X0207095Y0128157D01*
X0202355Y0128157D01*
X0202355Y0126455D01*
X0202484Y0125804D01*
X0202739Y0125191D01*
X0203107Y0124639D01*
X0203577Y0124170D01*
X0203931Y0123933D01*
X0203577Y0123696D01*
X0203107Y0123227D01*
X0202739Y0122675D01*
X0202484Y0122062D01*
X0202355Y0121411D01*
X0202355Y0119709D01*
X0207095Y0119709D01*
X0207095Y0118709D01*
X0202355Y0118709D01*
X0202355Y0117007D01*
X0202484Y0116356D01*
X0202739Y0115742D01*
X0203107Y0115190D01*
X0203577Y0114721D01*
X0204129Y0114352D01*
X0204742Y0114098D01*
X0205393Y0113969D01*
X0207095Y0113968D01*
X0207095Y0118709D01*
X0208095Y0118709D01*
X0208095Y0119709D01*
X0212835Y0119709D01*
X0212835Y0121411D01*
X0212706Y0122062D01*
X0212452Y0122675D01*
X0212083Y0123227D01*
X0211614Y0123696D01*
X0211259Y0123933D01*
X0211614Y0124170D01*
X0212083Y0124639D01*
X0212452Y0125191D01*
X0212706Y0125804D01*
X0212835Y0126455D01*
X0212835Y0128157D01*
X0208095Y0128157D01*
X0208095Y0129157D01*
X0212835Y0129157D01*
X0212835Y0130859D01*
X0212706Y0131511D01*
X0212452Y0132124D01*
X0212083Y0132676D01*
X0211614Y0133145D01*
X0211062Y0133514D01*
X0210448Y0133768D01*
X0209797Y0133898D01*
X0208095Y0133898D01*
X0208095Y0129158D01*
X0207095Y0129158D01*
X0207095Y0133898D01*
X0205393Y0133898D01*
X0204742Y0133768D01*
X0205047Y0133829D02*
X0200709Y0133829D01*
X0200656Y0132830D02*
X0203262Y0132830D01*
X0202618Y0131832D02*
X0200345Y0131832D01*
X0199777Y0130833D02*
X0202355Y0130833D01*
X0202355Y0129835D02*
X0200234Y0129835D01*
X0200234Y0128836D02*
X0207095Y0128836D01*
X0207095Y0127838D02*
X0208095Y0127838D01*
X0208095Y0128836D02*
X0213545Y0128836D01*
X0213545Y0127838D02*
X0212835Y0127838D01*
X0212835Y0126839D02*
X0213545Y0126839D01*
X0213545Y0125841D02*
X0212713Y0125841D01*
X0212219Y0124842D02*
X0213545Y0124842D01*
X0213545Y0123844D02*
X0211393Y0123844D01*
X0212338Y0122845D02*
X0213545Y0122845D01*
X0213545Y0121847D02*
X0212749Y0121847D01*
X0212835Y0120848D02*
X0213545Y0120848D01*
X0213545Y0119850D02*
X0212835Y0119850D01*
X0212835Y0118709D02*
X0208095Y0118709D01*
X0208095Y0113969D01*
X0209797Y0113969D01*
X0210448Y0114098D01*
X0211062Y0114352D01*
X0211614Y0114721D01*
X0212083Y0115190D01*
X0212452Y0115742D01*
X0212706Y0116356D01*
X0212835Y0117007D01*
X0212835Y0118709D01*
X0213545Y0118851D02*
X0208095Y0118851D01*
X0208095Y0117853D02*
X0207095Y0117853D01*
X0207095Y0118851D02*
X0200234Y0118851D01*
X0200234Y0117853D02*
X0202355Y0117853D01*
X0202385Y0116854D02*
X0199841Y0116854D01*
X0200419Y0115856D02*
X0202692Y0115856D01*
X0203440Y0114857D02*
X0200691Y0114857D01*
X0200680Y0113859D02*
X0213545Y0113859D01*
X0213545Y0114857D02*
X0211750Y0114857D01*
X0212499Y0115856D02*
X0213545Y0115856D01*
X0213545Y0116854D02*
X0212805Y0116854D01*
X0212835Y0117853D02*
X0213545Y0117853D01*
X0213545Y0112860D02*
X0211019Y0112860D01*
X0211253Y0112763D02*
X0210616Y0113027D01*
X0209940Y0113161D01*
X0207595Y0113161D01*
X0205250Y0113161D01*
X0204574Y0113027D01*
X0203937Y0112763D01*
X0203364Y0112380D01*
X0202877Y0111893D01*
X0202493Y0111319D01*
X0202230Y0110682D01*
X0202095Y0110006D01*
X0202095Y0109661D01*
X0202095Y0109317D01*
X0202230Y0108641D01*
X0202493Y0108004D01*
X0202877Y0107430D01*
X0203364Y0106943D01*
X0203937Y0106560D01*
X0204574Y0106296D01*
X0205250Y0106161D01*
X0207595Y0106161D01*
X0207595Y0109661D01*
X0207595Y0109661D01*
X0207595Y0106161D01*
X0209940Y0106161D01*
X0210616Y0106296D01*
X0211253Y0106560D01*
X0211826Y0106943D01*
X0212314Y0107430D01*
X0212697Y0108004D01*
X0212961Y0108641D01*
X0213095Y0109317D01*
X0213095Y0109661D01*
X0207595Y0109661D01*
X0202095Y0109661D01*
X0207595Y0109661D01*
X0207595Y0109661D01*
X0207595Y0109661D01*
X0213095Y0109661D01*
X0213095Y0110006D01*
X0212961Y0110682D01*
X0212697Y0111319D01*
X0212314Y0111893D01*
X0211826Y0112380D01*
X0211253Y0112763D01*
X0212334Y0111862D02*
X0213545Y0111862D01*
X0213545Y0110863D02*
X0212886Y0110863D01*
X0213095Y0109865D02*
X0213545Y0109865D01*
X0213545Y0108866D02*
X0213005Y0108866D01*
X0212606Y0107868D02*
X0213545Y0107868D01*
X0213545Y0106869D02*
X0211716Y0106869D01*
X0213545Y0105871D02*
X0196095Y0105871D01*
X0196095Y0106869D02*
X0203474Y0106869D01*
X0202584Y0107868D02*
X0196095Y0107868D01*
X0196095Y0108866D02*
X0202185Y0108866D01*
X0202095Y0109865D02*
X0196095Y0109865D01*
X0196560Y0110863D02*
X0197135Y0110863D01*
X0197135Y0111862D02*
X0196560Y0111862D01*
X0196560Y0112860D02*
X0197135Y0112860D01*
X0197135Y0113859D02*
X0196560Y0113859D01*
X0194095Y0111959D02*
X0194095Y0105697D01*
X0193846Y0105946D01*
X0192195Y0105946D01*
X0192195Y0109803D01*
X0190965Y0111033D01*
X0189210Y0112788D01*
X0189545Y0113123D01*
X0189545Y0113413D01*
X0190695Y0114563D01*
X0192847Y0116715D01*
X0193997Y0116715D01*
X0193742Y0116460D01*
X0193185Y0115114D01*
X0193185Y0113657D01*
X0193742Y0112311D01*
X0194095Y0111959D01*
X0194095Y0111862D02*
X0190136Y0111862D01*
X0189282Y0112860D02*
X0193515Y0112860D01*
X0193185Y0113859D02*
X0189991Y0113859D01*
X0190989Y0114857D02*
X0193185Y0114857D01*
X0193492Y0115856D02*
X0191988Y0115856D01*
X0189043Y0118851D02*
X0178647Y0118851D01*
X0179645Y0117853D02*
X0180755Y0117853D01*
X0180646Y0116854D02*
X0180644Y0116854D01*
X0174704Y0116854D02*
X0171427Y0116854D01*
X0172395Y0115856D02*
X0173265Y0115856D01*
X0172795Y0114857D02*
X0172395Y0114857D01*
X0172273Y0113859D02*
X0172795Y0113859D01*
X0173415Y0112860D02*
X0171895Y0112860D01*
X0171895Y0111862D02*
X0175121Y0111862D01*
X0176120Y0110863D02*
X0171895Y0110863D01*
X0171895Y0109865D02*
X0177118Y0109865D01*
X0178117Y0108866D02*
X0171895Y0108866D01*
X0171895Y0107868D02*
X0178295Y0107868D01*
X0178295Y0106869D02*
X0171895Y0106869D01*
X0171895Y0105871D02*
X0178295Y0105871D01*
X0177152Y0104872D02*
X0173038Y0104872D01*
X0173969Y0103874D02*
X0176222Y0103874D01*
X0175808Y0102875D02*
X0174382Y0102875D01*
X0174608Y0101877D02*
X0175583Y0101877D01*
X0175583Y0100878D02*
X0174608Y0100878D01*
X0174336Y0099879D02*
X0175854Y0099879D01*
X0176268Y0098881D02*
X0173922Y0098881D01*
X0180095Y0101433D02*
X0180095Y0109433D01*
X0175095Y0114433D01*
X0173423Y0117853D02*
X0163364Y0117853D01*
X0163364Y0116854D02*
X0168764Y0116854D01*
X0167795Y0115856D02*
X0163364Y0115856D01*
X0163364Y0114857D02*
X0167474Y0114857D01*
X0166475Y0113859D02*
X0163022Y0113859D01*
X0164478Y0111862D02*
X0158212Y0111862D01*
X0155118Y0109865D02*
X0154209Y0109865D01*
X0154120Y0110863D02*
X0153211Y0110863D01*
X0153121Y0111862D02*
X0152212Y0111862D01*
X0152122Y0112860D02*
X0151214Y0112860D01*
X0151858Y0113859D02*
X0150273Y0113859D01*
X0151272Y0114857D02*
X0151827Y0114857D01*
X0155208Y0108866D02*
X0156117Y0108866D01*
X0156206Y0107868D02*
X0157115Y0107868D01*
X0163922Y0098881D02*
X0166268Y0098881D01*
X0183027Y0097983D02*
X0183921Y0098877D01*
X0184608Y0100535D01*
X0184608Y0102331D01*
X0183921Y0103989D01*
X0182651Y0105259D01*
X0181895Y0105572D01*
X0181895Y0109663D01*
X0181975Y0109583D01*
X0181975Y0109583D01*
X0182225Y0109333D01*
X0186725Y0109333D01*
X0187995Y0108063D01*
X0187995Y0105946D01*
X0186344Y0105946D01*
X0185583Y0105184D01*
X0185583Y0097983D01*
X0183027Y0097983D01*
X0183922Y0098881D02*
X0185583Y0098881D01*
X0185583Y0099879D02*
X0184336Y0099879D01*
X0184608Y0100878D02*
X0185583Y0100878D01*
X0185583Y0101877D02*
X0184608Y0101877D01*
X0184382Y0102875D02*
X0185583Y0102875D01*
X0185583Y0103874D02*
X0183969Y0103874D01*
X0183038Y0104872D02*
X0185583Y0104872D01*
X0186269Y0105871D02*
X0181895Y0105871D01*
X0181895Y0106869D02*
X0187995Y0106869D01*
X0187995Y0107868D02*
X0181895Y0107868D01*
X0181895Y0108866D02*
X0187192Y0108866D01*
X0191135Y0110863D02*
X0194095Y0110863D01*
X0194095Y0109865D02*
X0192133Y0109865D01*
X0192195Y0108866D02*
X0194095Y0108866D01*
X0194095Y0107868D02*
X0192195Y0107868D01*
X0192195Y0106869D02*
X0194095Y0106869D01*
X0194095Y0105871D02*
X0193921Y0105871D01*
X0196095Y0104872D02*
X0213545Y0104872D01*
X0213545Y0103874D02*
X0196095Y0103874D01*
X0196095Y0102875D02*
X0213545Y0102875D01*
X0213534Y0101877D02*
X0196095Y0101877D01*
X0196095Y0100878D02*
X0213508Y0100878D01*
X0213166Y0099879D02*
X0196095Y0099879D01*
X0196095Y0098881D02*
X0212414Y0098881D01*
X0207595Y0106869D02*
X0207595Y0106869D01*
X0207595Y0107868D02*
X0207595Y0107868D01*
X0207595Y0108866D02*
X0207595Y0108866D01*
X0207595Y0109662D02*
X0207595Y0113161D01*
X0207595Y0109662D01*
X0207595Y0109662D01*
X0207595Y0109865D02*
X0207595Y0109865D01*
X0207595Y0110863D02*
X0207595Y0110863D01*
X0207595Y0111862D02*
X0207595Y0111862D01*
X0207595Y0112860D02*
X0207595Y0112860D01*
X0207095Y0114857D02*
X0208095Y0114857D01*
X0208095Y0115856D02*
X0207095Y0115856D01*
X0207095Y0116854D02*
X0208095Y0116854D01*
X0208095Y0119850D02*
X0207095Y0119850D01*
X0207095Y0120848D02*
X0208095Y0120848D01*
X0208095Y0121847D02*
X0207095Y0121847D01*
X0207095Y0122845D02*
X0208095Y0122845D01*
X0208095Y0123844D02*
X0207095Y0123844D01*
X0207095Y0124842D02*
X0208095Y0124842D01*
X0208095Y0125841D02*
X0207095Y0125841D01*
X0207095Y0126839D02*
X0208095Y0126839D01*
X0208095Y0129835D02*
X0207095Y0129835D01*
X0207095Y0130833D02*
X0208095Y0130833D01*
X0208095Y0131832D02*
X0207095Y0131832D01*
X0207095Y0132830D02*
X0208095Y0132830D01*
X0208095Y0133829D02*
X0207095Y0133829D01*
X0207595Y0134705D02*
X0209940Y0134705D01*
X0210616Y0134839D01*
X0211253Y0135103D01*
X0211826Y0135486D01*
X0212314Y0135974D01*
X0212697Y0136547D01*
X0212961Y0137184D01*
X0213095Y0137860D01*
X0213095Y0138205D01*
X0207595Y0138205D01*
X0207595Y0138205D01*
X0207595Y0134705D01*
X0207595Y0134827D02*
X0207595Y0134827D01*
X0207595Y0135826D02*
X0207595Y0135826D01*
X0207595Y0136824D02*
X0207595Y0136824D01*
X0207595Y0137823D02*
X0207595Y0137823D01*
X0207595Y0138821D02*
X0207595Y0138821D01*
X0207595Y0139820D02*
X0207595Y0139820D01*
X0207595Y0140818D02*
X0207595Y0140818D01*
X0203259Y0140818D02*
X0199706Y0140818D01*
X0199745Y0141817D02*
X0213545Y0141817D01*
X0213545Y0142815D02*
X0199745Y0142815D01*
X0199745Y0143814D02*
X0213545Y0143814D01*
X0213545Y0144812D02*
X0199745Y0144812D01*
X0199260Y0145811D02*
X0213545Y0145811D01*
X0213545Y0149805D02*
X0185865Y0149805D01*
X0186376Y0148807D02*
X0194095Y0148807D01*
X0194095Y0147808D02*
X0186376Y0147808D01*
X0186376Y0146810D02*
X0194095Y0146810D01*
X0197260Y0145811D02*
X0197261Y0145811D01*
X0197260Y0144812D02*
X0197261Y0144812D01*
X0197260Y0143814D02*
X0197261Y0143814D01*
X0197260Y0142815D02*
X0197261Y0142815D01*
X0197260Y0141817D02*
X0197261Y0141817D01*
X0197260Y0140818D02*
X0197261Y0140818D01*
X0197260Y0139820D02*
X0197261Y0139820D01*
X0198921Y0139820D02*
X0202476Y0139820D01*
X0210556Y0134827D02*
X0213545Y0134827D01*
X0213545Y0133829D02*
X0210143Y0133829D01*
X0211928Y0132830D02*
X0213545Y0132830D01*
X0213545Y0131832D02*
X0212573Y0131832D01*
X0212835Y0130833D02*
X0213545Y0130833D01*
X0213545Y0129835D02*
X0212835Y0129835D01*
X0203797Y0123844D02*
X0200234Y0123844D01*
X0200234Y0124842D02*
X0202972Y0124842D01*
X0202477Y0125841D02*
X0200234Y0125841D01*
X0200234Y0126839D02*
X0202355Y0126839D01*
X0202355Y0127838D02*
X0200234Y0127838D01*
X0200234Y0122845D02*
X0202852Y0122845D01*
X0202442Y0121847D02*
X0200234Y0121847D01*
X0200234Y0120848D02*
X0202355Y0120848D01*
X0202355Y0119850D02*
X0200234Y0119850D01*
X0200396Y0112860D02*
X0204172Y0112860D01*
X0202856Y0111862D02*
X0199785Y0111862D01*
X0198435Y0110863D02*
X0202305Y0110863D01*
X0184595Y0123933D02*
X0183095Y0122433D01*
X0179760Y0122433D01*
X0184595Y0123933D02*
X0190095Y0123933D01*
X0182595Y0127433D02*
X0181095Y0128933D01*
X0181095Y0130883D01*
X0174712Y0132830D02*
X0174609Y0132830D01*
X0174609Y0133829D02*
X0174712Y0133829D01*
X0181044Y0135826D02*
X0181146Y0135826D01*
X0181146Y0136824D02*
X0181044Y0136824D01*
X0168814Y0138821D02*
X0166188Y0138821D01*
X0166188Y0139820D02*
X0168814Y0139820D01*
X0168814Y0140818D02*
X0166188Y0140818D01*
X0165705Y0141817D02*
X0168817Y0141817D01*
X0168614Y0142815D02*
X0157895Y0142815D01*
X0157895Y0143814D02*
X0168614Y0143814D01*
X0168614Y0144812D02*
X0157895Y0144812D01*
X0157895Y0145811D02*
X0158941Y0145811D01*
X0158793Y0145959D02*
X0159134Y0145618D01*
X0159552Y0145377D01*
X0160017Y0145252D01*
X0160979Y0145252D01*
X0160979Y0147882D01*
X0158427Y0147882D01*
X0158427Y0146842D01*
X0158552Y0146376D01*
X0158793Y0145959D01*
X0158436Y0146810D02*
X0157895Y0146810D01*
X0157895Y0147808D02*
X0158427Y0147808D01*
X0158427Y0148807D02*
X0157895Y0148807D01*
X0157895Y0149805D02*
X0158734Y0149805D01*
X0160979Y0149805D02*
X0161081Y0149805D01*
X0161081Y0148807D02*
X0160979Y0148807D01*
X0160979Y0147808D02*
X0161081Y0147808D01*
X0161081Y0146810D02*
X0160979Y0146810D01*
X0160979Y0145811D02*
X0161081Y0145811D01*
X0163119Y0145811D02*
X0163339Y0145811D01*
X0166951Y0145811D02*
X0166965Y0145811D01*
X0159721Y0141817D02*
X0159619Y0141817D01*
X0159619Y0140818D02*
X0159721Y0140818D01*
X0159619Y0139820D02*
X0157028Y0139820D01*
X0157068Y0138821D02*
X0156029Y0138821D01*
X0156494Y0137823D02*
X0156596Y0137823D01*
X0156596Y0136824D02*
X0156494Y0136824D01*
X0154260Y0137823D02*
X0152037Y0137823D01*
X0150753Y0136824D02*
X0153943Y0136824D01*
X0153943Y0135826D02*
X0150753Y0135826D01*
X0150753Y0134827D02*
X0153947Y0134827D01*
X0151990Y0133829D02*
X0150037Y0133829D01*
X0149699Y0133491D02*
X0149699Y0133491D01*
X0149038Y0132830D02*
X0151827Y0132830D01*
X0151827Y0131832D02*
X0148039Y0131832D01*
X0147041Y0130833D02*
X0151827Y0130833D01*
X0151827Y0129835D02*
X0147895Y0129835D01*
X0145595Y0128933D02*
X0145595Y0127433D01*
X0147127Y0125902D01*
X0149977Y0125902D01*
X0138850Y0133233D02*
X0136974Y0131357D01*
X0136974Y0137733D01*
X0138086Y0137733D01*
X0138142Y0137733D01*
X0137795Y0137386D01*
X0137795Y0135480D01*
X0139142Y0134133D01*
X0140795Y0134133D01*
X0140795Y0133233D01*
X0138850Y0133233D01*
X0138447Y0132830D02*
X0136974Y0132830D01*
X0136974Y0131832D02*
X0137448Y0131832D01*
X0136974Y0133829D02*
X0140795Y0133829D01*
X0143095Y0133933D02*
X0143048Y0134386D01*
X0143048Y0140333D01*
X0141095Y0140317D02*
X0141079Y0140333D01*
X0140595Y0142933D02*
X0148902Y0142933D01*
X0149398Y0143066D01*
X0149842Y0143323D01*
X0150206Y0143686D01*
X0150462Y0144130D01*
X0150595Y0144626D01*
X0150595Y0152933D01*
X0140595Y0152933D01*
X0140595Y0142933D01*
X0140595Y0143814D02*
X0139595Y0143814D01*
X0139595Y0142933D02*
X0139595Y0152933D01*
X0129595Y0152933D01*
X0129595Y0144626D01*
X0129728Y0144130D01*
X0129985Y0143686D01*
X0130348Y0143323D01*
X0130792Y0143066D01*
X0131288Y0142933D01*
X0139595Y0142933D01*
X0139595Y0144812D02*
X0140595Y0144812D01*
X0140595Y0145811D02*
X0139595Y0145811D01*
X0139595Y0146810D02*
X0140595Y0146810D01*
X0140595Y0147808D02*
X0139595Y0147808D01*
X0139595Y0148807D02*
X0140595Y0148807D01*
X0140595Y0149805D02*
X0139595Y0149805D01*
X0139595Y0150804D02*
X0140595Y0150804D01*
X0140595Y0151802D02*
X0139595Y0151802D01*
X0139595Y0152801D02*
X0140595Y0152801D01*
X0140595Y0152933D02*
X0139595Y0152933D01*
X0139595Y0153933D01*
X0129595Y0153933D01*
X0129595Y0158473D01*
X0129595Y0158473D01*
X0129595Y0142933D01*
X0150595Y0142933D01*
X0150595Y0163933D01*
X0142105Y0163933D01*
X0140961Y0163933D01*
X0140961Y0163933D01*
X0148902Y0163933D01*
X0149398Y0163800D01*
X0149842Y0163543D01*
X0150206Y0163180D01*
X0150462Y0162736D01*
X0150595Y0162240D01*
X0150595Y0153933D01*
X0140595Y0153933D01*
X0140595Y0163317D01*
X0140445Y0163167D01*
X0139595Y0162317D01*
X0139595Y0153933D01*
X0140595Y0153933D01*
X0140595Y0152933D01*
X0140595Y0153799D02*
X0150595Y0153799D01*
X0150595Y0152801D02*
X0150595Y0152801D01*
X0150595Y0151802D02*
X0150595Y0151802D01*
X0150595Y0150804D02*
X0150595Y0150804D01*
X0150595Y0149805D02*
X0150595Y0149805D01*
X0150595Y0148807D02*
X0150595Y0148807D01*
X0150595Y0147808D02*
X0150595Y0147808D01*
X0150595Y0146810D02*
X0150595Y0146810D01*
X0150595Y0145811D02*
X0150595Y0145811D01*
X0150595Y0144812D02*
X0150595Y0144812D01*
X0150595Y0143814D02*
X0150280Y0143814D01*
X0145016Y0140333D02*
X0145016Y0138012D01*
X0146095Y0136933D01*
X0145095Y0137933D01*
X0138448Y0134827D02*
X0136974Y0134827D01*
X0136974Y0135826D02*
X0137795Y0135826D01*
X0137795Y0136824D02*
X0136974Y0136824D01*
X0131237Y0135575D02*
X0131237Y0140333D01*
X0129911Y0143814D02*
X0129595Y0143814D01*
X0129595Y0144812D02*
X0129595Y0144812D01*
X0129595Y0145811D02*
X0129595Y0145811D01*
X0129595Y0146810D02*
X0129595Y0146810D01*
X0129595Y0147808D02*
X0129595Y0147808D01*
X0129595Y0148807D02*
X0129595Y0148807D01*
X0129595Y0149805D02*
X0129595Y0149805D01*
X0129595Y0150804D02*
X0129595Y0150804D01*
X0129595Y0151802D02*
X0129595Y0151802D01*
X0129595Y0152801D02*
X0129595Y0152801D01*
X0129595Y0153799D02*
X0139595Y0153799D01*
X0139595Y0154798D02*
X0140595Y0154798D01*
X0140595Y0155796D02*
X0139595Y0155796D01*
X0139595Y0156795D02*
X0140595Y0156795D01*
X0140595Y0157793D02*
X0139595Y0157793D01*
X0139595Y0158792D02*
X0140595Y0158792D01*
X0140595Y0159790D02*
X0139595Y0159790D01*
X0139595Y0160789D02*
X0140595Y0160789D01*
X0140595Y0161787D02*
X0139595Y0161787D01*
X0140064Y0162786D02*
X0140595Y0162786D01*
X0141079Y0166533D02*
X0141079Y0173417D01*
X0144595Y0176933D01*
X0143595Y0177933D01*
X0142260Y0177933D01*
X0144595Y0176933D02*
X0150095Y0182433D01*
X0157595Y0182433D01*
X0160095Y0184933D01*
X0160095Y0191433D01*
X0155910Y0189745D02*
X0154281Y0189745D01*
X0154608Y0190535D02*
X0153921Y0188877D01*
X0152651Y0187607D01*
X0150993Y0186920D01*
X0149198Y0186920D01*
X0147539Y0187607D01*
X0146270Y0188877D01*
X0145583Y0190535D01*
X0145583Y0192331D01*
X0146270Y0193989D01*
X0147163Y0194883D01*
X0143310Y0194883D01*
X0143690Y0194503D01*
X0144126Y0193903D01*
X0144462Y0193242D01*
X0144692Y0192537D01*
X0144787Y0191933D01*
X0140595Y0191933D01*
X0140595Y0190933D01*
X0140595Y0186741D01*
X0141199Y0186837D01*
X0141904Y0187066D01*
X0142565Y0187402D01*
X0143165Y0187838D01*
X0143690Y0188363D01*
X0144126Y0188963D01*
X0144462Y0189624D01*
X0144692Y0190330D01*
X0144787Y0190933D01*
X0140595Y0190933D01*
X0139595Y0190933D01*
X0135403Y0190933D01*
X0135499Y0190330D01*
X0135728Y0189624D01*
X0136065Y0188963D01*
X0136501Y0188363D01*
X0137025Y0187838D01*
X0137625Y0187402D01*
X0138286Y0187066D01*
X0138992Y0186837D01*
X0139595Y0186741D01*
X0139595Y0190933D01*
X0139595Y0191933D01*
X0135403Y0191933D01*
X0135499Y0192537D01*
X0135728Y0193242D01*
X0136065Y0193903D01*
X0136501Y0194503D01*
X0136881Y0194883D01*
X0126595Y0194883D01*
X0126595Y0183884D01*
X0127439Y0184233D01*
X0128752Y0184233D01*
X0129964Y0183731D01*
X0130893Y0182802D01*
X0131395Y0181589D01*
X0131395Y0180277D01*
X0131364Y0180201D01*
X0131364Y0179885D01*
X0130562Y0177949D01*
X0130562Y0177949D01*
X0129080Y0176467D01*
X0129080Y0176467D01*
X0127143Y0175665D01*
X0126595Y0175665D01*
X0126595Y0166150D01*
X0127378Y0166150D01*
X0127378Y0168268D01*
X0128243Y0169133D01*
X0137261Y0169133D01*
X0137261Y0169151D01*
X0135745Y0170667D01*
X0135745Y0172530D01*
X0135295Y0172980D01*
X0135295Y0174886D01*
X0136030Y0175620D01*
X0136030Y0176002D01*
X0135646Y0176386D01*
X0135646Y0179480D01*
X0136580Y0180414D01*
X0139280Y0180414D01*
X0140095Y0179599D01*
X0140911Y0180414D01*
X0143610Y0180414D01*
X0144291Y0179733D01*
X0144341Y0179733D01*
X0144595Y0179479D01*
X0149350Y0184233D01*
X0156850Y0184233D01*
X0158295Y0185679D01*
X0158295Y0187294D01*
X0157539Y0187607D01*
X0156270Y0188877D01*
X0155583Y0190535D01*
X0155583Y0192331D01*
X0156270Y0193989D01*
X0157163Y0194883D01*
X0153027Y0194883D01*
X0153921Y0193989D01*
X0154608Y0192331D01*
X0154608Y0190535D01*
X0154608Y0190744D02*
X0155583Y0190744D01*
X0155583Y0191743D02*
X0154608Y0191743D01*
X0154438Y0192741D02*
X0155753Y0192741D01*
X0156166Y0193740D02*
X0154024Y0193740D01*
X0153172Y0194738D02*
X0157018Y0194738D01*
X0156399Y0188747D02*
X0153791Y0188747D01*
X0152792Y0187748D02*
X0157398Y0187748D01*
X0158295Y0186750D02*
X0140652Y0186750D01*
X0140595Y0186750D02*
X0139595Y0186750D01*
X0139538Y0186750D02*
X0126595Y0186750D01*
X0126595Y0187748D02*
X0137149Y0187748D01*
X0136222Y0188747D02*
X0126595Y0188747D01*
X0126595Y0189745D02*
X0135688Y0189745D01*
X0135433Y0190744D02*
X0126595Y0190744D01*
X0126595Y0191743D02*
X0139595Y0191743D01*
X0139595Y0190744D02*
X0140595Y0190744D01*
X0140595Y0189745D02*
X0139595Y0189745D01*
X0139595Y0188747D02*
X0140595Y0188747D01*
X0140595Y0187748D02*
X0139595Y0187748D01*
X0143041Y0187748D02*
X0147398Y0187748D01*
X0146399Y0188747D02*
X0143969Y0188747D01*
X0144502Y0189745D02*
X0145910Y0189745D01*
X0145583Y0190744D02*
X0144757Y0190744D01*
X0145583Y0191743D02*
X0140595Y0191743D01*
X0144209Y0193740D02*
X0146166Y0193740D01*
X0145753Y0192741D02*
X0144625Y0192741D01*
X0143455Y0194738D02*
X0147018Y0194738D01*
X0136736Y0194738D02*
X0126595Y0194738D01*
X0126595Y0193740D02*
X0135981Y0193740D01*
X0135565Y0192741D02*
X0126595Y0192741D01*
X0126595Y0185751D02*
X0158295Y0185751D01*
X0157369Y0184753D02*
X0126595Y0184753D01*
X0129907Y0183754D02*
X0148871Y0183754D01*
X0147872Y0182756D02*
X0130912Y0182756D01*
X0131326Y0181757D02*
X0146874Y0181757D01*
X0145875Y0180759D02*
X0131395Y0180759D01*
X0131312Y0179760D02*
X0135926Y0179760D01*
X0135646Y0178762D02*
X0130898Y0178762D01*
X0130376Y0177763D02*
X0135646Y0177763D01*
X0135646Y0176765D02*
X0129378Y0176765D01*
X0127389Y0175766D02*
X0136030Y0175766D01*
X0135295Y0174768D02*
X0126595Y0174768D01*
X0126595Y0173769D02*
X0135295Y0173769D01*
X0135505Y0172771D02*
X0126595Y0172771D01*
X0126595Y0171772D02*
X0135745Y0171772D01*
X0135745Y0170774D02*
X0126595Y0170774D01*
X0126595Y0169775D02*
X0136637Y0169775D01*
X0143048Y0172386D02*
X0143048Y0166533D01*
X0145016Y0166533D02*
X0145095Y0166612D01*
X0145095Y0171433D01*
X0151845Y0178183D01*
X0162345Y0178183D01*
X0165345Y0175183D01*
X0167016Y0176765D02*
X0192391Y0176765D01*
X0192466Y0176947D02*
X0191545Y0174723D01*
X0191545Y0172316D01*
X0192466Y0170093D01*
X0194168Y0168391D01*
X0196392Y0167470D01*
X0198799Y0167470D01*
X0201022Y0168391D01*
X0202724Y0170093D01*
X0203645Y0172316D01*
X0203645Y0174723D01*
X0202724Y0176947D01*
X0201022Y0178649D01*
X0198799Y0179570D01*
X0196392Y0179570D01*
X0194168Y0178649D01*
X0192466Y0176947D01*
X0193283Y0177763D02*
X0165310Y0177763D01*
X0164312Y0178762D02*
X0194441Y0178762D01*
X0191977Y0175766D02*
X0167645Y0175766D01*
X0167645Y0174768D02*
X0191564Y0174768D01*
X0191545Y0173769D02*
X0167184Y0173769D01*
X0164175Y0179760D02*
X0213545Y0179760D01*
X0213545Y0178762D02*
X0200749Y0178762D01*
X0201907Y0177763D02*
X0213545Y0177763D01*
X0213545Y0176765D02*
X0202799Y0176765D01*
X0203213Y0175766D02*
X0213545Y0175766D01*
X0213545Y0174768D02*
X0203627Y0174768D01*
X0203645Y0173769D02*
X0213545Y0173769D01*
X0213545Y0172771D02*
X0203645Y0172771D01*
X0203420Y0171772D02*
X0213545Y0171772D01*
X0213545Y0170774D02*
X0203006Y0170774D01*
X0202407Y0169775D02*
X0213545Y0169775D01*
X0213545Y0168777D02*
X0201408Y0168777D01*
X0199543Y0167778D02*
X0213545Y0167778D01*
X0213545Y0166780D02*
X0184695Y0166780D01*
X0184695Y0165781D02*
X0196370Y0165781D01*
X0196392Y0165790D02*
X0194168Y0164869D01*
X0192466Y0163167D01*
X0191545Y0160944D01*
X0191545Y0158537D01*
X0192466Y0156313D01*
X0194168Y0154611D01*
X0196392Y0153690D01*
X0198799Y0153690D01*
X0201022Y0154611D01*
X0202724Y0156313D01*
X0203645Y0158537D01*
X0203645Y0160944D01*
X0202724Y0163167D01*
X0201022Y0164869D01*
X0198799Y0165790D01*
X0196392Y0165790D01*
X0195647Y0167778D02*
X0184220Y0167778D01*
X0183221Y0168777D02*
X0193782Y0168777D01*
X0192784Y0169775D02*
X0182223Y0169775D01*
X0181224Y0170774D02*
X0192184Y0170774D01*
X0191770Y0171772D02*
X0180226Y0171772D01*
X0179227Y0172771D02*
X0191545Y0172771D01*
X0194082Y0164783D02*
X0184695Y0164783D01*
X0184695Y0163784D02*
X0193083Y0163784D01*
X0192308Y0162786D02*
X0184695Y0162786D01*
X0184695Y0161787D02*
X0191895Y0161787D01*
X0191545Y0160789D02*
X0184695Y0160789D01*
X0184695Y0159790D02*
X0191545Y0159790D01*
X0191545Y0158792D02*
X0184695Y0158792D01*
X0184695Y0157793D02*
X0191853Y0157793D01*
X0192267Y0156795D02*
X0184695Y0156795D01*
X0184695Y0155796D02*
X0192983Y0155796D01*
X0193982Y0154798D02*
X0184959Y0154798D01*
X0185047Y0153799D02*
X0196129Y0153799D01*
X0199062Y0153799D02*
X0213545Y0153799D01*
X0213545Y0152801D02*
X0185047Y0152801D01*
X0185047Y0151802D02*
X0213545Y0151802D01*
X0213545Y0150804D02*
X0184695Y0150804D01*
X0182645Y0153183D02*
X0182645Y0153883D01*
X0182595Y0153933D01*
X0180445Y0155796D02*
X0179796Y0155796D01*
X0180314Y0150804D02*
X0180495Y0150804D01*
X0180495Y0160789D02*
X0161496Y0160789D01*
X0161595Y0163433D02*
X0172430Y0163433D01*
X0170399Y0165233D02*
X0160850Y0165233D01*
X0159795Y0164179D01*
X0157850Y0162233D01*
X0157142Y0162233D01*
X0155795Y0160886D01*
X0155795Y0160179D01*
X0155795Y0160179D01*
X0155795Y0161266D01*
X0155795Y0165285D01*
X0154930Y0166150D01*
X0152822Y0166150D01*
X0152822Y0168047D01*
X0152812Y0168056D01*
X0152812Y0168268D01*
X0152722Y0168358D01*
X0152722Y0169014D01*
X0153175Y0169468D01*
X0153808Y0169468D01*
X0154142Y0169133D01*
X0156048Y0169133D01*
X0156223Y0169309D01*
X0156549Y0168983D01*
X0159642Y0168983D01*
X0159991Y0169333D01*
X0176725Y0169333D01*
X0180495Y0165563D01*
X0180495Y0165233D01*
X0178791Y0165233D01*
X0178110Y0165914D01*
X0175411Y0165914D01*
X0174595Y0165099D01*
X0173780Y0165914D01*
X0171080Y0165914D01*
X0170399Y0165233D01*
X0170947Y0165781D02*
X0155299Y0165781D01*
X0155795Y0164783D02*
X0160399Y0164783D01*
X0159401Y0163784D02*
X0155795Y0163784D01*
X0155795Y0162786D02*
X0158402Y0162786D01*
X0156697Y0161787D02*
X0155795Y0161787D01*
X0155795Y0160789D02*
X0155795Y0160789D01*
X0158095Y0159933D02*
X0156516Y0158354D01*
X0153195Y0158354D01*
X0150595Y0158792D02*
X0150595Y0158792D01*
X0150595Y0159790D02*
X0150595Y0159790D01*
X0150595Y0160789D02*
X0150595Y0160789D01*
X0150595Y0161787D02*
X0150595Y0161787D01*
X0150595Y0162786D02*
X0150433Y0162786D01*
X0150595Y0163784D02*
X0149425Y0163784D01*
X0150922Y0166533D02*
X0150922Y0169760D01*
X0152430Y0171268D01*
X0154930Y0171268D01*
X0155095Y0171433D01*
X0155260Y0171268D01*
X0158095Y0171268D01*
X0158095Y0175598D02*
X0153260Y0175598D01*
X0153095Y0175433D01*
X0146985Y0169323D01*
X0146985Y0166533D01*
X0152822Y0166780D02*
X0179279Y0166780D01*
X0180277Y0165781D02*
X0178243Y0165781D01*
X0178280Y0167778D02*
X0152822Y0167778D01*
X0152722Y0168777D02*
X0177282Y0168777D01*
X0175278Y0165781D02*
X0173912Y0165781D01*
X0176760Y0163433D02*
X0180595Y0163433D01*
X0182595Y0161433D01*
X0198820Y0165781D02*
X0213545Y0165781D01*
X0213545Y0164783D02*
X0201109Y0164783D01*
X0202107Y0163784D02*
X0213545Y0163784D01*
X0213545Y0162786D02*
X0202882Y0162786D01*
X0203296Y0161787D02*
X0213545Y0161787D01*
X0213545Y0160789D02*
X0203645Y0160789D01*
X0203645Y0159790D02*
X0213545Y0159790D01*
X0213545Y0158792D02*
X0203645Y0158792D01*
X0203337Y0157793D02*
X0213545Y0157793D01*
X0213545Y0156795D02*
X0202924Y0156795D01*
X0202207Y0155796D02*
X0213545Y0155796D01*
X0213545Y0154798D02*
X0201209Y0154798D01*
X0211931Y0140818D02*
X0213545Y0140818D01*
X0213545Y0139820D02*
X0212714Y0139820D01*
X0213041Y0138821D02*
X0213545Y0138821D01*
X0213545Y0137823D02*
X0213088Y0137823D01*
X0212812Y0136824D02*
X0213545Y0136824D01*
X0213545Y0135826D02*
X0212166Y0135826D01*
X0182595Y0127433D02*
X0179760Y0127433D01*
X0173045Y0119850D02*
X0168167Y0119850D01*
X0168167Y0120848D02*
X0171634Y0120848D01*
X0170636Y0121847D02*
X0168167Y0121847D01*
X0168014Y0118851D02*
X0173045Y0118851D01*
X0131237Y0135575D02*
X0130095Y0134433D01*
X0127760Y0134433D01*
X0129437Y0136588D02*
X0129110Y0136914D01*
X0126411Y0136914D01*
X0125595Y0136099D01*
X0124780Y0136914D01*
X0123829Y0136914D01*
X0123895Y0136980D01*
X0123895Y0137687D01*
X0125395Y0139187D01*
X0125395Y0140716D01*
X0127378Y0140716D01*
X0127378Y0138598D01*
X0128243Y0137733D01*
X0129437Y0137733D01*
X0129437Y0136588D01*
X0129437Y0136824D02*
X0129200Y0136824D01*
X0128153Y0137823D02*
X0124031Y0137823D01*
X0124869Y0136824D02*
X0126321Y0136824D01*
X0127378Y0138821D02*
X0125029Y0138821D01*
X0125395Y0139820D02*
X0127378Y0139820D01*
X0123595Y0139933D02*
X0121595Y0137933D01*
X0119295Y0137823D02*
X0116672Y0137823D01*
X0116995Y0138146D02*
X0115882Y0137033D01*
X0114986Y0136137D01*
X0115095Y0136027D01*
X0115541Y0136473D01*
X0119802Y0136473D01*
X0119295Y0136980D01*
X0119295Y0138886D01*
X0120642Y0140233D01*
X0121350Y0140233D01*
X0121795Y0140679D01*
X0121795Y0148179D01*
X0122850Y0149233D01*
X0123928Y0150312D01*
X0124395Y0150312D01*
X0124395Y0155046D01*
X0123882Y0154533D01*
X0123173Y0154533D01*
X0123073Y0154433D01*
X0123547Y0153959D01*
X0123547Y0150907D01*
X0123045Y0150405D01*
X0123045Y0150196D01*
X0121932Y0149083D01*
X0121932Y0149083D01*
X0116995Y0144146D01*
X0116995Y0138146D01*
X0116995Y0138821D02*
X0119295Y0138821D01*
X0120229Y0139820D02*
X0116995Y0139820D01*
X0116995Y0140818D02*
X0121795Y0140818D01*
X0121795Y0141817D02*
X0116995Y0141817D01*
X0116995Y0142815D02*
X0121795Y0142815D01*
X0121795Y0143814D02*
X0116995Y0143814D01*
X0117662Y0144812D02*
X0121795Y0144812D01*
X0121795Y0145811D02*
X0118660Y0145811D01*
X0119659Y0146810D02*
X0121795Y0146810D01*
X0121795Y0147808D02*
X0120657Y0147808D01*
X0121656Y0148807D02*
X0122423Y0148807D01*
X0122654Y0149805D02*
X0123422Y0149805D01*
X0123444Y0150804D02*
X0124395Y0150804D01*
X0124395Y0151802D02*
X0123547Y0151802D01*
X0123547Y0152801D02*
X0124395Y0152801D01*
X0124395Y0153799D02*
X0123547Y0153799D01*
X0124147Y0154798D02*
X0124395Y0154798D01*
X0129595Y0154798D02*
X0129595Y0154798D01*
X0129595Y0155796D02*
X0129595Y0155796D01*
X0129595Y0156795D02*
X0129595Y0156795D01*
X0129595Y0157793D02*
X0129595Y0157793D01*
X0126995Y0162291D02*
X0125803Y0162291D01*
X0123295Y0162283D01*
X0126995Y0164260D02*
X0128143Y0164260D01*
X0129595Y0163433D01*
X0127378Y0166780D02*
X0126595Y0166780D01*
X0126595Y0167778D02*
X0127378Y0167778D01*
X0127887Y0168777D02*
X0126595Y0168777D01*
X0143048Y0172386D02*
X0150595Y0179933D01*
X0161095Y0179933D01*
X0162595Y0181433D01*
X0160295Y0181757D02*
X0159465Y0181757D01*
X0160464Y0182756D02*
X0160665Y0182756D01*
X0161462Y0183754D02*
X0213545Y0183754D01*
X0213545Y0182756D02*
X0164525Y0182756D01*
X0164895Y0181757D02*
X0213545Y0181757D01*
X0213545Y0180759D02*
X0164895Y0180759D01*
X0161895Y0184753D02*
X0213545Y0184753D01*
X0213545Y0185751D02*
X0161895Y0185751D01*
X0161895Y0186750D02*
X0213545Y0186750D01*
X0213545Y0187748D02*
X0194608Y0187748D01*
X0194608Y0188747D02*
X0213545Y0188747D01*
X0213545Y0189745D02*
X0194608Y0189745D01*
X0194608Y0190744D02*
X0213545Y0190744D01*
X0213509Y0191743D02*
X0194608Y0191743D01*
X0194608Y0192741D02*
X0213194Y0192741D01*
X0212538Y0193740D02*
X0194608Y0193740D01*
X0194608Y0194738D02*
X0210892Y0194738D01*
X0185583Y0194738D02*
X0183172Y0194738D01*
X0184024Y0193740D02*
X0185583Y0193740D01*
X0185583Y0192741D02*
X0184438Y0192741D01*
X0184608Y0191743D02*
X0185583Y0191743D01*
X0185583Y0190744D02*
X0184608Y0190744D01*
X0184281Y0189745D02*
X0185583Y0189745D01*
X0185583Y0188747D02*
X0183791Y0188747D01*
X0182792Y0187748D02*
X0185583Y0187748D01*
X0177398Y0187748D02*
X0172792Y0187748D01*
X0173791Y0188747D02*
X0176399Y0188747D01*
X0175910Y0189745D02*
X0174281Y0189745D01*
X0174608Y0190744D02*
X0175583Y0190744D01*
X0175583Y0191743D02*
X0174608Y0191743D01*
X0174438Y0192741D02*
X0175753Y0192741D01*
X0176166Y0193740D02*
X0174024Y0193740D01*
X0173172Y0194738D02*
X0177018Y0194738D01*
X0167018Y0194738D02*
X0163172Y0194738D01*
X0164024Y0193740D02*
X0166166Y0193740D01*
X0165753Y0192741D02*
X0164438Y0192741D01*
X0164608Y0191743D02*
X0165583Y0191743D01*
X0165583Y0190744D02*
X0164608Y0190744D01*
X0164281Y0189745D02*
X0165910Y0189745D01*
X0166399Y0188747D02*
X0163791Y0188747D01*
X0162792Y0187748D02*
X0167398Y0187748D01*
X0144877Y0179760D02*
X0144264Y0179760D01*
X0140257Y0179760D02*
X0139933Y0179760D01*
X0117595Y0185530D02*
X0117595Y0186433D01*
X0150595Y0157793D02*
X0150595Y0157793D01*
X0150595Y0156795D02*
X0150595Y0156795D01*
X0150595Y0155796D02*
X0150595Y0155796D01*
X0150595Y0154798D02*
X0150595Y0154798D01*
X0158095Y0159933D02*
X0161595Y0163433D01*
X0126995Y0148512D02*
X0124674Y0148512D01*
X0123595Y0147433D01*
X0123595Y0139933D01*
X0119451Y0136824D02*
X0115673Y0136824D01*
X0113195Y0139720D02*
X0110242Y0136767D01*
X0110242Y0136473D01*
X0110095Y0136473D01*
X0110095Y0156433D01*
X0116979Y0156433D01*
X0116979Y0156382D01*
X0117081Y0156382D01*
X0117081Y0152484D01*
X0116979Y0152484D01*
X0116979Y0155114D01*
X0116979Y0156382D01*
X0114427Y0156382D01*
X0114427Y0155342D01*
X0114552Y0154876D01*
X0114793Y0154459D01*
X0114819Y0154433D01*
X0114793Y0154408D01*
X0114552Y0153990D01*
X0114427Y0153524D01*
X0114427Y0152484D01*
X0116979Y0152484D01*
X0116979Y0152382D01*
X0117081Y0152382D01*
X0117081Y0149752D01*
X0117227Y0149752D01*
X0114308Y0146833D01*
X0113195Y0145720D01*
X0113195Y0139720D01*
X0113195Y0139820D02*
X0110095Y0139820D01*
X0110095Y0140818D02*
X0113195Y0140818D01*
X0113195Y0141817D02*
X0110095Y0141817D01*
X0110095Y0142815D02*
X0113195Y0142815D01*
X0113195Y0143814D02*
X0110095Y0143814D01*
X0110095Y0144812D02*
X0113195Y0144812D01*
X0113286Y0145811D02*
X0110095Y0145811D01*
X0110095Y0146810D02*
X0114285Y0146810D01*
X0115283Y0147808D02*
X0110095Y0147808D01*
X0110095Y0148807D02*
X0116282Y0148807D01*
X0116017Y0149752D02*
X0116979Y0149752D01*
X0116979Y0152382D01*
X0114427Y0152382D01*
X0114427Y0151342D01*
X0114552Y0150876D01*
X0114793Y0150459D01*
X0115134Y0150118D01*
X0115552Y0149877D01*
X0116017Y0149752D01*
X0115819Y0149805D02*
X0110095Y0149805D01*
X0110095Y0150804D02*
X0114594Y0150804D01*
X0114427Y0151802D02*
X0110095Y0151802D01*
X0110095Y0152801D02*
X0114427Y0152801D01*
X0114501Y0153799D02*
X0110095Y0153799D01*
X0110095Y0154798D02*
X0114597Y0154798D01*
X0114427Y0155796D02*
X0110095Y0155796D01*
X0116979Y0155796D02*
X0117081Y0155796D01*
X0117081Y0154798D02*
X0116979Y0154798D01*
X0116979Y0153799D02*
X0117081Y0153799D01*
X0117081Y0152801D02*
X0116979Y0152801D01*
X0116979Y0151802D02*
X0117081Y0151802D01*
X0117081Y0150804D02*
X0116979Y0150804D01*
X0116979Y0149805D02*
X0117081Y0149805D01*
X0112296Y0138821D02*
X0110095Y0138821D01*
X0110095Y0137823D02*
X0111298Y0137823D01*
X0110299Y0136824D02*
X0110095Y0136824D01*
X0118048Y0133598D02*
X0120760Y0133598D01*
X0121595Y0134433D01*
X0123430Y0134433D01*
D35*
X0120595Y0141433D03*
X0118595Y0143433D03*
X0120595Y0145433D03*
X0135095Y0148433D03*
X0135095Y0153433D03*
X0135095Y0158433D03*
X0140095Y0158433D03*
X0145095Y0158433D03*
X0145095Y0153433D03*
X0140095Y0153433D03*
X0140095Y0148433D03*
X0145095Y0148433D03*
X0171095Y0152433D03*
X0173095Y0154933D03*
X0174595Y0152433D03*
X0188595Y0147933D03*
X0190095Y0150433D03*
X0191595Y0147933D03*
X0159720Y0125558D03*
X0159720Y0122058D03*
X0155720Y0122058D03*
X0155720Y0125558D03*
X0115595Y0118933D03*
X0113095Y0116933D03*
X0113095Y0120933D03*
X0131595Y0170433D03*
X0133095Y0172933D03*
X0134595Y0170433D03*
X0166595Y0178933D03*
X0168595Y0181433D03*
X0170595Y0178933D03*
X0201595Y0186933D03*
X0204095Y0184433D03*
X0206595Y0186933D03*
D36*
X0191095Y0170433D03*
X0176095Y0167933D03*
X0168595Y0167933D03*
X0169095Y0160433D03*
X0172595Y0158433D03*
X0168095Y0147933D03*
X0158595Y0156933D03*
X0158095Y0159933D03*
X0156095Y0167933D03*
X0155095Y0171433D03*
X0153095Y0175433D03*
X0162595Y0181433D03*
X0154095Y0187433D03*
X0165345Y0175183D03*
X0137595Y0173933D03*
X0131095Y0176933D03*
X0132595Y0182933D03*
X0122970Y0184183D03*
X0128095Y0191933D03*
X0118095Y0194183D03*
X0112095Y0187933D03*
X0112095Y0182933D03*
X0112095Y0177933D03*
X0112095Y0172933D03*
X0112095Y0167933D03*
X0112095Y0162933D03*
X0117595Y0159933D03*
X0112095Y0158433D03*
X0111095Y0151933D03*
X0112095Y0147933D03*
X0112095Y0142933D03*
X0121595Y0137933D03*
X0126095Y0138308D03*
X0137595Y0133933D03*
X0140095Y0136433D03*
X0143095Y0133933D03*
X0146095Y0136933D03*
X0149595Y0131433D03*
X0145595Y0128933D03*
X0153095Y0137433D03*
X0168095Y0135933D03*
X0175595Y0135433D03*
X0182595Y0127433D03*
X0188595Y0121433D03*
X0184095Y0120433D03*
X0175345Y0119183D03*
X0175095Y0114433D03*
X0175095Y0110433D03*
X0170095Y0114933D03*
X0165595Y0115933D03*
X0165095Y0104933D03*
X0151095Y0113933D03*
X0149095Y0115933D03*
X0146095Y0118683D03*
X0140345Y0113683D03*
X0147595Y0110433D03*
X0132595Y0111433D03*
X0184095Y0107933D03*
X0192095Y0112433D03*
X0182595Y0143933D03*
X0209845Y0156058D03*
X0126095Y0170433D03*
X0122095Y0167933D03*
X0122095Y0172933D03*
D37*
X0120464Y0172862D02*
X0127595Y0172862D01*
X0127595Y0172264D02*
X0120464Y0172264D01*
X0120464Y0171665D02*
X0127595Y0171665D01*
X0127595Y0171067D02*
X0120464Y0171067D01*
X0120464Y0170468D02*
X0127595Y0170468D01*
X0127595Y0169870D02*
X0120464Y0169870D01*
X0120464Y0169271D02*
X0127595Y0169271D01*
X0127595Y0168673D02*
X0120464Y0168673D01*
X0120464Y0168074D02*
X0127595Y0168074D01*
X0127595Y0167476D02*
X0120464Y0167476D01*
X0120464Y0167283D02*
X0120464Y0179407D01*
X0120399Y0179564D01*
X0120399Y0181206D01*
X0120395Y0181209D01*
X0119868Y0181737D01*
X0115322Y0181737D01*
X0115319Y0181733D01*
X0115126Y0181733D01*
X0114599Y0181206D01*
X0114599Y0176660D01*
X0114727Y0176532D01*
X0114727Y0165718D01*
X0115925Y0162826D01*
X0118138Y0160612D01*
X0121030Y0159415D01*
X0123866Y0159415D01*
X0124019Y0159478D01*
X0122741Y0158200D01*
X0122427Y0158514D01*
X0119864Y0158514D01*
X0119300Y0157950D01*
X0119106Y0158285D01*
X0118803Y0158588D01*
X0118431Y0158803D01*
X0118016Y0158914D01*
X0117281Y0158914D01*
X0117281Y0156684D01*
X0116779Y0156684D01*
X0116779Y0158914D01*
X0116043Y0158914D01*
X0115629Y0158803D01*
X0115257Y0158588D01*
X0114953Y0158285D01*
X0114739Y0157913D01*
X0114627Y0157498D01*
X0114627Y0156684D01*
X0116779Y0156684D01*
X0116779Y0156433D01*
X0110095Y0156433D01*
X0110095Y0190867D01*
X0110615Y0190844D01*
X0112027Y0190436D01*
X0113244Y0189612D01*
X0114146Y0188452D01*
X0114646Y0187071D01*
X0114728Y0186338D01*
X0114747Y0185768D01*
X0114795Y0185662D01*
X0114795Y0183157D01*
X0115322Y0182630D01*
X0119868Y0182630D01*
X0120395Y0183157D01*
X0120395Y0185729D01*
X0120481Y0185958D01*
X0120462Y0186528D01*
X0120407Y0188179D01*
X0120407Y0188179D01*
X0119283Y0191287D01*
X0119283Y0191287D01*
X0117253Y0193895D01*
X0117253Y0193895D01*
X0117253Y0193895D01*
X0115499Y0195083D01*
X0127595Y0195083D01*
X0127595Y0183833D01*
X0127518Y0183833D01*
X0126452Y0183392D01*
X0125637Y0182576D01*
X0125316Y0181802D01*
X0123621Y0181802D01*
X0123456Y0181733D01*
X0121819Y0181733D01*
X0121292Y0181206D01*
X0121292Y0176660D01*
X0121819Y0176133D01*
X0123456Y0176133D01*
X0123621Y0176065D01*
X0127064Y0176065D01*
X0127595Y0176285D01*
X0127595Y0165750D01*
X0125426Y0165750D01*
X0124795Y0165119D01*
X0124795Y0164767D01*
X0123866Y0165152D01*
X0122595Y0165152D01*
X0122179Y0165193D01*
X0121411Y0165511D01*
X0120823Y0166099D01*
X0120505Y0166867D01*
X0120464Y0167283D01*
X0120504Y0166877D02*
X0127595Y0166877D01*
X0127595Y0166279D02*
X0120748Y0166279D01*
X0121242Y0165680D02*
X0125356Y0165680D01*
X0124795Y0165081D02*
X0124035Y0165081D01*
X0120353Y0159695D02*
X0110095Y0159695D01*
X0110095Y0160293D02*
X0118908Y0160293D01*
X0118138Y0160612D02*
X0118138Y0160612D01*
X0117859Y0160892D02*
X0110095Y0160892D01*
X0110095Y0161490D02*
X0117260Y0161490D01*
X0116662Y0162089D02*
X0110095Y0162089D01*
X0110095Y0162687D02*
X0116063Y0162687D01*
X0115925Y0162826D02*
X0115925Y0162826D01*
X0115734Y0163286D02*
X0110095Y0163286D01*
X0110095Y0163884D02*
X0115486Y0163884D01*
X0115238Y0164483D02*
X0110095Y0164483D01*
X0110095Y0165081D02*
X0114990Y0165081D01*
X0114742Y0165680D02*
X0110095Y0165680D01*
X0110095Y0166279D02*
X0114727Y0166279D01*
X0114727Y0166877D02*
X0110095Y0166877D01*
X0110095Y0167476D02*
X0114727Y0167476D01*
X0114727Y0168074D02*
X0110095Y0168074D01*
X0110095Y0168673D02*
X0114727Y0168673D01*
X0114727Y0169271D02*
X0110095Y0169271D01*
X0110095Y0169870D02*
X0114727Y0169870D01*
X0114727Y0170468D02*
X0110095Y0170468D01*
X0110095Y0171067D02*
X0114727Y0171067D01*
X0114727Y0171665D02*
X0110095Y0171665D01*
X0110095Y0172264D02*
X0114727Y0172264D01*
X0114727Y0172862D02*
X0110095Y0172862D01*
X0110095Y0173461D02*
X0114727Y0173461D01*
X0114727Y0174059D02*
X0110095Y0174059D01*
X0110095Y0174658D02*
X0114727Y0174658D01*
X0114727Y0175256D02*
X0110095Y0175256D01*
X0110095Y0175855D02*
X0114727Y0175855D01*
X0114727Y0176453D02*
X0110095Y0176453D01*
X0110095Y0177052D02*
X0114599Y0177052D01*
X0114599Y0177650D02*
X0110095Y0177650D01*
X0110095Y0178249D02*
X0114599Y0178249D01*
X0114599Y0178847D02*
X0110095Y0178847D01*
X0110095Y0179446D02*
X0114599Y0179446D01*
X0114599Y0180044D02*
X0110095Y0180044D01*
X0110095Y0180643D02*
X0114599Y0180643D01*
X0114634Y0181241D02*
X0110095Y0181241D01*
X0110095Y0181840D02*
X0125332Y0181840D01*
X0125580Y0182438D02*
X0110095Y0182438D01*
X0110095Y0183037D02*
X0114915Y0183037D01*
X0114795Y0183635D02*
X0110095Y0183635D01*
X0110095Y0184234D02*
X0114795Y0184234D01*
X0114795Y0184832D02*
X0110095Y0184832D01*
X0110095Y0185431D02*
X0114795Y0185431D01*
X0114738Y0186029D02*
X0110095Y0186029D01*
X0110095Y0186628D02*
X0114696Y0186628D01*
X0114590Y0187226D02*
X0110095Y0187226D01*
X0110095Y0187825D02*
X0114373Y0187825D01*
X0114157Y0188423D02*
X0110095Y0188423D01*
X0110095Y0189022D02*
X0113703Y0189022D01*
X0113231Y0189620D02*
X0110095Y0189620D01*
X0110095Y0190219D02*
X0112347Y0190219D01*
X0110706Y0190817D02*
X0110095Y0190817D01*
X0115611Y0195007D02*
X0127595Y0195007D01*
X0127595Y0194409D02*
X0116495Y0194409D01*
X0117319Y0193810D02*
X0127595Y0193810D01*
X0127595Y0193212D02*
X0117785Y0193212D01*
X0118251Y0192613D02*
X0127595Y0192613D01*
X0127595Y0192014D02*
X0118717Y0192014D01*
X0119183Y0191416D02*
X0127595Y0191416D01*
X0127595Y0190817D02*
X0119453Y0190817D01*
X0119669Y0190219D02*
X0127595Y0190219D01*
X0127595Y0189620D02*
X0119886Y0189620D01*
X0120103Y0189022D02*
X0127595Y0189022D01*
X0127595Y0188423D02*
X0120319Y0188423D01*
X0120419Y0187825D02*
X0127595Y0187825D01*
X0127595Y0187226D02*
X0120439Y0187226D01*
X0120459Y0186628D02*
X0127595Y0186628D01*
X0127595Y0186029D02*
X0120479Y0186029D01*
X0120395Y0185431D02*
X0127595Y0185431D01*
X0127595Y0184832D02*
X0120395Y0184832D01*
X0120395Y0184234D02*
X0127595Y0184234D01*
X0127041Y0183635D02*
X0120395Y0183635D01*
X0120275Y0183037D02*
X0126098Y0183037D01*
X0121327Y0181241D02*
X0120363Y0181241D01*
X0120399Y0180643D02*
X0121292Y0180643D01*
X0121292Y0180044D02*
X0120399Y0180044D01*
X0120448Y0179446D02*
X0121292Y0179446D01*
X0121292Y0178847D02*
X0120464Y0178847D01*
X0120464Y0178249D02*
X0121292Y0178249D01*
X0121292Y0177650D02*
X0120464Y0177650D01*
X0120464Y0177052D02*
X0121292Y0177052D01*
X0121499Y0176453D02*
X0120464Y0176453D01*
X0120464Y0175855D02*
X0127595Y0175855D01*
X0127595Y0175256D02*
X0120464Y0175256D01*
X0120464Y0174658D02*
X0127595Y0174658D01*
X0127595Y0174059D02*
X0120464Y0174059D01*
X0120464Y0173461D02*
X0127595Y0173461D01*
X0123637Y0159096D02*
X0110095Y0159096D01*
X0110095Y0158498D02*
X0115166Y0158498D01*
X0114735Y0157899D02*
X0110095Y0157899D01*
X0110095Y0157301D02*
X0114627Y0157301D01*
X0114627Y0156702D02*
X0110095Y0156702D01*
X0116779Y0156702D02*
X0117281Y0156702D01*
X0117281Y0157301D02*
X0116779Y0157301D01*
X0116779Y0157899D02*
X0117281Y0157899D01*
X0117281Y0158498D02*
X0116779Y0158498D01*
X0118893Y0158498D02*
X0119847Y0158498D01*
X0122443Y0158498D02*
X0123039Y0158498D01*
D38*
X0112142Y0133933D02*
X0112142Y0133598D01*
X0165145Y0147933D02*
X0168095Y0147933D01*
X0168845Y0147683D01*
X0172467Y0147683D01*
X0172477Y0147673D01*
X0182595Y0147555D02*
X0182595Y0143933D01*
X0182595Y0147555D02*
X0182714Y0147673D01*
X0182595Y0147792D01*
X0182595Y0153933D01*
X0182595Y0156433D01*
X0182595Y0161433D01*
X0182595Y0166433D01*
X0177595Y0171433D01*
X0158260Y0171433D01*
X0158095Y0171268D01*
X0182545Y0156483D02*
X0182595Y0156433D01*
X0172477Y0140193D02*
X0172477Y0137315D01*
X0171095Y0135933D01*
X0168095Y0135933D01*
X0175345Y0119183D02*
X0182845Y0111683D01*
X0182930Y0111768D01*
X0182930Y0115433D01*
X0187260Y0115433D02*
X0188595Y0115433D01*
X0191977Y0118815D01*
X0196276Y0118815D01*
X0196276Y0121374D02*
X0193717Y0121433D01*
X0192595Y0128933D02*
X0192713Y0129051D01*
X0196276Y0129051D01*
X0207595Y0119209D02*
X0207595Y0109661D01*
X0190095Y0108933D02*
X0190095Y0101433D01*
X0190095Y0108933D02*
X0187595Y0111433D01*
X0183095Y0111433D01*
X0182845Y0111683D01*
D39*
X0159595Y0133433D02*
X0159595Y0133933D01*
X0161095Y0135933D01*
X0165595Y0135933D01*
X0163785Y0137743D01*
X0163785Y0139808D01*
X0165595Y0135933D02*
X0168095Y0135933D01*
X0161095Y0135933D02*
X0160660Y0135933D01*
X0141095Y0137433D02*
X0140095Y0136433D01*
X0141095Y0137433D02*
X0141095Y0140317D01*
X0121145Y0150983D02*
X0121145Y0152433D01*
X0121145Y0156433D01*
X0123095Y0156433D01*
X0125016Y0158354D01*
X0126995Y0158354D01*
X0126995Y0160323D01*
X0121145Y0150983D02*
X0115095Y0144933D01*
X0115095Y0138933D01*
X0112142Y0135980D01*
X0112142Y0133933D01*
X0112142Y0133598D02*
X0112142Y0133480D01*
X0150922Y0166533D02*
X0150922Y0167260D01*
X0137930Y0174268D02*
X0137930Y0177933D01*
X0137930Y0174268D02*
X0137595Y0173933D01*
X0117595Y0178837D02*
X0117499Y0178933D01*
D40*
X0133205Y0166533D02*
X0133205Y0164543D01*
X0132595Y0163933D01*
X0138595Y0163933D01*
X0139111Y0164449D01*
X0139111Y0166533D01*
X0139111Y0169917D01*
X0137595Y0171433D01*
X0137595Y0173933D01*
X0132595Y0163933D02*
X0130595Y0163933D01*
X0129595Y0162933D01*
X0129595Y0163433D01*
X0129595Y0162933D02*
X0129595Y0160933D01*
X0128985Y0160323D01*
X0126995Y0160323D01*
D41*
X0128095Y0180933D03*
D42*
X0128093Y0180846D01*
X0128087Y0180759D01*
X0128078Y0180672D01*
X0128065Y0180586D01*
X0128048Y0180500D01*
X0128027Y0180415D01*
X0128002Y0180332D01*
X0127974Y0180249D01*
X0127943Y0180168D01*
X0127908Y0180088D01*
X0127869Y0180010D01*
X0127827Y0179933D01*
X0127782Y0179858D01*
X0127733Y0179786D01*
X0127682Y0179715D01*
X0127627Y0179647D01*
X0127570Y0179582D01*
X0127509Y0179519D01*
X0127446Y0179458D01*
X0127381Y0179401D01*
X0127313Y0179346D01*
X0127242Y0179295D01*
X0127170Y0179246D01*
X0127095Y0179201D01*
X0127018Y0179159D01*
X0126940Y0179120D01*
X0126860Y0179085D01*
X0126779Y0179054D01*
X0126696Y0179026D01*
X0126613Y0179001D01*
X0126528Y0178980D01*
X0126442Y0178963D01*
X0126356Y0178950D01*
X0126269Y0178941D01*
X0126182Y0178935D01*
X0126095Y0178933D01*
X0124192Y0178933D01*
X0117595Y0178837D02*
X0117595Y0167283D01*
X0117597Y0167143D01*
X0117603Y0167003D01*
X0117613Y0166863D01*
X0117626Y0166723D01*
X0117644Y0166584D01*
X0117666Y0166445D01*
X0117691Y0166308D01*
X0117720Y0166170D01*
X0117753Y0166034D01*
X0117790Y0165899D01*
X0117831Y0165765D01*
X0117876Y0165632D01*
X0117924Y0165500D01*
X0117976Y0165370D01*
X0118031Y0165241D01*
X0118090Y0165114D01*
X0118153Y0164988D01*
X0118219Y0164864D01*
X0118288Y0164743D01*
X0118361Y0164623D01*
X0118438Y0164505D01*
X0118517Y0164390D01*
X0118600Y0164276D01*
X0118686Y0164166D01*
X0118775Y0164057D01*
X0118867Y0163951D01*
X0118962Y0163848D01*
X0119059Y0163747D01*
X0119160Y0163650D01*
X0119263Y0163555D01*
X0119369Y0163463D01*
X0119478Y0163374D01*
X0119588Y0163288D01*
X0119702Y0163205D01*
X0119817Y0163126D01*
X0119935Y0163049D01*
X0120055Y0162976D01*
X0120176Y0162907D01*
X0120300Y0162841D01*
X0120426Y0162778D01*
X0120553Y0162719D01*
X0120682Y0162664D01*
X0120812Y0162612D01*
X0120944Y0162564D01*
X0121077Y0162519D01*
X0121211Y0162478D01*
X0121346Y0162441D01*
X0121482Y0162408D01*
X0121620Y0162379D01*
X0121757Y0162354D01*
X0121896Y0162332D01*
X0122035Y0162314D01*
X0122175Y0162301D01*
X0122315Y0162291D01*
X0122455Y0162285D01*
X0122595Y0162283D01*
X0123295Y0162283D01*
X0117595Y0186433D02*
X0117587Y0186616D01*
X0117574Y0186798D01*
X0117557Y0186980D01*
X0117535Y0187162D01*
X0117510Y0187343D01*
X0117479Y0187523D01*
X0117445Y0187702D01*
X0117406Y0187881D01*
X0117363Y0188059D01*
X0117315Y0188235D01*
X0117264Y0188411D01*
X0117208Y0188585D01*
X0117148Y0188757D01*
X0117083Y0188928D01*
X0117015Y0189098D01*
X0116942Y0189266D01*
X0116866Y0189432D01*
X0116785Y0189596D01*
X0116701Y0189758D01*
X0116613Y0189918D01*
X0116520Y0190076D01*
X0116425Y0190232D01*
X0116325Y0190385D01*
X0116221Y0190536D01*
X0116114Y0190684D01*
X0116004Y0190829D01*
X0115890Y0190972D01*
X0115772Y0191112D01*
X0115652Y0191250D01*
X0115528Y0191384D01*
X0115400Y0191515D01*
X0115270Y0191643D01*
X0115136Y0191768D01*
X0115000Y0191890D01*
X0114861Y0192008D01*
X0114718Y0192123D01*
X0114574Y0192235D01*
X0114426Y0192342D01*
X0114276Y0192447D01*
X0114123Y0192547D01*
X0113968Y0192644D01*
X0113811Y0192738D01*
X0113652Y0192827D01*
X0113490Y0192912D01*
X0113326Y0192994D01*
X0113161Y0193072D01*
X0112993Y0193145D01*
X0112824Y0193215D01*
X0112654Y0193280D01*
X0112481Y0193341D01*
X0112308Y0193398D01*
X0112133Y0193451D01*
X0111956Y0193500D01*
X0111779Y0193544D01*
X0111601Y0193584D01*
X0111421Y0193620D01*
X0111241Y0193651D01*
X0111060Y0193678D01*
X0110879Y0193701D01*
X0110697Y0193719D01*
X0110515Y0193733D01*
X0110332Y0193742D01*
X0110150Y0193747D01*
X0109967Y0193748D01*
X0109784Y0193744D01*
X0094540Y0193744D01*
D43*
X0123295Y0162291D02*
X0123295Y0162283D01*
M02*
